<svg xmlns="http://www.w3.org/2000/svg" xmlns:xlink="http://www.w3.org/1999/xlink" viewBox="0 0 400 257.22"><defs><linearGradient id="j"><stop offset="0" stop-color="#f2f2f2"/><stop offset=".68" stop-color="#e6e6e6" stop-opacity=".93"/><stop offset="1" stop-color="#f2f2f2" stop-opacity="0"/></linearGradient><linearGradient id="g"><stop offset="0" stop-color="#f6dfbc"/><stop offset="1" stop-color="#f6dfbc" stop-opacity="0"/></linearGradient><linearGradient id="f"><stop offset="0" stop-color="#b85510"/><stop offset="1" stop-color="#b6550f" stop-opacity="0"/></linearGradient><linearGradient id="e"><stop offset="0" stop-color="#c8ab37"/><stop offset="1" stop-color="#cf0"/></linearGradient><linearGradient id="a"><stop offset="0" stop-color="#784421"/><stop offset=".18" stop-color="#784421"/><stop offset=".5" stop-color="#502d16"/><stop offset=".83" stop-color="#784421"/><stop offset="1" stop-color="#784421"/></linearGradient><linearGradient id="h"><stop offset="0" stop-color="#ff2a2a"/><stop offset=".56" stop-color="#2ca05a"/><stop offset=".81" stop-color="#08a"/><stop offset="1" stop-color="#ff7f2a"/></linearGradient><linearGradient id="o" x1="144.25" x2="183.21" y1="187.84" y2="187.84" gradientUnits="userSpaceOnUse" xlink:href="#a"/><linearGradient id="b"><stop offset="0" stop-color="#f6dfbc" stop-opacity="0"/><stop offset="1" stop-color="#f6dfbc"/></linearGradient><linearGradient id="i"><stop offset="0" stop-color="#1a1a1a" stop-opacity="0"/><stop offset="1" stop-color="#1a1a1a"/></linearGradient><linearGradient id="c"><stop offset="0" stop-color="#252d61"/><stop offset="1" stop-color="#252d61" stop-opacity="0"/></linearGradient><linearGradient id="d"><stop offset="0" stop-color="#d1571a"/><stop offset="1" stop-color="#d1571a" stop-opacity="0"/></linearGradient><linearGradient id="x" x1="141.1" x2="240.16" y1="106.04" y2="127.03" gradientTransform="translate(207.76 438.05) scale(1.03434)" gradientUnits="userSpaceOnUse" xlink:href="#b"/><linearGradient id="s" x1="311.62" x2="321.81" y1="24.27" y2="24.27" gradientUnits="userSpaceOnUse" xlink:href="#c"/><linearGradient id="u" x1="477.1" x2="496.8" y1="98.48" y2="87.25" gradientUnits="userSpaceOnUse" xlink:href="#d"/><linearGradient id="l" x1="253.73" x2="261.87" y1="170.54" y2="170.54" gradientTransform="translate(-160.6 -109.2) scale(1.63356)" gradientUnits="userSpaceOnUse" xlink:href="#e"/><linearGradient id="w" x1="1264.28" x2="1253.97" y1="82.39" y2="-107.51" gradientUnits="userSpaceOnUse" xlink:href="#f"/><linearGradient id="q" x1="1264.28" x2="1253.97" y1="82.39" y2="-107.51" gradientUnits="userSpaceOnUse" xlink:href="#f"/><linearGradient id="p" x1="141.1" x2="240.16" y1="106.04" y2="127.03" gradientTransform="translate(207.76 438.05) scale(1.03434)" gradientUnits="userSpaceOnUse" xlink:href="#b"/><linearGradient id="r" x1="107.13" x2="245.2" y1="305.05" y2="378.05" gradientUnits="userSpaceOnUse" xlink:href="#g"/><linearGradient id="v" x1="542.4" x2="513.69" y1="43.99" y2="67.37" gradientUnits="userSpaceOnUse" xlink:href="#d"/><radialGradient id="m" cx="228.8" cy="285.14" r="76.66" fx="228.8" fy="285.14" gradientTransform="matrix(.96828 -.24988 .24049 .9319 -173 -91.06)" gradientUnits="userSpaceOnUse" xlink:href="#h"/><radialGradient id="t" cx="317.88" cy="24.33" r="1.7" fx="317.88" fy="24.33" gradientTransform="matrix(1 0 0 .78202 0 5.3)" gradientUnits="userSpaceOnUse" xlink:href="#i"/><radialGradient id="k" cx="222.25" cy="228.04" r="169.25" fx="222.25" fy="228.04" gradientTransform="matrix(1 0 0 .57312 0 92.13)" gradientUnits="userSpaceOnUse" xlink:href="#j"/><filter id="n" color-interpolation-filters="sRGB"><feColorMatrix type="hueRotate" values="0"/><feColorMatrix type="saturate" values="1"/><feColorMatrix values="2 -1 0 0 0 0 2 -1 0 0 -1 0 2 0 0 0 0 0 1 0"/></filter></defs><g transform="translate(0 -60.83)"><ellipse cx="227.25" cy="215.83" fill="url(#k)" rx="169.25" ry="97"/><path d="M242.37 67.72l-.76.7 24.26 26.48.77-.7zm89.4 1.15L313.62 93.7l.84.61 18.15-24.82z" style="line-height:normal;font-variant-ligatures:normal;font-variant-position:normal;font-variant-caps:normal;font-variant-numeric:normal;font-variant-alternates:normal;font-variant-east-asian:normal;font-feature-settings:normal;font-variation-settings:normal;text-indent:0;text-align:start;text-decoration-line:none;text-decoration-style:solid;text-decoration-color:#000;text-transform:none;text-orientation:mixed;white-space:normal;shape-padding:0;shape-margin:0;inline-size:0;isolation:auto;mix-blend-mode:normal;solid-color:#000;solid-opacity:1" fill="#6c5353" color="#000" enable-background="accumulate" font-family="sans-serif" font-weight="400" overflow="visible"/><path fill="#ac9393" d="M236.04 63.96c-3.32 10.33 10.39 6.64 10.22 1.95-.23-6.66-8.85-6.19-10.22-1.95zm90.37 5.85c-3.32-10.32 10.39-6.64 10.22-1.94-.23 6.66-8.85 6.18-10.22 1.94z"/><path fill="#e6e6e6" d="M379.08 190L375 210.67l15.66 2.6 4.28-21.8z"/><path d="M384.03 197.72c-.87 1.74 2.42 3.41 2.96.71.5-2.53-2.33-1.96-2.96-.7zm-1.51-1.97l2.34.73 1.25-4.67-2.42-.43zm5.36-3.67l-.94 4.76 2.55.63.85-4.82zM380.49 205.82l2.34.72 1.26-4.66-2.43-.43zm5.36-3.67l-.94 4.76 2.55.62.85-4.81z" fill="#1a1a1a"/><path fill="url(#l)" d="M256.98 169.44l-.17-1-2.93 2.74 1.8-.57-.03.71 5.14-1.78-.17 1.32 6.55-3.04-5.2.4.2-.77z" transform="translate(122.9 25.84) scale(1.03718)"/><path d="M346.57 209.48c-4.28 1.3-8.62 2.57-10.77 5.07a4.7 4.7 0 00-1.14 4.28c.13.45.48.82.77 1.22-.25.3-.58.56-.76.9a5.19 5.19 0 001.15 6.45 2.7 2.7 0 00-.08 2.18 6.8 6.8 0 001.47 2.26 16.1 16.1 0 004.35 3.08c-.54.86-.71 1.9-.17 2.9.69 1.27 2.16 2.45 4.4 3.35 1.72.68 3.9 1.14 6.12 1.48v.02c.77 1.06 2.3 1.97 4.62 2.51 2.32.55 5.4.7 8.38.46 2.97-.26 5.82-.9 7.7-2.12.27-.18.36-.43.58-.63a8.38 8.38 0 004.23-1.75 11.76 11.76 0 003.88-5.28c.7-2 .68-4.14.32-6.07.6-.85 1.12-1.87 1.51-3.1.66-2.06 1.03-4.45.97-6.51-.11-4.12.13-6.79-1.62-9.32l-.85.59c1.75 2.53 1.33 4.93 1.44 8.75.05 1.92-.3 4.23-.92 6.18-.25.78-.58 1.42-.9 2.02-.48-1.57-1.14-2.97-2.02-3.8-1.07-1.03-2.38-1.24-3.39-.78a2.75 2.75 0 00-1.52 2.84 6.1 6.1 0 003.85 4.73c.67.2 1.4.17 2.07-.18.17-.1.28-.33.44-.45.2 1.58.17 3.23-.36 4.76-.66 1.89-2 3.61-3.54 4.8a8.93 8.93 0 01-2.46 1.36c.58-.9.93-1.86.94-2.82 0-1.67-.7-3.24-1.73-4.2-2.09-1.94-5.48-1.14-6.12 1.47-.32 1.3.04 2.9.85 4.25a5.36 5.36 0 003.31 2.46c-1.63.9-4.1 1.54-6.75 1.76-2.88.25-5.9.08-8.05-.43a8.73 8.73 0 01-2.92-1.21c2.88.3 5.66.33 7.46.05.9-.14 1.56-.35 2.04-.65.48-.3.8-.8.75-1.3-.06-.52-.4-.91-.83-1.24a5.76 5.76 0 00-1.7-.83c-1.39-.44-3.2-.65-4.93-.6-1.72.06-3.33.34-4.34 1.1-.5.37-.84.9-.9 1.47-.02.2.13.37.17.56a27.08 27.08 0 01-5.4-1.32c-2.09-.83-3.35-1.92-3.86-2.88-.43-.78-.32-1.4.1-1.94.17.07.31.19.49.26 2.27.94 4.77 1.42 6.96 1.58 2.18.15 4 .02 5.1-.4.54-.2.97-.5 1.09-1 .12-.49-.15-.94-.5-1.27-.7-.66-1.95-1.16-3.58-1.49a20.12 20.12 0 00-5.45-.29c-1.72.15-3.26.55-4.32 1.33a15.38 15.38 0 01-4.22-2.97 5.9 5.9 0 01-1.26-1.9c-.15-.42-.06-.72.01-1.03.64.5 1.3.98 2.17 1.35 2.2.94 5.09 1.45 7.74 1.6 2.64.15 5-.01 6.3-.65.67-.32 1.1-.88 1.07-1.5-.03-.6-.42-1.12-.96-1.58-1.09-.93-2.93-1.75-5.18-2.2a22.12 22.12 0 00-7.11-.2c-1.8.26-3.22.83-4.17 1.7a5.78 5.78 0 01-1.13-1.48 4.1 4.1 0 01.12-3.8c.1-.19.32-.35.46-.53a6.93 6.93 0 002.46 1.39c2.15.71 5.16.9 7.88.73 1.36-.08 2.64-.25 3.71-.5a5.6 5.6 0 002.48-1.06c.27-.25.47-.57.51-.92.05-.35-.05-.69-.22-.98a4.44 4.44 0 00-1.72-1.5 14.6 14.6 0 00-6.05-1.72c-3.54-.21-6.9.97-9 2.9-.13-.23-.36-.45-.43-.7-.3-1.07.04-2.29.93-3.33 1.79-2.08 6-3.44 10.28-4.75zm-1.54 7.9c2.07.13 4.23.8 5.6 1.58a3.8 3.8 0 011.33 1.12c.09.16.1.26.1.33-.02.08-.05.16-.19.29-.28.25-1.02.58-2.01.82-1 .23-2.23.4-3.54.48-2.63.16-5.57-.05-7.5-.69a5.9 5.9 0 01-2.11-1.17c1.81-1.73 4.97-2.95 8.32-2.75zm32.28 7.27c.38.09.79.3 1.2.7.8.76 1.6 2.3 2 4.1-.25.32-.5.71-.75.84-.41.22-.83.24-1.3.1a3.77 3.77 0 01-1.42-.85 5.37 5.37 0 01-1.7-2.99c-.08-.9.33-1.52.93-1.79.3-.13.65-.19 1.04-.1zm-33.03 1.23c1.16.03 2.33.15 3.39.36 2.11.42 3.85 1.23 4.7 1.96.43.37.6.7.6.86.01.16-.03.3-.48.5-.89.44-3.24.7-5.8.56a23.37 23.37 0 01-7.39-1.52 8.68 8.68 0 01-1.94-1.21 7.33 7.33 0 013.54-1.34c1.06-.15 2.22-.2 3.38-.17zm2.33 7.93c1.73-.15 3.64-.04 5.16.27 1.51.3 2.65.84 3.07 1.23.21.2.2.27.2.27s-.06.13-.45.27c-.77.3-2.57.48-4.66.33-2.09-.15-4.5-.6-6.63-1.5a8.92 8.92 0 013.3-.87zm23.58.84a2.9 2.9 0 012.63.76c.8.74 1.4 2.07 1.4 3.44 0 1.1-.54 2.16-1.5 3.1-.16 0-.35.09-.5.07a4.2 4.2 0 01-3.07-2.17 5.05 5.05 0 01-.73-3.47c.22-.92.93-1.53 1.77-1.73zm-13.51 4.78a14.7 14.7 0 014.57.55c.6.2 1.09.43 1.4.67.3.23.4.43.41.5.01.08.01.16-.27.33-.28.18-.82.38-1.63.5-1.9.3-5.24.16-8.53-.29-.09-.21-.22-.44-.2-.6.03-.28.17-.53.5-.78.64-.48 2.13-.83 3.75-.88z" style="line-height:normal;font-variant-ligatures:normal;font-variant-position:normal;font-variant-caps:normal;font-variant-numeric:normal;font-variant-alternates:normal;font-variant-east-asian:normal;font-feature-settings:normal;font-variation-settings:normal;text-indent:0;text-align:start;text-decoration-line:none;text-decoration-style:solid;text-decoration-color:#000;text-transform:none;text-orientation:mixed;white-space:normal;shape-padding:0;shape-margin:0;inline-size:0;isolation:auto;mix-blend-mode:normal;solid-color:#000;solid-opacity:1" fill="#4d4d4d" color="#000" enable-background="accumulate" font-family="sans-serif" font-weight="400" overflow="visible"/><path fill="#999" d="M381.98 201.67l-.3 4.76.8.63.27-4.82zm4.1.96l-.3 4.76.8.63.27-4.82z"/><path fill="#666" d="M379.77 202.38c-4.18 7.5.84 10 2.3 10.15 2.46.24 6.76.37 6.17-8.35a48.63 48.63 0 00-8.47-1.8z"/><path fill="#784421" d="M354.5 92.2c5.4.22 12.23-.25 15.9 4.63 3.35 4.47 3.01 10.63 3.08 15.99.35 29.03.1 58.08-.63 87.11-.1 4.4-1.58 10.1-6.47 11.19-9.46 2.09-19.24 1.33-28.85 1.4-42.04.3-84.09.2-126.12-.52-3.62-.06-7.48-2.18-8.23-6.13-1.65-8.7-.74-17.65-.47-26.44.81-25.68 1.46-51.39 3.01-77.04.22-3.58.36-8.45 4.25-9.9 6.23-2.31 13.1-1.58 19.63-1.8 4.39-.16 87.68.1 124.9 1.52z"/><path fill="url(#m)" d="M57.57 65.36c-4.84.18-10.94-.22-14.22 4.06-3 3.92-2.7 9.31-2.76 14.01-.31 25.46-.09 50.94.56 76.4.1 3.86 1.41 8.85 5.79 9.8 8.46 1.84 17.2 1.17 25.8 1.23 37.6.27 75.2.18 112.8-.46 3.24-.05 6.7-1.9 7.36-5.37 1.48-7.63.67-15.48.42-23.18-.72-22.53-1.3-45.07-2.69-67.56-.2-3.14-.32-7.41-3.8-8.68-5.57-2.03-11.71-1.39-17.56-1.59-3.92-.13-78.41.1-111.7 1.34z" filter="url(#n)" transform="translate(167.5 29.99) scale(1.03718)"/><path fill="#784421" d="M270.93 209.7c1.48 24.87-19.7 27.25-34.01 36.98 5.18 1.36 9.73.6 13.64-.82 24.2-8.63 29.45-27.27 28.98-36.05-2.19-.33-8.15-.48-8.6-.12zm44.91.11c-1.48 24.88 19.7 27.26 34.02 37-5.2 1.35-9.74.59-13.65-.83-24.2-8.63-29.45-27.27-28.98-36.05 2.19-.33 8.15-.48 8.61-.12z"/><path fill="url(#o)" d="M164.15 182.74c-6.07.13-11.88 2.08-17.62 3.86-.74.35-2.01 4.9-2.28 6.34.6.19 13.3-5.87 20.58-5.59 5.56.22 13.03 2.26 18.28 3.89.42-.4-.61-3.68-1.3-4.3-5.67-2.11-11.49-4.33-17.66-4.2z" transform="translate(122.9 25.84) scale(1.03718)"/><path fill="#f6dfbc" d="M291.24 217.14c.99.31-.5 1.12-.88 1.27-14.23 6.95-29.4 13-41.01 24.14a27.9 27.9 0 00-7.78 12.5c-.92 3.44-3.84 5.76-6.9 7.29-8.83 4.76-19.16 3.22-28.77 4.2-11.6 1.14-22.91 4.37-34.54 5.25-5.35.1-11.31-.61-15.18-4.73-5.78-6.23-8.25-14.85-9.06-23.14-.61-5.86 1.57-11.94 6.07-15.81 6.74-5.87 132.12-10.63 138.05-10.97z"/><path fill="#f6f1da" d="M235.68 204.13c6 .01 11.95 1.08 17.96.74 2.06-.05 4.69-.15 5.81 1.99 3.41 5.37 9.99 7.23 15.88 8.35 5.89 1.1 11.9.5 17.83.16.99.31-.5 1.11-.88 1.27-14.23 6.94-29.4 13-41.01 24.14a27.9 27.9 0 00-7.78 12.5c-.92 3.44-3.84 5.75-6.9 7.28-8.83 4.77-19.16 3.23-28.77 4.2-11.59 1.15-22.91 4.38-34.54 5.26-5.35.1-11.31-.62-15.18-4.73-5.78-6.24-8.24-14.85-9.06-23.15-.6-5.85 1.57-11.94 6.07-15.8 6.74-5.88 15.36-8.98 23.77-11.6 14.82-4.21 30.03-6.87 45.2-9.5 3.83-.6 7.7-1.09 11.6-1.11z"/><path fill="url(#p)" d="M341.04 526.77c-7.9.17-15.72 1.7-23.64 1.4-2.73-.02-6.18-.08-7.62 2.76-4.36 7.16-12.99 9.77-20.72 11.38-7.73 1.58-15.67.93-23.48.63-1.3.43.67 1.46 1.18 1.65 18.92 8.82 39.05 16.43 54.6 30.84 4.99 4.3 8.46 10.07 10.54 16.28 1.3 4.52 5.2 7.5 9.26 9.44 11.75 6.07 25.33 3.8 38 4.85 15.3 1.24 30.3 5.23 45.64 6.11 7.05.01 14.89-1.07 19.89-6.58 7.47-8.36 10.5-19.76 11.39-30.71.66-7.73-2.35-15.7-8.37-20.69-9.02-7.57-20.45-11.46-31.59-14.71-19.62-5.2-39.72-8.34-59.76-11.46-5.08-.7-10.2-1.24-15.32-1.19z" transform="matrix(-.75878 .01357 .01357 .75878 487.3 -200.2)"/><path fill="#ff984f" d="M264.48 230.68c.79 1.73 2.13 3.45 2.1 5.36-.02 1.1-1.85.74-2.72.89-4.4.75-8.86 1.4-13.33 1.42-4.27.02-8.04-3.76-8.28-8.03-.3-5.1-.33-10.22-.22-15.32.02-.82.46-1.84 1.47-1.5 5.13 1.74 11.57 5.27 16.36 7.75.57.3 3.19 6.3 4.62 9.43z"/><path fill="#ec7119" d="M260.28 220.43c.45.61-.54 1.47-1 2.03-3.07 3.75-6.7 7-9.89 10.65-.49.56-1.5 1.7-.67 2.3 1.16.85 2.79.48 4.16.5 4.74.06 9.51-.42 14.24.01.3.03 1.41.34.88.67-2.4 1.48-5.4 1.6-8.13 2.12-3.4.64-6.92.76-10.28 1.61-3.45.88-7.6 2.09-10.05 4.49-7.54 7.35-15.67 11.98-22.7 19.81-2.46 2.74-4.89 5.56-7.72 7.91-1.07.89-2.64 1.13-3.83.29-1.8-1.27-.66-.42-2.06-2.1a2.42 2.42 0 010-3.12c2.87-3.37 6.16-6.36 9.28-9.49 7.44-7.45 16.4-11.27 23.56-19 2.39-2.58 3.9-6.37 4.3-10.01.55-5.2-.01-10.47.7-15.65.07-.47.37-1.76.94-1.37 1.06.72.88 2.38 1.01 3.59.55 4.9.2 9.86.8 14.76.07.58.45 1.53 1.17 1.13 1.7-.95 3.09-2.43 4.62-3.65 3.15-2.5 9.84-8.62 10.67-7.48z"/><path fill="url(#q)" d="M1248.83-362.7c-4.9.8-4.32 9.38-4.78 14.11-3.06 31.8-1.22 63.88-3.26 95.72-.31 4.9-.86 14.92-7.62 13.9-9.3-1.4-15.19-10.76-21.66-17.02-22.46-21.76-42.53-46.14-66.64-66.14-1.5-1.25-8.16-4.94-7.2-.93 4.36 18.08 17.74 32.53 28.13 47.66 12.93 18.83 28.79 35.7 40.52 55.3 12.05 20.13 25.8 45.04 26.13 67.68 1.03 69.41 17.5 128.77 13.96 198.07-1.24 24.21-3 48.63-.7 72.82.87 9.12 7.09 17.5 16.53 19.12 14.32 2.43 5.07 1.14 19.43-.25a15.98 15.98 0 0014.44-14.54c2.29-29.07.82-58.31.77-87.45-.13-69.4-24.25-128.9-21.75-198.28.83-23.11 11.35-47.9 26.46-66.71 21.58-26.86 48.69-48.87 69.42-76.4 1.88-2.5 6.45-9.92 2-10.75-8.32-1.56-15.18 7.06-21.4 12.06-25.33 20.34-46.76 45.21-72.34 65.25-3.01 2.36-9.22 5.06-10.71-.16-3.53-12.36-3.15-25.7-4.64-38.49-3.07-26.37-5.9-86.02-15.09-84.56z" transform="scale(-.15176 .15176) rotate(-44.85 1966.07 4135.85)"/><path fill="#f6f1da" d="M147.02 145.58c5.48 5.28 9.66 12.59 10.38 20.24.63 6.67-5.62 11.2-9.3 16-5.13 6.7-11.98 12.3-15.7 19.98-1.05 2.15-1.12 16.08 11.52 23.61 12.64 7.54 38.6 7.27 56.05 15.92 17.46 8.64 33.74 19.98 47.14 25.47 13.4 5.48 32.05 2.76 33.53 1.4 9.29-8.53-22.8 38.8-34.02 42.89-27.86 10.17-69.37 9.44-95.38-3.78-14.48-7.36-28.8-14.1-38.95-26.71-13.35-16.6-17.65-43.22-19.22-64.26-1.14-15.26.13-36.3 2.22-51.55 1.39-10.13 8.78-18.36 17.88-22.46 10.67-4.82 25.06-5.23 33.85 3.25z"/><path fill="url(#r)" d="M296.73 307.34c-19.22 2.6-50.54-11.14-76.16-9.69-25.63 1.45-51.23 6.78-70.31 6.5-19.09-.28-40.27-13.22-41.36-15.63-6.86-15.14 7.58 58.82 19.06 69.57 28.51 26.73 79.2 47.3 117.56 44.73 21.35-1.44 70.42-98.08 51.2-95.48z" transform="scale(-.7589 .7589) rotate(-23.1 28.31 1492.25)"/><path fill="#252d3f" d="M125.33 155.5c-1.6.02-4.7 2.1-4.32 3.63.41 1.21 3.53 1.62 4.74 1.8 1 .08 2.22-.05 2.82-.99.45-.72.58-1.66.19-2.31a5 5 0 00-3.43-2.14z"/><path fill="url(#s)" d="M317 20.82c-2.03.1-5.89 2.9-5.33 4.83.59 1.53 4.58 1.9 6.12 2.07 1.29.06 2.83-.15 3.55-1.38.54-.94.66-2.14.14-2.96a6.38 6.38 0 00-4.47-2.56z" transform="rotate(2.05 -3711.16 -3373.82) scale(.78496)"/><path fill="#030d13" d="M125.48 157.22c-1.42.2-1.19 2.34.94 2.07 1.84-.3.14-2.19-.94-2.07z"/><path fill="url(#t)" d="M317.29 23.01c-1.81.32-1.41 3.04 1.28 2.6 2.34-.48.08-2.79-1.28-2.6z" transform="rotate(2.05 -3711.16 -3373.82) scale(.78496)"/><path fill="#e6e6e6" d="M126.71 157.59c-.25.1-.23 1.03.14.9.33-.16.05-.96-.14-.9z"/><g><path fill="#ff984f" d="M146.04 178.97c-1.8-.33-2.79-5.8-3.04.61-.25 2.58 3.88 3.49 5.87 4.48 8.33 2.92 20.62 5.1 21.04 4.45-.9.36-18.2-6.2-23.87-9.54z"/><path fill="#623d28" d="M143.77 177.59c.33 2.03 11.12 6.47 15.1 7.97 2.64 1.05 10.87 3.55 11.04 2.95-2.28-.81-8.87-3.12-11.11-4.02-4.3-1.43-14.3-5.71-14.1-7.16-.2-.38-.16-.95-.56-1.19-.77-.1-.55 1-.37 1.45z"/><path fill="url(#u)" d="M479.5 83.7c-2.05-1.12-1.06-8.13-3.92-.46-1.33 3.01 3.3 5.76 5.33 7.74 8.92 6.85 22.94 14.36 23.7 13.74-1.24.08-19.58-14.72-25.1-21.02z" transform="rotate(-18.15 615.72 843.31) scale(.78496)"/><path fill="#ff984f" d="M146.63 158.23c-1.16-.37-2.6 12.94-2.86 19.36 2.88 1.65 6.23 3.82 8.22 4.8 8.33 2.93 11.8 7.2 24.01 7.06 12.04-1.24 9.1 3.27 13.16-1.18 1.6-.5-1.23-5.53-2.88-5.96-7.82-4.78-9.44-5.06-17.36-9.69-4.51-3.41-11.12-11.19-15.79-14.4.6 4.67-.02 2.5-6.5 0z"/><path fill="url(#v)" d="M500.93 35.84c-1.26-.9-8.3 14.63-11.15 22.3 2.83 3.15 6.02 7.1 8.04 9.09 8.93 6.85 11.42 13.38 26.27 18.07 15.07 3.27 9.72 7.57 16.4 3.78 2.12.03.7-7.17-1.12-8.35-7.57-8.89-9.42-9.87-17.18-18.62-4.1-5.92-9.01-17.96-13.4-23.7-1.12 5.9-1.01 3.02-7.86-2.57z" transform="rotate(-18.15 677.09 864.94) scale(.78496)"/><path fill="#60200f" d="M156.14 169.34c-.18.74.85 1.37 1.34 1.65.67.37 2.36.81 2.68.51.34-.48-.37-1.46-.67-1.89-.24-.3-.65-.56-1-.73-.45-.2-.96-.13-1.43-.04-.11.03-.81.26-.92.5z"/><path fill="#623d28" d="M143.77 177.59c.33 2.03 11.12 6.47 15.1 7.97 2.64 1.05 5.08 2.6 7.87 3.24a37.2 37.2 0 0012.42.84c.78-.09 1.92-.15 2.67-.33.44-.15-3.76-.65-5.42-.63-3.7.1-7.46-.12-11-1.26-2.27-.8-4.37-2.03-6.61-2.93-4.3-1.43-14.3-5.71-14.1-7.16-.2-.38-.16-.95-.56-1.19-.77-.1-.55 1-.37 1.45z"/></g><g><path fill="#ff984f" d="M238.77 205.05c1.24 1.45 3 2.73 3.5 4.58.28 1.05-1.57 1.21-2.37 1.6-4.03 1.93-8.13 3.78-12.42 5.03-4.1 1.2-8.77-1.41-10.18-5.45a196.67 196.67 0 01-4.41-14.66c-.21-.8-.07-1.9 1-1.85 5.4.25 12.57 1.88 17.86 2.95.62.13 4.79 5.18 7.02 7.8z"/><path fill="#ec7119" d="M231.93 196.35c.6.46-.12 1.56-.4 2.22-1.93 4.45-4.53 8.58-6.6 12.96-.3.67-.97 2.04 0 2.4 1.34.5 2.8-.31 4.13-.67 4.58-1.24 9.03-3 13.7-3.9.3-.05 1.45-.05 1.03.4-1.9 2.1-4.75 3.03-7.24 4.28-3.1 1.55-6.44 2.63-9.43 4.37-3.08 1.8-6.74 4.1-8.44 7.08-5.23 9.14-11.77 15.82-16.38 25.29-1.62 3.3-3.17 6.68-5.25 9.72-.79 1.15-2.23 1.8-3.6 1.33-2.08-.73-.76-.22-2.56-1.46a2.42 2.42 0 01-.86-2.99c1.83-4.03 4.17-7.8 6.32-11.67 5.1-9.22 12.67-15.35 17.43-24.75 1.58-3.13 2-7.2 1.38-10.8-.9-5.16-2.89-10.07-3.62-15.25-.07-.47-.13-1.79.52-1.57 1.22.4 1.5 2.05 1.96 3.17 1.87 4.56 2.9 9.44 4.82 13.98.23.53.86 1.34 1.44.76 1.38-1.38 2.3-3.18 3.44-4.77 2.34-3.28 7.1-11 8.2-10.13z"/><path fill="url(#w)" d="M1248.83-362.7c-4.9.8-4.32 9.38-4.78 14.11-3.06 31.8-1.22 63.88-3.26 95.72-.31 4.9-.86 14.92-7.62 13.9-9.3-1.4-15.19-10.76-21.66-17.02-22.46-21.76-42.53-46.14-66.64-66.14-1.5-1.25-8.16-4.94-7.2-.93 4.36 18.08 17.74 32.53 28.13 47.66 12.93 18.83 28.79 35.7 40.52 55.3 12.05 20.13 25.8 45.04 26.13 67.68 1.03 69.41 17.5 128.77 13.96 198.07-1.24 24.21-3 48.63-.7 72.82.87 9.12 7.09 17.5 16.53 19.12 14.32 2.43 5.07 1.14 19.43-.25a15.98 15.98 0 0014.44-14.54c2.29-29.07.82-58.31.77-87.45-.13-69.4-24.25-128.9-21.75-198.28.83-23.11 11.35-47.9 26.46-66.71 21.58-26.86 48.69-48.87 69.42-76.4 1.88-2.5 6.45-9.92 2-10.75-8.32-1.56-15.18 7.06-21.4 12.06-25.33 20.34-46.76 45.21-72.34 65.25-3.01 2.36-9.22 5.06-10.71-.16-3.53-12.36-3.15-25.7-4.64-38.49-3.07-26.37-5.9-86.02-15.09-84.56z" transform="scale(-.15176 .15176) rotate(-28.9 3073.98 5853.2)"/></g><g><path fill="#f6dfbc" d="M2.64 259.5c-.82-.63.85-.87 1.26-.88 15.76-1.6 32.08-2.04 46.83-8.49a27.9 27.9 0 0011.61-9.04c2.06-2.91 5.6-4.08 9-4.46 9.93-1.42 19.1 3.6 28.44 6 11.28 2.93 23.02 3.81 34.24 7 5.05 1.76 10.4 4.49 12.6 9.68 3.28 7.86 2.61 16.79.51 24.86-1.45 5.7-5.6 10.66-11.16 12.73-8.35 3.19-127.65-35.66-133.33-37.4z"/><path fill="#f6f1da" d="M50.28 290.91c-5.63-2.08-10.84-5.14-16.6-6.9-1.95-.66-4.45-1.48-4.77-3.87-1.34-6.22-6.87-10.24-12-13.33-5.16-3.06-11-4.57-16.69-6.3-.82-.64.85-.88 1.26-.89 15.76-1.6 32.09-2.04 46.83-8.49a27.9 27.9 0 0011.61-9.04c2.06-2.91 5.6-4.08 9-4.46 9.93-1.41 19.1 3.6 28.44 6 11.28 2.93 23.02 3.81 34.24 7 5.06 1.76 10.4 4.49 12.61 9.69 3.27 7.85 2.6 16.78.5 24.85-1.45 5.7-5.6 10.66-11.15 12.74-8.35 3.18-17.52 3.11-26.31 2.67-15.37-1.17-30.56-3.93-45.7-6.7a79.33 79.33 0 01-11.27-2.97z"/><path fill="url(#x)" d="M341.04 526.77c-7.9.17-15.72 1.7-23.64 1.4-2.73-.02-6.18-.08-7.62 2.76-4.36 7.16-12.99 9.77-20.72 11.38-7.73 1.58-15.67.93-23.48.63-1.3.43.67 1.46 1.18 1.65 18.92 8.82 39.05 16.43 54.6 30.84 4.99 4.3 8.46 10.07 10.54 16.28 1.3 4.52 5.2 7.5 9.26 9.44 11.75 6.07 25.33 3.8 38 4.85 15.3 1.24 30.3 5.23 45.64 6.11 7.05.01 14.89-1.07 19.89-6.58 7.47-8.36 10.5-19.76 11.39-30.71.66-7.73-2.35-15.7-8.37-20.69-9.02-7.57-20.45-11.46-31.59-14.71-19.62-5.2-39.72-8.34-59.76-11.46-5.08-.7-10.2-1.24-15.32-1.19z" transform="matrix(.71675 .2494 .2494 -.71675 -325.54 583.42)"/><path style="line-height:normal;font-variant-ligatures:normal;font-variant-position:normal;font-variant-caps:normal;font-variant-numeric:normal;font-variant-alternates:normal;font-variant-east-asian:normal;font-feature-settings:normal;font-variation-settings:normal;text-indent:0;text-align:start;text-decoration-line:none;text-decoration-style:solid;text-decoration-color:#000;text-transform:none;text-orientation:mixed;white-space:normal;shape-padding:0;shape-margin:0;inline-size:0;isolation:auto;mix-blend-mode:normal;solid-color:#000;solid-opacity:1" d="M138.82 273.08a.57.57 0 01.35.47.57.57 0 01-.5.63c-5.12.56-10.37 1.13-19.58-1.07-9.21-2.2-22.37-7.12-35.54-12.05a.57.57 0 01-.33-.73.57.57 0 01.73-.34c13.17 4.93 26.33 9.85 35.4 12.02 9.08 2.16 14.07 1.6 19.2 1.03a.57.57 0 01.27.04zm-.87 10.34a.57.57 0 01.35.47.57.57 0 01-.5.62c-2.74.28-5.57.56-12.22-.4-6.64-.97-17.12-3.17-25.07-5.87-7.96-2.7-13.33-5.9-18.65-9.06a.57.57 0 01-.2-.78.57.57 0 01.78-.2c5.32 3.17 10.59 6.3 18.43 8.96 7.84 2.66 18.31 4.86 24.88 5.82 6.56.95 9.2.68 11.92.4a.57.57 0 01.28.04zm-2.48-19.22a.57.57 0 01.35.64.57.57 0 01-.67.46c-7.3-1.4-14.64-2.8-23.14-5.2-8.5-2.37-18.15-5.73-27.78-9.09a.57.57 0 01-.35-.72.57.57 0 01.72-.35c9.64 3.35 19.27 6.7 27.72 9.07s15.74 3.77 23.05 5.17a.57.57 0 01.1.03z" enable-background="accumulate" overflow="visible" fill="#f6dfbc" color="#000" font-family="sans-serif" font-weight="400"/></g><ellipse cx="311.07" cy="209.86" fill="#502d16" rx="2.42" ry="2.49"/><ellipse cx="274.75" cy="210.11" fill="#502d16" rx="2.42" ry="2.49"/><ellipse cx="292.9" cy="210.08" fill="#502d16" rx="2.42" ry="2.49"/><ellipse cx="284.11" cy="209.95" fill="#502d16" rx="2.42" ry="2.49"/><ellipse cx="301.75" cy="209.95" fill="#502d16" rx="2.42" ry="2.49"/></g></svg>