<svg xmlns="http://www.w3.org/2000/svg" xmlns:xlink="http://www.w3.org/1999/xlink" width="1000" height="1000"><defs><linearGradient gradientTransform="translate(-83.59 -7.111) scale(2.50374)" gradientUnits="userSpaceOnUse" y2="13.486" x2="14.54" y1="11.929" x1="10.998" id="p" xlink:href="#e"/><linearGradient y2="38.07" x2="34.17" y1="36.921" x1="33.396" gradientTransform="matrix(.73457 0 0 .73094 11.4 30.628)" gradientUnits="userSpaceOnUse" id="u" xlink:href="#d"/><linearGradient id="b"><stop offset="0" stop-color="#383936"/><stop offset="1" stop-color="#555753"/></linearGradient><linearGradient gradientTransform="matrix(1.12598 0 0 1.2728 -6.121 19.161)" gradientUnits="userSpaceOnUse" y2="22.674" x2="35.872" y1="27.273" x1="37.271" id="i" xlink:href="#c"/><linearGradient id="c"><stop offset="0" stop-color="#fff"/><stop offset="1" stop-color="#e6e6e6"/></linearGradient><linearGradient id="d"><stop offset="0" stop-color="#fff"/><stop offset="1" stop-color="#fff" stop-opacity="0"/></linearGradient><linearGradient id="a"><stop offset="0"/><stop offset="1" stop-opacity="0"/></linearGradient><linearGradient gradientTransform="matrix(.95116 0 0 1 -.781 26.868)" gradientUnits="userSpaceOnUse" y2="39.751" x2="25.349" y1="37.548" x1="25.349" id="h" xlink:href="#b"/><linearGradient id="e"><stop offset="0" stop-color="#999a98"/><stop offset=".5" stop-color="#caccc8"/><stop offset="1" stop-color="#616161"/></linearGradient><linearGradient gradientTransform="translate(-10.929 -7.111) scale(2.50374)" y2="13.486" x2="14.54" y1="11.929" x1="10.998" gradientUnits="userSpaceOnUse" id="q" xlink:href="#e"/><linearGradient gradientTransform="matrix(1.12598 0 0 1.12675 -6.033 21.502)" gradientUnits="userSpaceOnUse" y2="15.531" x2="24.031" y1="7.531" x1="24.031" id="s" xlink:href="#e"/><linearGradient y2="37.771" x2="33.665" y1="40.458" x1="35.997" gradientTransform="matrix(.73457 0 0 .73094 11.193 30.846)" gradientUnits="userSpaceOnUse" id="t" xlink:href="#f"/><linearGradient id="f"><stop offset="0" stop-color="#7c7c7c"/><stop offset="1" stop-color="#b8b8b8"/></linearGradient><radialGradient gradientTransform="matrix(4.86838 0 0 4.86838 -37.5 -44.499)" gradientUnits="userSpaceOnUse" r="1.591" fy="16.771" fx="12.887" cy="16.771" cx="12.887" id="n" xlink:href="#a"/><radialGradient gradientUnits="userSpaceOnUse" gradientTransform="matrix(2.50374 0 0 5.06855 -9.168 -55.601)" r="1.812" fy="17.904" fx="13.833" cy="17.904" cx="13.833" id="l" xlink:href="#a"/><radialGradient gradientTransform="translate(-9.119 -8.334) scale(2.50374)" gradientUnits="userSpaceOnUse" r="2.162" fy="18.4" fx="12.993" cy="18.4" cx="12.993" id="m" xlink:href="#d"/><radialGradient r="1.591" fy="16.771" fx="12.887" cy="16.771" cx="12.887" gradientTransform="matrix(4.86838 0 0 4.86838 -15.978 -44.589)" gradientUnits="userSpaceOnUse" id="r" xlink:href="#a"/><radialGradient gradientUnits="userSpaceOnUse" gradientTransform="matrix(2.50374 0 0 .71763 -10.323 106.412)" r="20.815" fy="42.211" fx="24.97" cy="42.211" cx="24.97" id="g" xlink:href="#a"/><radialGradient r="1.812" fy="17.904" fx="13.833" cy="17.904" cx="13.833" gradientTransform="matrix(2.50374 0 0 5.06855 -1.357 -56.354)" gradientUnits="userSpaceOnUse" id="j" xlink:href="#a"/><radialGradient r="1.591" fy="16.771" fx="12.887" cy="16.771" cx="12.887" gradientTransform="matrix(4.86838 0 0 4.86838 3.724 -44.499)" gradientUnits="userSpaceOnUse" id="o" xlink:href="#a"/><radialGradient r="1.812" fy="17.904" fx="13.833" cy="17.904" cx="13.833" gradientTransform="matrix(2.50374 0 0 5.06855 22.73 -54.422)" gradientUnits="userSpaceOnUse" id="k" xlink:href="#a"/><radialGradient gradientTransform="translate(6.83 -8.334) scale(2.50374)" r="2.162" fy="18.4" fx="12.993" cy="18.4" cx="12.993" gradientUnits="userSpaceOnUse" id="v" xlink:href="#d"/><radialGradient gradientTransform="translate(21.485 -8.334) scale(2.50374)" r="2.162" fy="18.4" fx="12.993" cy="18.4" cx="12.993" gradientUnits="userSpaceOnUse" id="w" xlink:href="#d"/></defs><text style="line-height:1.25" x="1.846" y="87.214" transform="scale(.87898 1.13768)" font-weight="400" font-size="53.074" font-family="sans-serif" letter-spacing="0" word-spacing="0" stroke-width="1.327"><tspan x="1.846" y="87.214" style="-inkscape-font-specification:Rosario" font-size="99.071" font-family="Rosario">MARK YOUR CALENDARS!</tspan></text><text style="line-height:1.25" x="84.537" y="257.917" font-weight="400" font-size="40" font-family="sans-serif" letter-spacing="0" word-spacing="0"><tspan x="84.537" y="257.917" style="-inkscape-font-specification:Rosario" font-size="192" font-family="Rosario" fill="#0055d4">Duck</tspan></text><text style="line-height:1.25" x="270.405" y="409.44" font-weight="400" font-size="40" font-family="sans-serif" letter-spacing="0" word-spacing="0"><tspan x="270.405" y="409.44" style="-inkscape-font-specification:Rosario" font-size="192" font-family="Rosario" fill="#0055d4">Day</tspan></text><text style="line-height:1.25" x="402.173" y="503.354" font-weight="400" font-size="40" font-family="sans-serif" letter-spacing="0" word-spacing="0"><tspan x="402.173" y="503.354" style="-inkscape-font-specification:Rosario" font-size="120" font-family="Rosario" fill="#0a4">2019</tspan></text><g transform="matrix(23.48159 0 0 18.35492 585.861 -393.412)"><ellipse transform="matrix(.47921 0 0 .25968 -2.944 32.353)" style="marker:none" cx="24.97" cy="42.211" rx="20.815" ry="5.966" color="#000" display="block" overflow="visible" opacity=".385" fill="url(#g)" fill-rule="evenodd"/><path d="M2.3 39.175l-.094 4.345h13.611l-.212-5.061z" style="marker:none" color="#000" display="block" overflow="visible" fill="url(#h)" fill-rule="evenodd" stroke="#2e3436" stroke-width=".399" stroke-linejoin="round"/><path d="M2.435 41.968l-.08 1.353h13.573l-13.374-.2-.12-1.153z" style="marker:none" color="#000" display="block" overflow="visible" opacity=".231" fill="#fff" fill-rule="evenodd"/><path style="marker:none" d="M2.148 31.45h13.13l1.331 10.259H1.437z" color="#000" display="block" overflow="visible" fill="#cacaca" fill-rule="evenodd" stroke="#686868" stroke-width=".399"/><path d="M1.897 30.34h13.475l1.366 10.784H1.166z" style="marker:none" color="#000" display="block" overflow="visible" fill="url(#i)" fill-rule="evenodd" stroke="#868a84" stroke-width=".399"/><path style="marker:none" d="M2.275 30.74h12.74l1.217 9.984H1.593z" color="#000" display="block" overflow="visible" fill="none" stroke="#fff" stroke-width=".399"/><path d="M16.526 40.94l-.288-2.352-2.501 2.36 2.79-.008z" style="marker:none" color="#000" display="block" overflow="visible" opacity=".209" fill-rule="evenodd"/><ellipse transform="matrix(.64716 0 0 .45003 -.238 23.874)" style="marker:none" cx="13.833" cy="17.904" rx="1.812" ry="3.668" color="#000" display="block" overflow="visible" opacity=".335" fill="url(#j)" fill-rule="evenodd"/><ellipse style="marker:none" transform="matrix(.44972 0 0 .38266 7.144 24.833)" cx="13.833" cy="17.904" rx="1.812" ry="3.668" color="#000" display="block" overflow="visible" opacity=".335" fill="url(#k)" fill-rule="evenodd"/><ellipse transform="matrix(.44972 0 0 .42115 -2.396 24.285)" style="marker:none" cx="13.833" cy="17.904" rx="1.812" ry="3.668" color="#000" display="block" overflow="visible" opacity=".335" fill="url(#l)" fill-rule="evenodd"/><circle style="marker:none" transform="matrix(.47181 0 0 .47211 -2.516 24.38)" cx="12.993" cy="16.711" r="1.591" color="#000" display="block" overflow="visible" fill="none" stroke="url(#m)" stroke-width=".846"/><circle transform="matrix(.34978 0 0 .35002 -.939 26.42)" style="marker:none" cx="12.993" cy="16.711" r="1.591" color="#000" display="block" overflow="visible" fill="url(#n)" fill-rule="evenodd"/><circle style="marker:none" transform="matrix(.34978 0 0 .35002 8.65 26.42)" cx="12.993" cy="16.711" r="1.591" color="#000" display="block" overflow="visible" fill="url(#o)" fill-rule="evenodd"/><path style="marker:none" d="M14.411 16.252a1.458 4.331 0 01-1.327-4.58A1.458 4.331 0 0114.59 7.61 1.458 4.331 0 0116 11.967" transform="matrix(-.3128 0 0 .45003 17.733 24.868)" color="#000" display="block" overflow="visible" fill="none" stroke="url(#p)" stroke-width="1.597" stroke-linecap="round"/><path transform="matrix(.44972 0 0 .45003 -2.923 24.868)" d="M14.411 16.252a1.458 4.331 0 01-1.327-4.58A1.458 4.331 0 0114.59 7.61 1.458 4.331 0 0116 11.967" style="marker:none" color="#000" display="block" overflow="visible" fill="none" stroke="url(#q)" stroke-width="1.332" stroke-linecap="round"/><path style="marker:none" color="#000" display="block" overflow="visible" fill="#868a84" fill-rule="evenodd" d="M3.588 30.14h9.818v.399H3.588z"/><circle transform="matrix(.34978 0 0 .35002 4.067 26.4)" style="marker:none" cx="12.993" cy="16.711" r="1.591" color="#000" display="block" overflow="visible" fill="url(#r)" fill-rule="evenodd"/><rect ry=".056" rx=".044" y="27.868" x="8.142" height="4.585" width=".928" style="marker:none" color="#000" display="block" overflow="visible" fill="url(#s)" fill-rule="evenodd"/><path d="M13.374 40.995c.93.061 3.042-1.128 2.847-2.64-.458.708-1.396.341-2.601.387 0 0 .15 2.037-.246 2.253z" style="marker:none" color="#000" overflow="visible" fill="url(#t)" fill-rule="evenodd" stroke="#868a84" stroke-width=".399"/><path style="marker:none" d="M14.006 40.325c.401-.2 1.299-.627 1.68-1.176-.486.11-.847.026-1.655.02 0 0 .03.93-.025 1.156z" color="#000" overflow="visible" opacity=".369" fill="none" stroke="url(#u)" stroke-width=".399"/><circle transform="matrix(.23668 0 0 .23668 3.053 27.552)" style="marker:none" cx="22.969" cy="5.031" r=".844" color="#000" display="block" overflow="visible" opacity=".555" fill-rule="evenodd"/><circle transform="matrix(.25148 0 0 .25148 -2.567 27.49)" style="marker:none" cx="22.969" cy="5.031" r=".844" color="#000" display="block" overflow="visible" opacity=".555" fill="#fff" fill-rule="evenodd"/><circle style="marker:none" transform="matrix(.25148 0 0 .25148 7.768 27.49)" cx="22.969" cy="5.031" r=".844" color="#000" display="block" overflow="visible" opacity=".555" fill="#fff" fill-rule="evenodd"/><circle transform="matrix(.47181 0 0 .47211 2.489 24.38)" style="marker:none" cx="12.993" cy="16.711" r="1.591" color="#000" display="block" overflow="visible" fill="none" stroke="url(#v)" stroke-width=".846"/><circle style="marker:none" transform="matrix(.47181 0 0 .47211 7.087 24.38)" cx="12.993" cy="16.711" r="1.591" color="#000" display="block" overflow="visible" fill="none" stroke="url(#w)" stroke-width=".846"/><text y="39.664" x="6.404" style="line-height:0%;-inkscape-font-specification:'Linux Libertine O'" font-weight="400" font-family="Linux Libertine O" letter-spacing="0" word-spacing="0"><tspan style="line-height:1.25;-inkscape-font-specification:'Kozuka Gothic Pro M Bold'" y="39.664" x="6.404" font-weight="700" font-size="8.406" font-family="Kozuka Gothic Pro M">2</tspan></text></g><text style="line-height:1.25" x="643.741" y="284.682" transform="scale(.98356 1.01672)" font-weight="400" font-size="39.342" font-family="sans-serif" letter-spacing="0" word-spacing="0" stroke-width=".984"><tspan x="643.741" y="284.682" style="-inkscape-font-specification:Rosario" font-family="Rosario">Duck Day</tspan></text><text style="line-height:1.25" x="9.684" y="562.573" font-weight="400" font-size="40" font-family="sans-serif" letter-spacing="0" word-spacing="0"><tspan x="9.684" y="562.573" style="-inkscape-font-specification:Rosario" font-weight="700" font-size="74.667" font-family="Rosario">February 2</tspan><tspan x="9.684" y="655.906" style="-inkscape-font-specification:Rosario" font-size="74.667" font-family="Rosario">7:30 A.M.</tspan><tspan x="9.684" y="799.239" style="-inkscape-font-specification:Rosario" font-weight="700" font-size="74.667" font-family="Rosario">Ivy Glenn Memorial</tspan><tspan x="9.684" y="892.573" style="-inkscape-font-specification:Rosario" font-size="74.667" font-family="Rosario">179 Rt. 198</tspan><tspan x="9.684" y="985.906" style="-inkscape-font-specification:Rosario" font-size="74.667" font-family="Rosario">Eastford, CT</tspan></text><g transform="matrix(2.5285 0 0 2.49967 550.58 315.695)"><path d="M122.81 219.358l5.346 2.673M78.31 238.735l-.935-7.082a8.037 8.037 0 00-.134-.802 3.75 3.75 0 00-.936-1.737c-.444-.46-1.004-.788-1.552-1.117-.549-.329-1.102-.672-1.521-1.155-.424-.489-.691-1.097-1.109-1.592a2.21 2.21 0 00-.752-.6c-.294-.135-.637-.18-.945-.08-.274.088-.502.28-.706.483-.204.202-.395.421-.63.586-.288.2-.628.31-.958.43-.33.12-.663.26-.914.505-.304.298-.456.728-.479 1.153-.022.426.076.85.212 1.253.268.794.683 1.528 1.07 2.272.274.53.535 1.068.8 1.603l.268.535" fill="none" stroke="#000" stroke-width=".265"/><path d="M69.09 233.39a177.874 177.874 0 015.077 11.626c.543 1.375 1.077 2.798 1.07 4.276-.007 1.262-.409 2.487-.535 3.742-.113 1.12-.005 2.25.01 3.376.014 1.126-.073 2.283-.545 3.306-.286.62-.709 1.177-.939 1.821-.115.322-.18.667-.147 1.007.034.34.172.676.418.914.237.228.56.353.885.402.326.049.658.028.986-.001 1.117-.1 2.225-.288 3.34-.401 1.91-.193 3.836-.163 5.747 0 2.23.19 4.446.559 6.682.668 1.069.052 2.14.044 3.207.134.848.07 1.69.202 2.54.267 1.066.08 2.138.055 3.206 0 .905-.047 1.81-.114 2.715-.067.904.046 1.815.209 2.63.601.341.164.672.37 1.045.428.187.03.383.02.558-.05a.722.722 0 00.402-.378.705.705 0 00.033-.417.98.98 0 00-.18-.382c-.172-.226-.415-.385-.654-.537-.826-.526-1.664-1.033-2.54-1.47-.233-.116-.472-.23-.668-.4a1.405 1.405 0 01-.133-.135" fill="none" stroke="#000" stroke-width=".265"/><path d="M78.31 238.735a37.209 37.209 0 001.821 7.474c.771 2.163 1.795 4.324 3.543 5.812.763.65 1.64 1.149 2.505 1.653 2.278 1.33 4.526 2.729 6.945 3.78.773.336 1.561.636 2.362.898h.047c.116.005.225.05.331.094.788.331 1.56.703 2.363.993 1.554.56 3.214.808 4.866.803 1.294-.004 2.597-.16 3.874.047.149.024.302.055.425.142a.705.705 0 01.214.254c.051.099.086.206.117.313.03.1.056.201.067.304a.795.795 0 01-.02.31.776.776 0 01-.168.295 1.543 1.543 0 01-.257.225c-.6.435-1.363.64-2.1.565a3.088 3.088 0 01-1.945-.977M128.156 222.03a33.31 33.31 0 00-.873 6.462c-.087 2.415.093 4.857.756 7.181.402 1.409.977 2.761 1.418 4.158.43 1.363.73 2.763 1.04 4.158.243 1.098.493 2.195.66 3.307.126.835.21 1.693.568 2.457.458.978 1.319 1.7 2.173 2.362 2.011 1.558 4.138 2.964 6.331 4.253 1.471.863 2.975 1.675 4.536 2.362a27.612 27.612 0 004.725 1.606c1.15.273 2.319.463 3.496.567" fill="none" stroke="#000" stroke-width=".265"/><path d="M152.986 260.903c.402.308.68.775.756 1.276.038.25.028.505 0 .756a1.763 1.763 0 01-.133.549.762.762 0 01-.387.396c-.163.066-.344.055-.52.047-1.353-.062-2.71.077-4.063 0-.854-.048-1.701-.183-2.551-.283-1.536-.182-3.088-.255-4.63-.142-.473.034-.944.086-1.418.094-.978.017-1.951-.151-2.93-.141-1.1.01-2.21.257-3.165.803-.495.283-.948.645-1.473.87a2.257 2.257 0 01-.829.195 1.445 1.445 0 01-.816-.215c-.221-.142-.39-.352-.557-.554-.168-.203-.346-.407-.577-.532-.299-.163-.652-.177-.992-.19-1.296-.048-2.593-.128-3.874-.33-1.423-.225-2.821-.6-4.253-.756-.815-.089-1.637-.105-2.456-.142a44.332 44.332 0 01-3.45-.283c-1.57-.194-3.145-.483-4.724-.378-.31.02-.62.056-.93.056-.31.001-.625-.034-.913-.15a1.703 1.703 0 01-.52-.332" fill="none" stroke="#000" stroke-width=".265"/><path d="M107.581 261.517a7.246 7.246 0 003.135-.532c1.15-.473 2.158-1.234 3.107-2.038a37.183 37.183 0 005.68-6.046c.485-.646.955-1.31 1.537-1.871.264-.255.558-.498.701-.836a.806.806 0 00.068-.285.52.52 0 00-.068-.283.486.486 0 00-.232-.194c-.095-.04-.2-.05-.302-.04-.123.014-.24.059-.35.115-.11.056-.212.124-.318.186-.254.15-.523.273-.802.368-.621.212-1.3.285-1.938.133a1.892 1.892 0 01-.704-.31 1.129 1.129 0 01-.432-.625 1.152 1.152 0 01.065-.683c.085-.216.22-.41.37-.587a4.63 4.63 0 011.002-.868c.521-.342 1.092-.601 1.67-.835.436-.177.879-.34 1.3-.551.42-.211.821-.472 1.139-.82.555-.604.816-1.425.935-2.237.036-.244.06-.49.067-.735.015-.536-.055-1.07-.1-1.604-.032-.379-.05-.76-.1-1.136-.066-.496-.184-.983-.3-1.47a193.499 193.499 0 01-2.74-13.564M103.433 63.674a6.987 6.987 0 001.67-1.738c.698-1.036 1.102-2.236 1.538-3.407a57.21 57.21 0 012.205-5.145M108.846 53.384a16.356 16.356 0 001.536 4.41c.09.171.185.345.334.467.153.125.35.185.546.205.196.02.394.005.59-.004.49-.023.983-.008 1.47-.067.893-.109 1.736-.465 2.54-.868a20.95 20.95 0 002.672-1.604" fill="none" stroke="#000" stroke-width=".265"/><path d="M118.534 55.923a101.627 101.627 0 01-1.002 5.212c-.336 1.53-.708 3.056-1.203 4.543-.217.654-.461 1.316-.468 2.005-.004.436.09.872.268 1.27.223.497.59.94 1.069 1.202.043.024.088.046.133.067h-.066M117.265 70.222c-.492.2-.933.525-1.27.935-.224.272-.401.579-.601.869-.932 1.351-2.322 2.306-3.475 3.474-1.895 1.922-3.133 4.41-5.011 6.348a12.974 12.974 0 01-4.01 2.806" fill="none" stroke="#000" stroke-width=".265"/><path d="M102.899 84.654a17.102 17.102 0 00-2.64-.218c-.537-.003-1.072.02-1.607.047-.902.046-1.824.105-2.693-.142a5.843 5.843 0 01-1.04-.425c-1.407-.714-2.7-1.777-3.354-3.213a3.895 3.895 0 01-.332-1.114 2.643 2.643 0 01.095-1.154c.143-.436.416-.82.73-1.154.314-.334.672-.624 1.019-.925 1.559-1.353 2.903-2.933 4.205-4.535 2.146-2.642 4.199-5.36 6.151-8.147M125.89 54.832a1 1 0 01.052-.528c.061-.169.156-.323.262-.468.212-.29.47-.55.622-.874.055-.12.095-.247.152-.366a.704.704 0 01.249-.303.502.502 0 01.274-.072c.096.002.191.03.274.08a.72.72 0 01.32.46c.055.242.003.497-.087.728-.09.232-.215.448-.314.675-.11.252-.186.519-.322.757-.068.12-.15.232-.253.323a.809.809 0 01-.36.19.72.72 0 01-.56-.117.78.78 0 01-.309-.485zM110.048 67.015c.167-.275.345-.543.535-.802.243-.333.512-.66.868-.869a1.07 1.07 0 01.395-.146.61.61 0 01.407.08c.078.05.141.12.185.203a.67.67 0 01.074.265c.014.184-.041.369-.125.534a1.716 1.716 0 01-1.136.868c-.4.093-.832.045-1.203-.133z" fill="none" stroke="#000" stroke-width=".265"/><path d="M94.778 83.892a9.037 9.037 0 001.771-1.417c.623-.643 1.164-1.41 1.323-2.292a1.82 1.82 0 00.029-.512 1.013 1.013 0 00-.17-.48c-.155-.218-.41-.35-.673-.394a1.875 1.875 0 00-.792.063 3.525 3.525 0 00-1.418.78c-.754.673-1.209 1.609-1.677 2.504-.07.134-.14.268-.212.402" fill="none" stroke="#000" stroke-width=".265"/><path d="M79.89 256.032a48.028 48.028 0 007.572 4.35 48.093 48.093 0 0014.493 4.056" fill="none" stroke="#000" stroke-width=".274"/><path d="M103.3 261.72a14.486 14.486 0 01-7.256-1.497M133.68 254.865a46.798 46.798 0 0014.619 7.475M122.7 252.88c-.381.458-.756.921-1.124 1.39-.919 1.171-1.797 2.381-2.844 3.44a14.652 14.652 0 01-2.646 2.116M126.47 252.285a47.273 47.273 0 012.845 9.922M129.315 262.207l.265 1.654M132.755 256.651l1.918 7.21M77.548 261.92a10.903 10.903 0 001.544-4.255M126.76 53.529a.277.277 0 00-.044.147.687.687 0 00.016.154c.01.046.02.092.04.134.019.042.048.08.088.104.03.018.065.026.1.026a.249.249 0 00.1-.021.413.413 0 00.157-.133c.139-.182.186-.42.31-.612.054-.084.123-.16.16-.252a.306.306 0 00.024-.147.199.199 0 00-.065-.13.191.191 0 00-.118-.045.254.254 0 00-.123.03.508.508 0 00-.18.179c-.1.15-.178.324-.319.438-.05.041-.11.074-.146.128z" fill="none" stroke="#000" stroke-width=".265"/><path d="M127.007 53.684a.085.085 0 01.069.009c.02.012.035.034.039.058a.086.086 0 01-.018.067.085.085 0 01-.063.03.086.086 0 01-.07-.033.086.086 0 01-.012-.076.085.085 0 01.055-.055z" fill="none" stroke="#000" stroke-width=".265"/><path d="M132.48 216.472c-.002-.238.23-.684.513-.99.422-.455.386-.512-.193-.308-.39.137-.82.072-.955-.146-.227-.368.366-.58 1.2-.427.197.036.258-.2.133-.525-.293-.764 2.146-3.27 2.901-2.98.316.12.477.062.358-.13-.37-.598.75-2.48 1.62-2.727.776-.22.783-.269.11-.785-.394-.303-.618-.65-.498-.77s.301-.675.403-1.234c.156-.862-.033-1.083-1.244-1.455-1.125-.345-1.53-.316-1.907.139-.263.317-.642.577-.841.577-.654 0-.38-1.096.464-1.86.454-.412.83-1.045.836-1.408.005-.363.373-1.125.817-1.693.977-1.249 1.028-1.654.207-1.654a.63.63 0 01-.62-.634c0-1.22 2.473-4.364 3.824-4.861.398-.147.72-.412.717-.59-.01-.54-1.196-3.66-1.222-3.216-.042.705-.826-.783-.832-1.58-.004-.414.273-1.033.615-1.375.553-.553.553-.72 0-1.51-.342-.488-.622-1.381-.622-1.985 0-.603-.279-1.329-.62-1.612-.52-.431-.62-.365-.62.413 0 .75-.111.836-.58.447-.443-.368-.62-.362-.748.023-.289.867-1.153-.05-1.146-1.217.005-.905.09-.997.452-.493.397.551.423.551.238 0-.114-.34-.506-1.318-.871-2.17-.365-.853-.494-1.55-.288-1.55.608 0-.216-2.887-1.102-3.865-.444-.49-.94-1.447-1.102-2.128-.486-2.046-.97-2.372-2.329-1.57-1.492.882-1.875.504-1.32-1.303.501-1.636-.05-2.392-2.097-2.88-.649-.154-1.728-.686-2.399-1.182-.982-.726-1.287-.793-1.566-.342-.19.308-.537.442-.77.297-.233-.144-.503-.028-.6.257-.219.653-1.549-.327-1.549-1.14 0-.29-.279-.633-.62-.763-.362-.14-.62-.759-.62-1.49 0-.943-.506-1.767-2.056-3.35-2.188-2.235-2.393-2.649-1.888-3.807.49-1.125-1.417 4.366-4.174 2.446-.794-.553-4.445 3.877-4.03 3.449.285-.293 1.457-6.318 1.3-7.021l-.147-.652.146.652c-1.367 1.29-1.62 4.786-1.035 5.432.47.52 4.183 1.268 3.873 1.82-.241.432-3.516-10.882-3.354-9.706.325 2.366-.197 2.685-1.31.8-.798-1.35-1.68-1.607-2.065-.6-.207.537-.339.504-.838-.208-.844-1.205-1.436-1.05-1.117.292.35 1.472 1.33 2.584 2.28 2.584 1.264 0 2.01 2.17 2.268 6.607.206 3.548.15 4.141-.393 4.141-.348 0-1.042-.575-1.543-1.278-.687-.965-1.149-1.232-1.888-1.09-.925.176-.98.071-.988-1.926-.006-1.459-.26-2.434-.818-3.147-.864-1.105-1.093-2.48-.413-2.48.635 0 .49-1.902-.187-2.465-.33-.274-.958-.384-1.395-.245-.583.185-.858.017-1.026-.628-.128-.488-.427-.758-.673-.606-.243.15-.337.694-.208 1.209.146.58-.008 1.137-.405 1.466-.53.44-.89.384-2.094-.327-.8-.472-1.734-.751-2.074-.62-.341.13-.62.043-.62-.193s.407-.559.905-.717c.793-.252.825-.345.254-.761-.357-.261-.717-.822-.8-1.246-.243-1.234-2.315-1.23-3.46.006-.551.593-1.018.828-1.109.557-.102-.307-.689-.156-1.694.437-1.105.652-1.537 1.19-1.537 1.914 0 .825-.13.94-.723.635-.398-.204-.91-.32-1.137-.257-.228.063-.925.227-1.55.365-.835.184-1.138.502-1.138 1.194 0 1.313-.757 1.935-2.356 1.935-1.617 0-1.87 1.068-.537 2.274.97.879 1.064 1.447.236 1.447-.325 0-.903.312-1.286.695-.65.65-.72.648-1.1-.03-.38-.678-.455-.68-1.167-.036-.42.379-.674.918-.566 1.199.108.28-.006 1.04-.252 1.688-.394 1.037-.326 1.282.567 2.035.559.471 1.135 1.266 1.28 1.767.219.755-.01 1.05-1.336 1.727-.88.449-1.842 1.109-2.14 1.467-.296.357-.842.635-1.212.617-.428-.02-.485-.108-.156-.24 1.18-.477.448-1.047-1.033-.806-1.812.293-1.993.303-4.444.235l-1.86-.052v-1.536c0-1.941-.47-2.405-2.23-2.2-1.155.136-1.526.439-2.105 1.723-.716 1.588-3.407 4.44-4.013 4.252-.452-.14-2.153 1.596-2.256 2.301-.108.735-.559 1.186-.559.559 0-.265-.168-.482-.373-.482-.93 0-2.323 6.82-1.717 8.413.203.534.1 1.966-.258 3.577-.327 1.477-.677 3.244-.777 3.926-.1.682-.273 1.482-.384 1.778-.111.296-.018.425.207.286.365-.226.675 2.598.408 3.724-.054.227-.194 1.208-.31 2.18-.222 1.846-.805 2.619-1.331 1.766-.183-.294-.423.213-.587 1.236-.208 1.303-.123 1.853.34 2.204.34.258.683 1.126.761 1.93.079.805.274 1.676.435 1.936.16.26.12.58-.093.71-.211.131-.48.005-.595-.28-.166-.41-.292-.404-.595.027-.487.693-1.191-2.827-1.582-7.908-.262-3.392.114-6.018 1.077-7.522.261-.409.97-2.779 1.67-5.581.198-.796.473-3.307.612-5.581.303-4.983.849-7.352 2.13-9.239.927-1.367 1.2-2.716 1.036-5.126-.044-.656.655-2.535 1.653-4.441 2.162-4.13 8.194-12.373 8.602-11.712.19.307-.26 1.491.976.116 5.368 3.649-.862.067-.976-.116-.114-.184 3.875-3.88 5.219-4.891 1.722-1.295 2.973-1.678 4.934-2.17 5.15-1.294 6.05-2.135 8.012-7.483 1.88-5.126 5.255-11.797 10.714-21.17 4.889-8.396 9.408-17.278 10.369-20.378.317-1.023.797-2.232 1.066-2.687.427-.722.945-2.27 1.26-3.773.27-1.28.69-2.221.993-2.221.435 0 .323 2.098-.151 2.85-.2.316 2.492 1.151 2.41 1.855-.082.704-.773 1.635-.911 2.07-.192.605-2.507.731-2.001.537.416-.16.822.047 1.095.558.342.638.303.811-.185.811-.341 0-.806.347-1.033.77-.352.659 3.107-1.77 4.467-1.235 1.39.546-1.724 3.392-1.905 4.34-.133.694 2.094-5.272 2.417-5.272.28 0-1.72 6.081-1.851 5.738-.15-.39.004-.62.417-.62.466 0-.284 1.315-.417.62-.103-.538.908-2.861 1.163-3.21.415-.568.641-.555 2.116.121 1.715.786 3.322 1.016 6.218.89 1.538-.068 1.682-.166 1.517-1.03-.108-.568.093-1.184.497-1.519.765-.635 5.786-1.074 5.415-.473-.13.209.042.487.382.617s.618.533.618.895c0 .361.186.542.413.402.536-.331.522-.07-.066 1.22-.264.58-.775 1.068-1.137 1.086-.394.02-.458.113-.162.234.373.152.383.45.037 1.208-.252.553-.6 1.006-.775 1.006-.174 0-.597.561-.939 1.247-.342.686-.449 1.14-.237 1.01.534-.33.482.072-.177 1.38-.487.97-.429 1.992.442 7.732 1.368 9.019 1.6 10.338 1.911 10.845.107.174.3.985.43 1.801.364 2.305 3.058 10.965 4.569 14.687 2.025 4.99 3.83 7.392 9.74 12.951 4.502 4.237 5.58 5.497 6.812 7.958 1.166 2.331 1.463 3.407 1.463 5.3 0 1.306.305 3.094.679 3.975 1.202 2.837.835 8.072-1.1 15.685a390.188 390.188 0 00-3.061 13.2c-1.664 7.93-2.567 10.42-4.889 13.475-2.62 3.447-5.266 6.428-5.269 5.935zM47.595 186.03c-.132-.33-.23-.232-.25.25-.017.435.08.68.218.542.137-.137.152-.494.032-.792zm4.138-18.415c-.104-.402-.197-.173-.205.509-.009.682.077 1.011.19.731.113-.28.12-.838.015-1.24zm17.904-1.86c0-.242-.263-.201-.62.095-.341.283-.62.58-.62.658 0 .079.279.036.62-.095.341-.13.62-.427.62-.658zm-17.524.169c-.116-.187.173-.668.642-1.07 1.098-.94.44-1.786-.85-1.095-.977.523-1.116 1.268-.375 2.008.57.57.891.657.583.157zm18.764-1.314a.415.415 0 00-.413-.413.415.415 0 00-.414.413.415.415 0 00.827 0zm50.099-4.224c-.297-.296-.49-.32-.49-.062 0 .235.125.551.276.703.152.152.372.18.49.062.117-.117-.007-.434-.276-.703zm-63.733-4.674c.799-.963.229-1.144-.626-.2-.413.457-.559.83-.324.83.235 0 .662-.284.95-.63zm1.645-1.9c0-.227-.186-.298-.413-.157-.227.14-.413.441-.413.668 0 .228.186.299.413.158.227-.14.413-.441.413-.669zm16.537-3.126c0-.832-.68-.322-.951.712-.184.704-.12.77.363.37.323-.269.588-.756.588-1.082zm5.318-2.557c.825-.825.498-1.71-.632-1.71-.288 0-.722-.371-.966-.826-.578-1.08.44 2.21-1.191 3.456-1.231.938-2.836-2.123-2.432-1.054.412 1.091.58 1.164 2.432 1.054 1.293-.078 2.269-.4 2.79-.92zm17.626-3.363c0-1.133-.92-1.602-1.284-.654-.342.891.134 2.002.768 1.791.284-.095.516-.606.516-1.137zm-11.657-2.114c.671-1.067.045-2.02-1.328-2.02-1.48 0-2.076.763-1.134 1.452.376.275.683.725.683 1.001 0 .691 1.265.383 1.779-.433zm2.528.195c.143-.374.175-.765.071-.869-.328-.328-1.07.332-1.07.952 0 .811.677.754.999-.083zm12.643.197c0-.19-.175-.345-.389-.345a.794.794 0 00-.602.345c-.117.19.058.344.39.344.33 0 .601-.155.601-.344zm9.095-2.574c0-.09-.289-.274-.641-.41-.368-.14-.534-.07-.39.163.243.393 1.031.581 1.031.247zm-13.229-1.698c0-.341-.073-.62-.162-.62-.09 0-.27.279-.4.62-.132.34-.059.62.162.62.22 0 .4-.28.4-.62zm9.4-3.204c-.352-.987-.52-1.145-.634-.596-.193.935.174 1.94.708 1.94.249 0 .22-.518-.075-1.344zM92.544 124.57c.296-.48-1.888 4.134-2.652 4.038-1.365-.17-.825-5.722-.825-5.12 0 .999 2.96 1.92 3.477 1.082zm6.333-15.607c-.137-.137-.494-.152-.792-.033-.33.132-.232.23.25.25.435.018.68-.08.542-.217zm7.554-3.836c0-.46 2.499.911 1.982 1.23-.212.132-4.3-1.429-3.99-1.233.735.466 2.008.468 2.008.003zm5.787-7.076c-.801-.518-1.24-.518-1.24 0 0 .227-2.358 1.36-1.847 1.357.752-.005 3.589-1.033 3.087-1.357z" fill="#fbf5da"/><path d="M103.474 63.182a8.885 8.885 0 01-.065-.922c-.028-1.022.097-1.74.468-2.667.46-1.152 1.109-2.125 2.7-4.052 1.048-1.268 1.382-1.706 2.128-2.782l.062-.09-.015.11c-.008.06-.024.213-.035.341-.016.192-.07.34-.317.859a60.027 60.027 0 00-2.059 4.938c-.635 1.72-1.058 2.574-1.646 3.327a7.957 7.957 0 01-.99 1.03l-.186.154z" fill="#f7f2de"/><path d="M126.503 55.303a.625.625 0 01-.476-.473 1.141 1.141 0 010-.332c.037-.176.132-.369.278-.57.064-.088.29-.374.292-.37a.81.81 0 00.001.292c.03.143.062.212.13.28.073.073.149.101.256.095a.402.402 0 00.278-.137c.093-.092.15-.188.252-.426.073-.17.104-.228.182-.34.11-.158.142-.233.148-.345a.327.327 0 00-.086-.255.328.328 0 00-.356-.08.44.44 0 00-.17.104c-.06.057-.102.113-.19.257a1.37 1.37 0 01-.17.245.499.499 0 01-.11.09c.001-.003.021-.035.045-.07.09-.137.131-.22.213-.423.093-.233.13-.3.212-.381a.362.362 0 01.355-.097c.062.015.145.061.197.11.199.186.249.469.145.826-.036.127-.084.238-.243.566-.103.21-.141.298-.227.523a9.867 9.867 0 01-.098.245c-.156.366-.343.574-.587.653a.408.408 0 01-.142.02.608.608 0 01-.13-.007z" fill="#000034"/><path d="M127.197 53.623a.195.195 0 00-.15-.073.201.201 0 00-.147.041c-.016.012-.029.02-.029.017 0-.008.037-.04.094-.083.101-.076.177-.17.293-.36a5.25 5.25 0 01.077-.123c.083-.126.177-.183.225-.136.015.016.016.02.014.06-.003.05-.02.089-.07.16a1.74 1.74 0 00-.234.42l-.047.11z" fill="#323232"/><path d="M110.467 67.006c-.096-.02-.174-.053-.174-.074 0-.106.614-.928.882-1.181.296-.28.517-.396.754-.398.177-.001.208.01.302.116.14.157.169.33.091.566-.234.717-1.042 1.14-1.855.97z" fill="#520"/><path d="M102.236 84.42c-.88-.119-1.901-.153-3.015-.102-2.312.107-2.973.046-3.879-.362l-.227-.103.254-.179c1.127-.798 2.05-1.841 2.426-2.743.442-1.062.294-1.874-.399-2.185-.254-.114-.748-.126-1.137-.028-.4.101-.905.35-1.272.626-.641.483-1.13 1.154-1.83 2.511-.127.246-.244.448-.26.448-.05 0-.474-.494-.714-.83a5.497 5.497 0 01-.62-1.164c-.273-.726-.263-1.534.026-2.108.258-.514.517-.8 1.548-1.708a33.078 33.078 0 002.633-2.65c1.97-2.246 5.07-6.244 7.373-9.506.309-.436.447-.598.656-.765a7.765 7.765 0 001.184-1.226c.631-.849.928-1.458 1.658-3.4a65.064 65.064 0 011.33-3.318c.405-.92.796-1.758.812-1.741.008.008.073.234.144.503.277 1.052.673 2.13 1.112 3.028.33.677.446.855.64.989.304.209.485.229 1.638.184 1.114-.043 1.44-.089 2.077-.294.955-.307 2.46-1.071 3.568-1.813.192-.128.352-.229.356-.225.016.017-.254 1.517-.483 2.676-.585 2.966-1.038 4.81-1.624 6.62-.338 1.041-.42 1.357-.473 1.833-.107.953.263 1.952.955 2.578.125.113.244.205.266.205.022 0-.06.06-.18.132-.524.316-.84.642-1.323 1.367-.564.845-1 1.316-2.294 2.476-1.735 1.555-2.183 2.07-3.95 4.545-1.284 1.797-1.801 2.443-2.59 3.229-.7.698-1.546 1.36-2.376 1.86-.609.367-1.313.716-1.432.71a13.43 13.43 0 01-.578-.07zm8.901-17.114c.26-.029.504-.124.776-.304.757-.501.976-1.39.448-1.817-.127-.102-.16-.111-.418-.111-.236 0-.312.016-.488.106-.274.138-.561.398-.848.765-.22.282-.698.994-.738 1.1-.04.103.725.323 1.009.29l.26-.029z" fill="#f60"/><path d="M94.434 83.48a7.364 7.364 0 01-.963-.664 14.886 14.886 0 00-.3-.238c-.049-.035.138-.423.617-1.28.615-1.1 1.218-1.732 2.004-2.099.438-.205.716-.268 1.093-.25.39.017.602.125.75.38.284.483.021 1.5-.609 2.355-.283.385-.934 1.052-1.367 1.402-.327.264-.81.606-.854.605-.013-.001-.18-.096-.37-.211zM105.891 265.078c-1.099-.512-1.745-.67-3.15-.77-1.699-.122-4.54-.594-6.548-1.089-5.33-1.313-10.33-3.476-14.828-6.415-.727-.475-1.367-.864-1.42-.864-.536 0 1.1 1.178 3.725 2.682 4.363 2.5 9.292 4.339 14.348 5.354l1.927.387-1.177.03c-.647.015-1.856-.044-2.685-.132a78.076 78.076 0 00-3.783-.264c-1.25-.056-3.53-.25-5.064-.43-2.469-.289-3.118-.327-5.633-.33-2.387-.004-3.107.032-4.496.224-2.744.38-3.38.285-3.735-.566-.233-.555-.107-1.11.527-2.329.907-1.74.917-1.793.943-4.988.021-2.46.052-2.925.263-3.928.349-1.663.33-3.386-.052-4.642-.766-2.522-3.897-9.787-6.416-14.891-1.52-3.08-1.71-3.553-1.71-4.267.001-.844.475-1.369 1.567-1.733.29-.096.758-.404 1.178-.775.616-.544.747-.615 1.132-.615.623 0 .98.288 1.666 1.344.57.878 1.028 1.306 2.26 2.113 1.243.814 1.826 1.385 2.14 2.096.147.332.377 1.754.812 5.026.773 5.805 1.12 7.506 2.144 10.505.992 2.908 1.985 4.662 3.399 6.005.767.728 1.35 1.117 4.011 2.68 3.528 2.07 6.11 3.345 7.907 3.903.369.115 1.067.381 1.55.591 2.653 1.155 3.39 1.295 7.245 1.378 2.37.05 3.203.101 3.325.203.22.183.384.682.278.852-.047.077-.066.172-.04.212.024.04-.097.193-.27.339-.359.3-1.199.58-1.746.58-.385 0-1.49-.47-1.943-.827-.225-.177-.42-.206-1.367-.206-1.797 0-3.753-.42-5.372-1.151-.41-.186-.701-.263-.76-.204-.172.171.015.3.987.675 1.754.679 3.861 1.093 5.557 1.093.509 0 .694.049.96.251.18.138.562.35.846.471.284.121.949.481 1.478.8 1.383.834 1.76 1.362 1.237 1.728-.317.222-.557.201-1.217-.106zm-27.687-4c.396-.777.888-2.255.978-2.942.058-.445.043-.543-.084-.543-.107 0-.193.192-.276.617-.182.92-.49 1.816-.955 2.764-.23.47-.381.903-.34.971.097.156.265-.059.677-.866zM131.056 265.019c-.113-.062-.453-.367-.755-.677l-.548-.564-.248-1.413c-.444-2.526-.738-3.775-1.413-6.012-.396-1.312-1.363-4-1.481-4.118-.03-.03-.105-.003-.167.059-.082.082.002.408.303 1.182.584 1.503 1.296 3.805 1.72 5.564.347 1.435.884 4.18.884 4.514 0 .302-3.365.005-6.201-.547-1.765-.343-2.66-.44-6.046-.658a56.201 56.201 0 01-3.308-.331c-1.214-.166-2.141-.224-3.488-.219-1.009.004-1.834-.034-1.834-.084s.153-.091.34-.091c.873 0 2.5-.64 3.696-1.451.984-.668 2.601-2.103 4.027-3.572 1.212-1.25 1.976-2.148 3.635-4.279.376-.483.897-1.085 1.158-1.338.26-.252.526-.618.59-.812.1-.303.088-.391-.086-.626-.297-.398-.63-.388-1.491.046-1.177.594-2.534.629-3.185.081-.652-.549-.277-1.491.928-2.326.312-.217 1.186-.657 1.94-.979 1.539-.655 2.052-.984 2.5-1.602 1.1-1.517 1.101-3.813.006-8.557-.71-3.077-1.5-6.95-2.011-9.868l-.36-2.055.607-.839c.652-.9 1.792-2.889 1.976-3.445.061-.187.155-.34.208-.34.085 0 4.841 2.346 4.938 2.436.021.02-.061.56-.182 1.203-.748 3.955-.805 7.81-.165 10.994.143.707.592 2.232 1.035 3.514 1.1 3.18 1.73 5.688 2.428 9.656.379 2.155.588 2.664 1.468 3.581 2.161 2.25 9.147 6.628 13.056 8.18 2.222.883 4.8 1.57 6.51 1.733.81.077 1.113.225 1.332.648.274.53.26 1.632-.026 1.938-.175.188-.352.206-2.328.229-1.686.019-2.536-.024-4.022-.204-1.696-.206-2.346-.228-6.535-.221-3.892.006-4.732.033-5.148.166-.367.118-.508.128-.539.039-.023-.067-.443-1.633-.933-3.48-.49-1.848-.922-3.392-.96-3.432-.038-.04-.119-.04-.18 0-.073.048.195 1.215.8 3.483.501 1.876.911 3.48.912 3.566 0 .15-.356.376-1.741 1.102-.683.358-1.234.435-1.616.226zm17.312-2.701c0-.078-.443-.277-1.06-.477-4.244-1.378-9.52-4.096-12.86-6.624-.488-.37-.712-.485-.768-.396-.111.18-.095.196 1.02.99a47.519 47.519 0 0012.014 6.184c1.384.48 1.654.532 1.654.323zm-31.21-3.027c1.13-.829 2.125-1.87 3.799-3.972.882-1.108 1.668-2.09 1.746-2.181.117-.137.118-.186.005-.28-.106-.088-.478.32-1.718 1.89-1.797 2.273-2.888 3.417-4.119 4.314-.833.608-.921.702-.787.836.086.086.271-.019 1.074-.607z" fill="#d45500"/><path d="M131.839 173.2a3.363 3.363 0 012.028 1.314c.481.67.701 1.522.603 2.34-.09.754-.433 1.45-.656 2.176a3.94 3.94 0 00-.197 1.117c-.003.38.075.765.268 1.092.222.376.582.654.97.852.388.2.808.327 1.223.463.64.211 1.28.452 1.826.849.272.198.518.435.71.711.194.276.333.593.387.925.086.529-.044 1.071-.243 1.569-.198.497-.464.966-.666 1.462-.203.496-.343 1.034-.27 1.565.035.266.125.525.276.747.15.222.362.404.61.504.192.076.4.103.592.176a.87.87 0 01.267.153c.077.067.14.156.165.255a.472.472 0 01-.014.27.578.578 0 01-.15.227.884.884 0 01-.495.215c-.363.048-.736-.052-1.095.02-.25.048-.479.18-.661.356-.183.177-.32.397-.416.632-.192.47-.221.988-.239 1.496-.03.885-.035 1.784-.292 2.63-.346 1.14-1.118 2.091-1.765 3.09-.323.5-.62 1.022-.817 1.585-.196.562-.288 1.169-.195 1.757.029.183.076.366.17.526.094.16.238.296.415.351.144.045.3.035.448 0 .147-.035.287-.094.429-.146.313-.115.644-.198.978-.19.334.008.673.113.922.336.234.21.372.509.454.813.082.304.115.618.176.927.06.309.151.62.335.875.092.127.207.24.342.321.134.082.29.131.447.133.073.001.146-.008.22-.012a.704.704 0 01.218.012c.12.03.225.115.28.226.056.11.06.245.013.36" fill="none" stroke="#000" stroke-width=".265"/><path d="M82.785 239.372c-.284-.05-1.377-.239-2.429-.418-1.264-.215-1.912-.417-1.912-.595 0-1.287-1.095-7.953-1.406-8.56-.246-.479-.945-1.134-1.959-1.836-.867-.6-1.782-1.39-2.033-1.757-.959-1.398-1.464-1.802-2.253-1.802-.54 0-.892.15-1.253.533-.275.293-.954.728-1.508.967-.764.328-1.08.605-1.304 1.141-.379.906-.23 1.579.8 3.633.447.893.77 1.666.718 1.72-.112.11-6.186-4.196-10.37-7.353-3.654-2.758-7.478-6.536-9.089-8.98-3.324-5.041-4.69-11.03-4.699-20.6-.006-7.201.687-12.977 2.32-19.327.841-3.272 1.61-5.625 1.635-5.005.028.678 1.978-6.805 2.606-6.44.845.494 1.259 9.177 2.106 8.66 1.032-.629 1.878-1.982 2.452-3.92.764-2.576-4.955.37-4.178-.312.942-.827 7.8-4.062 8.54-3.267.292.313.434-5.134.79-4.51.503.889 1.251 7.461 2.034 7.85.968.48 1.072.488 3.076.27 1.938-.21 2.202-.192 4.013.279 1.067.277 2.211.504 2.543.504 1.428 0 2.492-.88 2.492-2.06 0-.996-.411-1.523-1.946-2.492-1.313-.829-1.775-1.455-1.775-2.403 0-.791.576-1.851 1.31-2.411.972-.74 3.054-1.745 4.196-2.024 1.238-.302 1.522-.514 1.522-1.134 0-.607-.553-.912-1.654-.912-1.052 0-1.653-.301-1.653-.827 0-.597.74-.894 1.839-.739 3.473.492 3.756.419 4.742-1.23.851-1.424 1.228-1.627 2.698-1.457 3.582.414 3.608.412 4.347-.21.657-.552.682-.627.587-1.726-.054-.632-.058-1.265-.008-1.408.182-.513.883-.25 1.395.522.284.43.82.953 1.191 1.164.371.212 2.231-1.096 2.972-.315 1.418 1.494 1.166-1.48 1.98-2.077.335-.247.264 4.805.228 3.667-.04-1.241-.693-3.363-.228-3.667.43-.283 1.3 1.68 1.832 1.9 0 0 1.499-.75 1.67-.42.324.627 3.243 4.207 3.254 6.571.012 2.28-.862 1.083.115 2.099 1.934 2.011.3 3.004 1.496.636.936-1.852.738.62-1.458-1.405-1.748-1.612.245-4.351.245-5.323 0-1.167.49-1.543 2.012-1.543 1.44 0 1.655-.15 2.164-1.507.45-1.201.74-1.312 2.376-.908 1.669.412 2.697 1.01 3.225 1.877.472.774.494 1.577.085 3.148-.24.922 3.255-1.524 3.43-.868.494 1.858.392 3.408 3.132 3.971 2.902.597 18.123 1.175 10.69 6.892.135 1.716-5.915-2.397-5.304-1.786.45.45 6.007 4.265 7.01 4.564 1.88.56 12.25 6.254 12.25 6.254-10.314 4.253-16.366.48-14.937.48.98 0 2.02-1.222 2.02-2.374 0-.767 6.26.21 5.396-.576-.74-.672-7.414 5.45-7.031 5.213.11-.067.181-8.26.695-7.488 1.087 1.635 1.518 3.253 1.187 4.453-.225.815-.193.867.856 1.394 1.446.725 4.593 1.789 3.899 3.927-.854 2.63-.675-.131 1.903.809 3.552-2.455 1.751 4.912 1.751 5.894 0 .325.574 1.996.233 2.797-.341.802.232 1.473.232 1.712 0 .742-.274 1.703.382 1.931.938.328-.652 2.902-1.662 2.902-.548 0-.373-.597-.736-.284-.482.414-.005-1.087-.26.986-.159 1.28-1.231 2.237-1.31 2.377-.08.14 1.95 2.679 1.32 3.685-.986 1.574.908 7.273.83 8.335-.056.794-5.788-4.569-5.63-4.413.143.141.872.243 1.732.243h1.484l.414 1.264c.492 1.505 1.513 1.392 2.15 1.392 1.014 0 .03 1.298-2.057 4.062-1.166 1.545-5.038 5.967-7.76 8.863l-1.434 1.525-2.502-1.254-2.502-1.255.49-1.689c.506-1.747.603-2.47.332-2.47-.086 0-.32.723-.518 1.606-.475 2.113-2.116 5.42-3.646 7.344-2.72 3.423-8.25 7.253-15.586 10.795-4.374 2.112-8.083 3.353-12.442 4.165-1.592.296-7.928.55-8.992.361z" fill="#f7f2de"/><path d="M133.64 204.21c-.104-.227-.142-.475-.143-.931 0-1.114.253-1.74 1.45-3.571 1.389-2.122 1.471-2.37 1.616-4.833.074-1.255.185-1.729.511-2.179.322-.444.677-.599 1.377-.599.834 0 1.183-.159 1.183-.54 0-.186-.288-.394-.677-.487-.44-.106-.894-.485-1.087-.91-.154-.337-.181-1.15-.055-1.605.045-.16.273-.72.507-1.243.506-1.13.609-1.505.568-2.067-.341-1.621-1.595-2.143-2.918-2.614-1.67-.59-2.21-1.038-2.408-1.99-.118-.57-.037-1.059.388-2.32.284-.844.377-1.231.403-1.687.084-1.457-.725-2.68-2.12-3.207-.352-.133-.51-.387-.183-.294.826.235-18.18 13.183-17.817 13.9.54 1.063 20.48-10.335 19.922-8.68-.438 1.296-.515 1.84-.343 2.43.22.76.749 1.145 2.303 1.68 1.101.379 1.745.721 2.201 1.17.495.488.744.993.787 1.6.044.602-.082 1.052-.618 2.224-.718 1.566-.757 2.391-.142 3.005.217.215.423.335.73.424.756.219 1.004.722.56 1.137-.254.237-.497.294-1.224.286-.425-.004-.58.026-.79.156-.603.372-.79.98-.901 2.921-.04.704-.126 1.476-.19 1.718-.173.654-.61 1.52-1.26 2.492-1.136 1.7-1.47 2.404-1.587 3.336-.068.546.064 1.19.291 1.417l.172.172h-.183c-.144 0-.213-.065-.324-.31zM104.644 95.558c-.875-.312-1.426-1.209-1.506-2.453-.023-.366.013-1.143.089-1.897.162-1.62.164-3.917.005-5.254-.065-.542-.135-1.041-.157-1.11-.03-.095.069-.179.42-.355 1.18-.596 2.164-1.3 3.195-2.291.84-.808 1.481-1.597 2.894-3.563 1.385-1.927 2.036-2.704 3.02-3.6 1.724-1.575 2.448-2.326 3.034-3.151.577-.815 1.058-1.282 1.508-1.468.303-.125.294-.318-.024-.513-.507-.313-.926-1.015-1.07-1.797-.102-.547-.013-1.039.45-2.495.649-2.046 1.372-5.148 1.973-8.472.215-1.19.214-1.315-.019-1.32-.028 0-.324.176-.658.392-1.425.924-2.833 1.613-3.84 1.878-.45.12-.818.152-1.784.162-1.449.014-1.383.047-1.862-.948a15.621 15.621 0 01-1.09-2.981c-.206-.801-.267-.952-.393-.972-.16-.024-.147-.047-.974 1.775-.414.912-1.026 2.42-1.623 3.994a35.86 35.86 0 01-.624 1.55 8.25 8.25 0 01-1.55 2.226l-.54.533-.05-.284c-.092-.519-.062-1.847.056-2.422.312-1.527 1.034-2.742 3.175-5.341 1.09-1.324 1.933-2.478 2.44-3.34l.353-.601h11.329l11.135-.246.27.446c.175.457.736 2.462.945 3.377.73 3.199 1.052 6.899.888 10.165-.275 5.447-1.252 9.681-3.716 16.102a274.643 274.643 0 01-2.932 7.151l-.427.985-6.136 12.448c-.931.207 1.937-7.285 1.137-6.893-1.07.524-.271-3.426-1.721-2.298-1.455 1.133-1.938 1.46-2.749 1.862-1.477.732-2.429.77-4.747.183-1.788-.453-2.433-.553-3.172-.492-.72.06-1.22.226-2.303.768-1.3.65-1.989.796-2.65.56zm22.382-40.067c.281-.146.444-.388.808-1.208.521-1.17.55-1.573.146-1.977-.16-.16-.278-.21-.495-.21-.33 0-.497.147-.75.657-.09.18-.293.5-.453.708-.391.512-.57.88-.57 1.172 0 .7.715 1.167 1.314.858z" fill="#f7f2de"/><path d="M109.555 51.305c.154-.331.793-1.903 1.076-2.755.283-.852.63-1.8.771-2.105 1.166-2.523 3.598-4.147 7.132-4.762 1.328-.232 3.28-.265 4.386-.076 3.586.614 5.879 2.526 7.863 6.556.444.903 1.272 2.891 1.272 3.057 0 .065-1.032.692-9.57.45l-12.993-.23z" fill="#f7f2de"/><ellipse ry="6.946" rx="4.858" cy="149.598" cx="91.57" fill="#fbf5da"/><ellipse ry="6.946" rx="4.858" cy="150.859" cx="103.663" fill="#fbf5da"/><ellipse ry="2.067" rx="1.964" cy="144.658" cx="98.392" fill="#fbf5da"/><ellipse ry="4.651" rx="11.369" cy="140.11" cx="105.73" fill="#fbf5da"/><ellipse ry="4.599" rx="5.891" cy="135.821" cx="108.727" fill="#fbf5da"/><ellipse ry="3.772" rx="7.028" cy="143.056" cx="88.573" fill="#fbf5da"/><ellipse ry="3.411" rx="9.147" cy="149.309" cx="81.494" fill="#fbf5da"/><ellipse ry="2.356" rx="1.666" cy="145.774" cx="79.078" fill="#fbf5da"/><ellipse ry="3.101" rx="4.341" cy="153.546" cx="76.481" fill="#fbf5da"/><ellipse ry="3.535" rx="3.76" cy="151.665" cx="84.504" fill="#fbf5da"/><ellipse ry="5.335" rx="3.033" cy="161.726" cx="68.806" fill="#fbf5da"/><ellipse ry="2.448" rx=".512" cy="159.059" cx="73.447" fill="#fbf5da"/><ellipse ry="3.325" rx="1.315" cy="157.67" cx="75.786" fill="#fbf5da"/><ellipse ry="2.85" rx="1.133" cy="156.172" cx="79.111" fill="#fbf5da"/><ellipse ry="2.485" rx="1.096" cy="153.833" cx="80.755" fill="#fbf5da"/><ellipse ry="3.8" rx="2.302" cy="155.88" cx="76.041" fill="#fbf5da"/><ellipse ry="2.521" rx="2.266" cy="158.62" cx="72.643" fill="#fbf5da"/><ellipse ry="5.993" rx="8.222" cy="165.673" cx="68.368" fill="#fbf5da"/><ellipse ry="1.754" rx="2.741" cy="163.334" cx="77.064" fill="#fbf5da"/><path d="M60.146 166.33l-2.586 2.043 1.798-1.319-3.027 1.304 2.079-.809-3.262.476 2.217-.243-3.273-.385 2.204.34-3.062-1.22 2.042.899-2.643-1.97 1.74 1.396-2.043-2.587 1.319 1.799-1.304-3.027.809 2.078-.476-3.26.243 2.216.385-3.273-.34 2.204 1.22-3.062-.899 2.041 1.97-2.642-1.396 1.74 2.587-2.043-1.799 1.319 3.027-1.304-2.078.809 3.26-.476-2.216.243 3.273.384-2.204-.339 3.062 1.219-2.041-.898 2.642 1.97-1.74-1.396 2.043 2.586-1.319-1.798 1.304 3.027-.809-2.079.476 3.262-.243-2.217-.384 3.273.339-2.204-1.219 3.062.898-2.042-1.97 2.643z" fill="#fbf5da"/><ellipse ry="3.217" rx="4.224" cy="171.59" cx="53.335" fill="#fbf5da"/><ellipse ry="6.564" rx="1.858" cy="168.536" cx="55.145" fill="#fbf5da"/><ellipse ry="2.667" rx="2.083" cy="166.513" cx="52.509" fill="#fbf5da"/><ellipse ry="1.206" rx=".174" cy="163.05" cx="52.504" fill="#fbf5da"/><ellipse ry=".355" rx=".775" cy="153.457" cx="59.664" fill="#fbf5da"/><ellipse ry="1.973" rx="1.754" cy="155.587" cx="59.123" fill="#fbf5da"/><ellipse ry=".792" rx="1.051" cy="163.784" cx="51.916" fill="#fbf5da"/><ellipse ry="4.933" rx="1.462" cy="151.604" cx="65.773" fill="#fbf5da"/><path fill="#fbf5da" d="M60.95 149.595h2.85v1.9h-2.85z"/><ellipse ry="1.344" rx=".517" cy="97.219" cx="105.782" fill="#fbf5da"/><ellipse ry="1.563" rx="4.625" cy="94.958" cx="112.887" fill="#fbf5da"/><ellipse ry="1.382" rx="2.532" cy="98.653" cx="110.407" fill="#fbf5da"/><path d="M119.97 224.17c.859-1.001 1.594-2.107 2.186-3.284.675-1.346 1.16-2.78 1.534-4.24.137-.532.259-1.068.366-1.607" fill="none" stroke="#000" stroke-width=".265"/></g><text style="line-height:1.25" x="839.626" y="167.39" transform="scale(.808 1.23761)" font-weight="400" font-size="32.32" font-family="sans-serif" letter-spacing="0" word-spacing="0" stroke-width=".808"><tspan x="839.626" y="167.39" style="-inkscape-font-specification:Rosario" font-family="Rosario">February</tspan></text><path d="M126.806 271.792L103.39 284.74v11.979l15.723.987-.677 10.317-12.66.328-9.402 6.803 9.402 6.976 11.628.174v5.314l-8.37.329.339 9.157 7.853.329.178 6.3-17.433-7.962-1.71 18.107-5.467-2.493 3.58-6.976-7.693-4.657-4.79 7.305-5.128-3.15 5.644-9.798-.516-11.805-11.61 4.483-5.983 10.144-9.919-4.484 6.838-12.636-10.951-6.318-22.9 12.792-.338 26.104 10.773 5.816 8.37-12.134 9.58 5.14-6.678 10.82 1.193 11.13 11.628-4.327 5.823-10.629 5.805 2.977-4.612 7.652 8.547 4.812 4.096-7.634 6.16 3.48-16.417 11.632 16.418 11.632-6.161 3.497-4.096-7.651-8.547 4.83 4.612 7.807-5.805 2.821-5.823-10.628-11.628-4.328-1.193 11.13 6.678 10.802-9.58 5.159-8.37-12.135-10.773 5.99.338 25.913 22.9 12.81 10.951-6.163-6.838-12.792 9.919-4.484 5.983 10.144 11.61 4.484.516-11.789-5.644-9.815 5.128-3.167 4.79 7.322 7.693-4.657-3.58-6.976 5.467-2.492 1.71 18.106 17.433-7.98-.178 6.492-7.853.173-.339 9.295 8.37.173v5.315l-11.628.155-9.402 6.994 9.402 6.803 12.66.346.677 10.3-15.723 1.16v11.788l23.416 12.982 23.416-12.982v-11.789l-15.724-1.16.677-10.299 12.66-.346 9.403-6.803-9.402-6.994-11.806-.155v-5.315l8.387-.173-.178-9.295-7.853-.173-.356-6.492 17.45 7.98 1.87-18.106 5.467 2.492-3.58 6.976 7.693 4.657 4.612-7.322 5.307 3.167-5.645 9.815.338 11.789 11.788-4.484 5.984-10.144 9.918 4.484-6.838 12.792 10.951 6.163 22.9-12.81.338-25.914-10.773-5.989-8.369 12.135-9.58-5.159 6.5-10.801-1.016-11.131-11.628 4.328-5.822 10.628-5.983-2.821 4.79-7.807-8.548-4.83-4.095 7.651-6.162-3.497 16.418-11.632-16.418-11.633 6.162-3.479 4.095 7.634 8.548-4.812-4.79-7.652 5.983-2.977 5.822 10.629 11.628 4.327 1.015-11.13-6.5-10.82 9.581-5.14 8.37 12.134 10.772-5.816-.338-26.104-22.9-12.792-10.95 6.318 6.837 12.636-9.918 4.484-5.984-10.144-11.788-4.483-.338 11.805 5.645 9.798-5.307 3.15-4.612-7.305-7.692 4.657 3.579 6.976-5.467 2.493-1.87-18.107-17.45 7.963.356-6.301 7.853-.33.178-9.156-8.387-.33v-5.313l11.806-.174 9.402-6.976-9.402-6.803-12.661-.328-.677-10.317 15.724-.987V284.74zM495.164 516.768l-15.433 8.044v7.442l10.363.613-.446 6.41-8.344.204-6.197 4.226 6.197 4.334 7.663.107v3.302l-5.516.204.223 5.69 5.176.203.117 3.915-11.49-4.947-1.126 11.249-3.603-1.549 2.359-4.334-5.07-2.893-3.157 4.539-3.38-1.958 3.72-6.086-.34-7.335-7.652 2.786-3.943 6.302-6.537-2.786 4.506-7.85-7.217-3.925-15.093 7.947-.223 16.217 7.1 3.613 5.516-7.538 6.314 3.194-4.4 6.72.786 6.916 7.663-2.689 3.838-6.603 3.826 1.85-3.04 4.753 5.634 2.99 2.699-4.743 4.06 2.162-10.82 7.226 10.82 7.227-4.06 2.172-2.7-4.753-5.633 3 3.04 4.85-3.826 1.753-3.838-6.602-7.663-2.689-.787 6.915 4.401 6.71-6.314 3.205-5.515-7.539-7.1 3.721.222 16.1 15.093 7.957 7.217-3.828-4.506-7.948 6.537-2.785 3.943 6.302 7.652 2.785.34-7.323-3.72-6.098 3.38-1.968 3.157 4.55 5.07-2.894-2.359-4.333 3.603-1.549 1.127 11.249 11.49-4.958-.118 4.033-5.176.107-.223 5.775 5.516.108v3.301l-7.663.097-6.197 4.345 6.197 4.226 8.344.215.446 6.399-10.363.72v7.324l15.433 8.065 15.433-8.065v-7.324l-10.363-.72.446-6.399 8.344-.215 6.197-4.226-6.197-4.345-7.78-.097v-3.301l5.527-.108-.117-5.775-5.176-.107-.235-4.033 11.502 4.958 1.232-11.249 3.603 1.549-2.36 4.333 5.07 2.893 3.04-4.549 3.498 1.968-3.72 6.098.222 7.323 7.77-2.785 3.943-6.302 6.537 2.785-4.507 7.948 7.218 3.828 15.093-7.958.223-16.099-7.1-3.72-5.517 7.538-6.314-3.205 4.284-6.71-.669-6.915-7.664 2.689-3.837 6.602-3.944-1.752 3.157-4.85-5.633-3-2.7 4.752-4.06-2.172 10.82-7.227-10.82-7.226 4.06-2.162 2.7 4.743 5.633-2.99-3.157-4.753 3.944-1.85 3.837 6.603 7.664 2.689.669-6.915-4.284-6.721 6.314-3.194 5.516 7.538 7.1-3.613-.222-16.217-15.093-7.947-7.218 3.925 4.507 7.85-6.537 2.786-3.943-6.302-7.77-2.786-.223 7.335 3.72 6.086-3.497 1.958-3.04-4.539-5.07 2.893 2.36 4.334-3.603 1.549-1.232-11.249-11.502 4.947.235-3.915 5.176-.204.117-5.689-5.528-.204v-3.302l7.781-.107 6.197-4.334-6.197-4.226-8.344-.205-.446-6.409 10.363-.613v-7.442zM396.203 615.322l-12.047 6.609v6.114l8.09.503-.349 5.266-6.513.168-4.837 3.472 4.837 3.56 5.982.089v2.712l-4.306.168.174 4.674 4.04.168.092 3.216-8.968-4.064-.88 9.241-2.812-1.272 1.841-3.56-3.957-2.377-2.464 3.728-2.639-1.608 2.904-5-.265-6.026-5.973 2.288-3.078 5.178-5.102-2.289 3.517-6.45-5.634-3.224-11.78 6.529-.174 13.323 5.542 2.969 4.306-6.194 4.928 2.624-3.435 5.522.613 5.681 5.982-2.208 2.996-5.425 2.986 1.52-2.372 3.905 4.397 2.456 2.107-3.897 3.17 1.776-8.447 5.937 8.446 5.938-3.17 1.784-2.106-3.905-4.397 2.465 2.372 3.985-2.986 1.44-2.996-5.425-5.982-2.209-.613 5.681 3.435 5.513-4.928 2.633-4.306-6.193-5.542 3.057.174 13.226 11.78 6.538 5.634-3.145-3.517-6.53 5.102-2.288 3.078 5.178 5.973 2.288.265-6.017-2.904-5.01 2.639-1.616 2.464 3.737 3.957-2.377-1.841-3.56 2.812-1.272.88 9.241 8.968-4.073-.092 3.313-4.04.089-.174 4.744 4.306.088v2.713l-5.982.08-4.837 3.569 4.837 3.472 6.513.177.348 5.256-8.089.592v6.017l12.047 6.626 12.046-6.626v-6.017l-8.09-.592.349-5.256 6.513-.177 4.837-3.472-4.837-3.57-6.073-.08v-2.712l4.314-.088-.091-4.744-4.04-.089-.183-3.313 8.977 4.073.962-9.241 2.812 1.272-1.841 3.56 3.957 2.377 2.373-3.737 2.73 1.617-2.904 5.01.174 6.016 6.064-2.288 3.078-5.178 5.103 2.288-3.518 6.53 5.634 3.145 11.78-6.538.174-13.226-5.542-3.057-4.305 6.193-4.929-2.633 3.344-5.513-.522-5.68-5.982 2.208-2.996 5.425-3.078-1.44 2.464-3.985-4.397-2.465-2.106 3.905-3.17-1.784 8.446-5.938-8.446-5.937 3.17-1.776 2.106 3.897 4.397-2.456-2.464-3.906 3.078-1.52 2.996 5.426 5.982 2.208.522-5.68-3.344-5.523 4.929-2.624 4.305 6.194 5.542-2.969-.174-13.323-11.78-6.53-5.634 3.226 3.518 6.45-5.103 2.288-3.078-5.178-6.064-2.288-.174 6.025 2.904 5.001-2.73 1.608-2.373-3.728-3.957 2.376 1.841 3.56-2.812 1.273-.962-9.241-8.977 4.064.183-3.216 4.04-.168.091-4.674-4.314-.168v-2.712l6.073-.088 4.837-3.56-4.837-3.473-6.513-.168-.348-5.266 8.089-.503v-6.114z" font-weight="400" fill="#80b3ff"/><g fill="none" stroke="#000"><path d="M78.31 238.735c1.403.372 2.834.64 4.276.802 5.126.575 10.346-.207 15.247-1.813 4.9-1.606 9.503-4.02 13.886-6.74 2.812-1.745 5.578-3.65 7.75-6.147a19.725 19.725 0 004.544-9.621M103.433 63.674a6.648 6.648 0 010-3.208c.284-1.137.866-2.18 1.546-3.134.68-.955 1.46-1.833 2.196-2.745 1.058-1.314 2.031-2.717 2.673-4.277.656-1.595.963-3.345 1.87-4.81.727-1.173 1.81-2.102 3.026-2.754 1.216-.653 2.562-1.038 3.924-1.256 2.736-.437 5.69-.168 8.018 1.337 2.109 1.363 3.503 3.594 4.543 5.88 1.72 3.776 2.656 7.887 2.94 12.027.289 4.208-.091 8.458-1.069 12.561-.895 3.759-2.284 7.38-3.742 10.958a283.778 283.778 0 01-8.82 19.511M122.81 219.358l5.346 2.673M128.156 222.03a179.62 179.62 0 007.216-7.884c1.756-2.037 3.483-4.138 4.677-6.548 1.566-3.157 2.148-6.694 2.807-10.156.751-3.95 1.627-7.877 2.672-11.76.68-2.526 1.433-5.038 1.871-7.617.457-2.688.568-5.43.401-8.152-.344-5.606-1.982-11.332-5.746-15.501-1.566-1.734-3.447-3.147-5.212-4.678-2.103-1.823-4.062-3.836-5.613-6.147-1.68-2.504-2.854-5.313-3.875-8.151-1.26-3.503-2.303-7.08-3.207-10.691a142.318 142.318 0 01-2.272-10.825 138.982 138.982 0 01-1.336-10.156M78.31 238.735l-.935-7.082a8.037 8.037 0 00-.134-.802 3.75 3.75 0 00-.936-1.737c-.444-.46-1.004-.788-1.552-1.117-.549-.329-1.102-.672-1.521-1.155-.424-.489-.691-1.097-1.109-1.592a2.21 2.21 0 00-.752-.6c-.294-.135-.637-.18-.945-.08-.274.088-.502.28-.706.483-.204.202-.395.421-.63.586-.288.2-.628.31-.958.43-.33.12-.663.26-.914.505-.304.298-.456.728-.479 1.153-.022.426.076.85.212 1.253.268.794.683 1.528 1.07 2.272.274.53.535 1.068.8 1.603l.268.535" stroke-width=".265" transform="matrix(2.5194 0 0 2.50185 551.81 315.778)"/><path d="M69.09 233.39a518.638 518.638 0 01-8.82-6.281c-4.644-3.38-9.348-6.965-12.295-11.893-3.135-5.243-3.988-11.534-4.143-17.64-.247-9.731 1.131-19.557 4.613-28.647s9.113-17.426 16.635-23.604c.919-.755 1.872-1.482 2.94-2.005 1.266-.62 2.654-.934 4.013-1.303 1.36-.369 2.731-.81 3.872-1.637a6.626 6.626 0 001.47-1.47M77.375 138.91a91.682 91.682 0 014.677-11.626c4.068-8.402 9.396-16.136 13.63-24.455a105.484 105.484 0 007.217-18.175M69.09 233.39a177.874 177.874 0 015.077 11.626c.543 1.375 1.077 2.798 1.07 4.276-.007 1.262-.409 2.487-.535 3.742-.113 1.12-.005 2.25.01 3.376.014 1.126-.073 2.283-.545 3.306-.286.62-.709 1.177-.939 1.821-.115.322-.18.667-.147 1.007.034.34.172.676.418.914.237.228.56.353.885.402.326.049.658.028.986-.001 1.117-.1 2.225-.288 3.34-.401 1.91-.193 3.836-.163 5.747 0 2.23.19 4.446.559 6.682.668 1.069.052 2.14.044 3.207.134.848.07 1.69.202 2.54.267 1.066.08 2.138.055 3.206 0 .905-.047 1.81-.114 2.715-.067.904.046 1.815.209 2.63.601.341.164.672.37 1.045.428.187.03.383.02.558-.05a.722.722 0 00.402-.378.705.705 0 00.033-.417.98.98 0 00-.18-.382c-.172-.226-.415-.385-.654-.537-.826-.526-1.664-1.033-2.54-1.47-.233-.116-.472-.23-.668-.4a1.405 1.405 0 01-.133-.135" stroke-width=".265" transform="matrix(2.5194 0 0 2.50185 551.81 315.778)"/><path d="M78.31 238.735a37.209 37.209 0 001.821 7.474c.771 2.163 1.795 4.324 3.543 5.812.763.65 1.64 1.149 2.505 1.653 2.278 1.33 4.526 2.729 6.945 3.78.773.336 1.561.636 2.362.898h.047c.116.005.225.05.331.094.788.331 1.56.703 2.363.993 1.554.56 3.214.808 4.866.803 1.294-.004 2.597-.16 3.874.047.149.024.302.055.425.142a.705.705 0 01.214.254c.051.099.086.206.117.313.03.1.056.201.067.304a.795.795 0 01-.02.31.776.776 0 01-.168.295 1.543 1.543 0 01-.257.225c-.6.435-1.363.64-2.1.565a3.088 3.088 0 01-1.945-.977M128.156 222.03a33.31 33.31 0 00-.873 6.462c-.087 2.415.093 4.857.756 7.181.402 1.409.977 2.761 1.418 4.158.43 1.363.73 2.763 1.04 4.158.243 1.098.493 2.195.66 3.307.126.835.21 1.693.568 2.457.458.978 1.319 1.7 2.173 2.362 2.011 1.558 4.138 2.964 6.331 4.253 1.471.863 2.975 1.675 4.536 2.362a27.612 27.612 0 004.725 1.606c1.15.273 2.319.463 3.496.567" stroke-width=".265" transform="matrix(2.5194 0 0 2.50185 551.81 315.778)"/><path d="M152.986 260.903c.402.308.68.775.756 1.276.038.25.028.505 0 .756a1.763 1.763 0 01-.133.549.762.762 0 01-.387.396c-.163.066-.344.055-.52.047-1.353-.062-2.71.077-4.063 0-.854-.048-1.701-.183-2.551-.283-1.536-.182-3.088-.255-4.63-.142-.473.034-.944.086-1.418.094-.978.017-1.951-.151-2.93-.141-1.1.01-2.21.257-3.165.803-.495.283-.948.645-1.473.87a2.257 2.257 0 01-.829.195 1.445 1.445 0 01-.816-.215c-.221-.142-.39-.352-.557-.554-.168-.203-.346-.407-.577-.532-.299-.163-.652-.177-.992-.19-1.296-.048-2.593-.128-3.874-.33-1.423-.225-2.821-.6-4.253-.756-.815-.089-1.637-.105-2.456-.142a44.332 44.332 0 01-3.45-.283c-1.57-.194-3.145-.483-4.724-.378-.31.02-.62.056-.93.056-.31.001-.625-.034-.913-.15a1.703 1.703 0 01-.52-.332" stroke-width=".265" transform="matrix(2.5194 0 0 2.50185 551.81 315.778)"/><path d="M107.581 261.517a7.246 7.246 0 003.135-.532c1.15-.473 2.158-1.234 3.107-2.038a37.183 37.183 0 005.68-6.046c.485-.646.955-1.31 1.537-1.871.264-.255.558-.498.701-.836a.806.806 0 00.068-.285.52.52 0 00-.068-.283.486.486 0 00-.232-.194c-.095-.04-.2-.05-.302-.04-.123.014-.24.059-.35.115-.11.056-.212.124-.318.186-.254.15-.523.273-.802.368-.621.212-1.3.285-1.938.133a1.892 1.892 0 01-.704-.31 1.129 1.129 0 01-.432-.625 1.152 1.152 0 01.065-.683c.085-.216.22-.41.37-.587a4.63 4.63 0 011.002-.868c.521-.342 1.092-.601 1.67-.835.436-.177.879-.34 1.3-.551.42-.211.821-.472 1.139-.82.555-.604.816-1.425.935-2.237.036-.244.06-.49.067-.735.015-.536-.055-1.07-.1-1.604-.032-.379-.05-.76-.1-1.136-.066-.496-.184-.983-.3-1.47a193.499 193.499 0 01-2.74-13.564M103.433 63.674a6.987 6.987 0 001.67-1.738c.698-1.036 1.102-2.236 1.538-3.407a57.21 57.21 0 012.205-5.145M108.846 53.384a16.356 16.356 0 001.536 4.41c.09.171.185.345.334.467.153.125.35.185.546.205.196.02.394.005.59-.004.49-.023.983-.008 1.47-.067.893-.109 1.736-.465 2.54-.868a20.95 20.95 0 002.672-1.604" stroke-width=".265" transform="matrix(2.5194 0 0 2.50185 551.81 315.778)"/><path d="M118.534 55.923a101.627 101.627 0 01-1.002 5.212c-.336 1.53-.708 3.056-1.203 4.543-.217.654-.461 1.316-.468 2.005-.004.436.09.872.268 1.27.223.497.59.94 1.069 1.202.043.024.088.046.133.067h-.066M117.265 70.222c-.492.2-.933.525-1.27.935-.224.272-.401.579-.601.869-.932 1.351-2.322 2.306-3.475 3.474-1.895 1.922-3.133 4.41-5.011 6.348a12.974 12.974 0 01-4.01 2.806" stroke-width=".265" transform="matrix(2.5194 0 0 2.50185 551.81 315.778)"/><path d="M102.899 84.654a17.102 17.102 0 00-2.64-.218c-.537-.003-1.072.02-1.607.047-.902.046-1.824.105-2.693-.142a5.843 5.843 0 01-1.04-.425c-1.407-.714-2.7-1.777-3.354-3.213a3.895 3.895 0 01-.332-1.114 2.643 2.643 0 01.095-1.154c.143-.436.416-.82.73-1.154.314-.334.672-.624 1.019-.925 1.559-1.353 2.903-2.933 4.205-4.535 2.146-2.642 4.199-5.36 6.151-8.147M125.89 54.832a1 1 0 01.052-.528c.061-.169.156-.323.262-.468.212-.29.47-.55.622-.874.055-.12.095-.247.152-.366a.704.704 0 01.249-.303.502.502 0 01.274-.072c.096.002.191.03.274.08a.72.72 0 01.32.46c.055.242.003.497-.087.728-.09.232-.215.448-.314.675-.11.252-.186.519-.322.757-.068.12-.15.232-.253.323a.809.809 0 01-.36.19.72.72 0 01-.56-.117.78.78 0 01-.309-.485zM110.048 67.015c.167-.275.345-.543.535-.802.243-.333.512-.66.868-.869a1.07 1.07 0 01.395-.146.61.61 0 01.407.08c.078.05.141.12.185.203a.67.67 0 01.074.265c.014.184-.041.369-.125.534a1.716 1.716 0 01-1.136.868c-.4.093-.832.045-1.203-.133z" stroke-width=".265" transform="matrix(2.5194 0 0 2.50185 551.81 315.778)"/><path d="M94.778 83.892a9.037 9.037 0 001.771-1.417c.623-.643 1.164-1.41 1.323-2.292a1.82 1.82 0 00.029-.512 1.013 1.013 0 00-.17-.48c-.155-.218-.41-.35-.673-.394a1.875 1.875 0 00-.792.063 3.525 3.525 0 00-1.418.78c-.754.673-1.209 1.609-1.677 2.504-.07.134-.14.268-.212.402" stroke-width=".265" transform="matrix(2.5194 0 0 2.50185 551.81 315.778)"/><path d="M79.89 256.032a48.028 48.028 0 007.572 4.35 48.093 48.093 0 0014.493 4.056" stroke-width=".274" transform="matrix(2.5194 0 0 2.50185 551.81 315.778)"/><path d="M103.3 261.72a14.486 14.486 0 01-7.256-1.497M133.68 254.865a46.798 46.798 0 0014.619 7.475M122.7 252.88c-.381.458-.756.921-1.124 1.39-.919 1.171-1.797 2.381-2.844 3.44a14.652 14.652 0 01-2.646 2.116M126.47 252.285a47.273 47.273 0 012.845 9.922M129.315 262.207l.265 1.654M132.755 256.651l1.918 7.21M77.548 261.92a10.903 10.903 0 001.544-4.255M126.76 53.529a.277.277 0 00-.044.147.687.687 0 00.016.154c.01.046.02.092.04.134.019.042.048.08.088.104.03.018.065.026.1.026a.249.249 0 00.1-.021.413.413 0 00.157-.133c.139-.182.186-.42.31-.612.054-.084.123-.16.16-.252a.306.306 0 00.024-.147.199.199 0 00-.065-.13.191.191 0 00-.118-.045.254.254 0 00-.123.03.508.508 0 00-.18.179c-.1.15-.178.324-.319.438-.05.041-.11.074-.146.128z" stroke-width=".265" transform="matrix(2.5194 0 0 2.50185 551.81 315.778)"/><path d="M127.007 53.684a.085.085 0 01.069.009c.02.012.035.034.039.058a.086.086 0 01-.018.067.085.085 0 01-.063.03.086.086 0 01-.07-.033.086.086 0 01-.012-.076.085.085 0 01.055-.055z" stroke-width=".265" transform="matrix(2.5194 0 0 2.50185 551.81 315.778)"/></g></svg>