<svg xmlns="http://www.w3.org/2000/svg" xmlns:xlink="http://www.w3.org/1999/xlink" width="1600mm" height="900mm" viewBox="0 0 1600 900"><defs><linearGradient gradientTransform="translate(-83.59 -7.111) scale(2.50374)" gradientUnits="userSpaceOnUse" y2="13.486" x2="14.54" y1="11.929" x1="10.998" id="p" xlink:href="#e"/><linearGradient y2="38.07" x2="34.17" y1="36.921" x1="33.396" gradientTransform="matrix(.73457 0 0 .73094 11.4 30.628)" gradientUnits="userSpaceOnUse" id="u" xlink:href="#d"/><linearGradient id="b"><stop offset="0" stop-color="#383936"/><stop offset="1" stop-color="#555753"/></linearGradient><linearGradient gradientTransform="matrix(1.12598 0 0 1.2728 -6.121 19.161)" gradientUnits="userSpaceOnUse" y2="22.674" x2="35.872" y1="27.273" x1="37.271" id="i" xlink:href="#c"/><linearGradient id="c"><stop offset="0" stop-color="#fff"/><stop offset="1" stop-color="#e6e6e6"/></linearGradient><linearGradient id="d"><stop offset="0" stop-color="#fff"/><stop offset="1" stop-color="#fff" stop-opacity="0"/></linearGradient><linearGradient id="a"><stop offset="0"/><stop offset="1" stop-opacity="0"/></linearGradient><linearGradient gradientTransform="matrix(.95116 0 0 1 -.781 26.868)" gradientUnits="userSpaceOnUse" y2="39.751" x2="25.349" y1="37.548" x1="25.349" id="h" xlink:href="#b"/><linearGradient id="e"><stop offset="0" stop-color="#999a98"/><stop offset=".5" stop-color="#caccc8"/><stop offset="1" stop-color="#616161"/></linearGradient><linearGradient gradientTransform="translate(-10.929 -7.111) scale(2.50374)" y2="13.486" x2="14.54" y1="11.929" x1="10.998" gradientUnits="userSpaceOnUse" id="q" xlink:href="#e"/><linearGradient gradientTransform="matrix(1.12598 0 0 1.12675 -6.033 21.502)" gradientUnits="userSpaceOnUse" y2="15.531" x2="24.031" y1="7.531" x1="24.031" id="s" xlink:href="#e"/><linearGradient y2="37.771" x2="33.665" y1="40.458" x1="35.997" gradientTransform="matrix(.73457 0 0 .73094 11.193 30.846)" gradientUnits="userSpaceOnUse" id="t" xlink:href="#f"/><linearGradient id="f"><stop offset="0" stop-color="#7c7c7c"/><stop offset="1" stop-color="#b8b8b8"/></linearGradient><radialGradient gradientTransform="matrix(4.86838 0 0 4.86838 -37.5 -44.499)" gradientUnits="userSpaceOnUse" r="1.591" fy="16.771" fx="12.887" cy="16.771" cx="12.887" id="n" xlink:href="#a"/><radialGradient gradientUnits="userSpaceOnUse" gradientTransform="matrix(2.50374 0 0 5.06855 -9.168 -55.601)" r="1.812" fy="17.904" fx="13.833" cy="17.904" cx="13.833" id="l" xlink:href="#a"/><radialGradient gradientTransform="translate(-9.119 -8.334) scale(2.50374)" gradientUnits="userSpaceOnUse" r="2.162" fy="18.4" fx="12.993" cy="18.4" cx="12.993" id="m" xlink:href="#d"/><radialGradient r="1.591" fy="16.771" fx="12.887" cy="16.771" cx="12.887" gradientTransform="matrix(4.86838 0 0 4.86838 -15.978 -44.589)" gradientUnits="userSpaceOnUse" id="r" xlink:href="#a"/><radialGradient gradientUnits="userSpaceOnUse" gradientTransform="matrix(2.50374 0 0 .71763 -10.323 106.412)" r="20.815" fy="42.211" fx="24.97" cy="42.211" cx="24.97" id="g" xlink:href="#a"/><radialGradient r="1.812" fy="17.904" fx="13.833" cy="17.904" cx="13.833" gradientTransform="matrix(2.50374 0 0 5.06855 -1.357 -56.354)" gradientUnits="userSpaceOnUse" id="j" xlink:href="#a"/><radialGradient r="1.591" fy="16.771" fx="12.887" cy="16.771" cx="12.887" gradientTransform="matrix(4.86838 0 0 4.86838 3.724 -44.499)" gradientUnits="userSpaceOnUse" id="o" xlink:href="#a"/><radialGradient r="1.812" fy="17.904" fx="13.833" cy="17.904" cx="13.833" gradientTransform="matrix(2.50374 0 0 5.06855 22.73 -54.422)" gradientUnits="userSpaceOnUse" id="k" xlink:href="#a"/><radialGradient gradientTransform="translate(6.83 -8.334) scale(2.50374)" r="2.162" fy="18.4" fx="12.993" cy="18.4" cx="12.993" gradientUnits="userSpaceOnUse" id="v" xlink:href="#d"/><radialGradient gradientTransform="translate(21.485 -8.334) scale(2.50374)" r="2.162" fy="18.4" fx="12.993" cy="18.4" cx="12.993" gradientUnits="userSpaceOnUse" id="w" xlink:href="#d"/></defs><g aria-label="MARK YOUR CALENDARS!" style="line-height:1.25" font-weight="400" font-size="160.706" font-family="Rosario" letter-spacing="0" word-spacing="0" stroke-width="2.152"><path d="M117.08 152.71h-12.66V41.031L74.286 152.898h-7.705L36.447 41.031v111.68H25.99V28.454l-2.064-12.388h18.576l29.17 106.424L100.43 16.067h16.65zM213.52 152.71h-14.173l-11.558-46.924h-33.023L143.07 152.71h-11.558l34.812-136.643h12.521zm-28.896-59.687l-13.209-54.057-13.485 54.057zM298.26 152.71H283.4L257.53 90.958q-3.164.376-10.32.376h-6.88v61.376h-12.796V28.455q0-.187-.55-3.003-.413-2.815-.963-5.818-.413-3.191-.413-3.567h29.859q33.848 0 33.848 37.727 0 11.262-5.641 21.022-5.504 9.573-13.485 12.951zm-57.928-74.14h11.008q11.42 0 18.025-5.63 6.604-5.82 6.604-20.272 0-11.45-5.916-17.456-5.917-6.194-14.585-6.194h-15.136zM377.488 152.71h-15.961l-39.628-71.137v71.137h-12.797V28.455q0-.187-.55-3.003-.413-2.815-.963-5.818-.413-3.191-.413-3.567H321.9V77.07l39.766-61.002h13.346l-39.49 60.814zM456.669 152.71h-13.072V85.14L413.74 16.067h14.86l23.254 53.118 21.603-53.118h11.97L456.67 85.14zM534.95 154.775q-10.87 0-19.538-5.63-8.53-5.632-13.897-15.392-5.366-9.948-8.118-22.336-2.752-12.576-2.752-26.84 0-30.032 11.42-50.115Q513.623 14.19 535.09 14.19q21.327 0 32.748 20.272 11.558 20.083 11.558 50.115 0 19.332-4.816 34.911-4.678 15.579-14.998 25.527-10.182 9.76-24.63 9.76zm31.098-70.198q0-10.7-1.651-20.46-1.651-9.76-5.091-18.206-3.44-8.446-9.632-13.514t-14.585-5.068q-8.394 0-14.586 5.068t-9.632 13.702q-3.44 8.634-5.09 18.394-1.514 9.573-1.514 20.271 0 10.699 1.513 20.46 1.652 9.572 5.091 18.206 3.44 8.446 9.632 13.514t14.586 5.068q8.393 0 14.585-5.068 6.33-5.068 9.77-13.514 3.44-8.634 4.953-18.207 1.65-9.76 1.65-20.646zM660.347 104.285V16.067h10.595v88.218q0 23.837-9.77 37.351-9.631 13.327-27.244 13.327-17.474 0-26.969-12.2-9.494-12.389-9.494-35.85V28.454l-2.064-12.388h15.136v90.845q0 16.518 5.917 25.903 6.054 9.197 18.025 9.197 12.521 0 19.126-10.136 6.742-10.323 6.742-27.591zM765.338 152.71h-14.86l-25.869-61.752q-3.165.376-10.32.376h-6.88v61.376h-12.796V28.455q0-.187-.55-3.003-.413-2.815-.964-5.818-.412-3.191-.412-3.567h29.858q33.85 0 33.85 37.727 0 11.262-5.642 21.022-5.504 9.573-13.485 12.951zM707.41 78.57h11.007q11.42 0 18.026-5.63 6.604-5.82 6.604-20.272 0-11.45-5.916-17.456-5.917-6.194-14.586-6.194H707.41zM873.663 129.248l5.917 12.576q-5.504 6.194-14.172 9.76-8.531 3.379-16.374 3.379-21.74 0-34.262-20.46-12.384-20.458-12.384-50.49 0-30.406 12.521-50.114 12.522-19.709 34.4-19.709 8.118 0 16.649 3.942 8.669 3.754 13.347 10.886l-7.155 10.887q-3.853-5.819-10.458-9.197-6.604-3.379-12.658-3.379-8.531 0-14.999 5.068-6.467 4.88-10.182 13.514-3.715 8.446-5.641 18.394-1.789 9.76-1.789 20.835 0 11.261 1.789 21.022 1.926 9.76 5.641 17.643 3.853 7.883 10.32 12.576 6.605 4.504 15.136 4.504 6.192 0 12.934-3.19 6.88-3.191 11.42-8.447zM965.466 152.71h-14.172l-11.558-46.924h-33.023l-11.696 46.924h-11.558L918.27 16.067h12.521zm-28.895-59.687l-13.21-54.057-13.484 54.057zM1034.52 152.71h-54.9V28.455q0-.187-.55-3.003-.414-2.815-.964-5.818-.413-3.191-.413-3.567h14.723V139.76h42.105zM1108.503 152.71h-58.204V28.455q0-.187-.55-3.003-.413-2.815-.963-5.818-.413-3.191-.413-3.567h60.13v12.951h-45.407V76.13h35.225v12.764h-35.225v50.865h45.407zM1200.257 153.649h-8.119l-55.726-116.372V152.71h-10.458V28.455q0-.187-.55-3.003-.413-2.815-.963-5.818-.413-3.191-.413-3.567h17.062l48.71 102.295V16.067h10.457zM1256.788 152.71h-32.61V28.455q0-.187-.551-3.003-.413-2.815-.964-5.818-.412-3.191-.412-3.567h25.73q54.214 0 54.214 68.697 0 30.782-11.559 49.364-11.42 18.582-33.848 18.582zm-19.814-12.95h18.162q17.613 0 25.593-15.204 8.119-15.204 8.119-40.167 0-29.093-10.458-42.232-10.32-13.139-31.372-13.139h-10.044zM1389.008 152.71h-14.173l-11.558-46.924h-33.023l-11.696 46.924H1307l34.812-136.643h12.521zm-28.896-59.687l-13.21-54.057-13.484 54.057zM1473.748 152.71h-14.86l-25.869-61.752q-3.164.376-10.32.376h-6.88v61.376h-12.796V28.455q0-.187-.55-3.003-.413-2.815-.963-5.818-.413-3.191-.413-3.567h29.858q33.85 0 33.85 37.727 0 11.262-5.642 21.022-5.504 9.573-13.485 12.951zm-57.928-74.14h11.007q11.421 0 18.026-5.63 6.604-5.82 6.604-20.272 0-11.45-5.916-17.456-5.917-6.194-14.586-6.194h-15.135zM1477.16 144.827l4.954-15.391q4.54 5.443 11.007 8.822 6.467 3.19 12.384 3.19 7.843 0 14.035-6.006t6.192-17.455q0-9.76-4.816-16.518-4.678-6.757-11.42-10.698-6.743-4.13-13.485-8.447-6.605-4.505-11.42-12.575-4.679-8.071-4.679-19.896 0-16.705 9.357-26.09 9.356-9.573 22.015-9.573 13.347 0 25.868 10.136l-6.329 12.576q-9.632-9.385-19.676-9.385-7.843 0-12.66 5.255-4.815 5.256-4.815 15.58 0 5.818 2.476 10.51 2.615 4.505 6.605 7.696 3.99 3.19 8.806 6.194 4.954 3.003 9.907 6.757 4.954 3.566 8.944 8.07 3.99 4.505 6.467 11.638 2.615 7.132 2.615 16.33 0 19.144-9.907 29.28-9.907 10.136-24.493 10.136-13.484 0-27.932-10.136zM1570.4 111.98h-8.119l-3.99-93.097q0-2.628 2.339-2.628h11.283q2.477 0 2.477 2.816zm-13.072 30.782q0-5.255 2.614-8.821 2.614-3.567 6.467-3.567 3.715 0 6.33 3.754 2.751 3.567 2.751 8.634 0 5.068-2.752 8.822-2.614 3.566-6.329 3.566t-6.467-3.566q-2.614-3.754-2.614-8.822z" style="-inkscape-font-specification:Rosario"/></g><g aria-label="Duck" style="line-height:1.25" font-weight="400" font-size="247.201" font-family="Rosario" letter-spacing="0" word-spacing="0" stroke-width="1.288" fill="#0055d4"><path d="M89.631 380.485H38.29V193.749q0-.282-.867-4.513-.65-4.231-1.516-8.744-.65-4.796-.65-5.36h40.51q85.355 0 85.355 103.24 0 46.261-18.197 74.187-17.981 27.926-53.293 27.926zm-31.195-19.463h28.596q27.729 0 40.294-22.849 12.781-22.848 12.781-60.364 0-43.723-16.464-63.468-16.248-19.745-49.393-19.745H58.436zM286.817 359.893l3.683 14.668q-1.517.847-4.983 2.821l-5.416 2.82q-1.95.847-4.982 1.693-3.033 1.129-5.416 1.129-6.283 0-10.182-5.36-3.9-5.36-4.983-13.822-15.164 20.31-33.145 20.31-17.114 0-25.13-13.258-7.798-13.54-7.798-36.67v-77.29q0-.281-.65-3.948-.65-3.95-1.517-7.899-.65-4.23-.65-4.795h20.797v86.316q0 7.616.434 12.976.65 5.36 2.166 11.283 1.733 5.923 5.632 9.308 3.9 3.103 9.749 3.103 12.132 0 20.797-9.873 8.665-10.154 8.665-25.95v-70.52q0-.282-.65-3.95-.65-3.948-1.516-7.898-.65-4.23-.65-4.795h20.797v112.831q0 5.642.867 8.18 1.083 2.54 3.9 2.54 2.599 0 10.181-3.95zM376.447 352.277l8.232 17.771q-10.182 7.898-17.548 11.001-7.149 3.103-17.98 3.103-21.664 0-35.312-22.284-13.431-22.566-13.431-51.338 0-31.875 13.648-52.749 13.864-20.874 37.91-20.874 16.682 0 31.196 14.386l-9.748 16.36q-6.283-7.051-11.482-9.59-4.983-2.82-12.781-2.82-14.082 0-21.88 16.642-7.583 16.642-7.583 36.106 0 12.975 2.816 25.387 3.033 12.13 10.182 21.72 7.366 9.59 17.548 9.59 7.799 0 13.215-2.82 5.415-2.821 12.998-9.59zM489.145 380.485h-21.447l-43.977-76.161v76.16H405.74v-198.3q0-.282-.65-3.949-.65-3.95-1.517-7.898-.65-4.231-.65-4.796h20.798v132.577l40.294-57.826h19.28l-41.377 58.954z" style="-inkscape-font-specification:Rosario"/></g><g aria-label="Day" style="line-height:1.25" font-weight="400" font-size="250.366" font-family="Rosario" letter-spacing="0" word-spacing="0" stroke-width="1.304" fill="#0055d4"><path d="M554.53 504.493h-53.354V320.164q0-.278-.9-4.455-.676-4.177-1.576-8.632-.676-4.733-.676-5.29h42.098q88.697 0 88.697 101.91 0 45.664-18.91 73.23-18.685 27.566-55.38 27.566zm-32.418-19.212h29.716q28.816 0 41.873-22.554 13.282-22.554 13.282-59.587 0-43.159-17.11-62.65Q572.99 321 538.547 321h-16.434zM743.11 484.167l3.827 14.479q-1.576.835-5.177 2.784l-5.628 2.785q-2.027.835-5.178 1.67-3.152 1.114-5.628 1.114-6.529 0-10.806-5.29-4.052-5.29-5.178-13.644-15.083 19.49-33.768 19.49-13.507 0-22.287-9.745-8.554-10.023-8.554-26.73 0-47.057 64.159-47.614V408.71q0-27.844-18.685-27.844-8.78 0-17.785 4.455-9.004 4.455-14.407 11.973l-9.23-16.428q18.235-18.1 42.998-18.1 17.56 0 26.564 11.974 9.23 11.694 9.23 33.691v69.054q0 5.569.9 8.075 1.126 2.506 4.053 2.506 2.701 0 10.58-3.898zm-34.218-33.692v-8.91q-8.33 0-14.408.835-5.853.557-13.957 3.063-7.88 2.506-12.382 8.91-4.277 6.126-4.277 15.872 0 8.91 4.727 13.365 4.953 4.455 13.057 4.455 11.482 0 19.36-11.416 7.88-11.695 7.88-26.174zM758.78 564.915h-8.554V546.26h2.476q6.754 0 12.157-3.898 5.403-3.62 9.23-10.859 4.052-7.24 6.303-13.365 2.477-6.126 4.953-14.758l-40.972-137.272h20.26l29.717 105.251 29.716-105.25h17.559L802.004 505.05q-17.334 59.865-43.223 59.865z" style="-inkscape-font-specification:Rosario"/></g><g aria-label="2019" style="line-height:1.25" font-weight="400" font-size="148.136" font-family="Rosario" letter-spacing="0" word-spacing="0" stroke-width="1.234" fill="#0a4"><path d="M272.017 494.337h-45.403v-10.016l26.94-43.843q4.993-8.126 4.993-17.008 0-5.67-2.322-9.638-2.206-3.969-5.69-3.969-7.315 0-16.489 12.284l-4.76-8.693q4.18-6.803 10.334-11.15 6.27-4.346 12.193-4.346 7.431 0 12.54 6.803 5.226 6.614 5.226 18.52 0 15.307-12.425 32.693l-18.115 25.324h35.3zM282.788 447.281q0-21.165 7.547-35.15 7.664-14.173 20.438-14.173 12.657 0 20.32 14.173 7.665 14.174 7.665 35.15 0 20.977-7.664 35.15-7.664 14.174-20.321 14.174-12.658 0-20.321-14.174-7.664-14.173-7.664-35.15zm27.985 37.418q17.418 0 17.418-37.418t-17.418-37.418q-17.535 0-17.535 37.418t17.535 37.418zM386.033 494.337h-36.346v-12.85h13.586V417.8l-13.934 6.992-2.09-8.882 19.856-15.685h5.806v81.26h13.122zM396.39 535.157l-2.439-10.583q31.004-20.977 37.275-57.26-7.2 9.637-16.49 9.637t-15.676-11.528q-6.27-11.527-6.27-26.835 0-17.008 7.315-28.725 7.316-11.905 17.767-11.905 12.192 0 19.044 13.417 6.85 13.229 6.85 33.45 0 25.512-8.825 45.544-8.709 20.031-23.34 33.827-9.057 8.315-15.211 10.96zm36.577-83.718q.233-2.457.233-7.181 0-14.174-3.716-24.379-3.716-10.204-11.728-10.204-6.735 0-10.567 8.882-3.832 8.693-3.832 20.031 0 10.583 3.832 18.142 3.832 7.37 10.218 7.37 8.013 0 15.56-12.661z" style="-inkscape-font-specification:Rosario"/></g><g transform="matrix(23.27343 0 0 17.766 835.126 -352.576)"><ellipse transform="matrix(.47921 0 0 .25968 -2.944 32.353)" style="marker:none" cx="24.97" cy="42.211" rx="20.815" ry="5.966" color="#000" display="block" overflow="visible" opacity=".385" fill="url(#g)" fill-rule="evenodd"/><path d="M2.3 39.175l-.094 4.345h13.611l-.212-5.061z" style="marker:none" color="#000" display="block" overflow="visible" fill="url(#h)" fill-rule="evenodd" stroke="#2e3436" stroke-width=".399" stroke-linejoin="round"/><path d="M2.435 41.968l-.08 1.353h13.573l-13.374-.2-.12-1.153z" style="marker:none" color="#000" display="block" overflow="visible" opacity=".231" fill="#fff" fill-rule="evenodd"/><path style="marker:none" d="M2.148 31.45h13.13l1.331 10.259H1.437z" color="#000" display="block" overflow="visible" fill="#cacaca" fill-rule="evenodd" stroke="#686868" stroke-width=".399"/><path d="M1.897 30.34h13.475l1.366 10.784H1.166z" style="marker:none" color="#000" display="block" overflow="visible" fill="url(#i)" fill-rule="evenodd" stroke="#868a84" stroke-width=".399"/><path style="marker:none" d="M2.275 30.74h12.74l1.217 9.984H1.593z" color="#000" display="block" overflow="visible" fill="none" stroke="#fff" stroke-width=".399"/><path d="M16.526 40.94l-.288-2.352-2.501 2.36 2.79-.008z" style="marker:none" color="#000" display="block" overflow="visible" opacity=".209" fill-rule="evenodd"/><ellipse transform="matrix(.64716 0 0 .45003 -.238 23.874)" style="marker:none" cx="13.833" cy="17.904" rx="1.812" ry="3.668" color="#000" display="block" overflow="visible" opacity=".335" fill="url(#j)" fill-rule="evenodd"/><ellipse style="marker:none" transform="matrix(.44972 0 0 .38266 7.144 24.833)" cx="13.833" cy="17.904" rx="1.812" ry="3.668" color="#000" display="block" overflow="visible" opacity=".335" fill="url(#k)" fill-rule="evenodd"/><ellipse transform="matrix(.44972 0 0 .42115 -2.396 24.285)" style="marker:none" cx="13.833" cy="17.904" rx="1.812" ry="3.668" color="#000" display="block" overflow="visible" opacity=".335" fill="url(#l)" fill-rule="evenodd"/><circle style="marker:none" transform="matrix(.47181 0 0 .47211 -2.516 24.38)" cx="12.993" cy="16.711" r="1.591" color="#000" display="block" overflow="visible" fill="none" stroke="url(#m)" stroke-width=".846"/><circle transform="matrix(.34978 0 0 .35002 -.939 26.42)" style="marker:none" cx="12.993" cy="16.711" r="1.591" color="#000" display="block" overflow="visible" fill="url(#n)" fill-rule="evenodd"/><circle style="marker:none" transform="matrix(.34978 0 0 .35002 8.65 26.42)" cx="12.993" cy="16.711" r="1.591" color="#000" display="block" overflow="visible" fill="url(#o)" fill-rule="evenodd"/><path style="marker:none" d="M14.411 16.252a1.458 4.331 0 01-1.327-4.58A1.458 4.331 0 0114.59 7.61 1.458 4.331 0 0116 11.967" transform="matrix(-.3128 0 0 .45003 17.733 24.868)" color="#000" display="block" overflow="visible" fill="none" stroke="url(#p)" stroke-width="1.597" stroke-linecap="round"/><path transform="matrix(.44972 0 0 .45003 -2.923 24.868)" d="M14.411 16.252a1.458 4.331 0 01-1.327-4.58A1.458 4.331 0 0114.59 7.61 1.458 4.331 0 0116 11.967" style="marker:none" color="#000" display="block" overflow="visible" fill="none" stroke="url(#q)" stroke-width="1.332" stroke-linecap="round"/><path style="marker:none" color="#000" display="block" overflow="visible" fill="#868a84" fill-rule="evenodd" d="M3.588 30.14h9.818v.399H3.588z"/><circle transform="matrix(.34978 0 0 .35002 4.067 26.4)" style="marker:none" cx="12.993" cy="16.711" r="1.591" color="#000" display="block" overflow="visible" fill="url(#r)" fill-rule="evenodd"/><rect ry=".015" rx=".012" y="27.868" x="8.142" height="4.585" width=".928" style="marker:none" color="#000" display="block" overflow="visible" fill="url(#s)" fill-rule="evenodd"/><path d="M13.374 40.995c.93.061 3.042-1.128 2.847-2.64-.458.708-1.396.341-2.601.387 0 0 .15 2.037-.246 2.253z" style="marker:none" color="#000" overflow="visible" fill="url(#t)" fill-rule="evenodd" stroke="#868a84" stroke-width=".399"/><path style="marker:none" d="M14.006 40.325c.401-.2 1.299-.627 1.68-1.176-.486.11-.847.026-1.655.02 0 0 .03.93-.025 1.156z" color="#000" overflow="visible" opacity=".369" fill="none" stroke="url(#u)" stroke-width=".399"/><circle transform="matrix(.23668 0 0 .23668 3.053 27.552)" style="marker:none" cx="22.969" cy="5.031" r=".844" color="#000" display="block" overflow="visible" opacity=".555" fill-rule="evenodd"/><circle transform="matrix(.25148 0 0 .25148 -2.567 27.49)" style="marker:none" cx="22.969" cy="5.031" r=".844" color="#000" display="block" overflow="visible" opacity=".555" fill="#fff" fill-rule="evenodd"/><circle style="marker:none" transform="matrix(.25148 0 0 .25148 7.768 27.49)" cx="22.969" cy="5.031" r=".844" color="#000" display="block" overflow="visible" opacity=".555" fill="#fff" fill-rule="evenodd"/><circle transform="matrix(.47181 0 0 .47211 2.489 24.38)" style="marker:none" cx="12.993" cy="16.711" r="1.591" color="#000" display="block" overflow="visible" fill="none" stroke="url(#v)" stroke-width=".846"/><circle style="marker:none" transform="matrix(.47181 0 0 .47211 7.087 24.38)" cx="12.993" cy="16.711" r="1.591" color="#000" display="block" overflow="visible" fill="none" stroke="url(#w)" stroke-width=".846"/><text y="39.664" x="6.404" style="line-height:0%;-inkscape-font-specification:'Linux Libertine O'" font-weight="400" font-family="Linux Libertine O" letter-spacing="0" word-spacing="0"><tspan style="line-height:1.25;-inkscape-font-specification:'Kozuka Gothic Pro M Bold'" y="39.664" x="6.404" font-weight="700" font-size="8.406" font-family="Kozuka Gothic Pro M">2</tspan></text></g><g aria-label="Duck Day" style="line-height:1.25" font-weight="400" font-size="38.534" font-family="Rosario" letter-spacing="0" word-spacing="0" stroke-width=".963"><path d="M894.39 308.367h-9.089v-25.63q0-.04-.153-.62-.115-.58-.269-1.2-.115-.658-.115-.736h7.172q15.111 0 15.111 14.17 0 6.35-3.222 10.183-3.183 3.833-9.434 3.833zm-5.522-2.672h5.062q4.91 0 7.134-3.136 2.263-3.136 2.263-8.285 0-6.001-2.915-8.711-2.876-2.71-8.744-2.71h-2.8zM929.3 305.54l.652 2.014q-.269.116-.882.387l-.96.387q-.344.116-.881.232-.537.155-.959.155-1.112 0-1.803-.735-.69-.736-.882-1.897-2.684 2.787-5.868 2.787-3.03 0-4.448-1.82-1.381-1.858-1.381-5.033V291.41q0-.039-.115-.542-.115-.542-.269-1.084-.115-.58-.115-.658h3.682v11.847q0 1.045.077 1.781.115.736.383 1.549.307.813.997 1.277.69.426 1.726.426 2.148 0 3.682-1.355 1.534-1.394 1.534-3.562v-9.679q0-.039-.115-.542-.115-.542-.268-1.084-.115-.58-.115-.658h3.682v15.486q0 .775.153 1.123.192.349.69.349.46 0 1.803-.542zM945.168 304.495l1.457 2.44q-1.803 1.083-3.107 1.51-1.265.425-3.183.425-3.835 0-6.251-3.058-2.378-3.098-2.378-7.047 0-4.375 2.416-7.24 2.455-2.865 6.712-2.865 2.953 0 5.523 1.975l-1.726 2.245q-1.113-.968-2.033-1.316-.882-.387-2.263-.387-2.493 0-3.873 2.284-1.343 2.284-1.343 4.956 0 1.78.499 3.484.537 1.665 1.802 2.981 1.304 1.317 3.107 1.317 1.38 0 2.34-.387.958-.388 2.3-1.317zM965.12 308.367h-3.798l-7.785-10.454v10.454h-3.183v-27.218q0-.039-.115-.542-.116-.542-.269-1.084-.115-.58-.115-.658h3.682v18.197l7.133-7.937h3.414l-7.326 8.092zM984.354 308.367h-9.09v-25.63q0-.04-.153-.62-.115-.58-.268-1.2-.115-.658-.115-.736h7.172q15.11 0 15.11 14.17 0 6.35-3.22 10.183-3.184 3.833-9.436 3.833zm-5.522-2.672h5.062q4.91 0 7.134-3.136 2.262-3.136 2.262-8.285 0-6.001-2.914-8.711-2.877-2.71-8.745-2.71h-2.8zM1016.482 305.54l.652 2.014q-.269.116-.882.387l-.96.387q-.344.116-.881.232-.537.155-.96.155-1.111 0-1.84-.735-.69-.736-.882-1.897-2.57 2.71-5.753 2.71-2.301 0-3.797-1.355-1.457-1.394-1.457-3.717 0-6.543 10.93-6.62v-2.053q0-3.871-3.183-3.871-1.496 0-3.03.62-1.534.619-2.455 1.664l-1.572-2.284q3.107-2.517 7.325-2.517 2.992 0 4.526 1.665 1.572 1.626 1.572 4.685v9.601q0 .775.154 1.123.192.349.69.349.46 0 1.803-.542zm-5.83-4.684v-1.24q-1.419 0-2.454.117-.998.078-2.378.426-1.343.348-2.11 1.239-.728.852-.728 2.207 0 1.239.805 1.858.844.62 2.225.62 1.955 0 3.298-1.588 1.342-1.626 1.342-3.64zM1019.152 316.768h-1.458v-2.594h.422q1.15 0 2.071-.542.92-.503 1.572-1.51.69-1.006 1.074-1.858.422-.852.844-2.052l-6.98-19.087h3.452l5.062 14.635 5.063-14.635h2.991l-6.75 19.32q-2.953 8.323-7.363 8.323z" style="-inkscape-font-specification:Rosario"/></g><g aria-label="Ivy Glenn Memorial 179 Rt. 198 Eastford, CT" style="line-height:1.25" font-weight="400" font-size="67.144" font-family="Rosario" letter-spacing="0" word-spacing="0" stroke-width=".899"><path d="M663.412 713.223h-9.362v-44.59q0-.067-.271-.997-.204-.93-.475-1.927-.204-.997-.204-1.13h10.312zM698.729 680.196l-11.94 33.293h-7.327l-11.872-33.293h8.751l6.174 17.41q.61 1.595 1.424 5.582.882-4.718 1.154-5.582l6.309-17.41z" style="-inkscape-font-specification:Rosario" font-weight="700"/><path d="M729.67 680.196l-12.008 33.226q-5.156 14.487-14.722 14.487h-2.51v-5.648q.814.199 1.764.199 1.832 0 3.256-.864 1.493-.797 2.443-2.392 1.017-1.595 1.56-2.924.61-1.263 1.221-3.124l-12.211-32.96h8.751q.475 1.395 2.917 8.107 2.443 6.645 3.664 10.234.271.864.543 2.724.339 1.795.407 2.26.746-4.253.95-4.984l6.512-18.341zM790.425 713.29h-4.817l-2.307-5.051q-3.392 3.057-6.784 4.386-3.392 1.329-8.005 1.329-10.583 0-16.282-6.911-5.699-6.978-5.699-17.677 0-11.63 6.58-18.607 6.582-6.977 18.25-6.977 4.613 0 9.634 1.329 5.02 1.329 7.801 3.92l-4.952 5.45q-3.596-2.592-6.038-3.522-2.374-.93-6.445-.93-5.36 0-8.887 2.79-3.46 2.725-4.817 6.779-1.289 3.987-1.289 9.17 0 3.256.747 6.446.814 3.123 2.306 5.98 1.56 2.858 4.342 4.653 2.782 1.727 6.31 1.727 4.816 0 7.733-2.79 2.985-2.792 2.985-7.51v-4.12H770.48l.882-5.848h18.86q-.136 8.107-.136 12.228 0 8.04.34 13.755zM805.623 713.223h-8.276v-47.514q0-.067-.204-.864-.136-.798-.34-1.728-.203-.93-.203-.997h9.023zM841.78 693.686q0 3.987-3.46 3.987h-17.775q0 4.253 2.307 7.642 2.306 3.323 6.445 3.323 2.103 0 4.341-.997 2.307-.997 3.867-2.525l3.46 5.316q-2.103 1.728-5.563 2.658-3.392.864-6.512.864-7.87 0-12.415-4.585-4.546-4.652-4.546-12.427 0-7.376 4.206-12.493 4.274-5.184 11.601-5.184 6.649 0 10.312 3.921 3.731 3.92 3.731 10.5zm-8.48-2.725q0-2.725-1.425-4.452-1.425-1.795-4.07-1.795-2.715 0-4.818 2.46-2.103 2.458-2.238 5.249h11.397q1.153 0 1.153-1.462zM876.66 713.223h-8.21v-21.531q0-1.86-.203-2.99-.204-1.197-1.221-2.127-1.018-.997-2.85-.997-1.492 0-3.866 1.263-2.307 1.196-3.46 2.392v23.99h-8.141v-23.657q0-6.646-2.103-9.105l8.548-.996q.814 1.727 1.153 4.253 5.02-4.453 10.312-4.453 5.495 0 7.734 2.99 2.306 2.991 2.306 8.64zM913.76 713.223h-8.209v-21.531q0-1.86-.203-2.99-.204-1.197-1.221-2.127-1.018-.997-2.85-.997-1.492 0-3.867 1.263-2.306 1.196-3.46 2.392v23.99h-8.14v-23.657q0-6.646-2.104-9.105l8.548-.996q.814 1.727 1.154 4.253 5.02-4.453 10.311-4.453 5.496 0 7.734 2.99 2.307 2.991 2.307 8.64zM986.848 713.156h-9.158v-32.96q0-.93.339-4.785-.204.532-.543 1.528-.271.93-.543 1.728-.27.798-.542 1.529l-12.144 33.027h-5.02l-12.483-33.027q-.271-.731-.543-1.529-.271-.797-.61-1.728-.272-.996-.475-1.528 0 .598.136 2.26.203 1.66.203 2.525v32.96h-7.395v-44.523q0-.067-.27-.997-.204-.93-.476-1.927-.203-.997-.203-1.13h13.025l10.583 27.91q.747 1.994 1.968 8.041.136-.465.678-3.322.61-2.924 1.154-4.453l10.38-28.176h11.94zM1021.983 693.686q0 3.987-3.46 3.987h-17.775q0 4.253 2.307 7.642 2.307 3.323 6.445 3.323 2.103 0 4.342-.997 2.306-.997 3.867-2.525l3.46 5.316q-2.103 1.728-5.563 2.658-3.392.864-6.513.864-7.87 0-12.415-4.585-4.545-4.652-4.545-12.427 0-7.376 4.206-12.493 4.274-5.184 11.6-5.184 6.649 0 10.312 3.921 3.732 3.92 3.732 10.5zm-8.48-2.725q0-2.725-1.425-4.452-1.425-1.795-4.07-1.795-2.714 0-4.817 2.46-2.103 2.458-2.24 5.249h11.398q1.154 0 1.154-1.462zM1075.858 713.223h-8.14V691.16q0-2.724-.95-4.12-.95-1.462-3.528-1.462-1.56 0-3.528 1.13-1.9 1.13-3.256 2.459v24.056h-8.21V690.96q0-5.383-4.273-5.383-1.628 0-3.596 1.13-1.9 1.063-3.256 2.525v23.99h-8.141v-23.657q0-6.646-2.103-9.105l8.548-.996q.814 1.727 1.153 4.253 5.156-4.386 10.38-4.386 6.309 0 8.412 4.85 4.953-4.85 10.99-4.85 5.224 0 7.327 2.99 2.171 2.99 2.171 8.373zM1081.837 696.676q0-7.31 4.477-12.294 4.546-5.05 11.94-5.05 7.463 0 11.94 4.984 4.478 4.984 4.478 12.36 0 7.376-4.478 12.36-4.477 4.984-11.94 4.984-7.462 0-11.94-4.984-4.477-4.984-4.477-12.36zm16.417-11.895q-2.85 0-4.68 2.126-1.765 2.127-2.307 4.586-.475 2.458-.475 5.25 0 2.79.475 5.25.542 2.458 2.306 4.585 1.832 2.126 4.681 2.126 2.239 0 3.8-1.13 1.627-1.13 2.306-3.056.746-1.928 1.018-3.788.339-1.861.339-3.988 0-2.126-.34-3.987-.27-1.86-1.017-3.788-.679-1.927-2.307-3.056-1.56-1.13-3.799-1.13zM1140.259 679.531l-1.357 7.908h-.272q-2.985 0-5.223 1.661-2.171 1.595-4.274 4.453v19.67h-8.141V689.1q0-6.047-2.171-8.904l8.616-.665q1.492 3.323 1.628 6.978 1.764-2.924 4.816-4.918 3.121-2.06 6.378-2.06zM1152.647 713.223h-8.141v-29.439q0-.066-.203-.864-.136-.797-.34-1.728-.203-.93-.203-.996h8.887zm-.407-48.71q1.56 1.528 1.56 3.655 0 2.126-1.56 3.655-1.493 1.461-3.664 1.461-2.17 0-3.73-1.461-1.493-1.529-1.493-3.655 0-2.127 1.492-3.655 1.56-1.529 3.731-1.529t3.664 1.529zM1192.195 711.96q-.61.133-1.9.532l-2.035.664q-.814.2-1.967.4-1.085.199-1.967.199-2.036 0-3.46-1.197-1.425-1.262-1.9-3.256-3.392 4.652-10.176 4.652-4.138 0-6.852-2.26-2.714-2.259-2.714-6.246 0-3.456 1.696-5.848t4.614-3.522q2.917-1.196 5.834-1.661 2.917-.532 6.241-.532v-4.32q0-2.591-1.153-3.588-1.153-1.063-3.731-1.063-3.596 0-8.684 3.854l-3.324-5.25q6.173-4.12 13.704-4.12 5.427 0 8.344 2.725 2.985 2.724 2.985 8.04v14.421q0 3.323 1.628 3.323.543 0 3.393-.798zm-14.586-11.097v-1.529q-9.904 0-9.904 5.316 0 1.462 1.153 2.326 1.221.864 2.781.864 2.646 0 4.274-2.126 1.696-2.193 1.696-4.851zM1203.263 713.223h-8.277v-47.514q0-.067-.203-.864-.136-.798-.34-1.728-.203-.93-.203-.997h9.023z" style="-inkscape-font-specification:Rosario" font-weight="700"/><path d="M673.995 796.356h-21.234v-4.519h7.937v-22.395l-8.14 2.46-1.222-3.124 11.601-5.516h3.392v28.575h7.666zM683.231 808.583h-6.038l18.318-40.337h-19.878l1.357-4.984h25.101v2.791zM709.064 810.71l-1.425-3.722q18.114-7.376 21.777-20.135-4.206 3.39-9.633 3.39-5.427 0-9.159-4.054-3.663-4.054-3.663-9.437 0-5.98 4.274-10.1 4.274-4.187 10.38-4.187 7.123 0 11.126 4.718 4.002 4.652 4.002 11.762 0 8.971-5.156 16.015-5.088 7.044-13.636 11.896-5.291 2.924-8.887 3.854zm21.37-29.439q.136-.864.136-2.525 0-4.984-2.171-8.573-2.171-3.588-6.852-3.588-3.935 0-6.174 3.123-2.239 3.057-2.239 7.044 0 3.722 2.24 6.38 2.238 2.591 5.97 2.591 4.68 0 9.09-4.452zM796.079 796.29h-7.327l-12.754-21.864q-1.56.133-5.088.133h-3.392v21.73h-6.31v-43.992q0-.066-.271-1.063-.204-.997-.475-2.06-.203-1.13-.203-1.262h14.721q16.69 0 16.69 13.357 0 3.987-2.782 7.442-2.714 3.39-6.649 4.586zm-28.561-26.25h5.427q5.63 0 8.887-1.993 3.256-2.06 3.256-7.177 0-4.054-2.917-6.18-2.917-2.193-7.19-2.193h-7.463zM815.468 792.103l.95 3.721q-4.003 1.196-6.717 1.196-4.138 0-5.97-2.126-1.764-2.193-1.764-6.446v-21h-5.02v-3.322q5.902-.133 7.87-10.3h4.274q-1.493 5.98-1.493 9.436h8.82l-1.222 4.187h-7.598v21.132q0 2.126.746 3.19.814.996 2.85.996 1.56 0 4.274-.664zM820.567 792.568q0-1.86 1.29-3.123 1.288-1.263 3.188-1.263 1.832 0 3.12 1.33 1.357 1.262 1.357 3.056t-1.356 3.123q-1.29 1.263-3.121 1.263-1.832 0-3.189-1.263-1.289-1.329-1.289-3.123zM873.279 796.356h-21.234v-4.519h7.937v-22.395l-8.14 2.46-1.222-3.124 11.6-5.516h3.393v28.575h7.666zM879.33 810.71l-1.425-3.722q18.113-7.376 21.777-20.135-4.206 3.39-9.634 3.39-5.427 0-9.158-4.054-3.664-4.054-3.664-9.437 0-5.98 4.274-10.1 4.274-4.187 10.38-4.187 7.123 0 11.126 4.718 4.003 4.652 4.003 11.762 0 8.971-5.156 16.015-5.088 7.044-13.636 11.896-5.292 2.924-8.887 3.854zm21.37-29.439q.135-.864.135-2.525 0-4.984-2.17-8.573-2.172-3.588-6.853-3.588-3.934 0-6.173 3.123-2.239 3.057-2.239 7.044 0 3.722 2.239 6.38 2.239 2.591 5.97 2.591 4.68 0 9.09-4.452zM931.374 770.24l-.61.598q.135.133 1.967 1.86 1.832 1.728 2.239 2.194.475.465 1.832 2.06 1.356 1.594 1.764 2.525.474.93.95 2.459.542 1.462.542 2.924 0 5.648-3.935 8.904-3.935 3.256-9.905 3.256-5.223 0-9.09-3.056-3.867-3.124-3.867-8.174 0-2.459.542-4.32.543-1.927 1.9-3.588 1.425-1.728 2.51-2.725 1.086-.996 3.324-2.857l1.086-.864q-.61-.665-2.646-2.592-2.035-1.993-2.781-2.924-.679-.93-1.493-2.79-.814-1.928-.814-4.054 0-4.652 3.528-7.908 3.527-3.323 8.344-3.323 4.953 0 8.277 2.924 3.392 2.857 3.392 7.642 0 2.525-1.153 4.851-1.154 2.326-2.307 3.589-1.153 1.196-3.596 3.389zm-4.07-2.658q5.699-4.918 5.699-9.17 0-2.725-1.697-4.653-1.628-1.993-4.41-1.993-2.78 0-4.273 2.126-1.425 2.06-1.425 4.851 0 .864.34 1.795.339.864.678 1.528.407.665 1.153 1.595.814.93 1.289 1.395l1.425 1.396q.95.864 1.22 1.13zm-1.357 7.044l-1.018.864q-1.696 1.462-2.442 2.193-.678.664-1.764 1.993-1.085 1.33-1.492 2.725-.407 1.395-.407 3.19 0 2.923 2.103 5.183 2.17 2.26 5.156 2.26 3.392 0 5.495-2.194 2.17-2.26 2.17-5.582 0-1.262-.474-2.459-.475-1.196-1.493-2.392-1.017-1.262-1.831-2.06-.747-.797-2.171-2.06-1.425-1.263-1.832-1.661zM684.104 879.356h-28.697v-43.992q0-.066-.272-1.063-.203-.997-.474-2.06-.204-1.13-.204-1.263h29.647v4.585h-22.388v16.68h17.367v4.519h-17.367v18.009h22.388zM719.437 874.505l1.154 3.456q-.475.199-1.56.664l-1.697.665q-.61.199-1.56.398-.95.266-1.696.266-1.968 0-3.257-1.262-1.22-1.263-1.56-3.257-4.545 4.652-10.176 4.652-4.07 0-6.716-2.326-2.578-2.392-2.578-6.38 0-11.23 19.334-11.363v-3.522q0-6.645-5.63-6.645-2.646 0-5.36 1.063-2.714 1.063-4.342 2.858l-2.781-3.921q5.495-4.32 12.957-4.32 5.292 0 8.006 2.858 2.781 2.79 2.781 8.04v16.481q0 1.33.272 1.927.339.598 1.22.598.815 0 3.19-.93zm-10.312-8.04v-2.127q-2.51 0-4.341.199-1.764.133-4.207.731-2.374.598-3.73 2.126-1.29 1.462-1.29 3.788 0 2.127 1.425 3.19 1.492 1.063 3.935 1.063 3.46 0 5.834-2.724 2.374-2.791 2.374-6.247zM723.789 877.429l2.374-4.054q3.935 2.658 7.191 2.658 2.782 0 4.817-1.063t2.035-3.588q0-1.994-1.628-3.456-1.628-1.528-4.003-2.592-2.306-1.063-4.613-2.193-2.306-1.196-3.935-3.19-1.628-1.993-1.628-4.784 0-4.652 3.46-7.11 3.46-2.526 8.412-2.526 5.156 0 9.023 2.326l-1.967 4.253q-3.189-2.392-6.445-2.392-2.646 0-4.681 1.063t-2.035 3.456q0 1.993 1.628 3.522 1.628 1.462 3.935 2.525 2.374.997 4.68 2.193 2.375 1.13 4.003 3.19 1.629 2.06 1.629 4.917 0 4.918-3.46 7.31-3.392 2.326-8.684 2.326-4.545 0-10.108-2.791zM769.357 875.17l.95 3.72q-4.003 1.197-6.717 1.197-4.138 0-5.97-2.126-1.764-2.193-1.764-6.446v-21h-5.02v-3.322q5.902-.133 7.87-10.3h4.274q-1.493 5.98-1.493 9.436h8.82l-1.222 4.186h-7.598v21.132q0 2.127.746 3.19.815.997 2.85.997 1.56 0 4.274-.664zM783.615 879.356h-5.563V850.45h-5.088v-3.456q.204 0 1.153-.066 1.018-.133 1.425-.2.475-.132.882-.265.475-.2.814-.465.407-.333.61-.731.204-.4.34-.93.203-.798.746-4.187 1.018-5.383 4.41-8.64 3.392-3.322 8.82-3.322 3.595 0 6.58 1.661l-1.56 4.12q-1.9-1.66-4.885-1.66-2.782 0-4.681 1.328-1.832 1.263-2.646 3.589-.814 2.326-1.086 4.386-.27 2.06-.27 4.718h9.7l-1.22 4.12h-8.48zM809.266 880.22q-7.123 0-11.193-5.05-4.003-5.117-4.003-12.294 0-7.11 4.07-12.228 4.071-5.117 11.126-5.117 7.192 0 11.194 5.05 4.07 5.051 4.07 12.295 0 7.243-4.07 12.294-4.002 5.05-11.194 5.05zm0-4.187q3.325 0 5.496-2.193 2.238-2.193 2.985-4.984.814-2.857.814-5.98 0-3.124-.814-5.915-.814-2.857-3.053-5.05-2.171-2.193-5.428-2.193-3.256 0-5.495 2.193-2.17 2.193-2.985 5.05-.746 2.791-.746 5.915 0 2.924.882 5.781.882 2.858 3.053 5.117 2.239 2.26 5.291 2.26zM837.987 879.356h-5.631v-23.923q0-5.848-2.171-8.971l6.106-.731q1.22 2.924 1.56 6.18 1.832-2.791 4.817-4.452 2.985-1.728 6.241-1.728l-1.357 5.848q-5.495 0-9.565 5.847zM884.838 879.223l-5.97.731q-.95-2.06-1.289-4.519-3.799 4.785-9.972 4.785-6.649 0-10.312-5.117-3.664-5.117-3.664-11.962 0-7.31 3.867-12.426 3.935-5.117 11.194-5.117 5.224 0 8.48 2.924v-15.883l-.95-3.92h6.513v41.134q0 5.915 2.103 9.37zm-7.666-8.24v-11.164q0-4.253-2.103-6.978-2.035-2.724-6.241-2.724-2.578 0-4.478 1.13-1.831 1.129-2.849 3.056-.95 1.86-1.425 3.987-.475 2.06-.475 4.453 0 5.183 2.375 8.904 2.374 3.722 7.327 3.722 3.935 0 7.87-4.386zM891.663 885.536q.136-.2.746-.797.61-.532.95-.93.34-.333.746-.93.475-.533.679-1.064.203-.532.203-.997 0-.73-1.696-2.26-1.696-1.594-1.696-3.455 0-1.661 1.221-2.791 1.221-1.196 2.985-1.196 2.375 0 3.731 1.661 1.357 1.662 1.357 3.987 0 6.114-6.92 11.032-1.22-1.064-2.306-2.26zM958.272 871.05l2.918 4.452q-2.714 2.193-6.988 3.455-4.206 1.197-8.073 1.197-10.72 0-16.893-7.244-6.105-7.243-6.105-17.876 0-10.765 6.173-17.743 6.174-6.977 16.96-6.977 4.003 0 8.21 1.395 4.273 1.33 6.58 3.854l-3.528 3.855q-1.9-2.06-5.156-3.257-3.256-1.196-6.241-1.196-4.206 0-7.395 1.795-3.188 1.727-5.02 4.784-1.832 2.99-2.782 6.513-.882 3.455-.882 7.376 0 3.987.882 7.443.95 3.455 2.782 6.246 1.9 2.791 5.088 4.453 3.256 1.595 7.462 1.595 3.053 0 6.378-1.13 3.392-1.13 5.63-2.99zM985.005 879.356h-6.445v-43.793h-14.654v-4.585h35.956v4.585h-14.857z" style="-inkscape-font-specification:Rosario"/></g><g aria-label="February" style="line-height:1.25" font-weight="400" font-size="31.656" font-family="Rosario" letter-spacing="0" word-spacing="0" stroke-width=".791"><path d="M931.501 228.73h-2.407V203.1q0-.039-.103-.62-.078-.58-.182-1.2-.077-.658-.077-.735h10.43v2.671h-7.66v9.718h6.082v2.633H931.5zM948.903 224.743l.958 2.323q-1.786 2.168-4.349 2.168-2.795 0-4.4-2.788-1.579-2.826-1.579-7.124 0-2.632.57-4.917.595-2.284 1.89-3.833 1.32-1.548 3.131-1.548 2.252 0 3.624 2.013 1.371 1.974 1.371 5.304 0 2.478-1.32 2.478h-6.988v.387q0 2.788.983 5.072 1.01 2.246 2.77 2.246.854 0 1.786-.465.932-.503 1.553-1.316zm-6.937-8.324h5.41q.285 0 .362-.155.078-.194.078-.659 0-1.742-.673-2.942-.673-1.2-1.812-1.2-1.242 0-2.2 1.51-.932 1.51-1.165 3.446zM954.523 228.77h-1.294l.078-2.672v-24.624q0-.039-.104-.542-.077-.542-.18-1.084-.079-.542-.079-.62h2.511v12.002q1.579-2.129 3.624-2.129 2.536 0 3.934 2.981 1.424 2.981 1.424 6.93 0 2.71-.596 4.995-.595 2.246-1.915 3.755-1.32 1.472-3.158 1.472-2.381 0-3.779-2.478zm.932-14.79v7.046q0 2.633.777 4.22.776 1.587 2.459 1.587 1.216 0 2.018-1.316.829-1.355 1.113-2.981.311-1.665.311-3.407 0-2.904-.906-5.072-.88-2.207-2.692-2.207-1.734 0-3.08 2.13zM969.685 228.73h-2.148v-13.938q0-3.407-.828-5.226l2.33-.426q.465 1.703.595 3.6.698-1.626 1.837-2.594 1.14-1.006 2.382-1.006l-.518 3.407q-2.097 0-3.65 3.407zM988.311 225.904l.44 2.013-.595.388-.647.387q-.233.116-.595.232-.363.155-.647.155-.751 0-1.217-.736-.466-.735-.595-1.897-1.812 2.788-3.96 2.788-2.045 0-3.003-1.82-.932-1.858-.932-5.033v-10.608q0-.04-.077-.543-.078-.542-.182-1.084-.077-.58-.077-.658h2.485v11.848q0 1.045.051 1.78.078.736.259 1.55.207.812.673 1.277.466.426 1.165.426 1.45 0 2.484-1.355 1.036-1.394 1.036-3.562v-9.68q0-.038-.078-.542-.078-.542-.181-1.084-.078-.58-.078-.658h2.485v15.487q0 .774.104 1.123.129.348.465.348.311 0 1.217-.542zM1001.246 225.904l.44 2.013-.595.388-.647.387q-.233.116-.595.232-.363.155-.647.155-.751 0-1.243-.736-.466-.735-.595-1.897-1.734 2.71-3.883 2.71-1.553 0-2.562-1.355-.984-1.394-.984-3.717 0-6.543 7.377-6.62v-2.052q0-3.872-2.148-3.872-1.01 0-2.045.62t-1.657 1.665l-1.06-2.285q2.096-2.516 4.943-2.516 2.019 0 3.054 1.664 1.061 1.627 1.061 4.685v9.602q0 .774.104 1.123.13.348.466.348.31 0 1.216-.542zm-3.934-4.685v-1.239q-.958 0-1.657.117-.673.077-1.604.426-.906.348-1.424 1.238-.492.852-.492 2.207 0 1.24.544 1.859.57.62 1.501.62 1.32 0 2.226-1.588.906-1.626.906-3.64zM1005.831 228.73h-2.148v-13.938q0-3.407-.828-5.226l2.33-.426q.465 1.703.595 3.6.698-1.626 1.837-2.594 1.14-1.006 2.382-1.006l-.518 3.407q-2.097 0-3.65 3.407zM1013.26 237.132h-.984v-2.594h.285q.777 0 1.398-.542.62-.503 1.06-1.51.467-1.007.726-1.858.284-.852.57-2.052l-4.712-19.088h2.33l3.416 14.635 3.417-14.635h2.019l-4.556 19.32q-1.993 8.324-4.97 8.324z" style="-inkscape-font-specification:Rosario"/></g><path d="M119.381 381.197l-21.275 11.524v10.661l14.286.878-.615 9.182-11.503.293-8.543 6.055 8.543 6.208 10.565.154v4.73l-7.604.293.307 8.15 7.135.292.162 5.608-15.84-7.087-1.553 16.115-4.967-2.219 3.252-6.208-6.99-4.144-4.351 6.5-4.66-2.803 5.129-8.72-.47-10.507-10.548 3.99-5.436 9.028-9.012-3.99 6.213-11.246-9.95-5.624-20.807 11.386-.307 23.232 9.788 5.176 7.604-10.8 8.705 4.576-6.067 9.63 1.084 9.905 10.565-3.851 5.29-9.46 5.275 2.65-4.19 6.81 7.765 4.283 3.721-6.794 5.598 3.096-14.917 10.353 14.917 10.353-5.598 3.112-3.72-6.81-7.767 4.299 4.19 6.948-5.274 2.511-5.29-9.459-10.565-3.852-1.084 9.907 6.067 9.613-8.705 4.591-7.604-10.8-9.788 5.33.307 23.064 20.807 11.4 9.95-5.484-6.213-11.385 9.012-3.99 5.436 9.028 10.549 3.99.469-10.492-5.129-8.735 4.66-2.82 4.352 6.517 6.99-4.144-3.253-6.209 4.967-2.218L95 518.882l15.84-7.102-.162 5.777-7.135.154-.307 8.273 7.604.154v4.73l-10.565.138-8.543 6.224 8.543 6.055 11.503.308.615 9.167-14.286 1.032v10.492l21.275 11.554 21.276-11.554v-10.492l-14.286-1.032.615-9.167 11.503-.308 8.543-6.055-8.543-6.224-10.727-.138v-4.73l7.62-.154-.161-8.273-7.135-.154-.324-5.777 15.856 7.102 1.699-16.115 4.967 2.218-3.252 6.21 6.99 4.143 4.19-6.516 4.821 2.819-5.129 8.735.307 10.492 10.711-3.99 5.436-9.028 9.012 3.99-6.213 11.385 9.95 5.485 20.807-11.401.307-23.063-9.788-5.33-7.604 10.8-8.705-4.592 5.906-9.613-.923-9.907-10.565 3.852-5.29 9.46-5.436-2.512 4.352-6.948-7.766-4.298-3.721 6.81-5.598-3.113L168 478.502l-14.917-10.353 5.598-3.096 3.72 6.794 7.767-4.283-4.352-6.81 5.436-2.65 5.29 9.46 10.565 3.851.923-9.906-5.906-9.629 8.705-4.575 7.604 10.8 9.788-5.177-.307-23.232-20.807-11.386-9.95 5.624 6.213 11.246-9.012 3.99-5.436-9.028-10.71-3.99-.308 10.507 5.129 8.72-4.821 2.804-4.19-6.501-6.99 4.144 3.252 6.208-4.967 2.219-1.699-16.115-15.856 7.087.324-5.608 7.135-.293.162-8.15-7.62-.292v-4.73l10.726-.154 8.543-6.208-8.543-6.055-11.503-.293-.615-9.182 14.286-.878v-10.661zM957.052 477.516l-14.022 7.159v6.623l9.416.546-.406 5.704-7.581.182-5.63 3.761 5.63 3.857 6.963.096v2.939l-5.012.182.203 5.063 4.702.182.107 3.484-10.44-4.403-1.023 10.011-3.274-1.378 2.144-3.857-4.607-2.575-2.868 4.04-3.071-1.743 3.38-5.417-.31-6.527-6.952 2.479-3.583 5.608-5.939-2.479 4.095-6.986-6.558-3.494-13.713 7.073-.203 14.433 6.452 3.216 5.011-6.71 5.737 2.843-3.999 5.982.715 6.154 6.963-2.392 3.487-5.877 3.476 1.646-2.762 4.23 5.119 2.661 2.452-4.22 3.69 1.923-9.832 6.432 9.832 6.432-3.69 1.933-2.452-4.23-5.119 2.67 2.762 4.317-3.476 1.56-3.487-5.877-6.963-2.393-.715 6.155 3.999 5.972-5.737 2.852-5.011-6.71-6.452 3.312.203 14.328 13.713 7.083 6.558-3.407-4.095-7.073 5.94-2.48 3.582 5.61 6.953 2.478.309-6.518-3.38-5.427 3.07-1.751 2.869 4.049 4.607-2.575-2.144-3.857 3.274-1.378 1.023 10.01 10.44-4.411-.107 3.589-4.702.095-.203 5.14 5.012.096v2.938l-6.963.086-5.63 3.867 5.63 3.762 7.581.191.406 5.695-9.416.641v6.518l14.022 7.178 14.022-7.178v-6.518l-9.415-.641.405-5.695 7.581-.191 5.63-3.762-5.63-3.867-7.07-.086v-2.938l5.023-.096-.107-5.14-4.702-.095-.214-3.59 10.45 4.413 1.12-10.012 3.274 1.379-2.144 3.857 4.607 2.574 2.762-4.048 3.177 1.751-3.38 5.427.203 6.518 7.059-2.479 3.583-5.608 5.94 2.478-4.096 7.073 6.558 3.408 13.713-7.083.203-14.328-6.452-3.311-5.011 6.709-5.737-2.852 3.892-5.972-.608-6.155-6.963 2.393-3.487 5.877-3.583-1.56 2.869-4.317-5.119-2.67-2.452 4.23-3.69-1.933 9.832-6.432-9.832-6.432 3.69-1.923 2.453 4.22 5.118-2.66-2.869-4.23 3.583-1.647 3.487 5.877 6.963 2.392.608-6.154-3.892-5.982 5.737-2.842 5.012 6.709 6.45-3.216-.202-14.433-13.713-7.073-6.558 3.493 4.095 6.987-5.94 2.48-3.582-5.61-7.06-2.478-.202 6.527 3.38 5.417-3.177 1.742-2.762-4.039-4.607 2.575 2.144 3.857-3.274 1.378-1.12-10.011-10.45 4.403.214-3.484 4.702-.182.107-5.063-5.022-.182v-2.939l7.07-.096 5.63-3.857-5.63-3.761-7.582-.182-.405-5.704 9.415-.546v-6.623zM1103.576 558.6l-10.945 5.881v5.442l7.35.448-.317 4.686-5.918.15-4.394 3.09 4.394 3.169 5.435.078v2.414l-3.912.15.158 4.16 3.67.149.084 2.862-8.149-3.617-.799 8.225-2.555-1.133 1.673-3.168-3.596-2.116-2.238 3.319-2.398-1.431 2.639-4.451-.241-5.363-5.427 2.037-2.797 4.608-4.636-2.037 3.196-5.74-5.118-2.87-10.704 5.81-.158 11.858 5.035 2.643 3.912-5.513 4.478 2.336-3.121 4.914.557 5.056 5.436-1.965 2.721-4.828 2.713 1.352-2.155 3.476 3.995 2.185 1.914-3.467 2.88 1.58-7.674 5.284 7.674 5.284-2.88 1.589-1.914-3.476-3.995 2.194 2.156 3.546-2.714 1.282-2.722-4.828-5.435-1.966-.557 5.056 3.121 4.907-4.478 2.343-3.912-5.512-5.035 2.72.158 11.772 10.704 5.819 5.118-2.8-3.196-5.81 4.636-2.037 2.797 4.608 5.427 2.036.24-5.354-2.637-4.459 2.397-1.439 2.238 3.326 3.596-2.115-1.673-3.169 2.555-1.132.8 8.225 8.148-3.625-.083 2.949-3.67.078-.159 4.223 3.912.078v2.414l-5.435.071-4.394 3.177 4.394 3.09 5.918.158.316 4.678-7.35.527v5.355l10.946 5.897 10.945-5.897v-5.355l-7.35-.527.317-4.678 5.917-.158 4.395-3.09-4.395-3.177-5.518-.07v-2.415l3.92-.078-.083-4.223-3.67-.078-.167-2.95 8.157 3.626.874-8.225 2.555 1.132-1.673 3.17 3.596 2.114 2.156-3.326 2.48 1.44-2.639 4.458.159 5.354 5.51-2.036 2.796-4.608 4.636 2.037-3.196 5.81 5.119 2.8 10.704-5.819.157-11.771-5.035-2.72-3.912 5.511-4.478-2.343 3.038-4.907-.474-5.056-5.435 1.966-2.722 4.828-2.797-1.282 2.24-3.546-3.996-2.194-1.914 3.476-2.88-1.589 7.674-5.284-7.674-5.284 2.88-1.58 1.914 3.467 3.995-2.185-2.239-3.476 2.797-1.352 2.722 4.828 5.435 1.965.474-5.056-3.038-4.914 4.478-2.336 3.912 5.513 5.035-2.643-.158-11.857-10.703-5.811-5.119 2.87 3.196 5.74-4.636 2.037-2.796-4.608-5.51-2.037-.159 5.363 2.639 4.45-2.48 1.432-2.156-3.319-3.596 2.116 1.673 3.168-2.555 1.133-.874-8.225-8.157 3.617.167-2.862 3.67-.15.083-4.16-3.92-.149v-2.414l5.518-.078 4.395-3.17-4.395-3.09-5.917-.149-.317-4.686 7.35-.448v-5.442z" font-weight="400" fill="#80b3ff"/><g transform="matrix(2.97417 0 0 2.9757 1106.639 68.115)"><path d="M122.81 219.358l5.346 2.673M78.31 238.735l-.935-7.082a8.037 8.037 0 00-.134-.802 3.75 3.75 0 00-.936-1.737c-.444-.46-1.004-.788-1.552-1.117-.549-.329-1.102-.672-1.521-1.155-.424-.489-.691-1.097-1.109-1.592a2.21 2.21 0 00-.752-.6c-.294-.135-.637-.18-.945-.08-.274.088-.502.28-.706.483-.204.202-.395.421-.63.586-.288.2-.628.31-.958.43-.33.12-.663.26-.914.505-.304.298-.456.728-.479 1.153-.022.426.076.85.212 1.253.268.794.683 1.528 1.07 2.272.274.53.535 1.068.8 1.603l.268.535" fill="none" stroke="#000" stroke-width=".265"/><path d="M69.09 233.39a177.874 177.874 0 015.077 11.626c.543 1.375 1.077 2.798 1.07 4.276-.007 1.262-.409 2.487-.535 3.742-.113 1.12-.005 2.25.01 3.376.014 1.126-.073 2.283-.545 3.306-.286.62-.709 1.177-.939 1.821-.115.322-.18.667-.147 1.007.034.34.172.676.418.914.237.228.56.353.885.402.326.049.658.028.986-.001 1.117-.1 2.225-.288 3.34-.401 1.91-.193 3.836-.163 5.747 0 2.23.19 4.446.559 6.682.668 1.069.052 2.14.044 3.207.134.848.07 1.69.202 2.54.267 1.066.08 2.138.055 3.206 0 .905-.047 1.81-.114 2.715-.067.904.046 1.815.209 2.63.601.341.164.672.37 1.045.428.187.03.383.02.558-.05a.722.722 0 00.402-.378.705.705 0 00.033-.417.98.98 0 00-.18-.382c-.172-.226-.415-.385-.654-.537-.826-.526-1.664-1.033-2.54-1.47-.233-.116-.472-.23-.668-.4a1.405 1.405 0 01-.133-.135" fill="none" stroke="#000" stroke-width=".265"/><path d="M78.31 238.735a37.209 37.209 0 001.821 7.474c.771 2.163 1.795 4.324 3.543 5.812.763.65 1.64 1.149 2.505 1.653 2.278 1.33 4.526 2.729 6.945 3.78.773.336 1.561.636 2.362.898h.047c.116.005.225.05.331.094.788.331 1.56.703 2.363.993 1.554.56 3.214.808 4.866.803 1.294-.004 2.597-.16 3.874.047.149.024.302.055.425.142a.705.705 0 01.214.254c.051.099.086.206.117.313.03.1.056.201.067.304a.795.795 0 01-.02.31.776.776 0 01-.168.295 1.543 1.543 0 01-.257.225c-.6.435-1.363.64-2.1.565a3.088 3.088 0 01-1.945-.977M128.156 222.03a33.31 33.31 0 00-.873 6.462c-.087 2.415.093 4.857.756 7.181.402 1.409.977 2.761 1.418 4.158.43 1.363.73 2.763 1.04 4.158.243 1.098.493 2.195.66 3.307.126.835.21 1.693.568 2.457.458.978 1.319 1.7 2.173 2.362 2.011 1.558 4.138 2.964 6.331 4.253 1.471.863 2.975 1.675 4.536 2.362a27.612 27.612 0 004.725 1.606c1.15.273 2.319.463 3.496.567" fill="none" stroke="#000" stroke-width=".265"/><path d="M152.986 260.903c.402.308.68.775.756 1.276.038.25.028.505 0 .756a1.763 1.763 0 01-.133.549.762.762 0 01-.387.396c-.163.066-.344.055-.52.047-1.353-.062-2.71.077-4.063 0-.854-.048-1.701-.183-2.551-.283-1.536-.182-3.088-.255-4.63-.142-.473.034-.944.086-1.418.094-.978.017-1.951-.151-2.93-.141-1.1.01-2.21.257-3.165.803-.495.283-.948.645-1.473.87a2.257 2.257 0 01-.829.195 1.445 1.445 0 01-.816-.215c-.221-.142-.39-.352-.557-.554-.168-.203-.346-.407-.577-.532-.299-.163-.652-.177-.992-.19-1.296-.048-2.593-.128-3.874-.33-1.423-.225-2.821-.6-4.253-.756-.815-.089-1.637-.105-2.456-.142a44.332 44.332 0 01-3.45-.283c-1.57-.194-3.145-.483-4.724-.378-.31.02-.62.056-.93.056-.31.001-.625-.034-.913-.15a1.703 1.703 0 01-.52-.332" fill="none" stroke="#000" stroke-width=".265"/><path d="M107.581 261.517a7.246 7.246 0 003.135-.532c1.15-.473 2.158-1.234 3.107-2.038a37.183 37.183 0 005.68-6.046c.485-.646.955-1.31 1.537-1.871.264-.255.558-.498.701-.836a.806.806 0 00.068-.285.52.52 0 00-.068-.283.486.486 0 00-.232-.194c-.095-.04-.2-.05-.302-.04-.123.014-.24.059-.35.115-.11.056-.212.124-.318.186-.254.15-.523.273-.802.368-.621.212-1.3.285-1.938.133a1.892 1.892 0 01-.704-.31 1.129 1.129 0 01-.432-.625 1.152 1.152 0 01.065-.683c.085-.216.22-.41.37-.587a4.63 4.63 0 011.002-.868c.521-.342 1.092-.601 1.67-.835.436-.177.879-.34 1.3-.551.42-.211.821-.472 1.139-.82.555-.604.816-1.425.935-2.237.036-.244.06-.49.067-.735.015-.536-.055-1.07-.1-1.604-.032-.379-.05-.76-.1-1.136-.066-.496-.184-.983-.3-1.47a193.499 193.499 0 01-2.74-13.564M103.433 63.674a6.987 6.987 0 001.67-1.738c.698-1.036 1.102-2.236 1.538-3.407a57.21 57.21 0 012.205-5.145M108.846 53.384a16.356 16.356 0 001.536 4.41c.09.171.185.345.334.467.153.125.35.185.546.205.196.02.394.005.59-.004.49-.023.983-.008 1.47-.067.893-.109 1.736-.465 2.54-.868a20.95 20.95 0 002.672-1.604" fill="none" stroke="#000" stroke-width=".265"/><path d="M118.534 55.923a101.627 101.627 0 01-1.002 5.212c-.336 1.53-.708 3.056-1.203 4.543-.217.654-.461 1.316-.468 2.005-.004.436.09.872.268 1.27.223.497.59.94 1.069 1.202.043.024.088.046.133.067h-.066M117.265 70.222c-.492.2-.933.525-1.27.935-.224.272-.401.579-.601.869-.932 1.351-2.322 2.306-3.475 3.474-1.895 1.922-3.133 4.41-5.011 6.348a12.974 12.974 0 01-4.01 2.806" fill="none" stroke="#000" stroke-width=".265"/><path d="M102.899 84.654a17.102 17.102 0 00-2.64-.218c-.537-.003-1.072.02-1.607.047-.902.046-1.824.105-2.693-.142a5.843 5.843 0 01-1.04-.425c-1.407-.714-2.7-1.777-3.354-3.213a3.895 3.895 0 01-.332-1.114 2.643 2.643 0 01.095-1.154c.143-.436.416-.82.73-1.154.314-.334.672-.624 1.019-.925 1.559-1.353 2.903-2.933 4.205-4.535 2.146-2.642 4.199-5.36 6.151-8.147M125.89 54.832a1 1 0 01.052-.528c.061-.169.156-.323.262-.468.212-.29.47-.55.622-.874.055-.12.095-.247.152-.366a.704.704 0 01.249-.303.502.502 0 01.274-.072c.096.002.191.03.274.08a.72.72 0 01.32.46c.055.242.003.497-.087.728-.09.232-.215.448-.314.675-.11.252-.186.519-.322.757-.068.12-.15.232-.253.323a.809.809 0 01-.36.19.72.72 0 01-.56-.117.78.78 0 01-.309-.485zM110.048 67.015c.167-.275.345-.543.535-.802.243-.333.512-.66.868-.869a1.07 1.07 0 01.395-.146.61.61 0 01.407.08c.078.05.141.12.185.203a.67.67 0 01.074.265c.014.184-.041.369-.125.534a1.716 1.716 0 01-1.136.868c-.4.093-.832.045-1.203-.133z" fill="none" stroke="#000" stroke-width=".265"/><path d="M94.778 83.892a9.037 9.037 0 001.771-1.417c.623-.643 1.164-1.41 1.323-2.292a1.82 1.82 0 00.029-.512 1.013 1.013 0 00-.17-.48c-.155-.218-.41-.35-.673-.394a1.875 1.875 0 00-.792.063 3.525 3.525 0 00-1.418.78c-.754.673-1.209 1.609-1.677 2.504-.07.134-.14.268-.212.402" fill="none" stroke="#000" stroke-width=".265"/><path d="M79.89 256.032a48.028 48.028 0 007.572 4.35 48.093 48.093 0 0014.493 4.056" fill="none" stroke="#000" stroke-width=".274"/><path d="M103.3 261.72a14.486 14.486 0 01-7.256-1.497M133.68 254.865a46.798 46.798 0 0014.619 7.475M122.7 252.88c-.381.458-.756.921-1.124 1.39-.919 1.171-1.797 2.381-2.844 3.44a14.652 14.652 0 01-2.646 2.116M126.47 252.285a47.273 47.273 0 012.845 9.922M129.315 262.207l.265 1.654M132.755 256.651l1.918 7.21M77.548 261.92a10.903 10.903 0 001.544-4.255M126.76 53.529a.277.277 0 00-.044.147.687.687 0 00.016.154c.01.046.02.092.04.134.019.042.048.08.088.104.03.018.065.026.1.026a.249.249 0 00.1-.021.413.413 0 00.157-.133c.139-.182.186-.42.31-.612.054-.084.123-.16.16-.252a.306.306 0 00.024-.147.199.199 0 00-.065-.13.191.191 0 00-.118-.045.254.254 0 00-.123.03.508.508 0 00-.18.179c-.1.15-.178.324-.319.438-.05.041-.11.074-.146.128z" fill="none" stroke="#000" stroke-width=".265"/><path d="M127.007 53.684a.085.085 0 01.069.009c.02.012.035.034.039.058a.086.086 0 01-.018.067.085.085 0 01-.063.03.086.086 0 01-.07-.033.086.086 0 01-.012-.076.085.085 0 01.055-.055z" fill="none" stroke="#000" stroke-width=".265"/><path d="M132.48 216.472c-.002-.238.23-.684.513-.99.422-.455.386-.512-.193-.308-.39.137-.82.072-.955-.146-.227-.368.366-.58 1.2-.427.197.036.258-.2.133-.525-.293-.764 2.146-3.27 2.901-2.98.316.12.477.062.358-.13-.37-.598.75-2.48 1.62-2.727.776-.22.783-.269.11-.785-.394-.303-.618-.65-.498-.77s.301-.675.403-1.234c.156-.862-.033-1.083-1.244-1.455-1.125-.345-1.53-.316-1.907.139-.263.317-.642.577-.841.577-.654 0-.38-1.096.464-1.86.454-.412.83-1.045.836-1.408.005-.363.373-1.125.817-1.693.977-1.249 1.028-1.654.207-1.654a.63.63 0 01-.62-.634c0-1.22 2.473-4.364 3.824-4.861.398-.147.72-.412.717-.59-.01-.54-1.196-3.66-1.222-3.216-.042.705-.826-.783-.832-1.58-.004-.414.273-1.033.615-1.375.553-.553.553-.72 0-1.51-.342-.488-.622-1.381-.622-1.985 0-.603-.279-1.329-.62-1.612-.52-.431-.62-.365-.62.413 0 .75-.111.836-.58.447-.443-.368-.62-.362-.748.023-.289.867-1.153-.05-1.146-1.217.005-.905.09-.997.452-.493.397.551.423.551.238 0-.114-.34-.506-1.318-.871-2.17-.365-.853-.494-1.55-.288-1.55.608 0-.216-2.887-1.102-3.865-.444-.49-.94-1.447-1.102-2.128-.486-2.046-.97-2.372-2.329-1.57-1.492.882-1.875.504-1.32-1.303.501-1.636-.05-2.392-2.097-2.88-.649-.154-1.728-.686-2.399-1.182-.982-.726-1.287-.793-1.566-.342-.19.308-.537.442-.77.297-.233-.144-.503-.028-.6.257-.219.653-1.549-.327-1.549-1.14 0-.29-.279-.633-.62-.763-.362-.14-.62-.759-.62-1.49 0-.943-.506-1.767-2.056-3.35-2.188-2.235-2.393-2.649-1.888-3.807.49-1.125-1.417 4.366-4.174 2.446-.794-.553-4.445 3.877-4.03 3.449.285-.293 1.457-6.318 1.3-7.021l-.147-.652.146.652c-1.367 1.29-1.62 4.786-1.035 5.432.47.52 4.183 1.268 3.873 1.82-.241.432-3.516-10.882-3.354-9.706.325 2.366-.197 2.685-1.31.8-.798-1.35-1.68-1.607-2.065-.6-.207.537-.339.504-.838-.208-.844-1.205-1.436-1.05-1.117.292.35 1.472 1.33 2.584 2.28 2.584 1.264 0 2.01 2.17 2.268 6.607.206 3.548.15 4.141-.393 4.141-.348 0-1.042-.575-1.543-1.278-.687-.965-1.149-1.232-1.888-1.09-.925.176-.98.071-.988-1.926-.006-1.459-.26-2.434-.818-3.147-.864-1.105-1.093-2.48-.413-2.48.635 0 .49-1.902-.187-2.465-.33-.274-.958-.384-1.395-.245-.583.185-.858.017-1.026-.628-.128-.488-.427-.758-.673-.606-.243.15-.337.694-.208 1.209.146.58-.008 1.137-.405 1.466-.53.44-.89.384-2.094-.327-.8-.472-1.734-.751-2.074-.62-.341.13-.62.043-.62-.193s.407-.559.905-.717c.793-.252.825-.345.254-.761-.357-.261-.717-.822-.8-1.246-.243-1.234-2.315-1.23-3.46.006-.551.593-1.018.828-1.109.557-.102-.307-.689-.156-1.694.437-1.105.652-1.537 1.19-1.537 1.914 0 .825-.13.94-.723.635-.398-.204-.91-.32-1.137-.257-.228.063-.925.227-1.55.365-.835.184-1.138.502-1.138 1.194 0 1.313-.757 1.935-2.356 1.935-1.617 0-1.87 1.068-.537 2.274.97.879 1.064 1.447.236 1.447-.325 0-.903.312-1.286.695-.65.65-.72.648-1.1-.03-.38-.678-.455-.68-1.167-.036-.42.379-.674.918-.566 1.199.108.28-.006 1.04-.252 1.688-.394 1.037-.326 1.282.567 2.035.559.471 1.135 1.266 1.28 1.767.219.755-.01 1.05-1.336 1.727-.88.449-1.842 1.109-2.14 1.467-.296.357-.842.635-1.212.617-.428-.02-.485-.108-.156-.24 1.18-.477.448-1.047-1.033-.806-1.812.293-1.993.303-4.444.235l-1.86-.052v-1.536c0-1.941-.47-2.405-2.23-2.2-1.155.136-1.526.439-2.105 1.723-.716 1.588-3.407 4.44-4.013 4.252-.452-.14-2.153 1.596-2.256 2.301-.108.735-.559 1.186-.559.559 0-.265-.168-.482-.373-.482-.93 0-2.323 6.82-1.717 8.413.203.534.1 1.966-.258 3.577-.327 1.477-.677 3.244-.777 3.926-.1.682-.273 1.482-.384 1.778-.111.296-.018.425.207.286.365-.226.675 2.598.408 3.724-.054.227-.194 1.208-.31 2.18-.222 1.846-.805 2.619-1.331 1.766-.183-.294-.423.213-.587 1.236-.208 1.303-.123 1.853.34 2.204.34.258.683 1.126.761 1.93.079.805.274 1.676.435 1.936.16.26.12.58-.093.71-.211.131-.48.005-.595-.28-.166-.41-.292-.404-.595.027-.487.693-1.191-2.827-1.582-7.908-.262-3.392.114-6.018 1.077-7.522.261-.409.97-2.779 1.67-5.581.198-.796.473-3.307.612-5.581.303-4.983.849-7.352 2.13-9.239.927-1.367 1.2-2.716 1.036-5.126-.044-.656.655-2.535 1.653-4.441 2.162-4.13 8.194-12.373 8.602-11.712.19.307-.26 1.491.976.116 5.368 3.649-.862.067-.976-.116-.114-.184 3.875-3.88 5.219-4.891 1.722-1.295 2.973-1.678 4.934-2.17 5.15-1.294 6.05-2.135 8.012-7.483 1.88-5.126 5.255-11.797 10.714-21.17 4.889-8.396 9.408-17.278 10.369-20.378.317-1.023.797-2.232 1.066-2.687.427-.722.945-2.27 1.26-3.773.27-1.28.69-2.221.993-2.221.435 0 .323 2.098-.151 2.85-.2.316 2.492 1.151 2.41 1.855-.082.704-.773 1.635-.911 2.07-.192.605-2.507.731-2.001.537.416-.16.822.047 1.095.558.342.638.303.811-.185.811-.341 0-.806.347-1.033.77-.352.659 3.107-1.77 4.467-1.235 1.39.546-1.724 3.392-1.905 4.34-.133.694 2.094-5.272 2.417-5.272.28 0-1.72 6.081-1.851 5.738-.15-.39.004-.62.417-.62.466 0-.284 1.315-.417.62-.103-.538.908-2.861 1.163-3.21.415-.568.641-.555 2.116.121 1.715.786 3.322 1.016 6.218.89 1.538-.068 1.682-.166 1.517-1.03-.108-.568.093-1.184.497-1.519.765-.635 5.786-1.074 5.415-.473-.13.209.042.487.382.617s.618.533.618.895c0 .361.186.542.413.402.536-.331.522-.07-.066 1.22-.264.58-.775 1.068-1.137 1.086-.394.02-.458.113-.162.234.373.152.383.45.037 1.208-.252.553-.6 1.006-.775 1.006-.174 0-.597.561-.939 1.247-.342.686-.449 1.14-.237 1.01.534-.33.482.072-.177 1.38-.487.97-.429 1.992.442 7.732 1.368 9.019 1.6 10.338 1.911 10.845.107.174.3.985.43 1.801.364 2.305 3.058 10.965 4.569 14.687 2.025 4.99 3.83 7.392 9.74 12.951 4.502 4.237 5.58 5.497 6.812 7.958 1.166 2.331 1.463 3.407 1.463 5.3 0 1.306.305 3.094.679 3.975 1.202 2.837.835 8.072-1.1 15.685a390.188 390.188 0 00-3.061 13.2c-1.664 7.93-2.567 10.42-4.889 13.475-2.62 3.447-5.266 6.428-5.269 5.935zM47.595 186.03c-.132-.33-.23-.232-.25.25-.017.435.08.68.218.542.137-.137.152-.494.032-.792zm4.138-18.415c-.104-.402-.197-.173-.205.509-.009.682.077 1.011.19.731.113-.28.12-.838.015-1.24zm17.904-1.86c0-.242-.263-.201-.62.095-.341.283-.62.58-.62.658 0 .079.279.036.62-.095.341-.13.62-.427.62-.658zm-17.524.169c-.116-.187.173-.668.642-1.07 1.098-.94.44-1.786-.85-1.095-.977.523-1.116 1.268-.375 2.008.57.57.891.657.583.157zm18.764-1.314a.415.415 0 00-.413-.413.415.415 0 00-.414.413.415.415 0 00.827 0zm50.099-4.224c-.297-.296-.49-.32-.49-.062 0 .235.125.551.276.703.152.152.372.18.49.062.117-.117-.007-.434-.276-.703zm-63.733-4.674c.799-.963.229-1.144-.626-.2-.413.457-.559.83-.324.83.235 0 .662-.284.95-.63zm1.645-1.9c0-.227-.186-.298-.413-.157-.227.14-.413.441-.413.668 0 .228.186.299.413.158.227-.14.413-.441.413-.669zm16.537-3.126c0-.832-.68-.322-.951.712-.184.704-.12.77.363.37.323-.269.588-.756.588-1.082zm5.318-2.557c.825-.825.498-1.71-.632-1.71-.288 0-.722-.371-.966-.826-.578-1.08.44 2.21-1.191 3.456-1.231.938-2.836-2.123-2.432-1.054.412 1.091.58 1.164 2.432 1.054 1.293-.078 2.269-.4 2.79-.92zm17.626-3.363c0-1.133-.92-1.602-1.284-.654-.342.891.134 2.002.768 1.791.284-.095.516-.606.516-1.137zm-11.657-2.114c.671-1.067.045-2.02-1.328-2.02-1.48 0-2.076.763-1.134 1.452.376.275.683.725.683 1.001 0 .691 1.265.383 1.779-.433zm2.528.195c.143-.374.175-.765.071-.869-.328-.328-1.07.332-1.07.952 0 .811.677.754.999-.083zm12.643.197c0-.19-.175-.345-.389-.345a.794.794 0 00-.602.345c-.117.19.058.344.39.344.33 0 .601-.155.601-.344zm9.095-2.574c0-.09-.289-.274-.641-.41-.368-.14-.534-.07-.39.163.243.393 1.031.581 1.031.247zm-13.229-1.698c0-.341-.073-.62-.162-.62-.09 0-.27.279-.4.62-.132.34-.059.62.162.62.22 0 .4-.28.4-.62zm9.4-3.204c-.352-.987-.52-1.145-.634-.596-.193.935.174 1.94.708 1.94.249 0 .22-.518-.075-1.344zM92.544 124.57c.296-.48-1.888 4.134-2.652 4.038-1.365-.17-.825-5.722-.825-5.12 0 .999 2.96 1.92 3.477 1.082zm6.333-15.607c-.137-.137-.494-.152-.792-.033-.33.132-.232.23.25.25.435.018.68-.08.542-.217zm7.554-3.836c0-.46 2.499.911 1.982 1.23-.212.132-4.3-1.429-3.99-1.233.735.466 2.008.468 2.008.003zm5.787-7.076c-.801-.518-1.24-.518-1.24 0 0 .227-2.358 1.36-1.847 1.357.752-.005 3.589-1.033 3.087-1.357z" fill="#fbf5da"/><path d="M103.474 63.182a8.885 8.885 0 01-.065-.922c-.028-1.022.097-1.74.468-2.667.46-1.152 1.109-2.125 2.7-4.052 1.048-1.268 1.382-1.706 2.128-2.782l.062-.09-.015.11c-.008.06-.024.213-.035.341-.016.192-.07.34-.317.859a60.027 60.027 0 00-2.059 4.938c-.635 1.72-1.058 2.574-1.646 3.327a7.957 7.957 0 01-.99 1.03l-.186.154z" fill="#f7f2de"/><path d="M126.503 55.303a.625.625 0 01-.476-.473 1.141 1.141 0 010-.332c.037-.176.132-.369.278-.57.064-.088.29-.374.292-.37a.81.81 0 00.001.292c.03.143.062.212.13.28.073.073.149.101.256.095a.402.402 0 00.278-.137c.093-.092.15-.188.252-.426.073-.17.104-.228.182-.34.11-.158.142-.233.148-.345a.327.327 0 00-.086-.255.328.328 0 00-.356-.08.44.44 0 00-.17.104c-.06.057-.102.113-.19.257a1.37 1.37 0 01-.17.245.499.499 0 01-.11.09c.001-.003.021-.035.045-.07.09-.137.131-.22.213-.423.093-.233.13-.3.212-.381a.362.362 0 01.355-.097c.062.015.145.061.197.11.199.186.249.469.145.826-.036.127-.084.238-.243.566-.103.21-.141.298-.227.523a9.867 9.867 0 01-.098.245c-.156.366-.343.574-.587.653a.408.408 0 01-.142.02.608.608 0 01-.13-.007z" fill="#000034"/><path d="M127.197 53.623a.195.195 0 00-.15-.073.201.201 0 00-.147.041c-.016.012-.029.02-.029.017 0-.008.037-.04.094-.083.101-.076.177-.17.293-.36a5.25 5.25 0 01.077-.123c.083-.126.177-.183.225-.136.015.016.016.02.014.06-.003.05-.02.089-.07.16a1.74 1.74 0 00-.234.42l-.047.11z" fill="#323232"/><path d="M110.467 67.006c-.096-.02-.174-.053-.174-.074 0-.106.614-.928.882-1.181.296-.28.517-.396.754-.398.177-.001.208.01.302.116.14.157.169.33.091.566-.234.717-1.042 1.14-1.855.97z" fill="#520"/><path d="M102.236 84.42c-.88-.119-1.901-.153-3.015-.102-2.312.107-2.973.046-3.879-.362l-.227-.103.254-.179c1.127-.798 2.05-1.841 2.426-2.743.442-1.062.294-1.874-.399-2.185-.254-.114-.748-.126-1.137-.028-.4.101-.905.35-1.272.626-.641.483-1.13 1.154-1.83 2.511-.127.246-.244.448-.26.448-.05 0-.474-.494-.714-.83a5.497 5.497 0 01-.62-1.164c-.273-.726-.263-1.534.026-2.108.258-.514.517-.8 1.548-1.708a33.078 33.078 0 002.633-2.65c1.97-2.246 5.07-6.244 7.373-9.506.309-.436.447-.598.656-.765a7.765 7.765 0 001.184-1.226c.631-.849.928-1.458 1.658-3.4a65.064 65.064 0 011.33-3.318c.405-.92.796-1.758.812-1.741.008.008.073.234.144.503.277 1.052.673 2.13 1.112 3.028.33.677.446.855.64.989.304.209.485.229 1.638.184 1.114-.043 1.44-.089 2.077-.294.955-.307 2.46-1.071 3.568-1.813.192-.128.352-.229.356-.225.016.017-.254 1.517-.483 2.676-.585 2.966-1.038 4.81-1.624 6.62-.338 1.041-.42 1.357-.473 1.833-.107.953.263 1.952.955 2.578.125.113.244.205.266.205.022 0-.06.06-.18.132-.524.316-.84.642-1.323 1.367-.564.845-1 1.316-2.294 2.476-1.735 1.555-2.183 2.07-3.95 4.545-1.284 1.797-1.801 2.443-2.59 3.229-.7.698-1.546 1.36-2.376 1.86-.609.367-1.313.716-1.432.71a13.43 13.43 0 01-.578-.07zm8.901-17.114c.26-.029.504-.124.776-.304.757-.501.976-1.39.448-1.817-.127-.102-.16-.111-.418-.111-.236 0-.312.016-.488.106-.274.138-.561.398-.848.765-.22.282-.698.994-.738 1.1-.04.103.725.323 1.009.29l.26-.029z" fill="#f60"/><path d="M94.434 83.48a7.364 7.364 0 01-.963-.664 14.886 14.886 0 00-.3-.238c-.049-.035.138-.423.617-1.28.615-1.1 1.218-1.732 2.004-2.099.438-.205.716-.268 1.093-.25.39.017.602.125.75.38.284.483.021 1.5-.609 2.355-.283.385-.934 1.052-1.367 1.402-.327.264-.81.606-.854.605-.013-.001-.18-.096-.37-.211zM105.891 265.078c-1.099-.512-1.745-.67-3.15-.77-1.699-.122-4.54-.594-6.548-1.089-5.33-1.313-10.33-3.476-14.828-6.415-.727-.475-1.367-.864-1.42-.864-.536 0 1.1 1.178 3.725 2.682 4.363 2.5 9.292 4.339 14.348 5.354l1.927.387-1.177.03c-.647.015-1.856-.044-2.685-.132a78.076 78.076 0 00-3.783-.264c-1.25-.056-3.53-.25-5.064-.43-2.469-.289-3.118-.327-5.633-.33-2.387-.004-3.107.032-4.496.224-2.744.38-3.38.285-3.735-.566-.233-.555-.107-1.11.527-2.329.907-1.74.917-1.793.943-4.988.021-2.46.052-2.925.263-3.928.349-1.663.33-3.386-.052-4.642-.766-2.522-3.897-9.787-6.416-14.891-1.52-3.08-1.71-3.553-1.71-4.267.001-.844.475-1.369 1.567-1.733.29-.096.758-.404 1.178-.775.616-.544.747-.615 1.132-.615.623 0 .98.288 1.666 1.344.57.878 1.028 1.306 2.26 2.113 1.243.814 1.826 1.385 2.14 2.096.147.332.377 1.754.812 5.026.773 5.805 1.12 7.506 2.144 10.505.992 2.908 1.985 4.662 3.399 6.005.767.728 1.35 1.117 4.011 2.68 3.528 2.07 6.11 3.345 7.907 3.903.369.115 1.067.381 1.55.591 2.653 1.155 3.39 1.295 7.245 1.378 2.37.05 3.203.101 3.325.203.22.183.384.682.278.852-.047.077-.066.172-.04.212.024.04-.097.193-.27.339-.359.3-1.199.58-1.746.58-.385 0-1.49-.47-1.943-.827-.225-.177-.42-.206-1.367-.206-1.797 0-3.753-.42-5.372-1.151-.41-.186-.701-.263-.76-.204-.172.171.015.3.987.675 1.754.679 3.861 1.093 5.557 1.093.509 0 .694.049.96.251.18.138.562.35.846.471.284.121.949.481 1.478.8 1.383.834 1.76 1.362 1.237 1.728-.317.222-.557.201-1.217-.106zm-27.687-4c.396-.777.888-2.255.978-2.942.058-.445.043-.543-.084-.543-.107 0-.193.192-.276.617-.182.92-.49 1.816-.955 2.764-.23.47-.381.903-.34.971.097.156.265-.059.677-.866zM131.056 265.019c-.113-.062-.453-.367-.755-.677l-.548-.564-.248-1.413c-.444-2.526-.738-3.775-1.413-6.012-.396-1.312-1.363-4-1.481-4.118-.03-.03-.105-.003-.167.059-.082.082.002.408.303 1.182.584 1.503 1.296 3.805 1.72 5.564.347 1.435.884 4.18.884 4.514 0 .302-3.365.005-6.201-.547-1.765-.343-2.66-.44-6.046-.658a56.201 56.201 0 01-3.308-.331c-1.214-.166-2.141-.224-3.488-.219-1.009.004-1.834-.034-1.834-.084s.153-.091.34-.091c.873 0 2.5-.64 3.696-1.451.984-.668 2.601-2.103 4.027-3.572 1.212-1.25 1.976-2.148 3.635-4.279.376-.483.897-1.085 1.158-1.338.26-.252.526-.618.59-.812.1-.303.088-.391-.086-.626-.297-.398-.63-.388-1.491.046-1.177.594-2.534.629-3.185.081-.652-.549-.277-1.491.928-2.326.312-.217 1.186-.657 1.94-.979 1.539-.655 2.052-.984 2.5-1.602 1.1-1.517 1.101-3.813.006-8.557-.71-3.077-1.5-6.95-2.011-9.868l-.36-2.055.607-.839c.652-.9 1.792-2.889 1.976-3.445.061-.187.155-.34.208-.34.085 0 4.841 2.346 4.938 2.436.021.02-.061.56-.182 1.203-.748 3.955-.805 7.81-.165 10.994.143.707.592 2.232 1.035 3.514 1.1 3.18 1.73 5.688 2.428 9.656.379 2.155.588 2.664 1.468 3.581 2.161 2.25 9.147 6.628 13.056 8.18 2.222.883 4.8 1.57 6.51 1.733.81.077 1.113.225 1.332.648.274.53.26 1.632-.026 1.938-.175.188-.352.206-2.328.229-1.686.019-2.536-.024-4.022-.204-1.696-.206-2.346-.228-6.535-.221-3.892.006-4.732.033-5.148.166-.367.118-.508.128-.539.039-.023-.067-.443-1.633-.933-3.48-.49-1.848-.922-3.392-.96-3.432-.038-.04-.119-.04-.18 0-.073.048.195 1.215.8 3.483.501 1.876.911 3.48.912 3.566 0 .15-.356.376-1.741 1.102-.683.358-1.234.435-1.616.226zm17.312-2.701c0-.078-.443-.277-1.06-.477-4.244-1.378-9.52-4.096-12.86-6.624-.488-.37-.712-.485-.768-.396-.111.18-.095.196 1.02.99a47.519 47.519 0 0012.014 6.184c1.384.48 1.654.532 1.654.323zm-31.21-3.027c1.13-.829 2.125-1.87 3.799-3.972.882-1.108 1.668-2.09 1.746-2.181.117-.137.118-.186.005-.28-.106-.088-.478.32-1.718 1.89-1.797 2.273-2.888 3.417-4.119 4.314-.833.608-.921.702-.787.836.086.086.271-.019 1.074-.607z" fill="#d45500"/><path d="M131.839 173.2a3.363 3.363 0 012.028 1.314c.481.67.701 1.522.603 2.34-.09.754-.433 1.45-.656 2.176a3.94 3.94 0 00-.197 1.117c-.003.38.075.765.268 1.092.222.376.582.654.97.852.388.2.808.327 1.223.463.64.211 1.28.452 1.826.849.272.198.518.435.71.711.194.276.333.593.387.925.086.529-.044 1.071-.243 1.569-.198.497-.464.966-.666 1.462-.203.496-.343 1.034-.27 1.565.035.266.125.525.276.747.15.222.362.404.61.504.192.076.4.103.592.176a.87.87 0 01.267.153c.077.067.14.156.165.255a.472.472 0 01-.014.27.578.578 0 01-.15.227.884.884 0 01-.495.215c-.363.048-.736-.052-1.095.02-.25.048-.479.18-.661.356-.183.177-.32.397-.416.632-.192.47-.221.988-.239 1.496-.03.885-.035 1.784-.292 2.63-.346 1.14-1.118 2.091-1.765 3.09-.323.5-.62 1.022-.817 1.585-.196.562-.288 1.169-.195 1.757.029.183.076.366.17.526.094.16.238.296.415.351.144.045.3.035.448 0 .147-.035.287-.094.429-.146.313-.115.644-.198.978-.19.334.008.673.113.922.336.234.21.372.509.454.813.082.304.115.618.176.927.06.309.151.62.335.875.092.127.207.24.342.321.134.082.29.131.447.133.073.001.146-.008.22-.012a.704.704 0 01.218.012c.12.03.225.115.28.226.056.11.06.245.013.36" fill="none" stroke="#000" stroke-width=".265"/><path d="M82.785 239.372c-.284-.05-1.377-.239-2.429-.418-1.264-.215-1.912-.417-1.912-.595 0-1.287-1.095-7.953-1.406-8.56-.246-.479-.945-1.134-1.959-1.836-.867-.6-1.782-1.39-2.033-1.757-.959-1.398-1.464-1.802-2.253-1.802-.54 0-.892.15-1.253.533-.275.293-.954.728-1.508.967-.764.328-1.08.605-1.304 1.141-.379.906-.23 1.579.8 3.633.447.893.77 1.666.718 1.72-.112.11-6.186-4.196-10.37-7.353-3.654-2.758-7.478-6.536-9.089-8.98-3.324-5.041-4.69-11.03-4.699-20.6-.006-7.201.687-12.977 2.32-19.327.841-3.272 1.61-5.625 1.635-5.005.028.678 1.978-6.805 2.606-6.44.845.494 1.259 9.177 2.106 8.66 1.032-.629 1.878-1.982 2.452-3.92.764-2.576-4.955.37-4.178-.312.942-.827 7.8-4.062 8.54-3.267.292.313.434-5.134.79-4.51.503.889 1.251 7.461 2.034 7.85.968.48 1.072.488 3.076.27 1.938-.21 2.202-.192 4.013.279 1.067.277 2.211.504 2.543.504 1.428 0 2.492-.88 2.492-2.06 0-.996-.411-1.523-1.946-2.492-1.313-.829-1.775-1.455-1.775-2.403 0-.791.576-1.851 1.31-2.411.972-.74 3.054-1.745 4.196-2.024 1.238-.302 1.522-.514 1.522-1.134 0-.607-.553-.912-1.654-.912-1.052 0-1.653-.301-1.653-.827 0-.597.74-.894 1.839-.739 3.473.492 3.756.419 4.742-1.23.851-1.424 1.228-1.627 2.698-1.457 3.582.414 3.608.412 4.347-.21.657-.552.682-.627.587-1.726-.054-.632-.058-1.265-.008-1.408.182-.513.883-.25 1.395.522.284.43.82.953 1.191 1.164.371.212 2.231-1.096 2.972-.315 1.418 1.494 1.166-1.48 1.98-2.077.335-.247.264 4.805.228 3.667-.04-1.241-.693-3.363-.228-3.667.43-.283 1.3 1.68 1.832 1.9 0 0 1.499-.75 1.67-.42.324.627 3.243 4.207 3.254 6.571.012 2.28-.862 1.083.115 2.099 1.934 2.011.3 3.004 1.496.636.936-1.852.738.62-1.458-1.405-1.748-1.612.245-4.351.245-5.323 0-1.167.49-1.543 2.012-1.543 1.44 0 1.655-.15 2.164-1.507.45-1.201.74-1.312 2.376-.908 1.669.412 2.697 1.01 3.225 1.877.472.774.494 1.577.085 3.148-.24.922 3.255-1.524 3.43-.868.494 1.858.392 3.408 3.132 3.971 2.902.597 18.123 1.175 10.69 6.892.135 1.716-5.915-2.397-5.304-1.786.45.45 6.007 4.265 7.01 4.564 1.88.56 12.25 6.254 12.25 6.254-10.314 4.253-16.366.48-14.937.48.98 0 2.02-1.222 2.02-2.374 0-.767 6.26.21 5.396-.576-.74-.672-7.414 5.45-7.031 5.213.11-.067.181-8.26.695-7.488 1.087 1.635 1.518 3.253 1.187 4.453-.225.815-.193.867.856 1.394 1.446.725 4.593 1.789 3.899 3.927-.854 2.63-.675-.131 1.903.809 3.552-2.455 1.751 4.912 1.751 5.894 0 .325.574 1.996.233 2.797-.341.802.232 1.473.232 1.712 0 .742-.274 1.703.382 1.931.938.328-.652 2.902-1.662 2.902-.548 0-.373-.597-.736-.284-.482.414-.005-1.087-.26.986-.159 1.28-1.231 2.237-1.31 2.377-.08.14 1.95 2.679 1.32 3.685-.986 1.574.908 7.273.83 8.335-.056.794-5.788-4.569-5.63-4.413.143.141.872.243 1.732.243h1.484l.414 1.264c.492 1.505 1.513 1.392 2.15 1.392 1.014 0 .03 1.298-2.057 4.062-1.166 1.545-5.038 5.967-7.76 8.863l-1.434 1.525-2.502-1.254-2.502-1.255.49-1.689c.506-1.747.603-2.47.332-2.47-.086 0-.32.723-.518 1.606-.475 2.113-2.116 5.42-3.646 7.344-2.72 3.423-8.25 7.253-15.586 10.795-4.374 2.112-8.083 3.353-12.442 4.165-1.592.296-7.928.55-8.992.361z" fill="#f7f2de"/><path d="M133.64 204.21c-.104-.227-.142-.475-.143-.931 0-1.114.253-1.74 1.45-3.571 1.389-2.122 1.471-2.37 1.616-4.833.074-1.255.185-1.729.511-2.179.322-.444.677-.599 1.377-.599.834 0 1.183-.159 1.183-.54 0-.186-.288-.394-.677-.487-.44-.106-.894-.485-1.087-.91-.154-.337-.181-1.15-.055-1.605.045-.16.273-.72.507-1.243.506-1.13.609-1.505.568-2.067-.341-1.621-1.595-2.143-2.918-2.614-1.67-.59-2.21-1.038-2.408-1.99-.118-.57-.037-1.059.388-2.32.284-.844.377-1.231.403-1.687.084-1.457-.725-2.68-2.12-3.207-.352-.133-.51-.387-.183-.294.826.235-18.18 13.183-17.817 13.9.54 1.063 20.48-10.335 19.922-8.68-.438 1.296-.515 1.84-.343 2.43.22.76.749 1.145 2.303 1.68 1.101.379 1.745.721 2.201 1.17.495.488.744.993.787 1.6.044.602-.082 1.052-.618 2.224-.718 1.566-.757 2.391-.142 3.005.217.215.423.335.73.424.756.219 1.004.722.56 1.137-.254.237-.497.294-1.224.286-.425-.004-.58.026-.79.156-.603.372-.79.98-.901 2.921-.04.704-.126 1.476-.19 1.718-.173.654-.61 1.52-1.26 2.492-1.136 1.7-1.47 2.404-1.587 3.336-.068.546.064 1.19.291 1.417l.172.172h-.183c-.144 0-.213-.065-.324-.31zM104.644 95.558c-.875-.312-1.426-1.209-1.506-2.453-.023-.366.013-1.143.089-1.897.162-1.62.164-3.917.005-5.254-.065-.542-.135-1.041-.157-1.11-.03-.095.069-.179.42-.355 1.18-.596 2.164-1.3 3.195-2.291.84-.808 1.481-1.597 2.894-3.563 1.385-1.927 2.036-2.704 3.02-3.6 1.724-1.575 2.448-2.326 3.034-3.151.577-.815 1.058-1.282 1.508-1.468.303-.125.294-.318-.024-.513-.507-.313-.926-1.015-1.07-1.797-.102-.547-.013-1.039.45-2.495.649-2.046 1.372-5.148 1.973-8.472.215-1.19.214-1.315-.019-1.32-.028 0-.324.176-.658.392-1.425.924-2.833 1.613-3.84 1.878-.45.12-.818.152-1.784.162-1.449.014-1.383.047-1.862-.948a15.621 15.621 0 01-1.09-2.981c-.206-.801-.267-.952-.393-.972-.16-.024-.147-.047-.974 1.775-.414.912-1.026 2.42-1.623 3.994a35.86 35.86 0 01-.624 1.55 8.25 8.25 0 01-1.55 2.226l-.54.533-.05-.284c-.092-.519-.062-1.847.056-2.422.312-1.527 1.034-2.742 3.175-5.341 1.09-1.324 1.933-2.478 2.44-3.34l.353-.601h11.329l11.135-.246.27.446c.175.457.736 2.462.945 3.377.73 3.199 1.052 6.899.888 10.165-.275 5.447-1.252 9.681-3.716 16.102a274.643 274.643 0 01-2.932 7.151l-.427.985-6.136 12.448c-.931.207 1.937-7.285 1.137-6.893-1.07.524-.271-3.426-1.721-2.298-1.455 1.133-1.938 1.46-2.749 1.862-1.477.732-2.429.77-4.747.183-1.788-.453-2.433-.553-3.172-.492-.72.06-1.22.226-2.303.768-1.3.65-1.989.796-2.65.56zm22.382-40.067c.281-.146.444-.388.808-1.208.521-1.17.55-1.573.146-1.977-.16-.16-.278-.21-.495-.21-.33 0-.497.147-.75.657-.09.18-.293.5-.453.708-.391.512-.57.88-.57 1.172 0 .7.715 1.167 1.314.858z" fill="#f7f2de"/><path d="M109.555 51.305c.154-.331.793-1.903 1.076-2.755.283-.852.63-1.8.771-2.105 1.166-2.523 3.598-4.147 7.132-4.762 1.328-.232 3.28-.265 4.386-.076 3.586.614 5.879 2.526 7.863 6.556.444.903 1.272 2.891 1.272 3.057 0 .065-1.032.692-9.57.45l-12.993-.23z" fill="#f7f2de"/><ellipse ry="6.946" rx="4.858" cy="149.598" cx="91.57" fill="#fbf5da"/><ellipse ry="6.946" rx="4.858" cy="150.859" cx="103.663" fill="#fbf5da"/><ellipse ry="2.067" rx="1.964" cy="144.658" cx="98.392" fill="#fbf5da"/><ellipse ry="4.651" rx="11.369" cy="140.11" cx="105.73" fill="#fbf5da"/><ellipse ry="4.599" rx="5.891" cy="135.821" cx="108.727" fill="#fbf5da"/><ellipse ry="3.772" rx="7.028" cy="143.056" cx="88.573" fill="#fbf5da"/><ellipse ry="3.411" rx="9.147" cy="149.309" cx="81.494" fill="#fbf5da"/><ellipse ry="2.356" rx="1.666" cy="145.774" cx="79.078" fill="#fbf5da"/><ellipse ry="3.101" rx="4.341" cy="153.546" cx="76.481" fill="#fbf5da"/><ellipse ry="3.535" rx="3.76" cy="151.665" cx="84.504" fill="#fbf5da"/><ellipse ry="5.335" rx="3.033" cy="161.726" cx="68.806" fill="#fbf5da"/><ellipse ry="2.448" rx=".512" cy="159.059" cx="73.447" fill="#fbf5da"/><ellipse ry="3.325" rx="1.315" cy="157.67" cx="75.786" fill="#fbf5da"/><ellipse ry="2.85" rx="1.133" cy="156.172" cx="79.111" fill="#fbf5da"/><ellipse ry="2.485" rx="1.096" cy="153.833" cx="80.755" fill="#fbf5da"/><ellipse ry="3.8" rx="2.302" cy="155.88" cx="76.041" fill="#fbf5da"/><ellipse ry="2.521" rx="2.266" cy="158.62" cx="72.643" fill="#fbf5da"/><ellipse ry="5.993" rx="8.222" cy="165.673" cx="68.368" fill="#fbf5da"/><ellipse ry="1.754" rx="2.741" cy="163.334" cx="77.064" fill="#fbf5da"/><path d="M60.146 166.33l-2.586 2.043 1.798-1.319-3.027 1.304 2.079-.809-3.262.476 2.217-.243-3.273-.385 2.204.34-3.062-1.22 2.042.899-2.643-1.97 1.74 1.396-2.043-2.587 1.319 1.799-1.304-3.027.809 2.078-.476-3.26.243 2.216.385-3.273-.34 2.204 1.22-3.062-.899 2.041 1.97-2.642-1.396 1.74 2.587-2.043-1.799 1.319 3.027-1.304-2.078.809 3.26-.476-2.216.243 3.273.384-2.204-.339 3.062 1.219-2.041-.898 2.642 1.97-1.74-1.396 2.043 2.586-1.319-1.798 1.304 3.027-.809-2.079.476 3.262-.243-2.217-.384 3.273.339-2.204-1.219 3.062.898-2.042-1.97 2.643z" fill="#fbf5da"/><ellipse ry="3.217" rx="4.224" cy="171.59" cx="53.335" fill="#fbf5da"/><ellipse ry="6.564" rx="1.858" cy="168.536" cx="55.145" fill="#fbf5da"/><ellipse ry="2.667" rx="2.083" cy="166.513" cx="52.509" fill="#fbf5da"/><ellipse ry="1.206" rx=".174" cy="163.05" cx="52.504" fill="#fbf5da"/><ellipse ry=".355" rx=".775" cy="153.457" cx="59.664" fill="#fbf5da"/><ellipse ry="1.973" rx="1.754" cy="155.587" cx="59.123" fill="#fbf5da"/><ellipse ry=".792" rx="1.051" cy="163.784" cx="51.916" fill="#fbf5da"/><ellipse ry="4.933" rx="1.462" cy="151.604" cx="65.773" fill="#fbf5da"/><path fill="#fbf5da" d="M60.95 149.595h2.85v1.9h-2.85z"/><ellipse ry="1.344" rx=".517" cy="97.219" cx="105.782" fill="#fbf5da"/><ellipse ry="1.563" rx="4.625" cy="94.958" cx="112.887" fill="#fbf5da"/><ellipse ry="1.382" rx="2.532" cy="98.653" cx="110.407" fill="#fbf5da"/><path d="M119.97 224.17c.859-1.001 1.594-2.107 2.186-3.284.675-1.346 1.16-2.78 1.534-4.24.137-.532.259-1.068.366-1.607" fill="none" stroke="#000" stroke-width=".265"/></g><g aria-label="February 2 7:30 A.M." style="line-height:1.25" font-weight="400" font-size="132.417" font-family="Rosario" letter-spacing="0" word-spacing="0" stroke-width="1.773"><path d="M82.37 628.224H44.064v26.152h29.562v12.507H44.064v41.312H24.772v-84.772q0-.126-.555-1.895-.417-1.769-.972-3.664-.416-1.895-.416-2.148h59.54zM145.478 671.052q0 7.58-7.078 7.58h-36.363q0 8.086 4.719 14.529 4.718 6.317 13.185 6.317 4.302 0 8.882-1.895 4.72-1.895 7.911-4.801l7.079 10.107q-4.303 3.285-11.381 5.053-6.94 1.643-13.324 1.643-16.1 0-25.399-8.717-9.299-8.844-9.299-23.625 0-14.024 8.605-23.752 8.744-9.854 23.733-9.854 13.602 0 21.097 7.454 7.633 7.454 7.633 19.961zm-17.349-5.18q0-5.18-2.914-8.464-2.915-3.411-8.328-3.411-5.551 0-9.854 4.674-4.302 4.674-4.58 9.98h23.317q2.36 0 2.36-2.779zM222.942 676.485q0 13.897-8.882 23.625-8.744 9.601-23.733 9.601-12.769 0-20.541-8.717l-2.915 7.327h-8.605q.555-5.558.555-8.338v-81.866q0-.126-.971-3.285-.833-3.285-.972-3.664h18.598v30.574q0 3.032-.139 5.811-.138 2.653-.138 2.906 8.327-6.443 19.569-6.443 8.883 0 15.406 5.053 6.662 5.054 9.715 12.381 3.053 7.202 3.053 15.035zm-18.181.758q0-4.801-1.388-9.35-1.388-4.674-5.135-8.464-3.748-3.79-9.16-3.79-7.634 0-13.602 6.064v20.593q0 7.201 3.47 12.128 3.47 4.928 10.964 4.928 5.552 0 9.022-3.917 3.608-4.043 4.719-8.59 1.11-4.675 1.11-9.602zM275.765 644.142l-2.776 15.034h-.555q-6.107 0-10.687 3.159-4.441 3.032-8.744 8.464v37.396H236.35v-45.86q0-11.497-4.442-16.93l17.627-1.263q3.053 6.317 3.33 13.266 3.61-5.56 9.855-9.35 6.384-3.916 13.046-3.916zM355.099 705.795q-.972.252-4.858 1.39-3.886 1.01-6.523 1.515-2.498.506-4.858.506-4.164 0-7.078-2.274-2.915-2.4-3.747-6.19-9.855 9.222-22.762 9.222-11.38 0-16.1-5.685-4.58-5.812-4.58-16.424v-35.627l-1.526-6.822h18.459v39.796q0 12.633 9.021 12.633 6.107 0 10.41-3.41 4.302-3.412 4.302-8.844v-33.353q0-.127-.417-1.643-.416-1.516-.832-3.158-.417-1.769-.417-2.021h18.598v46.113q0 6.57 3.47 6.57.277 0 6.523-1.517zM423.763 705.795q-1.25.252-3.886 1.01l-4.164 1.264q-1.665.379-4.025.758-2.22.379-4.025.379-4.164 0-7.078-2.274-2.915-2.4-3.886-6.19-6.94 8.843-20.819 8.843-8.466 0-14.018-4.296-5.551-4.295-5.551-11.875 0-6.57 3.47-11.118t9.437-6.696q5.968-2.274 11.936-3.158 5.968-1.01 12.769-1.01v-8.213q0-4.927-2.36-6.822-2.359-2.021-7.633-2.021-7.356 0-17.765 7.327l-6.8-9.98q12.63-7.833 28.035-7.833 11.103 0 17.071 5.18 6.107 5.18 6.107 15.286v27.415q0 6.317 3.33 6.317 1.111 0 6.94-1.516zm-29.84-21.099v-2.905q-20.263 0-20.263 10.107 0 2.78 2.36 4.421 2.497 1.643 5.69 1.643 5.412 0 8.743-4.043 3.47-4.17 3.47-9.223zM469.583 644.142l-2.776 15.034h-.555q-6.107 0-10.687 3.159-4.441 3.032-8.744 8.464v37.396h-16.654v-45.86q0-11.497-4.442-16.93l17.627-1.263q3.053 6.317 3.33 13.266 3.61-5.56 9.855-9.35 6.384-3.916 13.046-3.916zM535.528 645.406l-24.566 63.168q-10.548 27.542-30.117 27.542h-5.136v-10.739q1.666.379 3.609.379 3.747 0 6.662-1.642 3.053-1.516 4.996-4.549 2.082-3.032 3.192-5.558 1.25-2.4 2.499-5.938l-24.983-62.663h17.904q.972 2.653 5.968 15.413 4.997 12.633 7.495 19.456.555 1.642 1.11 5.18.694 3.41.833 4.295 1.527-8.086 1.943-9.475l13.324-34.87zM631.369 695.688l-2.915 12.507h-57.32v-6.822q5.69-5.433 16.238-16.424 10.687-11.118 13.88-14.276 4.58-4.422 4.58-8.59 0-3.286-2.36-5.18-2.36-1.896-5.968-1.896-8.05 0-17.488 8.338l-8.327-8.085q14.295-11.75 30.534-11.75 9.576 0 16.516 4.549 7.078 4.422 7.078 12.76 0 7.833-7.633 15.034-3.609 3.411-23.04 19.835z" style="-inkscape-font-specification:Rosario" font-weight="700"/><path d="M33.1 889.489H20.746l37.473-76.687H17.555l2.776-9.475h51.352v5.306zM87.891 859.42q0-3.537 2.637-5.937 2.637-2.4 6.523-2.4 3.747 0 6.384 2.526 2.776 2.4 2.776 5.811 0 3.412-2.776 5.938-2.637 2.4-6.384 2.4-3.747 0-6.523-2.4-2.637-2.526-2.637-5.938zm0-39.796q0-3.537 2.637-5.938 2.637-2.4 6.523-2.4 3.747 0 6.384 2.527 2.776 2.4 2.776 5.811t-2.776 5.938q-2.637 2.4-6.384 2.4-3.747 0-6.523-2.4-2.637-2.527-2.637-5.938zM113.994 890.878l-1.249-6.822q6.246 0 13.74-1.769 7.634-1.768 14.712-5.053 7.217-3.285 11.936-8.59 4.858-5.307 4.858-11.624 0-11.37-12.908-11.37-4.996 0-9.576 1.39l-3.748-7.075q8.744-3.664 16.378-10.36 7.633-6.696 7.633-13.77 0-3.033-1.943-4.549-1.804-1.642-5.135-1.642-3.609 0-8.328 1.895-4.58 1.895-7.494 4.422l-6.523-4.928q7.217-5.053 12.63-7.074 5.412-2.148 13.323-2.148 7.356 0 11.659 3.664 4.441 3.663 4.441 10.233 0 5.811-5.83 11.75-5.69 5.937-12.768 10.106l1.804-.126h1.666q8.189 0 12.769 5.432 4.58 5.306 4.58 13.518 0 9.097-5.552 16.045-5.413 7.075-14.295 10.865-8.744 3.79-18.182 5.685-9.299 1.895-18.598 1.895zM184.105 834.785q0-14.15 9.021-23.499 9.16-9.475 24.427-9.475 15.129 0 24.289 9.475 9.16 9.475 9.16 23.499 0 14.023-9.16 23.498-9.16 9.476-24.289 9.476-15.128 0-24.288-9.476-9.16-9.475-9.16-23.498zm33.448 25.014q20.819 0 20.819-25.014 0-25.015-20.819-25.015-20.957 0-20.957 25.015 0 25.014 20.957 25.014zM374.746 866.116h-14.295l-11.659-31.584h-33.31l-11.796 31.584h-11.659l35.114-91.973h12.63zM345.6 825.941l-13.324-36.385-13.601 36.385zM382.915 859.041q0-3.537 2.637-5.937 2.637-2.4 6.523-2.4 3.748 0 6.385 2.526 2.775 2.4 2.775 5.811 0 3.412-2.775 5.938-2.637 2.4-6.385 2.4-3.747 0-6.523-2.4-2.637-2.526-2.637-5.938zM513.033 866.116h-12.769v-75.17l-30.395 75.297h-7.772l-30.395-75.297v75.17h-10.548v-83.635l-2.082-8.338h18.737l29.423 71.633 29.007-71.633h16.794zM530.922 859.041q0-3.537 2.637-5.937 2.637-2.4 6.523-2.4 3.747 0 6.384 2.526 2.776 2.4 2.776 5.811 0 3.412-2.776 5.938-2.637 2.4-6.384 2.4-3.748 0-6.523-2.4-2.637-2.526-2.637-5.938z" style="-inkscape-font-specification:Rosario"/></g><g fill="none" stroke="#000"><path d="M78.31 238.735c1.403.372 2.834.64 4.276.802 5.126.575 10.346-.207 15.247-1.813 4.9-1.606 9.503-4.02 13.886-6.74 2.812-1.745 5.578-3.65 7.75-6.147a19.725 19.725 0 004.544-9.621M103.433 63.674a6.648 6.648 0 010-3.208c.284-1.137.866-2.18 1.546-3.134.68-.955 1.46-1.833 2.196-2.745 1.058-1.314 2.031-2.717 2.673-4.277.656-1.595.963-3.345 1.87-4.81.727-1.173 1.81-2.102 3.026-2.754 1.216-.653 2.562-1.038 3.924-1.256 2.736-.437 5.69-.168 8.018 1.337 2.109 1.363 3.503 3.594 4.543 5.88 1.72 3.776 2.656 7.887 2.94 12.027.289 4.208-.091 8.458-1.069 12.561-.895 3.759-2.284 7.38-3.742 10.958a283.778 283.778 0 01-8.82 19.511M122.81 219.358l5.346 2.673M128.156 222.03a179.62 179.62 0 007.216-7.884c1.756-2.037 3.483-4.138 4.677-6.548 1.566-3.157 2.148-6.694 2.807-10.156.751-3.95 1.627-7.877 2.672-11.76.68-2.526 1.433-5.038 1.871-7.617.457-2.688.568-5.43.401-8.152-.344-5.606-1.982-11.332-5.746-15.501-1.566-1.734-3.447-3.147-5.212-4.678-2.103-1.823-4.062-3.836-5.613-6.147-1.68-2.504-2.854-5.313-3.875-8.151-1.26-3.503-2.303-7.08-3.207-10.691a142.318 142.318 0 01-2.272-10.825 138.982 138.982 0 01-1.336-10.156M78.31 238.735l-.935-7.082a8.037 8.037 0 00-.134-.802 3.75 3.75 0 00-.936-1.737c-.444-.46-1.004-.788-1.552-1.117-.549-.329-1.102-.672-1.521-1.155-.424-.489-.691-1.097-1.109-1.592a2.21 2.21 0 00-.752-.6c-.294-.135-.637-.18-.945-.08-.274.088-.502.28-.706.483-.204.202-.395.421-.63.586-.288.2-.628.31-.958.43-.33.12-.663.26-.914.505-.304.298-.456.728-.479 1.153-.022.426.076.85.212 1.253.268.794.683 1.528 1.07 2.272.274.53.535 1.068.8 1.603l.268.535" stroke-width=".265" transform="matrix(2.96575 0 0 2.96853 1107.89 69.95)"/><path d="M69.09 233.39a518.638 518.638 0 01-8.82-6.281c-4.644-3.38-9.348-6.965-12.295-11.893-3.135-5.243-3.988-11.534-4.143-17.64-.247-9.731 1.131-19.557 4.613-28.647s9.113-17.426 16.635-23.604c.919-.755 1.872-1.482 2.94-2.005 1.266-.62 2.654-.934 4.013-1.303 1.36-.369 2.731-.81 3.872-1.637a6.626 6.626 0 001.47-1.47M77.375 138.91a91.682 91.682 0 014.677-11.626c4.068-8.402 9.396-16.136 13.63-24.455a105.484 105.484 0 007.217-18.175M69.09 233.39a177.874 177.874 0 015.077 11.626c.543 1.375 1.077 2.798 1.07 4.276-.007 1.262-.409 2.487-.535 3.742-.113 1.12-.005 2.25.01 3.376.014 1.126-.073 2.283-.545 3.306-.286.62-.709 1.177-.939 1.821-.115.322-.18.667-.147 1.007.034.34.172.676.418.914.237.228.56.353.885.402.326.049.658.028.986-.001 1.117-.1 2.225-.288 3.34-.401 1.91-.193 3.836-.163 5.747 0 2.23.19 4.446.559 6.682.668 1.069.052 2.14.044 3.207.134.848.07 1.69.202 2.54.267 1.066.08 2.138.055 3.206 0 .905-.047 1.81-.114 2.715-.067.904.046 1.815.209 2.63.601.341.164.672.37 1.045.428.187.03.383.02.558-.05a.722.722 0 00.402-.378.705.705 0 00.033-.417.98.98 0 00-.18-.382c-.172-.226-.415-.385-.654-.537-.826-.526-1.664-1.033-2.54-1.47-.233-.116-.472-.23-.668-.4a1.405 1.405 0 01-.133-.135" stroke-width=".265" transform="matrix(2.96575 0 0 2.96853 1107.89 69.95)"/><path d="M78.31 238.735a37.209 37.209 0 001.821 7.474c.771 2.163 1.795 4.324 3.543 5.812.763.65 1.64 1.149 2.505 1.653 2.278 1.33 4.526 2.729 6.945 3.78.773.336 1.561.636 2.362.898h.047c.116.005.225.05.331.094.788.331 1.56.703 2.363.993 1.554.56 3.214.808 4.866.803 1.294-.004 2.597-.16 3.874.047.149.024.302.055.425.142a.705.705 0 01.214.254c.051.099.086.206.117.313.03.1.056.201.067.304a.795.795 0 01-.02.31.776.776 0 01-.168.295 1.543 1.543 0 01-.257.225c-.6.435-1.363.64-2.1.565a3.088 3.088 0 01-1.945-.977M128.156 222.03a33.31 33.31 0 00-.873 6.462c-.087 2.415.093 4.857.756 7.181.402 1.409.977 2.761 1.418 4.158.43 1.363.73 2.763 1.04 4.158.243 1.098.493 2.195.66 3.307.126.835.21 1.693.568 2.457.458.978 1.319 1.7 2.173 2.362 2.011 1.558 4.138 2.964 6.331 4.253 1.471.863 2.975 1.675 4.536 2.362a27.612 27.612 0 004.725 1.606c1.15.273 2.319.463 3.496.567" stroke-width=".265" transform="matrix(2.96575 0 0 2.96853 1107.89 69.95)"/><path d="M152.986 260.903c.402.308.68.775.756 1.276.038.25.028.505 0 .756a1.763 1.763 0 01-.133.549.762.762 0 01-.387.396c-.163.066-.344.055-.52.047-1.353-.062-2.71.077-4.063 0-.854-.048-1.701-.183-2.551-.283-1.536-.182-3.088-.255-4.63-.142-.473.034-.944.086-1.418.094-.978.017-1.951-.151-2.93-.141-1.1.01-2.21.257-3.165.803-.495.283-.948.645-1.473.87a2.257 2.257 0 01-.829.195 1.445 1.445 0 01-.816-.215c-.221-.142-.39-.352-.557-.554-.168-.203-.346-.407-.577-.532-.299-.163-.652-.177-.992-.19-1.296-.048-2.593-.128-3.874-.33-1.423-.225-2.821-.6-4.253-.756-.815-.089-1.637-.105-2.456-.142a44.332 44.332 0 01-3.45-.283c-1.57-.194-3.145-.483-4.724-.378-.31.02-.62.056-.93.056-.31.001-.625-.034-.913-.15a1.703 1.703 0 01-.52-.332" stroke-width=".265" transform="matrix(2.96575 0 0 2.96853 1107.89 69.95)"/><path d="M107.581 261.517a7.246 7.246 0 003.135-.532c1.15-.473 2.158-1.234 3.107-2.038a37.183 37.183 0 005.68-6.046c.485-.646.955-1.31 1.537-1.871.264-.255.558-.498.701-.836a.806.806 0 00.068-.285.52.52 0 00-.068-.283.486.486 0 00-.232-.194c-.095-.04-.2-.05-.302-.04-.123.014-.24.059-.35.115-.11.056-.212.124-.318.186-.254.15-.523.273-.802.368-.621.212-1.3.285-1.938.133a1.892 1.892 0 01-.704-.31 1.129 1.129 0 01-.432-.625 1.152 1.152 0 01.065-.683c.085-.216.22-.41.37-.587a4.63 4.63 0 011.002-.868c.521-.342 1.092-.601 1.67-.835.436-.177.879-.34 1.3-.551.42-.211.821-.472 1.139-.82.555-.604.816-1.425.935-2.237.036-.244.06-.49.067-.735.015-.536-.055-1.07-.1-1.604-.032-.379-.05-.76-.1-1.136-.066-.496-.184-.983-.3-1.47a193.499 193.499 0 01-2.74-13.564M103.433 63.674a6.987 6.987 0 001.67-1.738c.698-1.036 1.102-2.236 1.538-3.407a57.21 57.21 0 012.205-5.145M108.846 53.384a16.356 16.356 0 001.536 4.41c.09.171.185.345.334.467.153.125.35.185.546.205.196.02.394.005.59-.004.49-.023.983-.008 1.47-.067.893-.109 1.736-.465 2.54-.868a20.95 20.95 0 002.672-1.604" stroke-width=".265" transform="matrix(2.96575 0 0 2.96853 1107.89 69.95)"/><path d="M118.534 55.923a101.627 101.627 0 01-1.002 5.212c-.336 1.53-.708 3.056-1.203 4.543-.217.654-.461 1.316-.468 2.005-.004.436.09.872.268 1.27.223.497.59.94 1.069 1.202.043.024.088.046.133.067h-.066M117.265 70.222c-.492.2-.933.525-1.27.935-.224.272-.401.579-.601.869-.932 1.351-2.322 2.306-3.475 3.474-1.895 1.922-3.133 4.41-5.011 6.348a12.974 12.974 0 01-4.01 2.806" stroke-width=".265" transform="matrix(2.96575 0 0 2.96853 1107.89 69.95)"/><path d="M102.899 84.654a17.102 17.102 0 00-2.64-.218c-.537-.003-1.072.02-1.607.047-.902.046-1.824.105-2.693-.142a5.843 5.843 0 01-1.04-.425c-1.407-.714-2.7-1.777-3.354-3.213a3.895 3.895 0 01-.332-1.114 2.643 2.643 0 01.095-1.154c.143-.436.416-.82.73-1.154.314-.334.672-.624 1.019-.925 1.559-1.353 2.903-2.933 4.205-4.535 2.146-2.642 4.199-5.36 6.151-8.147M125.89 54.832a1 1 0 01.052-.528c.061-.169.156-.323.262-.468.212-.29.47-.55.622-.874.055-.12.095-.247.152-.366a.704.704 0 01.249-.303.502.502 0 01.274-.072c.096.002.191.03.274.08a.72.72 0 01.32.46c.055.242.003.497-.087.728-.09.232-.215.448-.314.675-.11.252-.186.519-.322.757-.068.12-.15.232-.253.323a.809.809 0 01-.36.19.72.72 0 01-.56-.117.78.78 0 01-.309-.485zM110.048 67.015c.167-.275.345-.543.535-.802.243-.333.512-.66.868-.869a1.07 1.07 0 01.395-.146.61.61 0 01.407.08c.078.05.141.12.185.203a.67.67 0 01.074.265c.014.184-.041.369-.125.534a1.716 1.716 0 01-1.136.868c-.4.093-.832.045-1.203-.133z" stroke-width=".265" transform="matrix(2.96575 0 0 2.96853 1107.89 69.95)"/><path d="M94.778 83.892a9.037 9.037 0 001.771-1.417c.623-.643 1.164-1.41 1.323-2.292a1.82 1.82 0 00.029-.512 1.013 1.013 0 00-.17-.48c-.155-.218-.41-.35-.673-.394a1.875 1.875 0 00-.792.063 3.525 3.525 0 00-1.418.78c-.754.673-1.209 1.609-1.677 2.504-.07.134-.14.268-.212.402" stroke-width=".265" transform="matrix(2.96575 0 0 2.96853 1107.89 69.95)"/><path d="M79.89 256.032a48.028 48.028 0 007.572 4.35 48.093 48.093 0 0014.493 4.056" stroke-width=".274" transform="matrix(2.96575 0 0 2.96853 1107.89 69.95)"/><path d="M103.3 261.72a14.486 14.486 0 01-7.256-1.497M133.68 254.865a46.798 46.798 0 0014.619 7.475M122.7 252.88c-.381.458-.756.921-1.124 1.39-.919 1.171-1.797 2.381-2.844 3.44a14.652 14.652 0 01-2.646 2.116M126.47 252.285a47.273 47.273 0 012.845 9.922M129.315 262.207l.265 1.654M132.755 256.651l1.918 7.21M77.548 261.92a10.903 10.903 0 001.544-4.255M126.76 53.529a.277.277 0 00-.044.147.687.687 0 00.016.154c.01.046.02.092.04.134.019.042.048.08.088.104.03.018.065.026.1.026a.249.249 0 00.1-.021.413.413 0 00.157-.133c.139-.182.186-.42.31-.612.054-.084.123-.16.16-.252a.306.306 0 00.024-.147.199.199 0 00-.065-.13.191.191 0 00-.118-.045.254.254 0 00-.123.03.508.508 0 00-.18.179c-.1.15-.178.324-.319.438-.05.041-.11.074-.146.128z" stroke-width=".265" transform="matrix(2.96575 0 0 2.96853 1107.89 69.95)"/><path d="M127.007 53.684a.085.085 0 01.069.009c.02.012.035.034.039.058a.086.086 0 01-.018.067.085.085 0 01-.063.03.086.086 0 01-.07-.033.086.086 0 01-.012-.076.085.085 0 01.055-.055z" stroke-width=".265" transform="matrix(2.96575 0 0 2.96853 1107.89 69.95)"/></g></svg>