<svg xmlns="http://www.w3.org/2000/svg" id="svg8" version="1.1" viewBox="0 0 210 297" style="background-color:purple"><style>path{display:inline;opacity:1;fill-opacity:1;stroke-opacity:1;vector-effect:none;stroke-linecap:round;stroke-linejoin:miter;stroke-miterlimit:4;stroke-dasharray:none;stroke-dashoffset:0}.scramblesvg_shading{fill:#faf3d6;stroke:#faf3d6;stroke-width:.26499999}.scramblesvg_line{fill:none;stroke:#000;stroke-width:.32919979px}.scramblesvg_foot{fill:#d45500;stroke-width:.12859367}</style><g id="layer1" display="inline"><path id="body" d="M112.46 46.76c1.115-5.286.578-3.49-1.098-6.654l-2.68-1.715m0 0c.017-1.462.033-2.923.048-4.385.016-1.46.933-1.975 1.4-2.962.465-.988 1.454-2.072 2.18-3.107.727-1.036.851-.947 1.276-1.42.425-.473.823-1.756 1.234-2.634.412-.877.711-1.387 1.066-2.08.354-.694.931-1.32 1.396-1.979.466-.66 1.475-2.134 2.212-3.2.737-1.067 2.6-1.786 3.899-2.678 1.3-.892 2.26-.423 3.259-.373 1.086-.097 1.105.003 3.394.353s5.862 1.721 6.855 3.17c1.058 1.197 1.687 1.919 3.02 3.368.707.77.777 1.786 1.844 3.358 1.066 1.571 1.633 3.544 2.098 4.592.465 1.048.694 3.049.713 4.62.019 1.572.078 2.987.116 4.481.039 1.494.233 4.112.35 6.169.115 2.056-.466 4.19-.699 6.285-.233 2.095-.737 2.172-1.106 3.259-.369 1.087-.465 2.133-.698 3.2-.233 1.068-1.086 3.26-1.63 4.889-.543 1.63-.697 1.59-1.047 2.386s-.465 1.474-.698 2.211c-.233.738-.504 1.552-.757 2.328-.252.776-.853 1.823-1.28 2.735-.427.912-1.396 2.832-2.095 4.249-.699 1.416-.698 1.629-1.048 2.444-.35.815-1.163 2.366-1.745 3.55-.583 1.183-1.552 3.297-2.328 4.946-.777 1.65-.815 1.668-1.222 2.503-.408.834 0 .97 0 1.454 0 .486-.039 2.405-.059 3.609-.02 1.203.66 3.918.99 5.877.33 1.96.504 3.142.756 4.714.252 1.572.078 2.599.117 3.899.038 1.3 1.164 3.763 1.746 5.645.581 1.882 1.358 3.918 2.036 5.878.679 1.96 2.872 8.185 4.307 12.279 1.435 4.093 5.51 8.224 8.263 12.337 2.755 4.113 3.57 3.026 5.354 4.54 1.785 1.513 2.794 3.258 4.19 4.888 1.397 1.63 1.94 3.646 2.91 5.47.97 1.824 1.01 6.246 2.095 12.57 1.086 6.324.466 10.824.117 13.036-.35 2.211-1.048 7.914-2.212 11.871-1.164 3.958-1.163 5.199-1.397 7.682-.233 2.483-1.978 5.509-2.677 8.38-.698 2.871-2.793 6.556-3.258 7.915-.466 1.358-1.94 3.064-3.841 6.518-1.902 3.453-2.25 2.405-3.376 3.608-1.125 1.203-3.479 3.146-5.219 4.72-1.74 1.574-1.015.795-1.523 1.194-.508.398-6.534-3.123-6.534-3.123l-.37.627-.66 1.263c-.22.422-.871 1.481-1.308 2.223-.436.74-.874 1.113-1.312 1.67-.438.557-18.943 19.143-31.026 18.777-11.194-.339-13.712-.347-20.691-.659-.366-3.304-1.448-9.804-1.448-9.804l-1.164-2.162c-.389-.72-2.056-1.392-3.084-2.087-1.028-.696-1.413-1.814-2.12-2.72-.707-.906-1.408-.564-2.112-.846-.705-.282-1.108.886-1.663 1.33-.554.444-1.508.708-2.262 1.062-.755.355-.418 1.279-.627 1.918-.209.64 1.926 4.442 2.89 6.664.962 2.221-5.167-3.147-5.167-3.147l-11.604-8.888c-3.868-2.963-11.045-11.323-13.694-20.985-2.913-10.63.129-22.876 1.525-27.88 1.396-5.005 2.444-6.402 2.91-11.756.465-5.353 8.147-16.915 12.22-25.373 4.074-8.457 10.32-9.233 15.48-13.85 5.16-4.616 4.89-2.483 7.333-3.724 2.444-1.242 2.25-4.501 3.375-6.751S84.965 111.384 89 102.81c4.034-8.574 7.915-13.424 11.872-20.136 3.956-6.711 4.05-11.155 5.71-16.848.98-3.357 1.296-5.73 1.296-5.73 5.15-13.974 1.801-4.703 4.583-13.336" fill="#f6f1da" stroke="#f6f1da" stroke-width=".329"/><path id="beakoutline-1" d="M107.366 39.716a8.694 8.694 0 002.078-2.161c.868-1.29 1.37-2.783 1.913-4.24a71.182 71.182 0 012.743-6.401" class="scramblesvg_line"/><path id="beakoutline-2" d="M114.1 26.914a20.348 20.348 0 001.912 5.486c.11.214.23.43.416.582.19.155.435.23.679.255.243.025.49.006.734-.005.61-.029 1.223-.01 1.829-.083 1.11-.136 2.16-.579 3.16-1.081a26.066 26.066 0 003.325-1.995" class="scramblesvg_line"/><path id="beakoutline-3" d="M126.155 30.073c-.36 2.172-.775 4.334-1.247 6.484-.419 1.905-.882 3.803-1.497 5.653-.27.814-.574 1.637-.582 2.495a3.79 3.79 0 00.333 1.58c.278.619.733 1.17 1.33 1.496.054.03.11.057.166.083h-.083" class="scramblesvg_line"/><path id="beakoutline-4" d="M124.575 47.864c-.612.25-1.16.653-1.58 1.164-.278.338-.499.72-.748 1.08-1.16 1.681-2.889 2.87-4.323 4.323-2.357 2.391-3.898 5.487-6.235 7.898a16.142 16.142 0 01-4.988 3.492" class="scramblesvg_line"/><path id="beakoutline-5" d="M106.7 65.82a21.272 21.272 0 00-3.285-.271 35.436 35.436 0 00-1.998.059c-1.123.057-2.27.13-3.351-.177a7.27 7.27 0 01-1.293-.529c-1.752-.888-3.36-2.21-4.174-3.997-.2-.44-.351-.907-.413-1.387a3.288 3.288 0 01.119-1.435c.177-.543.517-1.02.908-1.436.39-.416.836-.776 1.267-1.15 1.94-1.684 3.612-3.65 5.232-5.644a177.723 177.723 0 007.654-10.137" class="scramblesvg_line"/><path id="eye" d="M135.307 28.716a1.249 1.249 0 01.065-.658c.076-.21.194-.402.326-.582.263-.36.586-.683.773-1.088.07-.15.119-.307.19-.455a.876.876 0 01.309-.376.624.624 0 01.342-.09c.12.002.237.038.34.099.206.122.345.34.399.573.069.3.004.618-.108.906-.112.288-.268.556-.391.84-.136.313-.232.645-.4.942a1.562 1.562 0 01-.316.4c-.127.114-.281.2-.448.237a.894.894 0 01-.696-.146.97.97 0 01-.385-.602z" class="scramblesvg_line"/><path id="eye-pupil-1" d="M136.39 27.094a.922.922 0 00-.035.375c.007.058.02.116.045.168.025.053.064.1.114.128.038.02.08.03.124.03.043 0 .085-.01.124-.027a.517.517 0 00.196-.162c.175-.226.231-.522.386-.762.068-.105.154-.199.201-.314a.376.376 0 00.03-.183.247.247 0 00-.083-.162.237.237 0 00-.146-.052.32.32 0 00-.152.038.682.682 0 00-.225.218c-.132.183-.242.383-.398.546a1.322 1.322 0 01-.182.16z" class="scramblesvg_line"/><path id="eye-pupil-2" d="M136.696 27.287a.106.106 0 01.087.01.106.106 0 01.048.073.108.108 0 01-.022.084.106.106 0 01-.079.038.107.107 0 01-.086-.042.107.107 0 01-.016-.095.106.106 0 01.068-.068z" class="scramblesvg_line"/><path id="eye-pupil-3" d="M137.332 26.26c-.08.001-.14.059-.19.114-.076.088-.13.19-.191.288a1.496 1.496 0 01-.265.343c-.058.055-.131.094-.185.154-.014.021-.032.046-.027.073.005.029.044.038.063.017.032-.031.065-.064.108-.079.1-.041.226.003.282.096.01.022.04.036.062.019.021-.024.028-.057.042-.085.067-.155.127-.312.223-.451.056-.085.124-.163.166-.256.025-.056.038-.125.011-.182-.018-.037-.06-.053-.099-.05z" fill="#323232" stroke-width=".004"/><path id="eye-pupil-4" d="M137.279 25.563c-.242.002-.436.193-.527.404-.119.261-.207.538-.374.775-.037.047-.07.135.005.165.09.018.155-.074.213-.13.173-.205.268-.472.48-.644.155-.135.433-.129.543.061.109.185.018.407-.098.563-.205.255-.276.581-.45.85-.098.15-.257.3-.45.276-.178.012-.299-.159-.34-.315-.054-.144-.012-.303-.049-.449-.037-.065-.121-.03-.15.024-.254.313-.522.632-.643 1.023-.07.216-.07.456.002.67a.828.828 0 00.84.548c.335-.036.6-.29.764-.569.228-.397.341-.847.554-1.252.188-.39.408-.799.38-1.246-.01-.323-.22-.654-.544-.737a.562.562 0 00-.157-.017z" fill="#000034" stroke-width=".018"/><path id="eye-pupil-glimmer" d="M136.726 27.324a.064.064 0 00-.061.068c.002.034.035.063.069.058a.06.06 0 00.055-.048.064.064 0 00-.063-.078z" fill="#f9f9f9" stroke-width=".002"/><path id="nostril-outline" d="M115.596 43.873a14.2 14.2 0 01.666-.997c.302-.415.637-.822 1.08-1.081.152-.089.317-.16.491-.183a.759.759 0 01.507.1.679.679 0 01.23.253.834.834 0 01.092.33c.017.23-.051.458-.156.664-.277.545-.817.943-1.413 1.08a2.292 2.292 0 01-1.497-.166z" class="scramblesvg_line"/><path id="nostril" d="M117.916 41.744c-.456.032-.822.37-1.123.685a8.955 8.955 0 00-.99 1.371c.441.22.976.189 1.443.063.637-.224 1.225-.78 1.285-1.48.02-.336-.251-.698-.615-.639z" fill="#520" stroke-width=".05"/><path id="bean-outline" d="M96.596 64.873a11.244 11.244 0 002.205-1.764c.775-.8 1.448-1.755 1.646-2.85.038-.211.058-.426.035-.638a1.26 1.26 0 00-.212-.597c-.191-.271-.51-.436-.837-.49-.327-.055-.664-.008-.985.078a4.386 4.386 0 00-1.763.97c-.939.837-1.505 2.001-2.087 3.116l-.265.5" class="scramblesvg_line"/><path id="bean" d="M99.095 58.642c-.625.025-1.222.276-1.748.602-.866.548-1.484 1.399-1.976 2.28-.307.543-.583 1.1-.881 1.647.005.084.119.12.169.184.601.517 1.271.948 1.966 1.328.088-.003.153-.093.23-.13.68-.45 1.312-.97 1.873-1.562.709-.731 1.332-1.597 1.56-2.606.075-.285.075-.584.049-.875a1.032 1.032 0 00-.645-.767 1.476 1.476 0 00-.597-.1z" fill="#d45500" stroke-width=".025"/><path id="beak" d="M113.907 27.71c-.678.657-.885 1.707-1.322 2.537-1.254 2.71-1.918 5.758-3.784 8.14-.964.953-1.97 1.92-2.705 3.09-3.484 4.651-6.877 9.428-11.059 13.49-1.147 1.15-2.935 2.225-2.837 4.077.02 1.58.891 3.087 2.053 4.09.917-1.183 1.416-2.757 2.668-3.71.798-.636 1.954-1.042 2.945-.724.903.552.513 1.748.21 2.545-.609 1.495-1.968 2.44-3.1 3.503-.033.52.787.577 1.168.717 2.532.266 5.116-.026 7.634.242 1.074.301 2.103-.518 3-1 4.292-2.674 6.278-7.594 9.919-10.943 1.59-1.52 3.178-3.06 4.46-4.855.324-.455.85-.694 1.264-1.02-.383-.494-.983-.912-1.195-1.573-.879-1.894.22-3.888.676-5.74.835-3.291 1.67-6.6 2.152-9.961-.157-.559-.774.119-1.08.22-2.002 1.21-4.173 2.448-6.594 2.34-.779-.015-1.875.209-2.255-.689-.938-1.457-1.212-3.224-2.04-4.723a.197.197 0 00-.178-.054zm4.1 13.929c.798.105.733 1.203.224 1.64-.624.742-1.737 1.027-2.616.575.616-.855 1.225-2.088 2.392-2.215z" fill="#f60" stroke-width=".201" paint-order="stroke fill markers"/><path id="rightfoot" d="M66.66 239.927c-1.118.11-1.622 1.373-2.659 1.693-.853.329-1.971.698-2.14 1.742-.334 1.502.576 2.857 1.166 4.16 3.102 6.191 5.95 12.514 8.419 18.98.703 1.768 1.07 3.703.755 5.599-.193 1.37-.639 2.711-.521 4.11-.066 2.093.127 4.214-.273 6.28-.314 1.588-1.69 2.812-1.736 4.467-.035.856.607 1.64 1.463 1.746 1.328.175 2.661-.185 3.984-.29 3.55-.494 7.155-.398 10.71.031 2.916.377 5.848.635 8.788.72 2.33.143 4.652.444 6.994.435.57-.04 1.2.1 1.742-.096.101-.349-.467-.27-.676-.338-8.612-1.429-16.922-4.747-24.114-9.717-.075-.062-.504-.353-.343-.341 2.892 1.91 5.872 3.712 9.03 5.16 6.399 2.985 13.338 4.822 20.382 5.335 1.23.1 2.308.743 3.465 1.104.571.205 1.391-.213 1.225-.894-.183-.798-1.067-1.11-1.656-1.555-1.116-.779-2.467-1.15-3.52-2.022-2.104-.075-4.244-.15-6.258-.828-.876-.317-1.831-.576-2.605-1.086 1.16.374 2.269.947 3.474 1.21 1.753.469 3.576.523 5.38.547 1.07.74 2.37 1.506 3.72 1.118.661-.19 1.398-.497 1.76-1.11.01-.287.183-.586.019-.884-.12-.62-.762-.836-1.32-.838-2.93-.208-5.912.243-8.779-.532-2.092-.487-3.979-1.582-6.04-2.174-3.946-1.428-7.513-3.676-11.119-5.786-1.57-.88-3.073-1.951-4.154-3.406-2.077-2.65-3.072-5.948-3.988-9.138-1.14-4.044-1.447-8.249-2.063-12.39-.237-1.317-.27-2.69-.712-3.96-.694-1.73-2.527-2.484-3.93-3.507-1.273-.872-1.678-2.554-2.996-3.366a1.704 1.704 0 00-.875-.179zm10.45 41.284c-.276 1.8-.908 3.583-1.87 5.112.169-.704.662-1.347.902-2.049.442-.968.624-2.033.89-3.046.022-.018.051-.02.077-.017z" class="scramblesvg_foot"/><path id="rightleg" d="M76.107 257.531a44.511 44.511 0 00-.366-3.304c-.232-1.561-.547-3.112-.669-4.685-.06-.773-.075-1.563-.32-2.299a4.59 4.59 0 00-.96-1.6 6.17 6.17 0 00-1.019-.902c-.397-.282-.824-.52-1.25-.757-.509-.281-1.027-.568-1.427-.989-.525-.553-.806-1.294-1.28-1.891-.34-.429-.78-.78-1.282-.998-.276-.12-.575-.2-.875-.179-.28.02-.549.13-.788.278-.24.148-.453.334-.663.52-.375.335-.752.68-1.207.895-.266.126-.551.203-.83.299-.28.095-.556.211-.8.38a1.583 1.583 0 00-.567.667 1.63 1.63 0 00-.116.62c-.002.211.025.422.057.631.37 2.42 1.376 4.74 2.89 6.664" class="scramblesvg_foot"/><path id="rightlegoutline-1" d="M76.107 257.531l-1.164-8.812a10 10 0 00-.166-.998 4.667 4.667 0 00-1.164-2.161c-.553-.572-1.25-.98-1.932-1.389-.682-.41-1.37-.837-1.892-1.438-.528-.608-.86-1.365-1.38-1.98-.26-.308-.57-.58-.936-.748-.366-.167-.793-.222-1.176-.098-.34.11-.623.348-.878.6-.254.252-.491.525-.785.73-.358.25-.78.386-1.19.535-.41.15-.825.324-1.137.629-.38.37-.569.905-.596 1.434-.028.53.094 1.056.263 1.559.333.987.85 1.9 1.33 2.826.343.66.667 1.33.998 1.995.11.223.22.444.332.666" class="scramblesvg_line"/><path id="rightlegoutline-2" d="M64.634 250.88a221.318 221.318 0 016.319 14.466c.675 1.711 1.34 3.48 1.33 5.32-.008 1.57-.508 3.095-.665 4.656-.14 1.395-.006 2.8.012 4.201.018 1.401-.09 2.84-.677 4.113-.357.772-.882 1.465-1.169 2.266-.143.4-.224.83-.182 1.253.041.423.213.841.52 1.137.294.284.696.439 1.1.5.406.06.819.034 1.227-.001 1.39-.123 2.768-.359 4.157-.5 2.374-.24 4.771-.202 7.15 0 2.775.237 5.53.697 8.313.832 1.33.065 2.664.056 3.99.166 1.056.089 2.104.253 3.16.333 1.327.1 2.66.068 3.99 0 1.125-.058 2.252-.141 3.378-.084 1.125.058 2.258.26 3.273.75.424.203.835.458 1.3.532.232.036.475.024.694-.063a.898.898 0 00.5-.47.876.876 0 00.041-.52 1.218 1.218 0 00-.225-.474c-.213-.282-.516-.48-.814-.669-1.026-.654-2.07-1.285-3.159-1.829-.29-.144-.587-.285-.831-.498a1.746 1.746 0 01-.166-.167" class="scramblesvg_line"/><path id="rightlegoutline-4" d="M76.107 257.531a46.295 46.295 0 002.266 9.3c.96 2.69 2.234 5.38 4.409 7.23.949.808 2.039 1.43 3.115 2.058 2.835 1.654 5.632 3.395 8.642 4.703.961.418 1.943.79 2.94 1.117h.058c.143.007.28.062.411.117.98.412 1.94.874 2.94 1.235 1.934.698 3.999 1.006 6.055 1 1.61-.006 3.232-.2 4.82.058.185.03.376.069.53.177.113.08.2.193.264.316.065.123.108.256.147.389.036.124.068.25.083.379a.994.994 0 01-.024.385.965.965 0 01-.21.367 1.918 1.918 0 01-.32.28 3.842 3.842 0 01-2.614.703 3.842 3.842 0 01-2.42-1.215" class="scramblesvg_line"/><path id="rightlegoutline-5" d="M78.072 279.053a59.757 59.757 0 009.422 5.412 59.838 59.838 0 0018.032 5.046" class="scramblesvg_line"/><path id="rightlegoutline-6" d="M107.2 286.13a18.015 18.015 0 01-9.028-1.863" class="scramblesvg_line"/><path id="rightlegoutline-7" d="M75.16 286.38a13.566 13.566 0 001.92-5.296" class="scramblesvg_line"/><path id="belly-1" d="M125.891 108.824c2.823 15.478 4.455 12.083 7.276 27.517 2.822 15.434 12.48 34.043 18.124 41.672 5.645 7.629-8.599 51.329-8.599 51.329l-1.852-5.689s-3.676-8.742-4.328-11.303c-1.644-3.875-12.823-20.853-21.34-36.19-8.517-15.337-9.5-15.482-10.464-45.775 3.66-12.854 8.348-16.855 19.936-21.537.838-.339 1.247-.024 1.247-.024z" class="scramblesvg_shading"/><path id="belly-2" d="M125.412 225.033a56.725 56.725 0 01-10.583 12.171c-4.135 3.57-8.842 6.561-14.045 8.227-5.202 1.666-10.929 1.948-16.117.24-4.03-1.327-7.618-3.802-10.645-6.775-3.027-2.973-5.526-6.44-7.818-10.012-4.583-7.142-8.504-14.898-14.743-20.652-1.662-1.533-3.486-2.92-4.882-4.7-.698-.89-1.284-1.877-1.64-2.951-.354-1.074-.472-2.238-.244-3.346.227-1.1.791-2.12 1.563-2.937.771-.817 1.745-1.432 2.794-1.834 2.098-.803 4.445-.744 6.64-.265 5.374 1.173 9.89 4.665 14.382 7.838a160.671 160.671 0 0055.339 24.996" class="scramblesvg_shading"/><path id="belly-3" d="M137.985 52.15c-.396 1.264 0 0 0 0m0 0c.016-1.462.926-1.474 1.334-2.241.513-.964.933-1.976 1.4-2.963.465-.987.59-3.762.59-3.762.727-1.035-.178-2.443.247-2.916.425-.473-.487-2.972-.075-3.85.41-.877-1.91-5.69-1.554-6.383.354-.694-1.5-3.981-3-6.47-1.423-2.299-4.15-4.884-4.15-4.884.737-1.066-10.683-3.843-9.384-4.735 1.3-.892 2.26-.423 3.259-.373 1.086-.097 1.105.003 3.394.353s5.862 1.721 6.855 3.17c1.058 1.197 1.687 1.919 3.02 3.368.707.77.777 1.786 1.844 3.358 1.066 1.571 1.633 3.544 2.098 4.592.465 1.048.694 3.049.713 4.62.019 1.572.078 2.987.116 4.481.039 1.494.233 4.112.35 6.169.116 2.056-.466 4.19-.699 6.285-.233 2.095-.737 2.172-1.106 3.259-.369 1.087-.465 2.133-.698 3.2-.233 1.068-1.086 3.26-1.63 4.889-.543 1.63-.697 1.59-1.047 2.386s-.465 1.474-.698 2.211c-.233.738-.504 1.552-.757 2.328-.252.776-.853 1.823-1.28 2.735-.427.912-1.396 2.832-2.095 4.249-.699 1.416-.698 1.629-1.048 2.444-.35.815-1.163 2.366-1.745 3.55-.583 1.183-1.552 3.297-2.328 4.946-.777 1.65-.815 1.668-1.222 2.503-.408.834 0 .97 0 1.454 0 .486-.039 2.405-.059 3.609-.02 1.203.66 3.918.99 5.877.33 1.96.504 3.142.756 4.714.252 1.572.078 2.599.117 3.899.038 1.3 1.164 3.763 1.746 5.645.581 1.882 1.358 3.918 2.036 5.878.679 1.96 2.872 8.185 4.307 12.279 1.435 4.093 5.51 8.224 8.264 12.337 2.754 4.113 3.57 3.026 5.353 4.54 1.785 1.513 2.794 3.258 4.19 4.888 1.397 1.63 1.94 3.646 2.91 5.47.97 1.824 1.01 6.246 2.095 12.57 1.086 6.324.466 10.824.117 13.036-.35 2.211-1.048 7.914-2.212 11.871-1.164 3.958-1.163 5.199-1.397 7.682-.233 2.483-1.978 5.509-2.676 8.38-.7 2.871-2.794 6.556-3.26 7.915-.465 1.358-1.939 3.064-3.84 6.518-1.902 3.453-2.25 2.405-3.376 3.608-1.125 1.203-3.479 3.146-5.219 4.72-1.74 1.574-1.015.795-1.523 1.194-.508.398-6.534-3.123-6.534-3.123l-.37.627-.66 1.263c-.22.422-.871 1.481-1.308 2.223-.436.74-.874 1.113-1.312 1.67-.438.557-13.7 19.027-25.668 17.322-6.624-.943-3.074-.475-10.661-4.208-5.51-4.52-7.763-5.034-7.763-5.034s.389.72 0 0c-.388-.72 1.029.695 0 0-1.028-.696-3.368-.87-4.075-1.777-.707-.906-.8-.33-1.504-.613-.705-.281 1.139-.338.584.106-.554.443-1.615-.067-4.486-3.08 1.116-.78 2.98-.409 5.103-.105 1.74-.035 7.829-.862 10.185-.306 2.87.678 5.353.5 5.353.5s-4.048.939 0 0c6.983 1.154 4.235.988 12.725 2.152 10.92 1.497 11.274-5.712 20.829-13.308 3.398-2.701 7.405-5.343 10.053-10.961 2.291-4.861 2.802-6.027 6.875-14.485 4.074-8.457 3.681-17.791 4.255-25.075.544-6.902-.53-13.58-1.032-17.596-1.792-2.65-13.707-15.7-12.582-17.95 1.125-2.249-13.52-17.977-16.08-28.615-1.533-6.373.944-14.367.78-19.649 4.996-5.348 8.198-12.761 9.132-18.655.933-5.894 2.504-6.928 4.13-11.339 5.15-13.974 1.11-5.582 3.892-14.216" class="scramblesvg_shading"/><path id="leftleg" d="M131.46 233.609a39.21 39.21 0 01-3.45 5.845c.899 5.972 2.271 11.895 3.55 17.795.314 2.014.645 4.126.126 6.116-.335 1.357-1.377 2.41-2.643 2.948-1.803.864-4.003 1.475-5.055 3.332-.504.846.269 1.792 1.115 1.972 1.567.525 3.053-.435 4.456-.986.582.105.919.862.449 1.316-2.147 2.335-3.907 5.014-6.146 7.275-2.415 2.389-4.868 5.034-8.129 6.215-.7.34-1.58.166-2.216.6.025.403.688.195.967.27 2.316-.05 4.615.076 6.906.432 3.668.422 7.387.36 11 1.19 2.372.427 4.788.752 7.2.693.388-.182-.044-.78.013-1.103-.726-4.455-1.962-8.826-3.582-13.034.546.904.873 2.131 1.255 3.176 1.206 3.497 1.988 7.122 2.618 10.759.378.83 1.124 1.499 1.9 1.961 1.195.4 2.285-.577 3.283-1.08.277-.298.986-.296 1.014-.77-.78-2.875-1.613-5.819-2.254-8.683.886 2.875 1.554 5.822 2.388 8.717.393.194.88-.26 1.328-.197 3.682-.153 7.392-.157 11.077-.087 2.782.21 5.558.605 8.358.506.797-.11 1.77.22 2.466-.29.715-.85.506-2.265-.172-3.08-.893-.586-2.068-.432-3.073-.707-6.63-1.18-12.541-4.686-18.05-8.404-1.818-1.37-3.887-2.545-5.255-4.41-1.14-1.682-1.026-3.814-1.51-5.739-.728-3.935-1.851-7.783-3.196-11.549-1.252-3.538-1.354-7.32-1.158-11.031.03-2.255.515-4.492.9-6.693-.845-.775-2.017-1.127-3.002-1.703-1.128-.543-2.233-1.152-3.391-1.621zm-.489 41.876c-1.792 2.355-3.575 4.765-5.792 6.745-.618.501-1.327 1.087-1.978 1.43 1.284-1.051 2.63-2.049 3.707-3.328 1.464-1.579 2.698-3.347 4.128-4.946l-.064.097zm14.05 2.108c1.373.802 2.616 1.84 3.991 2.653 4.2 2.707 8.776 4.788 13.511 6.366.848.32.03.11-.331-.025-6.16-2.04-12.027-5.037-17.196-8.972l.015-.023z" class="scramblesvg_foot"/><path id="scramblesvg_leftfoot_filler" d="M113.668 285.929c-.114.006-.23.014-.342.017-.09.005-.18 0-.268.013-.063.011-.104.087-.073.144.023.053.084.068.13.093.153.07.314.12.478.153.063.011.127-.043.122-.108.001-.034-.023-.06-.037-.09.042-.024.093-.052.097-.106.012-.061-.045-.12-.107-.116z" class="scramblesvg_foot"/><path id="leftlegoutline-1" d="M169.02 285.113c.501.383.846.964.94 1.588.048.31.036.628 0 .94-.025.234-.065.47-.164.683-.099.214-.264.405-.482.493-.202.081-.428.069-.646.059-1.684-.078-3.373.095-5.056 0-1.063-.06-2.117-.228-3.174-.353-1.911-.227-3.842-.317-5.761-.176-.588.042-1.175.107-1.764.117-1.217.021-2.428-.189-3.645-.176-1.369.014-2.75.32-3.938 1-.617.352-1.18.802-1.834 1.081-.326.14-.676.235-1.03.243a1.802 1.802 0 01-1.016-.267c-.275-.177-.485-.438-.694-.69-.209-.252-.43-.505-.717-.662-.372-.202-.812-.22-1.235-.235-1.612-.06-3.226-.16-4.82-.411-1.77-.28-3.51-.748-5.29-.941-1.016-.11-2.038-.13-3.058-.176a55.135 55.135 0 01-4.29-.353c-1.955-.241-3.915-.6-5.88-.47-.385.025-.77.07-1.156.07-.386.001-.778-.043-1.136-.188a2.121 2.121 0 01-.647-.411" class="scramblesvg_line"/><path id="leftlegoutline-2" d="M131.46 233.609l6.62 3.074" class="scramblesvg_line"/><path id="leftlegoutline-3" d="M138.08 236.683a41.443 41.443 0 00-1.085 8.039c-.108 3.005.115 6.043.94 8.935.5 1.752 1.216 3.435 1.764 5.173.535 1.696.908 3.437 1.293 5.173.304 1.366.615 2.732.823 4.115.157 1.038.26 2.106.706 3.057.57 1.217 1.641 2.116 2.704 2.94 2.503 1.937 5.148 3.687 7.877 5.29 1.83 1.075 3.701 2.085 5.644 2.94a34.356 34.356 0 005.878 1.998c1.43.34 2.886.576 4.35.705" class="scramblesvg_line"/><path id="leftlegoutline-4" d="M144.955 277.536a58.226 58.226 0 0018.188 9.3" class="scramblesvg_line"/><path id="leftlegoutline-5" d="M131.293 275.067a73.336 73.336 0 00-1.4 1.728c-1.143 1.457-2.235 2.963-3.538 4.28a18.23 18.23 0 01-3.292 2.633" class="scramblesvg_line"/><path id="leftlegoutline-6" d="M135.984 274.326a58.817 58.817 0 013.539 12.345" class="scramblesvg_line"/><path id="leftlegoutline-7" d="M139.523 286.671l.329 2.057" class="scramblesvg_line"/><path id="leftlegoutline-8" d="M143.802 279.758l2.387 8.97" class="scramblesvg_line"/><path id="leftlegoutline-9" d="M131.547 233.56l1.379-5.357" class="scramblesvg_line"/><path id="leftlegoutline-10" d="M112.606 285.717a9.015 9.015 0 003.9-.662c1.432-.589 2.685-1.536 3.867-2.536a46.263 46.263 0 007.066-7.523c.604-.804 1.188-1.63 1.912-2.328.329-.316.695-.62.873-1.04.048-.112.08-.232.085-.354a.643.643 0 00-.085-.352.605.605 0 00-.289-.242.772.772 0 00-.376-.05 1.267 1.267 0 00-.434.143c-.137.07-.265.154-.397.232-.316.187-.651.339-.998.457-.773.264-1.617.355-2.41.167a2.353 2.353 0 01-.877-.386 1.404 1.404 0 01-.537-.778 1.435 1.435 0 01.08-.85c.106-.269.274-.51.46-.73a5.762 5.762 0 011.247-1.08c.649-.427 1.36-.749 2.079-1.04.542-.22 1.093-.423 1.616-.685.523-.262 1.023-.588 1.418-1.02.69-.752 1.016-1.774 1.164-2.784.044-.303.075-.609.083-.915.018-.666-.07-1.33-.125-1.995-.039-.471-.062-.944-.124-1.413-.082-.617-.23-1.224-.374-1.83a240.886 240.886 0 01-3.409-16.876" class="scramblesvg_line"/></g></svg>