<svg xmlns="http://www.w3.org/2000/svg" width="400" height="200"><g fill="#333" stroke="#00002b" stroke-linecap="round" stroke-linejoin="round"><path d="M50.199 48.564c-.165.06-.322.156-.495.178-1.47.19-2.95.174-4.425.161-.998-.009-1.849.013-2.851.03-1.496-.104-2.98 0-4.465.218-.553.082-1.102.194-1.656.275-.58.084-1.164.146-1.746.219-3.09.044-6.101.85-9.13 1.434-.456.135-.92.242-1.367.406-.507.186-.995.428-1.493.64-.749.32-2.384.999-3.125 1.368-.949.472-2.378 1.319-3.29 1.846-1.829 1.26-3.923 2.021-5.669 3.436-.836.677-1.088 1.02-1.811 1.823-.248.306-.5.609-.744.918-.217.275-.44.545-.64.835-.738 1.068-1.28 2.3-1.858 3.477-.356.82-.572 1.693-.806 2.56-.227.84-.453 1.651-.619 2.51-.014.225-.05.45-.042.675.015.503.183 1.641.33 2.118.141.461.45 1.016.657 1.424.168.345.568 1.198.79 1.533.243.364.962 1.142 1.209 1.4.602.632 1.225 1.24 1.835 1.863 1.926 2.129 4.495 3.194 6.918 4.424.431.16.858.333 1.293.478.479.16.967.28 1.448.434 1.301.418 1.543.544 2.817 1.008 1.452.53 1.516.539 3.021 1.042.573.171 1.15.332 1.72.515 1.065.343 2.111.759 3.177 1.101 1.6.514 3.232.89 4.86 1.272.564.179 1.132.342 1.692.535.991.343 1.963.755 2.949 1.116 1.376.504 2.697.998 4.04 1.607 1.712.744 3.484 1.319 5.17 2.139.345.167 2.051 1.1 2.396 1.287.398.22.797.44 1.195.663 1.035.579 1.398.754 2.37 1.441.32.227.62.489.937.72.616.45 1.252.864 1.877 1.3.296.25.598.492.89.748.264.234.514.488.78.723.841.745 1.735 1.423 2.531 2.233.302.306.578.642.866.964.868 1.204 1.78 2.377 2.509 3.698.482.875.529 1.082.883 1.996.753 1.586 1.213 3.302 1.672 5.013.485 1.672.66 3.42.828 5.158.086 1.496-.091 2.997-.568 4.398-.31.954-.61 1.913-1.07 2.793-.143.274-.677 1.15-.837 1.415-.874 1.566-2.145 2.76-3.295 4.06-1.42 1.282-2.804 2.636-4.304 3.802-.406.316-.833.599-1.249.898-1.932 1.239-3.783 2.635-5.777 3.752-1.448.811-1.747.893-3.226 1.522l-1.504.674c-1.34.598-1.72.8-3.103 1.257-.5.166-1.01.292-1.514.444-1.592.481-1.48.46-3.103 1.017-1.814.726-3.704 1.124-5.594 1.503-.737.148-2.836.577-3.576.687-.63.094-1.264.145-1.897.217-2.49.083-4.988-.128-7.385-.915-1.067-.35-1.383-.558-2.36-1.061-1.521-.79-3.136-1.368-4.599-2.298-.725-.462-1.485-1.09-2.164-1.626-2.188-1.658-3.58-3.9-5.026-6.3a17.831 17.831 0 01-1.847-6.633c-.043-.592-.016-1.188-.024-1.782.17-2.467.46-4.966 1.14-7.333.463-1.614.733-2.1 1.386-3.592.82-1.686 1.664-3.364 2.781-4.835.334-.439.708-.839 1.066-1.254 1.277-1.48.91-1.06 2.29-2.472 1.267-1.423 2.773-2.42 4.31-3.419 1.322-.857 1.684-1.135 3.075-1.903.584-.322 1.181-.613 1.771-.92 2.672-1.202 5.374-2.198 8.248-2.565.68-.086 2.869-.212 3.592-.257 2.123-.118 4.238-.176 6.364-.12 2.028.053 1.139.15 3.169.13.598-.007 1.195-.048 1.793-.072 2.1-.227 4.205.052 6.304.025 3.816-.048-.052-.078 3.701-.025 3.614.316 7.227-.146 10.801-.697 2.413-.392 4.793-.978 7.2-1.413.707-.127 1.42-.216 2.125-.36 1.403-.288 2.409-.612 3.785-1.014l1.742-.5c.513-.147 1.031-.273 1.54-.441 1.656-.548 3.222-1.36 4.846-2.007.599-.24 1.21-.44 1.813-.66 2.25-.644 4.44-1.52 6.68-2.197 1.266-.383 1.743-.467 2.995-.749.413-.098.827-.187 1.238-.296 1.726-.456.604-.23 2.251-.62 1.01-.239 2.024-.469 3.038-.69 2.055-.397 4.162-.252 6.233-.116.489.098.952.28 1.395.528.044.025.283.177.29.173.023-.016-.044-.036-.066-.053.555.286-.928-.314-.973.046-.131 1.043-.145 2.105-.332 3.138-.041.227-.63.164-.986.172-1.564.023-3.098-.34-4.644-.534-1.051-.132-1.23-.096-2.3-.091-.473.367-.049.074-1.36.21-.373.038-.75.06-1.12.134-1.21.241-2.371.788-3.52 1.256-3.01 1.184-5.673 3.232-8.279 5.244-1.582 1.257-3.049 2.683-4.495 4.125-.364.363-.748.705-1.08 1.105-.69.835-.79 1.236-1.24 2.238-.402 1.11-.777 2.23-.946 3.418-.137.96-.179 2.047-.256 3.009-.045.548-.1 1.096-.15 1.643-.48 3.22.05 6.467.699 9.608.159.49.285.993.476 1.468.2.497.456.963.693 1.44.666 1.34 1.338 2.664 2.291 3.78.315.37.666.696 1 1.044.972.815 1.37 1.177 2.388 1.915.375.273.742.567 1.147.783.41.218.844.381 1.283.513 1.306.39 2.029.372 3.406.49.837.043 3.047.18 3.898.133.225-.012.437-.123.658-.173.703-.16 1.41-.296 2.112-.455 2.088-.471 2.192-.518 4.224-1.053.664-.266 1.34-.494 1.992-.798 1.534-.717 3.172-1.744 4.642-2.581.097-.056 4.716-2.635 4.888-2.738.783-.469 1.542-.985 2.312-1.477 3.041-2.159 1.53-1.103 4.536-3.17.302-.306 4.19 4.446 3.888 4.753v0c-3.025 2.351-1.458 1.212-4.705 3.408l-2.4 1.572c-.806.53-1.596 1.094-2.418 1.594a38.316 38.316 0 01-2.674 1.507c-2.46 1.24-5.053 2.113-7.575 3.173-1.967.733-2.562 1.036-4.644 1.468-2.236.464-3.878.518-6.222.552a21.272 21.272 0 01-2.237-.071c-.767-.07-1.526-.227-2.29-.34-.723-.217-1.457-.395-2.17-.65-2.196-.784-4.633-2.174-6.414-3.82-.463-.43-.88-.919-1.32-1.378-1.13-1.362-2.277-2.734-3.18-4.303-.977-1.695-1.646-3.565-2.176-5.483-.403-1.599-.604-2.168-.788-3.838-.271-2.453-.054-4.911.03-7.367.066-.59.111-1.184.198-1.77.137-.928.439-2.249.614-3.186.068-.359.422-2.492.498-2.82.129-.561.304-1.108.457-1.661.726-1.74 1.477-3.448 2.564-4.956 1.405-1.952 3.138-3.555 4.991-4.95 1.598-1.096 2.037-1.454 3.694-2.377 1.86-1.036 3.817-1.847 5.693-2.847.463-.202.918-.426 1.388-.607.679-.26 2.103-.684 2.809-.881.449-.126.894-.269 1.35-.358 1.603-.314 2.263-.193 4.073-.183 2.428.21 4.877.424 7.188 1.353.043.017 1.26.483 1.284.622.628 3.595.509 3.512-1.605 3.437-.533-.155-1.058-.122-1.608-.091.161.008.633-.041.483.025-.2.09-.431.029-.646.047-1.13.098-2.248.31-3.384.318-.43.062-1.335.174-1.77.298-.288.083-.565.212-.847.319-1.131.428-2.278.788-3.41 1.218-1.047.403-1.694.664-2.776 1.03-2.17.733-4.385 1.318-6.495 2.263-1.737.63-3.499 1.176-5.233 1.815-2.437.899-.653.295-3.08 1.296-.576.237-1.162.444-1.743.666-2.702.906-1.11.363-3.87 1.327-.704.245-1.4.52-2.11.734-2.53.763-5.121 1.169-7.733 1.364-1.508.097-2.947.207-4.456.239-2.28.049-4.569-.087-6.844.143-3.874.097.278.02-3.723.007-2.938-.009-5.882.2-8.815-.072-.585-.046-1.169-.107-1.755-.137-1.323-.066-1.825-.018-3.149.004-.738.013-1.378-.046-2.16-.055-.503-.007-1.006.01-1.509.015-.503.055-1.01.087-1.51.165-.577.09-2.917.601-3.406.708-1.916.418-3.824.872-5.683 1.547-1.417.55-1.768.633-3.094 1.349-1.886 1.018-3.532 2.484-5.316 3.697-.708.61-1.408 1.157-2.02 1.892-.38.458-1.325 1.954-1.614 2.398-.294.45-.61.882-.884 1.347-.248.422-.452.874-.678 1.31-1.083 2.95-2.259 5.955-2.367 9.185-.068 1.202-.218 2.458-.017 3.656.153.914.622 1.673 1.047 2.45.444.753.595 1.066 1.13 1.743.218.276.459.53.691.792.771.868 1.53 1.764 2.437 2.46.299.211.589.438.896.632.696.44 1.43.8 2.135 1.22.974.577 1.926 1.21 2.986 1.581 1.062.31 2.144.65 3.232.824.384.062.773.074 1.16.111.048-.02.093-.055.144-.058.494-.034.99-.035 1.484-.052 1.651-.093 1.625-.037 3.279-.355 2.412-.463 4.74-1.38 7.18-1.692 1.057-.234 2.061-.433 3.101-.744 1.912-.571 3.77-1.38 5.607-2.192.459-.254 2.53-1.4 2.912-1.6 1.95-1.027 3.96-1.933 5.797-3.21 1.882-1.126 3.82-2.172 5.452-3.739 1.099-.929 2.151-1.95 2.966-3.2.373-.595.7-1.215 1.06-1.82.19-.324.42-.652.581-1 .06-.128.1-.267.149-.4.134-.55.305-1.1.286-1.68-.007-.202-.039-.402-.054-.603-.017-.236-.028-.472-.043-.708-.042-.708-.093-1.425-.229-2.12-.156-.796-.414-1.568-.51-2.38-.347-1.513-.935-2.95-1.593-4.324-.84-1.627-1.73-3.226-3.048-4.435-1.388-1.515-2.817-2.98-4.515-4.062-.802-.57-.942-.698-1.796-1.189-.324-.186-.66-.346-.986-.528-1.117-.627-2.19-1.346-3.327-1.927-1.199-.575-2.426-1.048-3.632-1.604-1.204-.555-2.384-1.184-3.645-1.57-.606-.192-2.044-.643-2.61-.84-1.37-.473-1.434-.572-2.812-.954-.5-.139-1.01-.238-1.513-.368-.551-.143-1.1-.3-1.65-.45-.896-.28-2.401-.757-3.317-1.022-2.245-.65-4.536-1.155-6.67-2.21-1.226-.522-1.601-.711-2.835-1.124-1.997-.668-4.033-1.198-5.95-2.14-1.206-.555-1.805-.785-2.96-1.508-1.784-1.118-3.371-2.58-4.89-4.097-.328-.382-.671-.748-.982-1.147-.41-.526-1.11-1.596-1.495-2.186-.605-.927-1.213-1.858-1.63-2.914-.367-1.023-.76-2.061-.97-3.143-.218-1.13-.217-2.284-.088-3.427.084-.513.232-1.46.34-1.96.295-1.359.79-2.645 1.215-3.956.322-.955.363-1.163.807-2.098.14-.295.982-1.86 1.135-2.146.208-.389.398-.791.626-1.166.267-.441.57-.853.856-1.279.35-.413.686-.84 1.05-1.238 2.06-2.248 4.421-4.135 7.009-5.55 2.764-1.441.873-.475 3.59-1.814.565-.279 1.12-.586 1.694-.842 1.508-.672 1.967-.759 3.521-1.237l1.526-.47c1.408-.436 1.605-.532 3.082-.84 2.112-.44 4.258-.659 6.374-1.08 3.06-.338 6.17-.509 9.247-.56.502-.008 1.004.019 1.506.028 2.05.164.92.065 2.872.253.307.03 2.002.162 2.343.303.072.03-.076.15-.113.225l.576.178c.23-.066 1.068 3.568.837 3.634z" stroke-width=".036"/><path d="M134.447 91.142c.42 2.835-.254 5.647-.672 8.438-.084.603-.178 1.205-.251 1.809-.078.64-.125 1.282-.2 1.922-.136 1.136-.345 2.263-.457 3.402-.108 1.106-.11 2.074-.137 3.183l-.044 1.512c-.013.462-.041.925-.04 1.387.001 2.03.228 4.056.338 6.081-.073 1.92.133 3.83.234 5.743.047.886.056 1.67.074 2.554.025 1.127.123 2.252.07 3.38-.014.302-.064.602-.077.903-.015.369.023 1.217.036 1.583a16.87 16.87 0 01-.143 3.49c-.125.254-.051.652-.158.9-1.116-.106-2.253-.074-3.347-.32-.15-.033-.054-.302-.083-.452-.15-.768-.336-1.523-.434-2.3-.047-.38-.07-.762-.104-1.143-.151-1.95-.46-3.887-.507-5.845-.04-1.717.044-2.207.183-3.916.3-2.994.49-6.005 1.15-8.949.319-1.422.722-2.823 1.075-4.236.366-1.994 1.087-3.882 1.777-5.777.64-1.756 1.276-3.51 1.937-5.256.288-.596.557-1.201.863-1.789.122-.235 1.522-2.687 1.681-2.958.56-.96 1.152-1.97 1.808-2.87.31-.426.66-.822.99-1.233 1.17-1.18 2.291-2.428 3.645-3.407.206-.149 1.569-1.02 1.759-1.142.336-.185.669-.376 1.008-.555.36-.19.717-.388 1.09-.551 1.486-.649 3.09-.954 4.668-1.277 2.27-.367 4.643-.35 6.87.27.333.093.656.22.983.329 1.184.6 2.377 1.219 3.453 2.003.715.52.895.73 1.528 1.33 1.139 1.086 2.264 2.188 3.071 3.554.292.493.82 1.63 1.07 2.154.55 1.042.817 2.178 1.108 3.308.259 1.001.536 2 .82 2.995.336 1.282.192.648.437 1.9.06.281-3.916 1.142-3.977.861v0c-.392-1.195-.2-.569-.567-1.88-.052-.228-.386-1.69-.457-1.963-.327-1.25-.846-2.439-1.277-3.655-.143-.288-.274-.583-.431-.864-.303-.54-.737-1.136-1.087-1.64-.53-.765-1.074-1.514-1.775-2.139-.93-.759-2.041-1.749-3.176-2.169-.2-.074-.414-.11-.62-.165-.243-.05-1.412-.298-1.66-.33-.293-.039-.591-.031-.885-.067-.062-.007.251-.019.188-.017-.808.025-1.17.054-1.987.105-.335.045-.672.076-1.006.134-1.633.285-3.206.898-4.758 1.457-.236.124-.485.226-.709.371-.228.148-.43.334-.641.503-1.06.847-2.029 1.768-2.74 2.94-.837 1.18-1.72 2.324-2.413 3.6-.661 1.219-.763 1.627-1.35 2.908-.25.544-.516 1.08-.774 1.62-.589 1.231-.974 1.959-1.441 3.223-.576 1.56-.498 1.6-.897 3.24-.352 1.453-.625 2.446-1.012 3.902-.147.67-.308 1.338-.44 2.011-.778 3.947.074.136-.77 4.331-.413 2.053-.979 4.082-1.141 6.179-.26 3.22-.034.356-.274 3.597-.14 1.879-.319 3.76-.125 5.644.008.992-.037 1.966-.086 2.955-.012.23-.001.46-.025.69-.015.154.062.425-.09.456-1.098.218-2.234.153-3.35.23-.07-.28.042-.595-.071-.876-.161-1.097-.32-2.201-.343-3.311a103.115 103.115 0 00-.42-5.71c-.124-.897-.258-1.747-.32-2.654-.128-1.903-.046-3.824-.36-5.715-.03-.54-.073-1.08-.093-1.62-.057-1.539-.007-3.08-.071-4.619-.02-.487-.069-.973-.089-1.46-.022-.534-.025-1.069-.037-1.603l.044-1.693c.022-.56.05-1.121.066-1.682.048-1.685-.023-1.955.189-3.679.082-.67.213-1.332.324-1.997.104-.623.214-1.244.321-1.866.33-1.707.59-3.45 1.083-5.121.136-.46.31-.907.477-1.355.12-.32.234-.643.384-.95.057-.116.155-.207.232-.31 0-.239 3.365-.239 3.365 0zM201.782 88.494c-1.628-.232-3.145-.89-4.692-1.413-.685-.136-1.352-.481-2.056-.535-.164-.013-.355-.06-.493.03-.099.064.234.041.35.062l-.747.094c-.239.03-.478.058-.717.092-.6.084-.895.12-1.473.301-.891.28-1.74.701-2.602 1.057-1.686.686-3.095 1.921-4.362 3.204-.223.26-.455.513-.668.78-.253.319-.486.652-.73.977-.26.336-.515.676-.782 1.007-.258.32-.534.625-.79.948-.764.963-.819 1.093-1.508 2.128-.888 1.535-1.935 2.974-2.726 4.565-.384.77-.734 1.557-1.116 2.329-.54 1.05-1.037 2.123-1.417 3.243-.147.432-.262.875-.406 1.309-.34 1.021-.538 1.5-.922 2.49-.444 1.222-.634 2.503-.844 3.779-.043.258-.388 2.256-.425 2.574-.045.39-.055.784-.082 1.176.038 1.118-.172 2.232-.182 3.346-.01.926.148 1.868.273 2.783.102.701.087 1.429.306 2.111.174.542.516 1.012.816 1.487.094.14.172.29.282.418.374.437 1.04.78 1.605.849.216.026 1.36.032 1.48-.034.136-.075-.527.114-.462-.026.075-.159.35-.046.519-.093.207-.06.404-.15.606-.225 1.175-.65 2.422-1.2 3.436-2.1.388-.343 1.46-1.484 1.795-1.836 2.087-2.07 3.481-4.672 5.02-7.144 1.22-2.123 2.077-4.42 3.13-6.625 1.432-3.003.26-.335 1.546-3.363.23-.59.448-1.186.69-1.771 2.633-6.346-.98 2.54 1.37-3.074.565-1.35.993-2.746 1.431-4.14.151-.437.295-.878.453-1.314.436-1.2.434-1.029.815-2.214.325-1.014.554-2.056.85-3.079.343-1.01.555-2.055.85-3.078.208-.72.1-.213.211-.81.066-.54.164-1.08.194-1.623-.017-1.219 2.897-.16 3.309-.094.145.024.02.293.033.44.015.175.049.35.05.526.003.253-.024.507-.037.76-.044.284-.09.567-.133.852-.104.701-.187 1.43-.334 2.124-.25 1.18-.661 2.32-.999 3.477l-.303 1.215c-.111.441-.212.885-.336 1.323-.328 1.166-.76 2.298-1.031 3.48-.087.377-.148.758-.223 1.137-.113 1.16-.452 2.282-.652 3.425-.127.732-.18 1.475-.295 2.209-.056.361-.128.72-.192 1.08-.358 1.46-.493 2.958-.725 4.437-.168 1.065-.252 1.318-.5 2.329-.26.99-.335 2.006-.448 3.017-.094.841-.216 1.668-.27 2.513.043.818-.095 1.656.055 2.468.07.384.193.756.287 1.135.212.53.184 1.24.472 1.738.035.061.19.146.244.18.56-.333.337-.079-.448-.287-.092-.025.192-.01.283-.037.164-.046.318-.119.477-.178 1.084-.691 2.19-1.395 3.163-2.24.883-.769 1.184-1.184 1.972-2.09 2.968-3.927-.837 1.118 2.226-2.979.357-.478.74-.938 1.08-1.428 1.029-1.478 1.907-3.074 2.855-4.604 1.425-1.902 2.371-4.09 3.543-6.141.746-1.307 1.332-2.136 2.164-3.376 1.545-2.401 2.814-4.963 4.459-7.302.28-.398 1.974-2.627 2.308-3.069 1.613-2.312 3.63-4.289 5.69-6.198.296-.228.582-.47.888-.684.27-.19.558-.353.839-.526.71-.437 1.44-.89 2.212-1.211.23-.096.472-.162.709-.243 1.189-.355 2.12-.424 3.377-.123.318.076.863.566 1.081.74 1.57 1.453 2.141 3.348 2.705 5.348.324 1.675.473 2.086.519 3.826.017.658-.034 1.315-.058 1.973-.054 1.423-.117 2.965-.298 4.375-.097.75-.252 1.49-.379 2.236-1.005 3.605-1.79 7.29-3.096 10.805-.246.664-.537 1.312-.805 1.968-1.027 2.534-1.84 5.15-2.913 7.664-.431 1.01-.897 2.005-1.335 3.013-.422 1.19-1.03 2.294-1.593 3.417-.371.741-.706 1.501-1.063 2.25-.452.72-.868 1.52-1.485 2.12-.137.114-.236.38-.41.343-.937-.197-1.88-.491-2.693-.996-.23-.142-.133-.523-.181-.788-.174-.951-.086-1.903-.036-2.862.223-4.032 1.567-7.871 2.779-11.689.268-.706.523-1.418.805-2.119 2.83-7.05-1.193 3.233 1.615-3.892.678-1.72 1.03-2.793 1.807-4.494.336-.734.719-1.446 1.078-2.169a170.764 170.764 0 003.006-5.572c.33-.638.637-1.289.98-1.92.817-1.505 1.103-1.89 2.01-3.288.3-.492.6-.984.898-1.476.78-1.285.894-1.552 1.782-2.74.272-.365.572-.71.857-1.065 1.053-1.31.603-.739 1.633-2.08.777-1.161 1.772-2.129 2.76-3.102.89-.876 1.754-1.77 2.661-2.628 1.24-1.03 2.533-2.165 4.1-2.653 1.487-.508 2.443-.114 3.538.758.952.886 1.277 2.14 1.592 3.357a19.89 19.89 0 01.412 6.09c-.048.53-.136 1.055-.203 1.582-.333 2.567-.787 5.12-1.58 7.588-.193.603-.427 1.193-.631 1.792-.2.59-.388 1.183-.581 1.774-.47 1.804-1.245 3.499-1.9 5.235-.641 1.697-1.17 3.44-1.713 5.17-.206.596-.405 1.196-.62 1.79-.713 1.899-.49 1.283-1.17 3.185-.402 1.124-.774 2.258-1.198 3.373-.213.56-.452 1.11-.678 1.665-.876 1.788-1.55 3.667-2.396 5.47-.256.545-.792 1.578-1.07 2.122-.435.832-.86 1.674-1.38 2.459-.286.433-.623.827-.916 1.256-.265.34-.453.633-.663 1.011-1.039-.347-2.141-.544-3.117-1.042-.166-.085-.013-.373-.022-.56-.037-.85-.076-1.083.004-2.025.09-1.039.275-1.915.46-2.943.108-.595.205-1.19.32-1.784.144-.732.276-1.468.46-2.191.463-1.837.807-2.65 1.445-4.42.96-2.663.713-1.979 1.703-4.759 1.017-2.591 1.043-2.852 2.314-5.318.402-.78.861-1.529 1.278-2.3 1.245-2.302 2.421-4.643 3.618-6.97 1.147-2.123 2.537-4.097 3.848-6.12.392-.604.767-1.22 1.177-1.813.838-1.209 1.376-1.828 2.288-2.949 1.102-1.345 2.13-2.756 3.314-4.033 1.082-1.168 2.3-2.214 3.47-3.293 1.109-.985 2.239-1.947 3.533-2.685.954-.544 1.968-.94 3.005-1.29a8.278 8.278 0 013.432-.121c.285.048.541.203.809.314.843.346.633.26 1.407.73 1.493 1.078 2.681 2.547 3.569 4.154.227.413.416.845.625 1.267a19.58 19.58 0 011.587 5.248c.326 2.132.353 4.31.41 6.46.127 2.556-.34 5.06-.753 7.566-.401 2.433-.799 4.86-1.245 7.286-.201.806-.381 1.617-.604 2.417-.197.708-.447 1.4-.655 2.106-.72 2.44-.42 1.617-1.102 4.08-.431 1.557-.614 2.077-1.094 3.575-.64 2.277-.96 4.622-1.591 6.9-.594 1.969-.32 1.01-.827 2.876-.326 1.08-.429 2.22-.814 3.283-.064.179-.167.341-.25.512-.028.263-3.746-.126-3.719-.39v0c-.035-.213-.096-.423-.106-.64-.056-1.207.256-2.392.399-3.582.264-1.582.493-3.172.858-4.735.142-.61.314-1.212.47-1.818.145-.572.3-1.141.433-1.716.131-.565.241-1.136.362-1.703.33-1.74.339-1.924.79-3.699.548-2.147.57-1.84 1.016-4.003.144-.7.238-1.41.378-2.111.158-.788.342-1.571.513-2.357.5-1.984.71-2.658 1.055-4.645.537-3.09.605-6.241 1.14-9.334.065-.698.16-1.395.194-2.096.087-1.762-.151-3.48-.385-5.22-.066-.492-.1-.989-.204-1.474-.085-.403-.239-.789-.359-1.183-.665-1.474-.236-.578-.986-2.016-.407-.78-.74-1.627-1.537-2.086-.102-.056-.744-.409-.862-.457-.073-.03-.31-.038-.232-.05.232-.034.47-.021.704-.019.3.003-1.439.036-.893.134-.897.255-1.141.45-1.892 1.028-1.016.783-2.054 1.54-3.02 2.384-1.563 1.526-.455.406-1.99 2.067-1.44 1.557-3 3.016-4.2 4.778-1.729 2.746.063-.123-1.792 2.928-1.073 1.765-1.145 1.77-2.127 3.614-.357.67-.676 1.359-1.029 2.03-.398.758-.816 1.505-1.224 2.257-.734 1.276-1.872 3.222-2.563 4.54-1.636 3.12-2.842 6.443-4.545 9.53-.364.77-.748 1.53-1.091 2.31-.92 2.082-.827 2.087-1.58 4.202-.25.7-.515 1.396-.772 2.095-.255.64-.53 1.27-.766 1.918-.198.545-.355 1.104-.533 1.656-.353 1.297-.718 2.56-1.206 3.811-.09.23-.179.462-.275.69-.04.096-.031.289-.134.28-1.058-.09-2.091-.371-3.137-.557-.046.086-.064.193-.137.257-.06.053.022-.157.04-.235.08-.35.192-.69.357-1.01.56-1.244.947-2.563 1.605-3.765.126-.305.263-.604.376-.914.29-.793.483-1.62.807-2.4.532-1.435 1.137-2.844 1.576-4.313.214-.541.422-1.085.642-1.624.472-1.154.868-1.972 1.27-3.143.674-1.958.305-1.208.92-3.281.187-.629.413-1.245.62-1.867.318-.788 1.071-2.633 1.379-3.468.825-2.241 1.369-4.577 2.297-6.783.186-.58.383-1.155.556-1.738 1.803-6.093-.916 2.752 1.034-3.616.253-.826.841-2.62 1.061-3.5.124-.496.205-1 .307-1.501.085-.677.276-2.25.381-2.918.19-1.21.51-2.419.29-3.65-.026-.205-.059-.41-.078-.615-.04-.418 0-.645-.28-.985-.057-.046-.224-.193-.31-.181-.033.004.049.055.082.056 1.089.039.856.25 1.176-.092-.138.102-.294.18-.431.283-.84.637-1.505 1.465-2.256 2.197-.57.547-1.159 1.076-1.72 1.633-1.198 1.19-2.15 2.601-3.376 3.769-.594.677-.986 1.071-1.472 1.82-.22.34-.401.704-.604 1.054-.789 1.37-1.605 2.725-2.348 4.12-.477 1-1.138 2.407-1.648 3.364-.336.629-.71 1.237-1.055 1.862-.987 1.788-1.924 3.607-2.631 5.527-.33.715-.644 1.437-.989 2.145-.79 1.621-1.358 2.53-2.093 4.158-.792 1.753-.787 2.004-1.433 3.818-.244.689-.504 1.372-.757 2.057-.657 1.656-.946 2.302-1.485 3.972-.837 2.591-.276 1.21-1.155 3.784-.192.564-.418 1.115-.621 1.675-.16.44-.311.885-.467 1.327-.1.314-.21.625-.298.943-.065.237-.104.481-.159.721-.044.19-.047.397-.137.57-.026.052-.115.038-.17.024-2.776-.693-1.968-1.365-2.855-.47.028-.038.073-.062.095-.104.227-.428.226-.953.46-1.38.061-.164.468-1.247.518-1.397.482-1.435.748-2.938 1.327-4.344.32-1.057.599-2.126.936-3.178.823-2.564 2.008-4.993 2.791-7.57.5-1.763.66-2.43 1.288-4.203.258-.727.565-1.436.827-2.162.673-1.862 1.278-3.76 1.55-5.729.343-1.952.813-3.975.946-5.951.004-.068.054-3.462.054-3.498.012-.514.034-1.027.051-1.541-.018-.376-.017-.754-.053-1.129-.085-.874-.4-1.743-.83-2.505.045.026.038.01-.006.054l.885.05c.062.002-.119-.039-.18-.041-.239-.01-.39.072-.62.149-1.252.516-2.375 1.21-3.316 2.2-.795.723-1.604 1.447-2.268 2.3-.88 1.128-1.56 2.405-2.423 3.545-1.03 1.646-1.97 3.348-3.03 4.977-1.156 1.78-2.429 3.486-3.535 5.3-.745 1.258-1.23 2.108-2.034 3.34-1.284 1.97-2.727 3.853-3.717 5.998a99.855 99.855 0 01-2.922 4.918c-.352.56-.678 1.138-1.06 1.678-1.112 1.57-1.471 1.845-2.787 3.221-2.17 2.007-4.337 3.946-7.245 4.776-.245.05-.49.097-.734.15-.224.047-.442.14-.672.15-1.652.083-2.275-.024-3.476-1.029-.14-.162-.292-.314-.417-.487-.614-.853-.912-1.882-1.218-2.871-.283-1.436-.515-2.887-.54-4.354-.015-.571-.038-1.252-.022-1.821.039-1.444.298-2.871.49-4.3.045-.373.077-.748.136-1.12.293-1.867.898-3.676 1.1-5.56.608-4.355-.322 2.2.345-2.15.244-1.59.267-3.214.707-4.773.28-1.21.523-2.435.819-3.64.257-1.046.435-1.525.769-2.556l.396-1.228c.334-1.113.646-2.235 1.017-3.337.39-1.153.321-.804.637-1.886.065-.223.118-.448.177-.672.07-.262.246-.947.348-1.213.029-.075.043-.199.123-.209 2.068-.249 3.24-1.245 3.367.156.068.654.095 1.308.064 1.966-.003.28-.005.932-.03 1.207-.098 1.103-.418 2.176-.538 3.277-.07.358-.125.72-.21 1.075-.18.75-.415 1.488-.612 2.234-.392 1.49-.203.727-.563 2.295-.117.458-.254.911-.381 1.366-1.028 3.158-1.872 6.384-3.227 9.424-.488 1.194-.929 2.407-1.443 3.59-1.032 2.374-2.435 4.54-3.725 6.776-.56 1.03-1.007 1.906-1.66 2.89-1.174 1.77-2.563 3.39-3.92 5.02-.374.382-.73.784-1.124 1.148-1.68 1.55-3.657 2.822-5.847 3.5-.447.125-1.37.408-1.86.457-1.373.137-2.658.117-3.964-.332-.49-.185-.885-.311-1.34-.578-.92-.54-1.645-1.343-2.266-2.196-.143-.238-.3-.47-.43-.715-.681-1.284-1.051-2.729-1.357-4.14-.144-1.075-.224-2.14-.305-3.222-.088-1.195-.187-2.39-.078-3.59.041-.835.082-1.955.177-2.787.224-1.948.732-3.85 1.32-5.717.317-1.109.416-1.555.849-2.65.634-1.606 1.444-3.141 2.025-4.77.838-1.962.186-.513 1.16-2.469.877-1.758 1.68-3.565 2.903-5.123.561-.728 1.14-1.442 1.695-2.176.257-.341.49-.7.751-1.039.811-1.046 1.738-1.978 2.675-2.91.51-.502.99-1.034 1.512-1.524 1.122-1.054 2.45-1.843 3.77-2.619.347-.156.687-.329 1.04-.468 1.551-.613 3.193-.973 4.83-1.254 2.111-.134 4.24-.14 6.265.546 1.723.556 3.512 1.12 4.857 2.393.183.156-2.018 2.742-2.201 2.586zM304.432 30.764c-.105 1.868-.778 3.627-1.352 5.385-.468 1.436-.763 2.49-1.191 3.957-.55 2.049-.715 2.747-1.35 4.785-.237.76-.513 1.508-.747 2.27-1.125 3.658-.216.971-1.306 4.762-.225.783-.488 1.555-.732 2.333-1.115 2.68-1.57 5.534-2.112 8.364-.382 1.998-.465 2.318-.89 4.262-.504 2.227-.67 4.507-.998 6.76-.236 1.613-.536 3.007-.802 4.61-.123.742-.227 1.488-.341 2.232-.169 2.924-.86 5.772-1.234 8.668-.264 2.042-.254 2.2-.434 4.292-.084.705-.157 1.41-.252 2.114-.369 2.713-.234 1.073-.51 3.715-.193 1.839-.295 3.683-.485 5.522-.306 1.543-.409 3.113-.589 4.672-.296 2.567-.08.317-.394 2.653-.054.409-.087.82-.13 1.23-.026.412-.06.824-.077 1.237-.05 1.245.004 1.366-.067 2.606-.068 1.182-.176 2.367-.277 3.547-.026.376-.042.752-.078 1.127-.063.646-.166 1.215-.248 1.854-.102.789-.172 1.58-.277 2.368-.158 1.14-.147 2.291-.357 3.426a8.826 8.826 0 00-.124 1.46c.055 1.95-1.113 1.978-3.105 1.403-.075-.022-.45-.864-.547-1.074-.78-1.935-.862-3.805-.96-5.858-.204-4.006.672-7.936 1.367-11.854.175-.735.34-1.471.526-2.203.349-1.377.732-2.745 1.1-4.117.367-1.373.859-3.252 1.303-4.59.252-.762.554-1.508.831-2.263 1.322-2.878 2.366-5.89 3.913-8.664.97-1.739 1.494-2.373 2.635-3.95.441-.572.88-1.146 1.325-1.714.43-.55.845-1.111 1.302-1.638 1.09-1.26 1.446-1.499 2.616-2.595 1.514-1.445.753-.726 2.282-2.155a21.546 21.546 0 015.922-3.81c.414-.18.84-.331 1.26-.497.444-.117.883-.258 1.333-.35.442-.091 1.927-.26 2.379-.283 1.394-.071 2.261-.16 3.545.093.381.075.748.208 1.123.312 1.66.544 3.3 1.183 4.761 2.16.412.276 1.855 1.404 2.246 1.706 2.755 2.114 4.417 4.926 6.096 7.888.237.5.49.992.711 1.5.106.24 1.033 2.621 1.125 2.859.4 1.035.89 2.266 1.205 3.324.174.583.298 1.18.447 1.769.478 2.407.844 4.86.819 7.323-.016 1.489-.14 2.116-.332 3.554-.09.538-.173 1.077-.269 1.615-.092.52-.173 1.044-.294 1.559-.26 1.108-.462 1.557-.827 2.604-.77 2.203-.062.253-.903 2.536-.54 1.473-1.275 2.856-2.035 4.223-.427.766-1.267 2.263-1.72 2.98-.346.545-.723 1.07-1.084 1.605-1.324 1.66-2.762 3.309-4.492 4.566-.863.627-1.173.725-2.108 1.172-2.197 1.025-4.56 1.567-6.873 2.249-2.536.916-5.185 1.382-7.843 1.767a26.328 26.328 0 01-6.506-.36c-1.45-.298-2.892-.61-4.289-1.105-1.252-.417-2.252-1.256-3.323-1.987-.977-.69-1.89-1.482-2.555-2.49-.192-.293-.348-.608-.521-.911-.502-1.152-.935-2.366-1.107-3.618-.105-.764-.066-1.008-.04-1.758.094-1.078.12-2.167.331-3.232.064-.325.314-1.292.396-1.615.459-1.878 1.367-3.448 2.464-5.012 1.007-1.257 2.37-2.114 3.8-2.815.845-.3 1.668-.665 2.531-.913.325-.093.894-.203 1.223-.27.24-.112 1.814 3.279 1.574 3.39v0c-.374.09-.742.206-1.118.287-.18.038-.366.046-.547.082-.513.103-.973.339-1.45.544-.555.241-1.395.504-1.857.894-.155.132-.617.666-.73.793-.24.318-.607.783-.806 1.134-.118.21-.206.436-.311.652-.33.679-.706 1.338-.948 2.055-.184.703-.294 1.403-.436 2.115-.125.622-.29 1.235-.27 1.877.11 1.39.37 2.597.96 3.873.169.411.224.622.481.976.395.543 1.018.864 1.5 1.316a8.099 8.099 0 002.54 1.28c1.325.29 2.633.686 3.991.79 1.848.242 1.865.325 3.493.05.833-.11 1.231-.136 2.048-.348.393-.102.776-.245 1.167-.356 1.346-.38 2.718-.656 4.066-1.03a49.29 49.29 0 013.824-.947c.665-.133 1.342-.207 2-.369.229-.056.45-.142.674-.214 1.113-.655 2.136-1.49 2.944-2.505.296-.372.546-.777.826-1.16.333-.456.676-.904 1.013-1.356.659-.828 1.462-1.804 2.06-2.683 1.092-1.606 1.84-3.414 2.87-5.056.358-.755.658-1.308.89-2.108.1-.352.157-.715.229-1.074.264-1.321.542-2.647.643-3.993.02-1.425.02-1.788.068-3.25.019-.579.063-1.158.067-1.737.01-1.558-.182-3.078-.668-4.564-.412-1.568-.732-3.173-1.258-4.709-.387-1.131-.578-1.463-1.104-2.533-.214-.437-.432-.87-.648-1.306-.545-1.024-.78-1.542-1.434-2.49-.425-.617-1.304-1.69-1.773-2.263-.302-.369-.59-.75-.913-1.1-.29-.317-.614-.6-.92-.9-.319-.258-.627-.528-.955-.773-.58-.431-1.308-.87-1.927-1.238-.813-.485-1.627-.953-2.568-1.138-.274-.026-.547-.059-.821-.079-.315-.023-.633-.006-.946-.05-.033-.006.105-.074.07-.076-.964-.042-1.875.27-2.818.41-.756.207-1.23.299-1.934.637-1.45.697-2.573 1.914-3.855 2.855-.349.326-.708.643-1.047.98-.933.926-1.15 1.222-1.994 2.24-1.185 1.428-2.39 2.846-3.405 4.403-.786 1.348-1.401 2.407-2.203 3.759-.4.674-.827 1.331-1.206 2.016a32.364 32.364 0 00-2.556 5.938c-.255.728-.502 1.46-.766 2.184-.674 1.848-.96 2.393-1.525 4.243-.583 1.909-.527 2.04-.954 4.002-.154.707-.322 1.412-.484 2.118-.31 1.243-.731 2.88-.993 4.147-.258 1.252-.436 2.519-.688 3.772-.112.556-.262 1.104-.37 1.66-.087.452-.143.909-.214 1.363-.027.373-.075.745-.081 1.118-.005.345.034.69.046 1.035.035.96.025 1.921.005 2.882.002.08.076.274.004.238-1.45-.72 3.752-2.029-2.704-.377-.646.165-.265.66-.369.983-.017.054-.011-.112-.017-.167-.083-.633-.148-1.266-.134-1.907-.028-1.153.162-2.297.095-3.452.025-.775.114-1.547.132-2.323.024-.998-.047-2.002.101-2.996.111-2.505-.057-5.02.309-7.514.036-.406.085-.81.109-1.218.199-3.377-.153.99.123-2.663.06-.798.214-2.252.256-3.057.028-.532.029-1.065.043-1.598.038-.614.06-1.229.113-1.842.408-4.721.027.88.372-3.714.316-4.218-.085.622.182-3.785.045-.737.121-1.472.182-2.207.323-2.103.707-4.216.916-6.335.067-.68.076-1.365.137-2.045.2-2.22.278-2.465.631-4.69.411-2.988.228-1.475.547-4.54.407-3.092 1.26-6.095 1.729-9.177.265-1.978.292-2.458.72-4.451.626-2.922 1.518-5.784 2.085-8.72 1.146-4.262.076-.407 1.385-4.765.964-3.207 1.63-6.513 3.013-9.584.04-.099 1.544-3.699 1.642-3.93.728-1.731 1.439-3.502 2.677-4.944.074-.236 3.415.802 3.341 1.038zM347.644 38.123c.042.25.1.497.126.749.11 1.041.072 1.422.03 2.52-.034.912-.131 2.999-.209 3.846-.066.73-.172 1.457-.259 2.185a78.807 78.807 0 00-.821 6.38c-.07.794-.102 1.592-.169 2.387-.143 1.697-.285 2.823-.479 4.503-.269 3.385.064 6.754-.145 10.145-.109 1.775-.32 3.543-.478 5.314-.133 2.415-.12 2.855-.4 5.234-.308 2.624-.36 1.951-.525 4.53-.099 1.542-.09 3.154-.104 4.697-.035.788-.061 1.577-.106 2.365-.15 2.645-.18 1.587-.188 4.194-.01 2.96.05 1.24.095 4.266.01.7-.004 1.4-.007 2.101-.15 1.821-.067 3.648-.08 5.471-.018 2.858-.048.554-.129 3.232-.014.468-.002.936-.003 1.404.013.466.021.93.037 1.396.045 1.31.088 1.484.068 2.775-.016 1.04-.088 2.078-.103 3.119.054.719-.09 1.43-.114 2.145.004.486.009.248-.012.713-.04.292-.036.586-.031.88-.011.246-3.479.092-3.468-.153v0c.03-.247.072-.495.053-.744-.052-.911-.464-1.753-.497-2.673-.26-2.452-.462-4.907-.514-7.374-.07-1.561-.174-3.122-.203-4.685-.033-1.813-.005-3.628-.223-5.433-.026-.704-.066-1.408-.077-2.112-.023-1.447.013-2.894.001-4.341-.019-2.338-.021-1.95-.102-4.317-.008-.806.023-1.613.035-2.42.17-2.366.358-4.735.467-7.105.12-2.612.015-2.118.208-4.844.064-.899.16-1.795.24-2.692.055-.851.126-1.701.168-2.553.172-3.48-.024-1.817.248-5.409.406-5.374.117-.212.453-5.2.051-.757.08-1.516.121-2.274.068-1.64.098-3.023.284-4.662.092-.818.24-1.628.36-2.442.317-2.151.666-4.3.877-6.464.125-.718.234-1.438.376-2.152.334-1.678.492-2.087.85-3.676.224-.995.278-1.569.605-2.516.086-.249.217-.48.325-.72.029-.241 3.448.168 3.419.41zM357.971 102.228c-.105-.074-.419-.146-.315-.221.314-.224.738-.226 1.106-.343.536-.172 1.069-.35 1.604-.523 2.525-.813 5.033-1.67 7.559-2.482 2.401-.623 4.687-1.556 6.93-2.6.578-.27 2.516-1.181 3.155-1.575.388-.239.737-.537 1.106-.806.343-.309.7-.603 1.03-.926.329-.322.63-.672.946-1.007.478-.506 1.166-1.206 1.633-1.743.557-.643.695-.855 1.182-1.516.41-.79 1.17-1.54 1.201-2.475-.005.033-.014.131-.06.144-.257.069-1.327-.428-1.584-.525-.864-.396-1.79-.414-2.718-.475-.402-.026-.804-.061-1.206-.083-1.226-.065-.882-.283-1.322.05-1.788.284-3.618.49-5.292 1.222-1.166.51-1.845.954-2.96 1.606-.527.32-1.057.636-1.58.961-1.274.792-1.845 1.123-2.994 2.093-1.62 1.368-3.08 2.945-4.587 4.432-1.491 1.277-2.648 2.841-3.787 4.421-.3.417-1.787 2.485-2.092 2.97-.312.5-.579 1.024-.868 1.536-.268.548-.558 1.086-.803 1.644-.536 1.222-.98 2.482-1.486 3.717-.577 1.407-.83 1.85-1.218 3.311-.145.549-.234 1.11-.35 1.666-.28 2.15-.188 1.33-.403 3.442-.11 1.087-.223 1.646-.109 2.717.068.638.34 1.653.497 2.284.268.837.29 1.07.734 1.826.805 1.371 2.001 2.571 3.142 3.664 1.147 1.028 2.39 1.583 3.78 2.193.542.238 2.485 1.095 3.068 1.29.517.171 1.053.277 1.58.416 2.35.316 4.693.856 7.08.775.225-.008.441-.101.666-.128.706-.085 1.416-.138 2.124-.206.732-.06 1.464-.118 2.196-.182 1.666-.145 2.347-.174 3.982-.515 1.637-.342 2.55-.672 4.17-1.144.698-.202 1.398-.396 2.097-.594 2.466-.53 4.78-1.533 7.138-2.39 2.152-.783.7-.185 2.733-1.076 1.687-.845.84-.424 2.538-1.264.258-.194 3.01 3.45 2.752 3.645v0c-1.726.902-.849.453-2.632 1.346-.436.217-.878.424-1.308.652-1.56.83-1.239.791-2.976 1.57-1.846.827-3.784 1.437-5.653 2.21-.734.248-1.458.527-2.202.744-1.102.321-3.46.837-4.605 1.08-.824.173-3.484.712-4.311.825-.768.106-1.543.149-2.314.223-.8.025-1.6.076-2.4.074-2.389-.004-3.28-.057-5.41-.234-1.559-.129-2.452-.183-3.991-.53-.683-.154-1.349-.374-2.023-.561-1.216-.408-2.433-.785-3.609-1.3-2.274-.999-4.234-2.41-6.025-4.118-.92-.922-1.346-1.27-2.103-2.34-1.065-1.506-1.8-3.234-2.54-4.91-.153-.478-.34-.946-.458-1.432-.224-.915-.386-2.292-.46-3.23-.154-1.922-.071-3.833.36-5.72.526-2.316.323-1.57.96-3.808.181-.635.339-1.278.553-1.903.7-2.038 1.704-3.94 2.74-5.822.319-.553.64-1.105.955-1.66.312-.552.598-1.119.925-1.661 1.468-2.434 3.33-4.594 5.107-6.8.55-.563 1.078-1.149 1.65-1.69.884-.833 2.583-2.227 3.549-2.99.89-.704 2.359-1.822 3.318-2.446.6-.39 1.227-.734 1.84-1.101 3.213-1.464 6.517-2.93 10.085-3.171 1.418.01 2.742-.05 4.135.136 1.648.22 3.184.786 4.62 1.618 1.465.836 2.483 1.557 2.926 3.277.022.214.063.428.067.643.024 1.418-.495 2.766-1.182 3.98-.577.99-1.167 1.994-1.832 2.927-.906 1.272-2 2.38-3.132 3.449-.637.607-1.94 1.876-2.61 2.403-2.708 2.13-5.935 3.48-9.08 4.81-1.007.314-1.997.687-3.02.941-2.453.61-5.208.954-7.747.877-1.007-.03-1.995-.32-3.008-.288-.233-.06.613-3.356.846-3.296z" stroke-width=".034"/></g></svg>