<svg xmlns="http://www.w3.org/2000/svg" width="160cm" height="90cm" viewBox="0 0 160 90"><path fill="#acf" fill-rule="evenodd" stroke-width=".266" stroke-linecap="round" paint-order="fill markers stroke" d="M0-.008h160v90.009H0z"/><path d="M9.044 68.215v0l-.5.435M8.544 68.65v23.653h93.395v-21.55h-.03" fill="none" stroke="#000" stroke-width=".091"/><path d="M64.968 70.112a86.28 86.28 0 017.13-2.588 86.655 86.655 0 0140.154-2.767M102.408 62.491l-.469 8.262" fill="none" stroke="#000" stroke-width=".091"/><path d="M114.63 75.128c-15.534-.234-31.235-1.587-47.485-4.093-3.423-.528-11.737-1.953-11.739-2.012 0-.017 1.106-.26 2.458-.54 18-3.735 36.969-6.027 56.29-6.802 6.205-.249 10.269-.315 17.187-.278 7.964.043 13.376.218 20.834.677 3.344.206 8.934.634 9.03.691.018.012-.194 2.11-.474 4.664-.28 2.553-.51 4.726-.513 4.829l-.004.187-2.67.33a311.055 311.055 0 01-42.912 2.347z" fill="#d7eef4" stroke-width=".117"/><path d="M26.689 14.628l-1.902.953v.883l1.277.072-.055.76-1.028.024-.764.501.764.514.944.013v.391l-.68.025.028.674.638.024.014.464-1.416-.586-.138 1.334-.444-.184.29-.514-.624-.343-.39.538-.416-.232.458-.722-.041-.87-.943.331-.486.747-.806-.33.556-.93-.89-.466-1.86.942-.027 1.923.875.428.68-.894.778.38-.543.796.097.82.945-.319.473-.783.471.22-.375.563.695.355.332-.563.5.257-1.333.856 1.333.857-.5.258-.332-.564-.695.356.375.575-.471.208-.473-.783-.945-.319-.097.82.543.796-.778.38-.68-.894-.875.44.028 1.91 1.86.943.889-.454-.556-.942.806-.33.486.747.943.33.041-.868-.458-.723.417-.233.389.539.624-.343-.29-.514.444-.184.138 1.334 1.416-.588-.014.478-.638.013-.027.685.68.012v.392l-.945.011-.764.515.764.501 1.028.026.055.758-1.277.086v.868l1.902.956 1.902-.956v-.868l-1.277-.086.055-.758 1.028-.026.763-.5-.763-.516-.959-.011v-.392l.681-.012-.014-.685-.638-.013-.029-.478 1.418.588.151-1.334.444.184-.29.514.624.343.375-.54.43.234-.458.723.028.868.957-.33.486-.747.806.33-.556.942.89.454 1.86-.944.027-1.908-.875-.441-.68.893-.778-.38.528-.795-.082-.82-.945.319-.473.783-.486-.208.39-.575-.695-.356-.332.564-.5-.258 1.333-.857-1.334-.857.5-.256.333.562.694-.354-.389-.564.486-.219.473.783.945.319.082-.82-.528-.797.778-.379.68.894.875-.428-.028-1.923-1.86-.942-.889.465.556.931-.806.33-.486-.747-.957-.33-.028.87.459.721-.431.232-.375-.538-.624.343.29.514-.444.183-.151-1.333-1.418.586.03-.464.637-.024.014-.675-.681-.024v-.391l.959-.013.763-.514-.763-.501-1.028-.024-.055-.76 1.277-.073v-.882zM38.947 32.301l-.746.378v.35l.501.028-.021.301-.404.01-.3.199.3.203.37.005v.155l-.266.01.011.267.25.01.006.183-.555-.232-.055.528-.174-.072.114-.204-.245-.136-.152.213-.164-.092.18-.285-.016-.345-.37.13-.19.297-.317-.13.218-.37-.349-.184-.73.373-.01.762.343.17.266-.354.306.15-.213.315.038.325.37-.126.186-.31.185.087-.147.223.272.14.13-.222.197.101-.523.34.523.339-.196.102-.13-.223-.273.14.147.228-.185.083-.186-.31-.37-.127-.038.325.213.315-.306.15-.266-.353-.343.175.01.756.73.374.349-.18-.218-.374.316-.13.19.296.37.13.017-.344-.18-.286.164-.092.152.213.245-.136-.114-.203.174-.073.055.528.555-.232-.006.189-.25.005-.01.271.266.005v.155l-.37.005-.3.204.3.198.403.01.021.301-.5.034v.344l.745.379.746-.38v-.343l-.5-.034.02-.3.404-.01.3-.2-.3-.203-.376-.005v-.155l.267-.005-.006-.271-.25-.005-.011-.19.556.233.06-.528.173.073-.114.203.245.136.147-.213.17.092-.18.286.01.344.376-.13.19-.296.317.13-.218.374.349.18.73-.374.01-.756-.343-.175-.266.354-.306-.15.207-.316-.032-.325-.37.127-.186.31-.19-.083.152-.227-.272-.141-.13.223-.197-.102.523-.34-.523-.339.196-.101.13.222.273-.14-.152-.223.19-.087.186.31.37.126.032-.325-.207-.315.306-.15.266.354.343-.17-.01-.762-.73-.373-.35.184.219.37-.316.13-.19-.296-.376-.13-.011.344.18.285-.17.092-.147-.213-.245.136.114.204-.174.072-.06-.528-.555.232.01-.183.251-.01.006-.267-.267-.01v-.155l.376-.005.3-.203-.3-.199-.403-.01-.022-.3.501-.03v-.349zM49.371 29.315l-.746.378v.35l.501.028-.021.301-.403.01-.3.198.3.204.37.005v.155l-.267.01.011.267.25.01.007.183-.556-.232-.054.528-.174-.073.114-.203-.245-.136-.153.213-.163-.092.18-.286-.017-.344-.37.13-.19.297-.317-.131.218-.369-.349-.184-.73.373-.01.762.343.17.267-.355.305.15-.213.316.038.325.37-.126.186-.31.185.086-.147.224.273.14.13-.223.196.102-.523.34.523.339-.196.102-.13-.224-.273.141.147.228-.185.082-.185-.31-.37-.126-.039.325.213.315-.305.15-.267-.353-.343.174.01.757.73.373.35-.18-.219-.373.316-.13.191.295.37.131.016-.344-.18-.286.164-.093.153.214.245-.136-.114-.203.174-.073.054.528.556-.233-.006.19-.25.005-.012.271.267.005v.155l-.37.005-.3.204.3.198.403.01.021.3-.5.035v.344l.745.379.747-.38v-.343l-.501-.034.021-.3.403-.01.3-.2-.3-.203-.376-.005v-.155l.267-.005-.006-.271-.25-.005-.011-.19.556.233.06-.528.174.073-.114.203.245.136.147-.214.169.093-.18.286.011.344.376-.13.19-.297.316.131-.218.374.35.18.729-.374.01-.757-.342-.174-.267.354-.305-.15.207-.316-.033-.325-.37.126-.186.31-.19-.082.152-.228-.272-.14-.13.223-.197-.102.523-.34-.523-.34.197-.1.13.222.272-.14-.152-.224.19-.086.186.31.37.126.033-.325-.207-.316.305-.15.267.355.343-.17-.011-.762-.73-.373-.349.184.218.369-.316.13-.19-.295-.376-.131-.011.344.18.286-.17.092-.146-.213-.245.136.114.204-.174.072-.06-.528-.556.232.011-.184.25-.01.006-.266-.267-.01v-.155l.376-.005.3-.204-.3-.198-.403-.01-.021-.3.5-.03v-.35zM13.232 4.894l-.746.378v.35l.5.028-.02.3-.404.01-.3.2.3.203.37.005v.155l-.266.01.01.266.25.01.007.184-.556-.232-.054.528-.175-.073.115-.203-.246-.136-.152.213-.164-.092.18-.286-.016-.344-.37.13-.19.296-.317-.13.218-.37-.349-.184-.73.374-.01.761.343.17.267-.354.305.15-.213.316.038.325.37-.127.186-.31.185.087-.147.223.272.14.13-.222.197.102-.523.339.523.34-.196.101-.13-.223-.273.141.147.228-.185.082-.185-.31-.37-.126-.039.325.213.315-.305.15-.267-.354-.343.175.01.756.73.374.35-.18-.219-.373.316-.13.19.295.37.131.017-.344-.18-.286.164-.093.152.214.246-.136-.115-.204.175-.072.054.528.556-.233-.006.19-.25.004-.011.272.266.005V9.8l-.37.004-.3.204.3.199.403.01.022.3-.501.034v.344l.746.38.746-.38v-.344l-.501-.033.021-.301.404-.01.3-.199-.3-.204-.377-.004v-.155l.268-.005-.006-.272-.25-.004-.011-.19.556.233.06-.528.173.072-.114.204.245.136.147-.214.17.093-.18.286.01.344.376-.13.19-.297.317.131-.218.373.349.18.73-.374.01-.756-.343-.175-.267.354-.305-.15.207-.315-.032-.325-.37.126-.186.31-.19-.082.152-.228-.272-.14-.13.223-.197-.102.523-.34-.523-.34.196-.1.13.222.273-.14-.153-.224.191-.087.185.31.371.127.032-.325-.207-.316.305-.15.267.354.343-.17-.01-.761-.73-.374-.35.185.219.369-.316.13-.19-.296-.376-.13-.011.344.18.286-.17.092-.147-.213-.245.136.114.203-.174.073-.06-.528-.555.232.01-.184.251-.01.006-.267-.268-.01v-.154l.377-.005.3-.204-.3-.198-.404-.01-.021-.301.5-.029v-.35zM5.848 28.85l-.746.378v.35l.5.029-.02.3-.404.01-.3.199.3.203.37.005v.155l-.266.01.01.267.25.01.007.184-.556-.233-.054.529-.174-.073.114-.204-.245-.135-.153.213-.163-.092.18-.286-.017-.345-.37.131-.19.296-.317-.13.218-.37-.349-.184-.73.374-.01.761.343.17.267-.354.305.15-.213.316.038.324.37-.126.186-.31.185.087-.147.223.272.14.131-.222.196.101-.523.34.523.34-.196.101-.13-.223-.273.14.147.229-.185.082-.185-.31-.37-.126-.039.324.213.316-.305.15-.267-.354-.343.175.01.756.73.374.35-.18-.219-.373.316-.131.191.296.37.13.016-.343-.18-.287.164-.092.153.214.245-.136-.114-.204.174-.073.054.529.556-.233-.006.19-.25.004-.011.271.266.005v.155l-.37.005-.3.204.3.199.403.01.022.3-.501.034v.344l.746.379.746-.379v-.344l-.501-.034.021-.3.404-.01.3-.199-.3-.204-.376-.005v-.155l.267-.004-.006-.272-.25-.005-.011-.189.556.233.06-.529.173.073-.114.204.245.136.147-.214.17.092-.18.287.01.344.376-.131.19-.296.317.13-.218.374.349.18.73-.374.01-.756-.343-.175-.267.354-.305-.15.207-.315-.032-.325-.37.126-.186.31-.19-.082.152-.228-.272-.14-.13.222-.197-.102.523-.34-.523-.339.196-.101.13.223.273-.14-.153-.224.191-.087.186.31.37.127.032-.325-.207-.316.305-.15.267.354.343-.17-.01-.761-.73-.374-.35.185.219.368-.316.131-.19-.296-.376-.13-.011.344.18.286-.17.092-.147-.213-.245.136.114.203-.174.073-.06-.529-.555.233.01-.184.251-.01.006-.267-.267-.01v-.155l.376-.004.3-.204-.3-.199-.404-.01-.021-.3.5-.029v-.35zM46.355 5.992l-.746.378v.35l.501.028-.021.301-.404.01-.3.198.3.204.37.005v.155l-.266.01.011.267.25.01.006.183-.555-.232-.054.528-.175-.072.114-.204-.245-.136-.152.213-.164-.092.18-.286-.016-.344-.37.13-.19.297-.317-.131.218-.369-.349-.184-.73.373-.01.762.343.17.267-.355.305.15-.213.316.038.325.37-.126.186-.31.185.086-.147.224.272.14.13-.223.197.102-.523.34.523.339-.196.102-.13-.223-.273.14.147.228-.185.083-.186-.31-.37-.127-.038.325.213.315-.305.15-.267-.353-.343.174.01.757.73.373.35-.18-.219-.373.316-.13.19.295.37.131.017-.344-.18-.286.164-.093.152.214.245-.136-.114-.203.175-.073.054.528.555-.233-.006.19-.25.005-.01.271.266.005v.155l-.37.005-.3.204.3.198.403.01.021.301-.5.034v.344l.745.379.746-.38v-.343l-.5-.034.02-.3.404-.01.3-.2-.3-.203-.376-.005v-.155l.267-.005-.006-.271-.25-.005-.011-.19.556.233.06-.528.174.073-.114.203.245.136.147-.213.169.092-.18.286.01.344.376-.13.19-.296.317.13-.218.374.349.18.73-.374.01-.756-.343-.175-.266.354-.306-.15.207-.316-.032-.325-.37.127-.186.31-.19-.083.152-.227-.272-.141-.13.223-.197-.102.523-.34-.523-.339.196-.102.13.223.273-.14-.152-.223.19-.087.186.31.37.126.032-.325-.207-.315.306-.15.266.354.343-.17-.01-.762-.73-.373-.349.184.218.369-.316.13-.19-.295-.376-.131-.011.345.18.285-.17.092-.146-.213-.245.136.114.204-.175.072-.06-.528-.555.232.011-.183.25-.01.006-.267-.267-.01v-.155l.376-.005.3-.204-.3-.198-.403-.01-.022-.3.501-.03V6.37zM29.392 35.264l-.746.377v.35l.5.029-.02.3-.404.01-.3.199.3.203.37.005v.155l-.266.01.01.267.25.01.007.184-.556-.233-.054.529-.174-.073.114-.204-.245-.135-.153.213-.163-.092.18-.286-.017-.345-.37.131-.19.296-.316-.13.218-.37-.35-.184-.729.374-.01.761.342.17.267-.354.305.15-.213.316.038.324.37-.126.186-.31.185.087-.147.223.273.14.13-.222.197.101-.524.34.524.34-.197.101-.13-.223-.273.141.147.228-.185.082-.185-.31-.37-.126-.039.324.213.316-.305.15-.267-.354-.343.175.011.756.73.374.349-.18-.218-.373.316-.131.19.296.37.13.017-.343-.18-.287.163-.092.153.214.245-.136-.114-.204.174-.073.054.529.556-.233-.006.19-.25.004-.011.271.266.005v.155l-.37.005-.3.204.3.199.403.01.022.3-.501.034v.344l.746.38.746-.38v-.344l-.501-.034.021-.3.404-.01.3-.199-.3-.204-.377-.005v-.155l.268-.005-.006-.27-.25-.006-.012-.19.556.234.06-.529.174.073-.114.204.245.136.147-.214.169.092-.18.287.011.344.376-.131.19-.296.316.13-.218.374.35.18.729-.374.011-.756-.343-.175-.267.354-.305-.15.207-.316-.032-.324-.37.126-.186.31-.19-.082.152-.228-.273-.141-.13.223-.196-.102.523-.34-.523-.339.196-.101.13.223.273-.14-.153-.224.19-.087.186.31.37.126.033-.324-.207-.316.305-.15.267.354.343-.17-.011-.761-.73-.374-.349.185.218.368-.316.131-.19-.296-.376-.13-.01.344.179.286-.169.092-.147-.213-.245.135.114.204-.174.073-.06-.529-.556.233.011-.184.25-.01.007-.267-.268-.01v-.155l.377-.005.3-.203-.3-.199-.404-.01-.021-.3.5-.029v-.35zM12.145 40.786l-.746.378v.35l.501.028-.021.301-.404.01-.3.199.3.203.37.005v.155l-.266.01.011.267.25.01.006.183-.556-.232-.054.528-.174-.072.114-.204-.245-.136-.153.213-.163-.092.18-.285-.017-.345-.37.13-.19.297-.316-.13.217-.37-.348-.184-.73.373-.01.762.342.17.267-.354.305.15-.213.315.038.325.37-.126.186-.31.185.087-.147.223.273.14.13-.222.197.101-.524.34.524.339-.197.102-.13-.223-.273.14.147.228-.185.083-.185-.31-.37-.127-.039.325.213.315-.305.15-.267-.353-.343.175.011.756.73.374.348-.18-.217-.374.316-.13.19.296.37.13.017-.343-.18-.287.163-.092.153.213.245-.136-.114-.203.174-.073.054.528.556-.232-.006.189-.25.005-.011.271.267.005v.155l-.37.005-.3.204.3.198.403.01.02.301-.5.034v.344l.746.379.746-.38v-.343l-.5-.034.02-.3.404-.01.3-.199-.3-.204-.376-.005v-.155l.267-.005-.006-.271-.25-.005-.011-.19.556.234.06-.529.174.073-.114.203.245.136.147-.213.169.092-.18.287.01.344.376-.131.191-.296.316.13-.218.374.349.18.73-.374.01-.756-.343-.175-.266.354-.306-.15.208-.316-.033-.325-.37.127-.186.31-.19-.082.152-.228-.272-.141-.13.223-.197-.102.523-.34-.523-.339.196-.101.131.222.272-.14-.152-.223.19-.087.186.31.37.126.033-.325-.208-.315.306-.15.266.354.344-.17-.011-.762-.73-.373-.349.184.218.37-.316.13-.19-.296-.376-.13-.011.344.18.286-.17.092-.146-.214-.245.136.114.204-.175.073-.06-.529-.555.233.011-.184.25-.01.006-.267-.267-.01v-.155l.376-.005.3-.203-.3-.199-.403-.01-.022-.3.501-.03v-.349zM83.868 15.738l-.746.378v.35l.501.029-.021.3-.404.01-.3.199.3.203.37.005v.155l-.266.01.011.267.25.01.006.184-.555-.233-.055.529-.174-.073.114-.204-.245-.136-.152.214-.164-.092.18-.286-.016-.345-.37.131-.19.296-.317-.13.218-.37-.349-.184-.73.373-.01.762.343.17.266-.354.306.15-.213.316.038.324.37-.126.186-.31.185.087-.147.223.272.14.13-.222.197.101-.523.34.523.34-.196.101-.13-.223-.273.14.147.229-.185.082-.186-.31-.37-.126-.038.324.213.316-.306.15-.266-.354-.343.175.01.756.73.374.349-.18-.218-.373.316-.131.19.296.37.13.017-.343-.18-.287.164-.092.152.214L82.9 20l-.114-.204.174-.073.055.529.555-.233-.006.19-.25.004-.01.271.266.005v.155l-.37.005-.3.204.3.199.403.01.021.3-.5.034v.344l.745.379.746-.379v-.344l-.5-.034.02-.3.404-.01.3-.199-.3-.204-.376-.005v-.155l.267-.005-.006-.27-.25-.006-.011-.19.556.234.06-.529.173.073-.114.204.246.136.146-.214.17.092-.18.287.01.344.376-.131.19-.296.317.13-.218.374.349.18.73-.374.01-.756-.343-.175-.266.354-.306-.15.207-.316-.032-.324-.37.126-.186.31-.19-.082.152-.228-.272-.141-.13.223-.197-.102.523-.34-.523-.339.196-.101.13.223.273-.14-.152-.224.19-.087.186.31.37.126.032-.324-.207-.316.306-.15.266.354.343-.17-.01-.761-.73-.374-.349.185.218.368-.316.131-.19-.296-.376-.13-.011.344.18.286-.17.092-.146-.213-.246.135.114.204-.174.073-.06-.529-.555.233.01-.184.251-.01.006-.267-.267-.01v-.155l.376-.005.3-.203-.3-.199-.403-.01-.022-.3.501-.03v-.349zM26.658 47.686l-.746.378v.35l.501.028-.021.302-.403.01-.3.198.3.203.37.005v.155l-.267.01.011.267.25.01.006.184-.555-.233-.055.529-.174-.073.114-.204-.245-.136-.152.213-.164-.091.18-.286-.017-.345-.37.131-.19.296-.316-.13.218-.37-.349-.184-.73.373-.01.762.343.17.266-.354.306.15-.213.315.038.325.37-.126.186-.31.185.087-.147.223.272.14.13-.222.197.101-.523.34.523.34-.196.101-.13-.223-.273.14.147.229-.185.082-.186-.31-.37-.126-.038.324.213.316-.306.15-.266-.354-.344.175.011.756.73.374.349-.18-.218-.373.316-.131.19.296.37.13.017-.343-.18-.287.164-.092.152.213.245-.135-.114-.204.174-.073.055.529.555-.233-.006.19-.25.004-.01.271.266.005v.155l-.37.005-.3.204.3.199.403.01.021.3-.5.034v.344l.745.379.746-.379v-.344l-.5-.034.02-.3.404-.01.3-.199-.3-.204-.376-.005v-.155l.267-.005-.006-.27-.25-.006-.01-.19.556.234.06-.529.173.073-.114.204.245.136.147-.214.17.092-.18.287.01.344.376-.131.19-.296.316.13-.218.374.35.18.729-.374.01-.756-.343-.175-.267.354-.305-.15.207-.316-.032-.324-.37.126-.186.31-.19-.082.152-.228-.272-.141-.13.223-.197-.102.523-.34-.523-.339.196-.101.13.223.273-.14-.153-.224.19-.087.186.31.37.126.033-.324-.207-.316.305-.15.267.354.343-.17-.01-.762-.73-.373-.349.185.218.368-.316.131-.19-.296-.376-.13-.01.344.18.286-.17.092-.147-.214-.245.136.114.204-.174.073-.06-.529-.555.233.01-.184.25-.01.006-.267-.267-.01v-.155l.376-.005.3-.203-.3-.199-.403-.01-.022-.3.501-.03v-.349z" font-weight="400" fill="#d7eef4" stroke="#1e1916" stroke-width="0" stroke-linecap="round" stroke-linejoin="round" stroke-miterlimit="10.433"/><path d="M50.041 24l-.746.378v.35l.501.028-.021.301-.403.01-.3.198.3.204.37.005v.155l-.267.01.011.267.25.01.007.183-.556-.232-.054.528-.174-.073.114-.203-.245-.136-.153.213-.163-.092.18-.286-.017-.344-.37.13-.19.296-.317-.13.218-.37-.349-.183-.73.373-.01.762.343.17.267-.355.305.15-.213.316.038.325.37-.127.186-.31.185.087-.147.223.272.14.131-.222.196.102-.523.34.523.339-.196.102-.13-.224-.273.141.147.228-.185.082-.185-.31-.37-.126-.039.325.213.315-.305.15-.267-.354-.343.175.01.756.73.374.35-.18-.219-.373.316-.13.191.295.37.131.016-.344-.18-.286.164-.093.153.214.245-.136-.114-.204.174-.072.054.528.556-.233-.006.19-.25.005-.012.27.267.006v.155l-.37.004-.3.205.3.198.403.01.021.3-.5.034v.344l.745.38.746-.38v-.344l-.5-.033.021-.3.403-.011.3-.199-.3-.204-.376-.004v-.155l.267-.005-.006-.272-.25-.004-.011-.19.556.233.06-.528.174.072-.114.204.245.136.147-.214.169.093-.18.286.011.344.376-.13.19-.297.316.131-.218.373.35.18.729-.374.01-.756-.343-.175-.266.354-.305-.15.207-.315-.033-.325-.37.126-.186.31-.19-.082.152-.228-.272-.14-.13.222-.197-.102.523-.339-.523-.34.197-.101.13.223.272-.14-.152-.224.19-.087.186.31.37.127.033-.325-.207-.316.305-.15.266.354.344-.17-.011-.761-.73-.374-.349.185.218.369-.316.13-.19-.296-.376-.13-.011.344.18.286-.17.092-.146-.213-.245.136.114.203-.174.073-.06-.528-.556.232.011-.184.25-.01.006-.267-.267-.01v-.154l.376-.005.3-.204-.3-.198-.403-.01-.021-.301.5-.029v-.35zM19.791 32.394l-.746.378v.35l.501.028-.021.301-.404.01-.3.198.3.204.37.005v.155l-.266.01.011.267.25.01.006.183-.555-.232-.055.528-.174-.073.114-.203-.245-.136-.153.213-.163-.092.18-.286-.017-.344-.37.13-.19.297-.316-.131.218-.369-.35-.184-.729.373-.01.762.342.17.267-.355.305.15-.213.316.038.325.37-.126.186-.31.185.086-.147.224.273.14.13-.223.197.102-.524.34.524.339-.197.102-.13-.224-.273.141.147.228-.185.083-.185-.31-.37-.127-.039.325.213.315-.305.15-.267-.353-.343.174.011.757.73.373.349-.18-.218-.373.316-.13.19.295.37.131.017-.344-.18-.286.163-.093.153.214.245-.136-.114-.203.174-.073.055.528.555-.233-.006.19-.25.005-.01.27.266.006v.155l-.37.005-.3.204.3.198.403.01.021.3-.5.035v.344l.745.379.746-.38v-.343l-.5-.034.02-.3.404-.01.3-.2-.3-.203-.376-.005v-.155l.267-.005-.006-.271-.25-.005-.011-.19.556.233.06-.528.174.073-.114.203.245.136.147-.214.169.093-.18.286.01.344.376-.13.191-.297.316.131-.218.373.35.18.729-.373.01-.757-.343-.174-.266.354-.305-.15.207-.316-.033-.325-.37.126-.186.31-.19-.082.152-.228-.272-.14-.13.223-.197-.102.523-.34-.523-.34.197-.1.13.222.272-.14-.152-.224.19-.087.186.31.37.127.033-.325-.207-.316.305-.15.266.354.344-.17-.011-.761-.73-.373-.349.184.218.369-.316.13-.19-.295-.376-.131-.011.344.18.286-.17.092-.146-.213-.245.136.114.203-.174.073-.06-.528-.556.232.011-.184.25-.01.006-.266-.267-.01v-.155l.376-.005.3-.204-.3-.198-.403-.01-.022-.3.501-.03v-.35zM63.188 6.988l-.746.378v.35l.501.028-.021.301-.404.01-.3.198.3.204.37.005v.155l-.266.01.011.267.25.01.006.183-.555-.232-.055.528-.174-.072.114-.204-.245-.136-.152.213-.164-.092.18-.286-.016-.344-.37.13-.19.297-.317-.131.218-.369-.349-.184-.73.373-.01.762.343.17.266-.355.306.15-.213.316.038.325.37-.126.186-.31.185.086-.147.224.272.14.13-.223.197.102-.523.34.523.339-.196.102-.13-.223-.273.14.147.228-.185.083-.186-.31-.37-.127-.038.325.213.315-.306.15-.266-.353-.343.174.01.757.73.373.349-.18-.218-.373.316-.13.19.295.37.131.017-.344-.18-.286.164-.093.152.214.245-.136-.114-.203.174-.073.055.528.555-.233-.006.19-.25.005-.01.271.266.005v.155l-.37.005-.3.204.3.198.403.01.021.3-.5.035v.344l.745.379.746-.38v-.343l-.5-.034.02-.3.404-.01.3-.2-.3-.203-.376-.005v-.155l.267-.005-.006-.271-.25-.005-.011-.19.556.233.06-.528.173.073-.114.203.245.136.147-.213.17.092-.18.286.01.344.376-.13.19-.297.317.131-.218.374.349.18.73-.374.01-.757-.343-.174-.266.354-.306-.15.207-.316-.032-.325-.37.127-.186.31-.19-.083.152-.227-.272-.141-.13.223-.197-.102.523-.34-.523-.339.196-.102.13.223.273-.14-.152-.223.19-.087.186.31.37.126.032-.325-.207-.315.306-.15.266.354.343-.17-.01-.762-.73-.373-.35.184.219.369-.316.13-.19-.295-.376-.131-.011.344.18.286-.17.092-.147-.213-.245.136.114.204-.174.072-.06-.528-.555.232.01-.184.251-.01.006-.266-.267-.01v-.155l.376-.005.3-.203-.3-.199-.403-.01-.022-.3.501-.03v-.349zM95.09 5.746l-.746.378v.35l.501.028-.021.301-.403.01-.3.198.3.204.37.005v.155l-.267.01.011.267.25.01.007.183-.556-.232-.054.528-.175-.072.115-.204-.246-.136-.152.213-.164-.092.18-.286-.016-.344-.37.13-.19.297-.317-.131.218-.369-.349-.184-.73.373-.01.762.343.17.267-.355.305.15-.213.316.038.325.37-.126.186-.31.185.086-.147.224.272.14.13-.223.197.102-.523.34.523.339-.196.102-.13-.223-.273.14.147.228-.185.083-.186-.31-.37-.127-.038.325.213.315-.305.15-.267-.353-.343.175.01.756.73.374.35-.18-.219-.374.316-.13.19.296.37.13.017-.344-.18-.286.164-.092.152.213.246-.136-.115-.203.175-.073.054.528.556-.232-.006.189-.25.005-.012.271.267.005v.155l-.37.005-.3.204.3.198.403.01.021.301-.5.034v.344l.745.379.746-.38v-.343l-.5-.034.02-.3.404-.01.3-.2-.3-.203-.376-.005v-.155l.267-.005-.006-.271-.25-.005-.011-.19.556.233.06-.528.174.073-.114.203.245.136.147-.213.169.092-.18.286.01.344.376-.13.19-.296.317.13-.218.374.349.18.73-.374.01-.756-.344-.175-.266.354-.305-.15.207-.316-.033-.325-.37.127-.186.31-.19-.083.152-.227-.272-.141-.13.223-.197-.102.524-.34-.524-.339.197-.102.13.223.272-.14-.152-.223.19-.087.186.31.37.126.033-.325-.207-.315.305-.15.267.354.343-.17-.01-.762-.73-.373-.35.184.219.369-.316.13-.19-.295-.376-.131-.01.345.179.285-.17.092-.146-.213-.245.136.114.204L96 8.14l-.06-.528-.556.232.011-.183.25-.01.006-.267-.267-.01V7.22l.376-.005.3-.203-.3-.199-.403-.01-.021-.3.5-.03v-.349zM70.463 10.175l-.746.378v.35l.5.028-.02.302-.404.01-.3.198.3.203.37.005v.155l-.266.01.01.267.25.01.007.184-.556-.233-.054.529-.174-.073.114-.204-.245-.136-.153.213-.163-.091.18-.286-.017-.345-.37.131-.19.296-.316-.13.217-.37-.349-.184-.73.373-.01.762.343.17.267-.354.305.15-.213.315.038.325.37-.126.186-.31.185.087-.147.223.273.14.13-.222.196.101-.523.34.523.339-.196.102-.13-.223-.273.14.147.228-.185.083-.185-.31-.37-.127-.039.325.213.315-.305.151-.267-.354-.343.175.01.756.73.374.35-.18-.218-.373.316-.131.19.296.37.13.016-.343-.18-.287.164-.092.153.213.245-.135-.114-.204.174-.073.054.529.556-.233-.006.19-.25.004-.011.271.266.005v.155l-.37.005-.3.204.3.199.403.01.022.3-.501.034v.344l.746.379.746-.379v-.344l-.501-.034.021-.3.403-.01.3-.199-.3-.204-.376-.005v-.155l.268-.005-.006-.27-.25-.006-.012-.19.556.234.06-.529.174.073-.114.204.245.135.147-.213.169.092-.18.287.011.344.376-.131.19-.296.316.13-.218.374.35.18.729-.374.01-.756-.342-.175-.267.354-.305-.15.207-.316-.032-.324-.37.126-.186.31-.191-.082.153-.228-.273-.141-.13.223-.196-.102.523-.34-.523-.339.196-.101.13.222.273-.14-.153-.223.19-.087.186.31.37.126.033-.324-.207-.316.305-.15.267.354.343-.17-.011-.762-.73-.373-.349.185.218.368-.316.131-.19-.296-.376-.13-.01.344.179.286-.17.092-.146-.214-.245.136.114.204-.174.073-.06-.529-.556.233.011-.184.25-.01.007-.267-.268-.01v-.155l.376-.005.3-.203-.3-.199-.403-.01-.021-.3.5-.03v-.349zM79.478 4.587l-.746.378v.35l.5.028-.02.301-.404.01-.3.199.3.203.37.005v.155l-.266.01.01.267.25.01.007.183-.556-.232-.054.529-.174-.073.114-.204-.245-.136-.153.213-.163-.091.18-.286-.017-.345-.37.131-.19.296-.316-.13.217-.37-.348-.184-.73.373-.011.762.343.17.267-.354.305.15-.213.315.038.325.37-.126.186-.31.185.087-.147.223.273.14.13-.222.196.101-.523.34.523.339-.196.102-.13-.223-.273.14.147.229-.185.082-.185-.31-.37-.127-.039.325.213.315-.305.151-.267-.354-.343.175.011.756.73.374.348-.18-.217-.373.316-.131.19.296.37.13.016-.343-.18-.287.164-.092.153.213.245-.136-.114-.203.174-.073.054.529.556-.233-.006.19-.25.004-.011.271.266.005v.155l-.37.005-.3.204.3.199.403.01.021.3-.5.034v.344l.746.379.746-.379v-.344l-.501-.034.021-.3.403-.01.3-.199-.3-.204-.376-.005V9.34l.267-.005-.006-.27-.25-.006-.01-.19.555.234.06-.529.174.073-.114.204.245.136.147-.214.169.092-.18.287.011.344.376-.131.19-.296.316.13-.218.374.35.18.729-.374.01-.756-.342-.175-.267.354-.305-.15.207-.316-.033-.324-.37.126-.185.31-.191-.082.153-.228-.273-.141-.13.223-.197-.102.523-.34-.523-.339.197-.101.13.223.273-.14-.153-.224.19-.087.186.31.37.126.033-.324-.207-.316.305-.15.267.354.343-.17-.011-.762-.73-.373-.349.185.218.368-.316.131-.19-.296-.376-.13-.011.344.18.286-.17.092-.146-.214-.245.136.114.204-.174.073-.06-.529-.556.233.011-.184.25-.01.006-.267-.267-.01v-.155l.376-.005.3-.203-.3-.199-.403-.01-.021-.3.5-.03v-.349zM36.549 9.673l-.746.378v.35l.5.029-.02.3-.404.01-.3.199.3.203.37.005v.155l-.266.01.01.267.25.01.007.184-.556-.233-.054.529-.174-.073.114-.204-.245-.136-.153.213-.163-.091.18-.286-.017-.345-.37.131-.19.296-.316-.13.218-.37-.35-.184-.729.373-.011.762.343.17.267-.354.305.15-.213.315.038.325.37-.126.186-.31.185.087-.147.223.273.14.13-.222.196.101-.523.34.523.339-.196.102-.13-.223-.273.14.147.229-.185.082-.185-.31-.37-.127-.039.325.213.315-.305.151-.267-.354-.343.175.011.756.73.374.349-.18-.218-.373.316-.131.19.296.37.13.017-.343-.18-.287.163-.092.153.213.245-.135-.114-.204.174-.073.054.529.556-.233-.006.19-.25.004-.011.271.266.005v.155l-.37.005-.3.204.3.199.403.01.022.3-.501.034v.344l.746.379.746-.379v-.344l-.501-.034.021-.3.404-.01.3-.199-.3-.204-.377-.005v-.155l.268-.005-.006-.27-.25-.006-.012-.19.556.234.06-.529.174.073-.114.204.245.136.147-.214.169.092-.18.287.011.344.376-.131.19-.296.316.13-.217.374.348.18.73-.374.011-.756-.343-.175-.267.354-.305-.15.207-.316-.032-.324-.37.126-.186.31-.19-.082.152-.228-.273-.141-.13.223-.196-.102.523-.34-.523-.339.196-.101.13.223.273-.14-.153-.224.19-.087.186.31.37.126.033-.324-.207-.316.305-.15.267.354.343-.17-.011-.762-.73-.373-.348.185.217.368-.316.131-.19-.296-.376-.13-.01.344.179.286-.169.092-.147-.214-.245.136.114.204-.174.073-.06-.529-.556.233.011-.184.25-.01.007-.267-.268-.01v-.155l.377-.005.3-.203-.3-.199-.404-.01-.021-.3.5-.03v-.349zM55.014 12.9l-.746.377v.35l.5.028-.02.301-.404.01-.3.199.3.203.37.005v.155l-.266.01.01.267.251.01.006.183-.555-.232-.055.528-.174-.072.114-.204-.245-.136-.153.213-.163-.092.18-.285-.017-.345-.37.13-.19.297-.316-.13.218-.37-.35-.184-.729.373-.01.762.343.17.266-.354.305.15-.212.315.038.325.37-.126.186-.31.185.087-.147.223.272.14.13-.222.197.101-.523.34.523.339-.197.102-.13-.223-.272.14.147.228-.185.083-.186-.31-.37-.127-.038.325.212.315-.305.15-.266-.353-.344.175.011.756.73.374.349-.18-.218-.374.316-.13.19.296.37.13.017-.343-.18-.287.163-.092.153.213.245-.136-.114-.203.174-.073.055.528.555-.232-.006.189-.25.005-.011.271.267.005v.155l-.37.005-.3.204.3.199.402.01.022.3-.501.034v.344l.746.379.746-.379v-.344l-.501-.033.021-.3.404-.011.3-.199-.3-.204-.376-.004v-.155l.267-.005-.006-.272-.25-.004-.012-.19.556.233.06-.528.174.072-.114.204.245.136.147-.214.17.093-.18.286.01.344.376-.13.19-.297.317.131-.218.373.349.18.73-.374.01-.756-.343-.175-.267.354-.305-.15.207-.315-.032-.325-.37.126-.186.31-.19-.082.152-.228-.272-.14-.13.223-.197-.103.523-.339-.523-.34.196-.1.13.222.273-.14-.153-.224.19-.087.186.31.37.127.033-.325-.207-.316.305-.15.267.354.343-.17-.01-.761-.73-.374-.35.185.219.369-.316.13-.191-.296-.376-.13-.01.344.18.286-.17.092-.147-.213-.245.136.114.203-.174.073-.06-.528-.556.232.012-.184.25-.01.006-.267-.267-.01v-.154l.376-.005.3-.204-.3-.198-.404-.01-.021-.301.5-.029v-.35zM38.954 20.114l-.746.377v.35l.5.029-.02.3-.404.01-.3.199.3.203.37.005v.155l-.266.01.011.267.25.01.006.184-.555-.233-.055.529-.174-.073.114-.204-.245-.135-.153.213-.163-.092.18-.286-.016-.345-.37.131-.191.296-.316-.13.218-.37-.349-.184-.73.374-.01.761.343.17.266-.354.305.15-.212.316.038.324.37-.126.186-.31.185.087-.147.223.272.14.13-.222.197.101-.523.34.523.34-.196.101-.131-.223-.272.141.147.228-.185.082-.186-.31-.37-.126-.038.325.212.315-.305.15-.266-.354-.344.175.011.756.73.374.349-.18-.218-.373.316-.131.19.296.37.13.017-.343-.18-.287.163-.092.153.214.245-.136-.114-.204.174-.073.055.529.555-.233-.006.19-.25.004-.011.272.267.004v.156l-.37.004-.3.204.3.199.403.01.02.3-.5.034v.344l.746.38.746-.38v-.344l-.5-.034.02-.3.404-.01.3-.199-.3-.204-.376-.005v-.155l.267-.005-.006-.27-.25-.006-.011-.19.555.234.06-.529.174.073-.114.204.245.136.147-.214.17.092-.18.287.01.344.376-.131.19-.296.317.13-.218.374.349.18.73-.374.01-.756-.343-.175-.267.354-.305-.15.207-.316-.032-.324-.37.126-.186.31-.19-.082.152-.228-.272-.141-.13.223-.197-.102.523-.34-.523-.339.196-.101.13.223.273-.14-.153-.224.191-.087.186.31.37.126.032-.324-.207-.316.305-.15.267.354.343-.17-.01-.762-.73-.373-.35.185.219.368-.316.131-.19-.296-.377-.13-.01.344.18.286-.17.092-.147-.214-.245.136.114.204-.174.073-.06-.529-.555.233.01-.184.25-.01.007-.267-.267-.01v-.155l.376-.005.3-.203-.3-.199-.404-.01-.02-.3.5-.03v-.349zM63.005 17.35l-.746.377v.35l.501.029-.021.3-.404.01-.3.199.3.203.37.005v.155l-.266.01.011.267.25.01.006.184-.555-.233-.055.529-.174-.073.114-.204-.245-.136-.153.214-.163-.092.18-.286-.016-.345-.37.131-.191.296-.316-.13.218-.37-.349-.184-.73.373-.01.762.343.17.266-.354.306.15-.213.316.038.324.37-.126.186-.31.185.087-.147.223.272.14.13-.222.197.101-.523.34.523.34-.196.101-.13-.223-.273.14.147.229-.185.082-.186-.31-.37-.126-.038.324.213.316-.306.15-.266-.354-.344.175.011.756.73.374.349-.18-.218-.373.316-.131.19.296.37.13.017-.343-.18-.287.163-.092.153.213.245-.135-.114-.204.174-.073.055.529.555-.233-.006.19-.25.004-.011.271.267.005v.155l-.37.005-.3.204.3.199.403.01.021.3-.501.034v.344l.746.379.746-.379v-.344l-.5-.034.02-.3.404-.01.3-.199-.3-.204-.376-.005v-.155l.267-.005-.006-.27-.25-.006-.011-.19.556.234.06-.529.173.073-.114.204.245.135.147-.213.17.092-.18.287.01.344.376-.131.19-.296.317.13-.218.374.349.18.73-.374.01-.756-.343-.175-.267.354-.305-.15.207-.316-.032-.324-.37.126-.186.31-.19-.082.152-.228-.272-.141-.13.223-.197-.102.523-.34-.523-.339.196-.101.13.223.273-.14-.153-.224.191-.087.186.31.37.126.032-.324-.207-.316.305-.15.267.354.343-.17-.01-.762-.73-.373-.35.185.219.368-.316.131-.19-.296-.376-.13-.011.344.18.286-.17.092-.147-.214-.245.136.114.204-.174.073-.06-.529-.555.233.01-.184.251-.01.006-.267-.267-.01v-.155l.376-.005.3-.203-.3-.199-.403-.01-.022-.3.501-.03v-.349zM26.98 4.14l-.747.377v.35l.501.029-.021.3-.403.01-.3.199.3.203.37.005v.155l-.267.01.011.267.25.01.006.184-.555-.233-.055.529-.174-.073.114-.204-.245-.136-.153.214-.163-.092.18-.286-.017-.345-.37.131-.19.296-.316-.13.218-.37-.35-.184-.729.373-.01.762.343.17.266-.354.305.15-.212.316.038.324.37-.126.186-.31.185.087-.147.223.272.14.13-.222.197.101-.523.34.523.34-.197.101-.13-.223-.272.14.147.229-.185.082-.186-.31-.37-.126-.038.324.212.316-.305.15L24.208 8l-.344.175.011.756.73.374.349-.18-.218-.373.316-.131.19.296.37.13.017-.343-.18-.287.163-.092.153.214.245-.136-.114-.204.174-.073.055.529.555-.233-.006.19-.25.004-.01.271.266.005v.155l-.37.005-.3.204.3.199.403.01.021.3-.5.034v.344l.745.379.746-.379v-.344l-.5-.034.02-.3.404-.01.3-.199-.3-.204-.376-.005v-.155l.267-.005-.006-.27-.25-.006-.011-.19.556.234.06-.529.174.073-.114.204.245.135.147-.213.169.092-.18.287.01.344.376-.131.191-.296.316.13-.218.374.35.18.729-.374.01-.756-.343-.175-.266.354-.305-.15.207-.316-.033-.324-.37.126-.186.31-.19-.082.152-.228-.272-.141-.13.223-.197-.102.523-.34-.523-.339.197-.101.13.223.272-.14-.152-.224.19-.087.186.31.37.126.033-.324-.207-.316.305-.15.266.354.344-.17-.011-.762-.73-.373-.349.185.218.368-.316.131-.19-.296-.376-.13-.011.344.18.286-.17.092-.146-.214-.245.136.114.204-.175.073-.06-.529-.555.233.011-.184.25-.01.006-.267-.267-.01v-.155l.376-.005.3-.203-.3-.199-.403-.01-.022-.3.501-.03v-.349zM12.592 15.692l-.746.378v.35l.501.028-.021.301-.403.01-.3.198.3.204.37.005v.155l-.267.01.011.267.25.01.006.183-.555-.232-.055.528-.174-.072.114-.204-.245-.136-.152.213-.164-.092.18-.286-.016-.344-.37.13-.191.297-.316-.131.218-.369-.349-.184-.73.373-.01.762.343.17.266-.355.306.15-.213.316.038.325.37-.126.186-.31.185.086-.147.224.272.14.13-.223.197.102-.523.34.523.339-.196.102-.13-.223-.273.14.147.228-.185.083-.186-.31-.37-.127-.038.325.213.315-.306.15-.266-.353-.344.174.011.757.73.373.349-.18-.218-.373.316-.13.19.295.37.131.017-.344-.18-.286.164-.093.152.214.245-.136-.114-.203.174-.073.055.528.555-.233-.005.19-.25.005-.012.271.267.005v.155l-.37.005-.3.204.3.198.403.01.021.3-.5.035v.344l.745.379.746-.38v-.343l-.5-.034.02-.3.404-.01.3-.2-.3-.203-.376-.005v-.155l.267-.005-.005-.271-.25-.005-.012-.19.556.233.06-.528.174.073-.114.203.245.136.147-.214.169.093-.18.286.011.344.376-.13.19-.297.316.131-.218.374.35.18.729-.374.01-.757-.342-.174-.267.354-.305-.15.207-.316-.032-.325-.37.126-.186.31-.191-.082.153-.228-.273-.14-.13.223-.196-.102.523-.34-.523-.34.196-.1.13.222.273-.14-.153-.224.19-.086.186.31.37.126.033-.325-.207-.316.305-.15.267.355.343-.17-.011-.762-.73-.373-.349.184.218.369-.316.13-.19-.295-.376-.131-.01.344.179.286-.169.092-.147-.213-.245.136.114.204-.174.072-.06-.528-.556.232.011-.184.25-.01.006-.266-.267-.01v-.155l.376-.005.3-.204-.3-.198-.403-.01-.022-.3.501-.03v-.349z" font-weight="400" fill="#d7eef4" stroke="#1e1916" stroke-width="0" stroke-linecap="round" stroke-linejoin="round" stroke-miterlimit="10.433"/><g aria-label="Six More Weeks of" style="line-height:1.25" font-weight="400" font-size="40" font-family="Rosario" letter-spacing="0" word-spacing="0" fill="#003380"><path d="M54.5 27.685l.27-.613q.246.217.598.351.351.127.673.127.426 0 .763-.239.336-.24.336-.695 0-.389-.261-.658-.255-.269-.621-.426-.367-.164-.733-.336-.36-.18-.621-.501-.254-.322-.254-.792 0-.666.508-1.04.509-.38 1.197-.38.725 0 1.406.403l-.344.5q-.524-.373-1.07-.373-.426 0-.688.21-.261.209-.261.62 0 .231.134.418.142.18.36.307.216.127.478.246.27.12.538.27.27.142.487.32.216.18.351.464.142.284.142.65 0 .763-.538 1.167-.539.403-1.332.403-.733 0-1.518-.403zM59.5 23.036q0 .194-.134.328-.127.127-.321.127-.187 0-.322-.134-.127-.135-.127-.321 0-.187.127-.322.135-.134.322-.134t.321.134q.135.135.135.322zm-.134 4.963h-.62v-3.274q0-.008-.023-.105l-.045-.21q-.022-.111-.022-.126h.71zM63.263 28.006h-.71l-.92-1.442-.943 1.442h-.614l1.242-1.906-1.16-1.816h.711l.815 1.285.86-1.285h.606L62 26.033zM70.673 27.999h-.688V23.55l-1.638 4.455h-.419l-1.638-4.455V28h-.568V23.05l-.113-.493h1.01l1.586 4.238 1.563-4.238h.905zM73.327 28.096q-.785 0-1.234-.568-.441-.576-.441-1.383 0-.8.449-1.375.448-.576 1.226-.576.793 0 1.234.568.449.568.449 1.383 0 .815-.449 1.383-.441.568-1.234.568zm0-.471q.367 0 .606-.247.247-.246.329-.56.09-.322.09-.673 0-.351-.09-.665-.09-.322-.337-.568-.239-.247-.598-.247t-.606.247q-.239.246-.329.568-.082.314-.082.665 0 .329.097.65.097.322.337.576.247.254.583.254zM76.493 27.999h-.62v-2.691q0-.658-.24-1.01l.673-.082q.135.33.172.696.202-.314.531-.501.33-.195.689-.195l-.15.658q-.606 0-1.055.658zM80.918 27.229l.277.448q-.516.419-1.257.419-.807 0-1.271-.538-.456-.546-.456-1.376 0-.508.164-.949.172-.441.546-.74.382-.299.905-.299.65 0 1.047.389.397.38.397 1.024 0 .478-.382.478h-2.02v.075q0 .538.285.98.292.433.8.433.247 0 .516-.09.27-.097.45-.254zm-2.004-1.607h1.563q.082 0 .105-.03.022-.038.022-.127 0-.337-.194-.568-.195-.232-.524-.232-.359 0-.636.291-.269.292-.336.666zM59.302 37.442h-.576L57.61 33.36l-1.106 4.082h-.576l-1.511-5.48h.733l1.13 4.171 1.121-4.17h.554l1.121 4.17 1.13-4.17h.583zM63.389 36.634l.277.449q-.517.418-1.257.418-.808 0-1.271-.538-.457-.546-.457-1.375 0-.508.165-.95.172-.44.546-.74.381-.298.905-.298.65 0 1.047.388.396.381.396 1.024 0 .479-.381.479h-2.02v.074q0 .539.285.98.291.433.8.433.247 0 .516-.09.27-.097.449-.254zm-2.005-1.607h1.564q.082 0 .104-.03.023-.037.023-.127 0-.336-.195-.568-.194-.232-.523-.232-.36 0-.636.292-.27.291-.337.665zM67.085 36.634l.276.449q-.516.418-1.256.418-.808 0-1.272-.538-.456-.546-.456-1.375 0-.508.165-.95.172-.44.546-.74.381-.298.905-.298.65 0 1.047.388.396.381.396 1.024 0 .479-.381.479h-2.02v.074q0 .539.285.98.291.433.8.433.247 0 .516-.09.27-.097.449-.254zm-2.005-1.607h1.563q.083 0 .105-.03.022-.037.022-.127 0-.336-.194-.568-.194-.232-.524-.232-.359 0-.635.292-.27.291-.337.665zM71.23 37.404h-.741l-1.519-2.018v2.018h-.62V32.15q0-.007-.023-.104-.022-.105-.052-.21-.023-.112-.023-.127h.718v3.514l1.392-1.533h.665L69.6 35.251zM71.602 37.187l.262-.456q.433.3.792.3.307 0 .531-.12.225-.12.225-.404 0-.224-.18-.388-.18-.172-.44-.292-.255-.12-.51-.247-.254-.134-.433-.358-.18-.225-.18-.539 0-.523.382-.8.381-.283.927-.283.568 0 .995.261l-.217.479q-.352-.27-.71-.27-.292 0-.517.12-.224.12-.224.389 0 .224.18.396.179.164.433.284.262.112.516.247.262.127.442.358.18.232.18.553 0 .554-.382.823-.374.261-.958.261-.5 0-1.114-.314zM78.162 37.501q-.785 0-1.234-.568-.441-.575-.441-1.383 0-.8.449-1.375.448-.575 1.226-.575.793 0 1.234.568.45.568.45 1.382 0 .815-.45 1.383-.44.568-1.234.568zm0-.47q.367 0 .606-.247.247-.247.33-.56.089-.322.089-.674 0-.35-.09-.665-.09-.321-.336-.568-.24-.247-.599-.247t-.605.247q-.24.247-.33.568-.082.314-.082.665 0 .33.097.65.098.322.337.576.247.254.583.254zM81.484 37.404h-.613v-3.251h-.561v-.389q.022 0 .127-.007.112-.015.157-.023.053-.015.097-.03.053-.022.09-.052.045-.037.068-.082.022-.045.037-.105.022-.09.082-.47.112-.606.486-.973.374-.373.973-.373.396 0 .725.187l-.172.463q-.21-.187-.538-.187-.307 0-.516.15-.202.142-.292.403-.09.262-.12.494-.03.231-.03.53h1.07l-.135.464h-.935z" style="-inkscape-font-specification:Rosario"/></g><g aria-label="Winter!" style="line-height:1.25" font-weight="400" font-size="40" font-family="sans-serif" letter-spacing="0" word-spacing="0" fill="#003380"><path d="M56.765 59h-1.417l-2.744-15.137-2.725 15.138H48.46l-3.72-20.322h1.805l2.78 15.47 2.762-15.47h1.363l2.762 15.47 2.78-15.47h1.437zM64.233 40.453q0 .721-.332 1.22-.313.472-.792.472-.46 0-.791-.5-.313-.498-.313-1.192 0-.693.313-1.192.331-.499.791-.499t.792.5q.332.498.332 1.191zm-.332 18.41h-1.528V46.718q0-.028-.055-.388l-.11-.776q-.056-.416-.056-.472h1.75zM74.01 58.862H72.5v-8.456q0-.637-.02-1.053-.018-.416-.11-.943-.073-.527-.24-.832-.146-.332-.46-.554-.294-.222-.718-.222-1.215 0-2.504 1.83v10.23h-1.51v-9.759q0-2.661-.607-3.909l1.675-.332q.277 1.053.35 1.968 1.381-2.08 2.854-2.08 1.455 0 2.118 1.331.681 1.303.681 3.577zM80.93 57.115l.258 1.553q-1.086.499-1.823.499-1.123 0-1.62-.887-.48-.915-.48-2.69v-8.76h-1.362v-1.386q1.602-.056 2.136-4.297h1.16q-.405 2.495-.405 3.936h2.394l-.332 1.747h-2.062v8.816q0 .887.203 1.33.22.417.773.417.424 0 1.16-.278zM88.729 56.007l.681 1.663q-1.27 1.552-3.093 1.552-1.989 0-3.13-1.996-1.124-2.023-1.124-5.1 0-1.886.405-3.522.424-1.635 1.345-2.744.939-1.11 2.228-1.11 1.602 0 2.577 1.442.976 1.414.976 3.798 0 1.775-.939 1.775h-4.971v.277q0 1.996.7 3.632.718 1.608 1.97 1.608.607 0 1.27-.333.663-.36 1.105-.942zm-4.935-5.961h3.849q.202 0 .257-.111.056-.139.056-.471 0-1.248-.48-2.107-.478-.86-1.288-.86-.884 0-1.565 1.081-.663 1.082-.829 2.468zM93.372 58.862h-1.529v-9.98q0-2.44-.589-3.743l1.657-.305q.332 1.22.424 2.578.497-1.164 1.307-1.857.81-.721 1.694-.721l-.368 2.44q-1.492 0-2.596 2.44z" style="-inkscape-font-specification:Rosario" font-family="Rosario"/><path d="M101.42 38.705l-.234 14.607h-1.529l-.251-14.607zm-.09 20.157h-1.834v-2.856h1.834z"/></g><path d="M-.602 81.503l.084-11.916 5.22-1.428c18.263-4.997 38.145-5.634 60.462-1.937 1.494.248 5.165.933 8.156 1.522 22.334 4.404 32.905 5.796 48.664 6.41 11.145.434 26.066-.292 36.784-1.79l2.365-.33V93.419H-.686z" fill="#f9f9f9" stroke-width=".377"/><path d="M149.422 10.535l-.746.377v.35l.5.029-.02.3-.404.01-.3.199.3.203.37.005v.155l-.266.01.01.267.251.01.006.184-.555-.233-.055.529-.174-.073.114-.204-.245-.135-.153.213-.163-.092.18-.286-.017-.345-.37.131-.19.296-.316-.13.218-.37-.35-.184-.729.374-.01.761.342.17.267-.354.305.15-.212.316.038.324.37-.126.186-.31.184.087-.146.223.272.14.13-.222.197.101-.523.34.523.34-.197.101-.13-.223-.272.141.146.228-.184.082-.186-.31-.37-.126-.038.325.212.315-.305.15-.267-.354-.343.175.011.756.73.374.349-.18-.218-.373.316-.131.19.296.37.13.017-.343-.18-.287.163-.092.153.214.245-.136-.114-.204.174-.073.055.529.555-.233-.006.19-.25.004-.011.272.266.004v.156l-.37.004-.3.204.3.199.403.01.022.3-.501.034v.344l.746.38.746-.38v-.344l-.501-.033.021-.301.404-.01.3-.199-.3-.204-.376-.004v-.155l.267-.005-.006-.272-.25-.005-.01-.189.555.233.06-.528.174.072-.114.204.245.136.147-.214.169.093-.18.286.01.344.376-.13.19-.297.317.13-.218.374.349.18.73-.374.01-.756-.344-.175-.266.354-.305-.15.207-.315-.033-.325-.37.126-.186.31-.19-.082.152-.228-.272-.14-.13.222-.197-.102.523-.34-.523-.339.197-.101.13.223.272-.14-.152-.224.19-.087.186.31.37.127.033-.325-.207-.316.305-.15.266.354.344-.17-.01-.761-.73-.374-.35.185.219.369-.316.13-.19-.296-.377-.13-.01.344.18.286-.17.092-.146-.213-.245.136.114.203-.174.073-.06-.528-.556.232.01-.184.25-.01.007-.267-.267-.01v-.154l.376-.005.3-.204-.3-.199-.404-.01-.021-.3.5-.029v-.35zM154.946 22.025l-.746.378v.35l.501.028-.021.301-.404.01-.3.198.3.204.37.005v.155l-.266.01.011.267.25.01.006.183-.555-.232-.055.528-.174-.072.114-.204-.245-.136-.152.213-.164-.092.18-.286-.016-.344-.37.13-.19.297-.317-.131.218-.369-.349-.184-.73.373-.01.762.343.17.266-.355.306.15-.213.316.038.325.37-.126.186-.31.185.086-.147.224.272.14.13-.223.197.102-.523.34.523.339-.196.102-.13-.223-.273.14.147.228-.185.083-.186-.31-.37-.127-.038.325.213.315-.306.15-.266-.353-.343.174.01.757.73.373.349-.18-.218-.373.316-.13.19.296.37.13.017-.344-.18-.286.164-.092.152.213.245-.136-.114-.203.174-.073.055.528.555-.233-.006.19-.25.005-.01.271.266.005v.155l-.37.005-.3.204.3.198.403.01.021.301-.5.034v.344l.745.379.746-.38v-.343l-.5-.034.02-.3.404-.01.3-.2-.3-.203-.376-.005v-.155l.267-.005-.006-.271-.25-.005-.01-.19.555.233.06-.528.174.073-.114.203.245.136.147-.213.169.092-.18.286.01.344.376-.13.19-.296.317.13-.218.374.349.18.73-.374.01-.756-.343-.175-.267.354-.305-.15.207-.316-.032-.325-.37.127-.186.31-.19-.083.152-.227-.273-.141-.13.223-.196-.102.523-.34-.523-.339.196-.102.13.223.273-.14-.153-.223.19-.087.186.31.37.126.033-.325-.207-.315.305-.15.267.354.343-.17-.01-.762-.73-.373-.349.184.218.369-.316.13-.19-.295-.376-.131-.01.344.179.286-.169.092-.147-.213-.245.136.114.204-.174.072-.06-.528-.556.232.01-.183.251-.01.006-.267-.267-.01V23.5l.376-.005.3-.203-.3-.199-.403-.01-.022-.3.501-.03v-.349zM137.931 5.01l-.746.378v.35l.501.028-.021.301-.403.01-.3.199.3.203.37.005v.155l-.267.01.011.267.25.01.007.183-.556-.232-.054.528-.175-.072.114-.204-.245-.136-.152.213-.164-.092.18-.285-.016-.345-.37.13-.19.297-.317-.13.218-.37-.349-.184-.73.373-.01.762.343.17.267-.354.305.15-.213.315.038.325.37-.126.186-.31.185.087-.147.223.272.14.13-.222.197.101-.523.34.523.339-.196.102-.13-.223-.273.14.147.229-.185.082-.185-.31-.37-.127-.039.325.213.315-.305.151-.267-.354-.343.175.01.756.73.374.35-.18-.219-.373.316-.131.191.296.37.13.016-.343-.18-.287.164-.092.152.213.245-.135-.114-.204.175-.073.054.529.556-.233-.006.19-.25.004-.012.271.267.005v.155l-.37.005-.3.204.3.199.403.01.021.3-.5.034v.344l.745.379.746-.379v-.344l-.5-.034.02-.3.404-.01.3-.199-.3-.204-.376-.005v-.155l.267-.005-.006-.27-.25-.006-.01-.19.556.234.06-.529.173.073-.114.204.245.135.147-.213.17.092-.18.287.01.344.376-.131.19-.296.316.13-.218.374.35.18.729-.374.01-.756-.343-.175-.267.354-.305-.15.207-.316-.032-.324-.37.126-.186.31-.19-.082.152-.228-.272-.141-.13.223-.197-.102.523-.34-.523-.339.196-.101.13.222.273-.14-.153-.223.19-.087.186.31.37.126.033-.324-.207-.316.305-.15.267.354.343-.17-.01-.762-.73-.373-.349.184.218.37-.316.13-.19-.296-.376-.13-.01.344.18.286-.17.092-.147-.214-.245.136.114.204-.174.073-.06-.529-.555.233.01-.184.25-.01.006-.267-.267-.01v-.155l.376-.005.3-.203-.3-.199-.403-.01-.022-.3.501-.03v-.349zM137.931 13.767l-.746.378v.35l.501.028-.021.302-.403.01-.3.198.3.203.37.005v.155l-.267.01.011.267.25.01.006.184-.555-.233-.054.529-.175-.073.114-.204-.245-.136-.152.214-.164-.092.18-.286-.016-.345-.37.131-.19.296-.317-.13.218-.37-.349-.184-.73.373-.01.762.343.17.267-.354.305.15-.213.315.038.325.37-.126.186-.31.185.087-.147.223.272.14.13-.222.197.101-.523.34.523.34-.196.101-.13-.223-.273.14.147.229-.185.082-.185-.31-.37-.126-.039.324.213.316-.305.15-.267-.354-.343.175.01.756.73.374.35-.18-.219-.373.316-.131.19.296.37.13.017-.343-.18-.287.164-.092.152.213.245-.135-.114-.204.175-.073.054.529.555-.233-.006.19-.25.004-.01.271.266.005v.155l-.37.005-.3.204.3.199.403.01.021.3-.5.034v.344l.745.379.746-.379v-.344l-.5-.034.02-.3.404-.01.3-.199-.3-.204-.376-.005v-.155l.267-.005-.006-.27-.25-.006-.01-.19.556.234.06-.529.173.073-.114.204.245.136.147-.214.17.092-.18.287.01.344.376-.131.19-.296.316.13-.218.374.35.18.729-.374.01-.756-.343-.175-.267.354-.305-.15.207-.316-.032-.324-.37.126-.186.31-.19-.082.152-.228-.272-.141-.13.223-.197-.102.523-.34-.523-.339.196-.101.13.223.273-.14-.153-.224.191-.087.185.31.37.126.033-.324-.207-.316.305-.15.267.354.343-.17-.01-.762-.73-.373-.349.185.218.368-.316.131-.19-.296-.376-.13-.01.344.18.286-.17.092-.147-.214-.245.136.114.204-.174.073-.06-.529-.555.233.01-.184.25-.01.006-.267-.267-.01v-.155l.376-.005.3-.203-.3-.199-.403-.01-.022-.3.501-.03v-.349zM155.414 3.963l-.746.378v.35l.5.028-.02.301-.404.01-.3.198.3.204.37.005v.155l-.266.01.01.267.25.01.007.183-.556-.232-.054.528-.174-.073.114-.203-.245-.136-.153.213-.163-.092.18-.286-.017-.344-.37.13-.19.297-.316-.131.217-.369-.348-.184-.73.373-.01.762.342.17.267-.355.305.15-.213.316.038.325.37-.126.186-.31.185.086-.147.224.273.14.13-.223.196.102-.523.34.523.339-.196.102-.13-.224-.273.141.147.228-.185.082-.185-.31-.37-.126-.039.325.213.315-.305.15-.267-.353-.343.174.011.757.73.373.348-.18-.217-.373.316-.13.19.295.37.131.017-.344-.18-.286.163-.093.153.214.245-.136-.114-.203.174-.073.054.528.556-.233-.006.19-.25.005-.011.27.266.006v.155l-.37.005-.3.204.3.198.403.01.022.3-.501.035v.344l.746.379.746-.38v-.343l-.501-.034.021-.3.404-.01.3-.2-.3-.203-.377-.005v-.155l.268-.005-.006-.271-.25-.005-.011-.19.556.233.06-.528.174.073-.114.203.245.136.147-.214.169.093-.18.286.01.344.376-.13.19-.297.316.131-.217.374.348.18.73-.374.01-.757-.343-.174-.266.354-.306-.15.207-.316-.032-.325-.37.126-.186.31-.19-.082.152-.228-.272-.14-.13.223-.197-.102.523-.34-.523-.34.196-.1.13.222.273-.14-.152-.224.19-.087.186.31.37.127.032-.325-.207-.316.306-.15.266.354.343-.17-.01-.761-.73-.373-.348.184.217.369-.316.13-.19-.295-.376-.131-.01.344.18.286-.17.092-.146-.213-.245.136.114.204-.174.072-.06-.528-.556.232.01-.184.25-.01.007-.266-.268-.01v-.155l.377-.005.3-.204-.3-.198-.404-.01-.021-.3.5-.03v-.35zM144.008 24.456l-.746.378v.35l.501.028-.021.3-.404.01-.3.199.3.204.37.005v.155l-.266.01.011.266.25.01.006.184-.555-.232-.055.528-.174-.073.114-.203-.245-.136-.152.213-.164-.092.18-.286-.016-.344-.37.13-.191.296-.316-.13.218-.37-.349-.184-.73.374-.01.761.343.17.266-.354.306.15-.213.316.038.325.37-.127.186-.31.185.087-.147.223.272.14.13-.222.197.102-.523.339.523.34-.196.101-.13-.223-.273.141.147.228-.185.082-.186-.31-.37-.126-.038.325.213.315-.306.15-.266-.354-.344.175.011.756.73.374.349-.18-.218-.373.316-.13.19.295.37.131.017-.344-.18-.286.164-.093.152.214.245-.136-.114-.204.174-.072.055.528.555-.233-.006.19-.25.004-.011.272.267.005v.155l-.37.004-.3.205.3.198.403.01.021.3-.501.034v.344l.746.38.746-.38v-.343l-.5-.034.02-.3.404-.01.3-.2-.3-.204-.376-.004v-.155l.267-.005-.006-.271-.25-.005-.01-.19.555.233.06-.528.174.072-.114.204.245.136.147-.214.169.093-.18.286.01.344.376-.13.19-.297.317.131-.218.373.349.18.73-.374.01-.756-.343-.175-.267.355-.305-.151.207-.315-.033-.325-.37.126-.185.31-.191-.082.153-.228-.273-.14-.13.223-.196-.102.523-.34-.523-.34.196-.1.13.222.273-.14-.153-.224.19-.087.186.31.37.127.033-.325-.207-.316.305-.15.267.354.343-.17-.01-.761-.73-.373-.35.184.219.369-.316.13-.19-.295-.376-.131-.01.344.179.286-.169.092-.147-.213-.245.136.114.203-.174.073-.06-.528-.556.232.01-.184.251-.01.006-.267-.267-.01v-.154l.376-.005.3-.204-.3-.198-.403-.01-.022-.301.501-.029v-.35zM124.452 6.226l-.746.377v.35l.501.029-.021.3-.404.01-.3.199.3.204.37.004v.156l-.266.01.011.266.25.01.006.184-.555-.233-.055.529-.174-.073.114-.203-.245-.136-.152.213-.164-.092.18-.286-.016-.345-.37.131-.19.296-.317-.13.218-.37-.349-.184-.73.374-.01.761.343.17.266-.354.306.15-.213.316.038.325.37-.127.186-.31.185.087-.147.223.272.14.13-.222.197.101-.523.34.523.34-.196.101-.13-.223-.273.141.147.228-.185.082-.186-.31-.37-.126-.038.325.213.315-.306.15-.266-.354-.343.175.01.756.73.374.349-.18-.218-.373.316-.13.19.295.37.13.017-.343-.18-.286.164-.093.152.214.245-.136-.114-.204.174-.072.055.528.555-.233-.006.19-.25.004-.01.272.266.005v.155l-.37.004-.3.204.3.199.403.01.021.3-.5.034v.344l.745.38.746-.38v-.344l-.5-.033.02-.301.404-.01.3-.199-.3-.204-.376-.004v-.155l.267-.005-.006-.272-.25-.004-.01-.19.555.233.06-.528.174.072-.114.204.245.136.147-.214.169.093-.18.286.01.344.376-.13.19-.297.317.131-.218.373.349.18.73-.374.01-.756-.343-.175-.267.354-.305-.15.207-.315-.032-.325-.37.126-.186.31-.19-.082.152-.228-.273-.14-.13.222-.196-.102.523-.339-.523-.34.196-.101.13.223.273-.14-.153-.224.19-.087.186.31.37.127.033-.325-.207-.316.305-.15.267.354.343-.17-.01-.761-.73-.374-.349.185.218.369-.316.13-.19-.296-.376-.13-.01.344.179.286-.169.092-.147-.213-.245.136.114.203-.174.073-.06-.528-.556.232.01-.184.251-.01.006-.267-.267-.01V7.7l.376-.005.3-.204-.3-.198-.403-.01-.022-.301.501-.029v-.35zM2.814 10.878l-.746.378v.35l.501.028-.021.3-.403.01-.3.2.3.203.37.005v.155l-.267.01.011.266.25.01.006.184-.555-.232-.055.528-.174-.073.114-.203-.245-.136-.153.213-.163-.092.18-.286-.017-.344-.37.13-.19.296-.316-.13.218-.37-.35-.184-.729.374-.01.762.343.17.266-.355.306.15-.213.316.038.325.37-.127.186-.31.185.087-.147.223.272.14.13-.222.197.102-.523.34.523.339-.196.102-.13-.224-.273.141.147.228-.185.082-.186-.31-.37-.126-.038.325.213.315-.306.15-.266-.354-.344.175.011.756.73.374.349-.18-.218-.373.316-.13.19.295.37.131.017-.344-.18-.286.163-.093.153.214.245-.136-.114-.204.174-.072.055.528.555-.233-.006.19-.25.005-.01.27.266.006v.155l-.37.004-.3.205.3.198.403.01.021.3-.5.035v.344l.745.378.746-.378v-.344l-.5-.034.02-.3.404-.01.3-.2-.3-.203-.376-.005v-.155l.267-.005-.006-.271-.25-.005-.01-.19.555.233.06-.528.174.072-.114.204.245.136.147-.214.169.093-.18.286.01.344.376-.13.19-.297.317.131-.218.373.349.18.73-.374.01-.756-.343-.175-.267.355-.305-.151.207-.315-.032-.325-.37.126-.186.31-.19-.082.152-.228-.273-.14-.13.223-.196-.102.523-.34-.523-.34.196-.1.13.222.273-.14-.153-.224.19-.087.186.31.37.127.033-.325-.207-.316.305-.15.267.354.343-.17-.01-.761-.73-.373-.349.184.218.369-.316.13-.19-.295-.376-.131-.01.344.179.286-.169.092-.147-.213-.245.136.114.203-.174.073-.06-.528-.556.232.01-.184.251-.01.006-.267-.267-.01v-.154l.376-.005.3-.204-.3-.198-.403-.01-.022-.301.501-.029v-.35z" font-weight="400" fill="#d7eef4" stroke="#1e1916" stroke-width="0" stroke-linecap="round" stroke-linejoin="round" stroke-miterlimit="10.433"/><g transform="matrix(.11754 0 0 .11397 3.092 38.32)"><path d="M122.81 219.358l5.346 2.673M78.31 238.735l-.935-7.082a8.037 8.037 0 00-.134-.802 3.75 3.75 0 00-.936-1.737c-.444-.46-1.004-.788-1.552-1.117-.549-.329-1.102-.672-1.521-1.155-.424-.489-.691-1.097-1.109-1.592a2.21 2.21 0 00-.752-.6c-.294-.135-.637-.18-.945-.08-.274.088-.502.28-.706.483-.204.202-.395.421-.63.586-.288.2-.628.31-.958.43-.33.12-.663.26-.914.505-.304.298-.456.728-.479 1.153-.022.426.076.85.212 1.253.268.794.683 1.528 1.07 2.272.274.53.535 1.068.8 1.603l.268.535" fill="none" stroke="#000" stroke-width=".265"/><path d="M69.09 233.39a177.874 177.874 0 015.077 11.626c.543 1.375 1.077 2.798 1.07 4.276-.007 1.262-.409 2.487-.535 3.742-.113 1.12-.005 2.25.01 3.376.014 1.126-.073 2.283-.545 3.306-.286.62-.709 1.177-.939 1.821-.115.322-.18.667-.147 1.007.034.34.172.676.418.914.237.228.56.353.885.402.326.049.658.028.986-.001 1.117-.1 2.225-.288 3.34-.401 1.91-.193 3.836-.163 5.747 0 2.23.19 4.446.559 6.682.668 1.069.052 2.14.044 3.207.134.848.07 1.69.202 2.54.267 1.066.08 2.138.055 3.206 0 .905-.047 1.81-.114 2.715-.067.904.046 1.815.209 2.63.601.341.164.672.37 1.045.428.187.03.383.02.558-.05a.722.722 0 00.402-.378.705.705 0 00.033-.417.98.98 0 00-.18-.382c-.172-.226-.415-.385-.654-.537-.826-.526-1.664-1.033-2.54-1.47-.233-.116-.472-.23-.668-.4a1.405 1.405 0 01-.133-.135" fill="none" stroke="#000" stroke-width=".265"/><path d="M78.31 238.735a37.209 37.209 0 001.821 7.474c.771 2.163 1.795 4.324 3.543 5.812.763.65 1.64 1.149 2.505 1.653 2.278 1.33 4.526 2.729 6.945 3.78.773.336 1.561.636 2.362.898h.047c.116.005.225.05.331.094.788.331 1.56.703 2.363.993 1.554.56 3.214.808 4.866.803 1.294-.004 2.597-.16 3.874.047.149.024.302.055.425.142a.705.705 0 01.214.254c.051.099.086.206.117.313.03.1.056.201.067.304a.795.795 0 01-.02.31.776.776 0 01-.168.295 1.543 1.543 0 01-.257.225c-.6.435-1.363.64-2.1.565a3.088 3.088 0 01-1.945-.977M128.156 222.03a33.31 33.31 0 00-.873 6.462c-.087 2.415.093 4.857.756 7.181.402 1.409.977 2.761 1.418 4.158.43 1.363.73 2.763 1.04 4.158.243 1.098.493 2.195.66 3.307.126.835.21 1.693.568 2.457.458.978 1.319 1.7 2.173 2.362 2.011 1.558 4.138 2.964 6.331 4.253 1.471.863 2.975 1.675 4.536 2.362a27.612 27.612 0 004.725 1.606c1.15.273 2.319.463 3.496.567" fill="none" stroke="#000" stroke-width=".265"/><path d="M152.986 260.903c.402.308.68.775.756 1.276.038.25.028.505 0 .756a1.763 1.763 0 01-.133.549.762.762 0 01-.387.396c-.163.066-.344.055-.52.047-1.353-.062-2.71.077-4.063 0-.854-.048-1.701-.183-2.551-.283-1.536-.182-3.088-.255-4.63-.142-.473.034-.944.086-1.418.094-.978.017-1.951-.151-2.93-.141-1.1.01-2.21.257-3.165.803-.495.283-.948.645-1.473.87a2.257 2.257 0 01-.829.195 1.445 1.445 0 01-.816-.215c-.221-.142-.39-.352-.557-.554-.168-.203-.346-.407-.577-.532-.299-.163-.652-.177-.992-.19-1.296-.048-2.593-.128-3.874-.33-1.423-.225-2.821-.6-4.253-.756-.815-.089-1.637-.105-2.456-.142a44.332 44.332 0 01-3.45-.283c-1.57-.194-3.145-.483-4.724-.378-.31.02-.62.056-.93.056-.31.001-.625-.034-.913-.15a1.703 1.703 0 01-.52-.332" fill="none" stroke="#000" stroke-width=".265"/><path d="M107.581 261.517a7.246 7.246 0 003.135-.532c1.15-.473 2.158-1.234 3.107-2.038a37.183 37.183 0 005.68-6.046c.485-.646.955-1.31 1.537-1.871.264-.255.558-.498.701-.836a.806.806 0 00.068-.285.52.52 0 00-.068-.283.486.486 0 00-.232-.194c-.095-.04-.2-.05-.302-.04-.123.014-.24.059-.35.115-.11.056-.212.124-.318.186-.254.15-.523.273-.802.368-.621.212-1.3.285-1.938.133a1.892 1.892 0 01-.704-.31 1.129 1.129 0 01-.432-.625 1.152 1.152 0 01.065-.683c.085-.216.22-.41.37-.587a4.63 4.63 0 011.002-.868c.521-.342 1.092-.601 1.67-.835.436-.177.879-.34 1.3-.551.42-.211.821-.472 1.139-.82.555-.604.816-1.425.935-2.237.036-.244.06-.49.067-.735.015-.536-.055-1.07-.1-1.604-.032-.379-.05-.76-.1-1.136-.066-.496-.184-.983-.3-1.47a193.499 193.499 0 01-2.74-13.564M103.433 63.674a6.987 6.987 0 001.67-1.738c.698-1.036 1.102-2.236 1.538-3.407a57.21 57.21 0 012.205-5.145M108.846 53.384a16.356 16.356 0 001.536 4.41c.09.171.185.345.334.467.153.125.35.185.546.205.196.02.394.005.59-.004.49-.023.983-.008 1.47-.067.893-.109 1.736-.465 2.54-.868a20.95 20.95 0 002.672-1.604" fill="none" stroke="#000" stroke-width=".265"/><path d="M118.534 55.923a101.627 101.627 0 01-1.002 5.212c-.336 1.53-.708 3.056-1.203 4.543-.217.654-.461 1.316-.468 2.005-.004.436.09.872.268 1.27.223.497.59.94 1.069 1.202.043.024.088.046.133.067h-.066M117.265 70.222c-.492.2-.933.525-1.27.935-.224.272-.401.579-.601.869-.932 1.351-2.322 2.306-3.475 3.474-1.895 1.922-3.133 4.41-5.011 6.348a12.974 12.974 0 01-4.01 2.806" fill="none" stroke="#000" stroke-width=".265"/><path d="M102.899 84.654a17.102 17.102 0 00-2.64-.218c-.537-.003-1.072.02-1.607.047-.902.046-1.824.105-2.693-.142a5.843 5.843 0 01-1.04-.425c-1.407-.714-2.7-1.777-3.354-3.213a3.895 3.895 0 01-.332-1.114 2.643 2.643 0 01.095-1.154c.143-.436.416-.82.73-1.154.314-.334.672-.624 1.019-.925 1.559-1.353 2.903-2.933 4.205-4.535 2.146-2.642 4.199-5.36 6.151-8.147M125.89 54.832a1 1 0 01.052-.528c.061-.169.156-.323.262-.468.212-.29.47-.55.622-.874.055-.12.095-.247.152-.366a.704.704 0 01.249-.303.502.502 0 01.274-.072c.096.002.191.03.274.08a.72.72 0 01.32.46c.055.242.003.497-.087.728-.09.232-.215.448-.314.675-.11.252-.186.519-.322.757-.068.12-.15.232-.253.323a.809.809 0 01-.36.19.72.72 0 01-.56-.117.78.78 0 01-.309-.485zM110.048 67.015c.167-.275.345-.543.535-.802.243-.333.512-.66.868-.869a1.07 1.07 0 01.395-.146.61.61 0 01.407.08c.078.05.141.12.185.203a.67.67 0 01.074.265c.014.184-.041.369-.125.534a1.716 1.716 0 01-1.136.868c-.4.093-.832.045-1.203-.133z" fill="none" stroke="#000" stroke-width=".265"/><path d="M94.778 83.892a9.037 9.037 0 001.771-1.417c.623-.643 1.164-1.41 1.323-2.292a1.82 1.82 0 00.029-.512 1.013 1.013 0 00-.17-.48c-.155-.218-.41-.35-.673-.394a1.875 1.875 0 00-.792.063 3.525 3.525 0 00-1.418.78c-.754.673-1.209 1.609-1.677 2.504-.07.134-.14.268-.212.402" fill="none" stroke="#000" stroke-width=".265"/><path d="M79.89 256.032a48.028 48.028 0 007.572 4.35 48.093 48.093 0 0014.493 4.056" fill="none" stroke="#000" stroke-width=".274"/><path d="M103.3 261.72a14.486 14.486 0 01-7.256-1.497M133.68 254.865a46.798 46.798 0 0014.619 7.475M122.7 252.88c-.381.458-.756.921-1.124 1.39-.919 1.171-1.797 2.381-2.844 3.44a14.652 14.652 0 01-2.646 2.116M126.47 252.285a47.273 47.273 0 012.845 9.922M129.315 262.207l.265 1.654M132.755 256.651l1.918 7.21M77.548 261.92a10.903 10.903 0 001.544-4.255M126.76 53.529a.277.277 0 00-.044.147.687.687 0 00.016.154c.01.046.02.092.04.134.019.042.048.08.088.104.03.018.065.026.1.026a.249.249 0 00.1-.021.413.413 0 00.157-.133c.139-.182.186-.42.31-.612.054-.084.123-.16.16-.252a.306.306 0 00.024-.147.199.199 0 00-.065-.13.191.191 0 00-.118-.045.254.254 0 00-.123.03.508.508 0 00-.18.179c-.1.15-.178.324-.319.438-.05.041-.11.074-.146.128z" fill="none" stroke="#000" stroke-width=".265"/><path d="M127.007 53.684a.085.085 0 01.069.009c.02.012.035.034.039.058a.086.086 0 01-.018.067.085.085 0 01-.063.03.086.086 0 01-.07-.033.086.086 0 01-.012-.076.085.085 0 01.055-.055z" fill="none" stroke="#000" stroke-width=".265"/><path d="M132.48 216.472c-.002-.238.23-.684.513-.99.422-.455.386-.512-.193-.308-.39.137-.82.072-.955-.146-.227-.368.366-.58 1.2-.427.197.036.258-.2.133-.525-.293-.764 2.146-3.27 2.901-2.98.316.12.477.062.358-.13-.37-.598.75-2.48 1.62-2.727.776-.22.783-.269.11-.785-.394-.303-.618-.65-.498-.77s.301-.675.403-1.234c.156-.862-.033-1.083-1.244-1.455-1.125-.345-1.53-.316-1.907.139-.263.317-.642.577-.841.577-.654 0-.38-1.096.464-1.86.454-.412.83-1.045.836-1.408.005-.363.373-1.125.817-1.693.977-1.249 1.028-1.654.207-1.654a.63.63 0 01-.62-.634c0-1.22 2.473-4.364 3.824-4.861.398-.147.72-.412.717-.59-.01-.54-1.196-3.66-1.222-3.216-.042.705-.826-.783-.832-1.58-.004-.414.273-1.033.615-1.375.553-.553.553-.72 0-1.51-.342-.488-.622-1.381-.622-1.985 0-.603-.279-1.329-.62-1.612-.52-.431-.62-.365-.62.413 0 .75-.111.836-.58.447-.443-.368-.62-.362-.748.023-.289.867-1.153-.05-1.146-1.217.005-.905.09-.997.452-.493.397.551.423.551.238 0-.114-.34-.506-1.318-.871-2.17-.365-.853-.494-1.55-.288-1.55.608 0-.216-2.887-1.102-3.865-.444-.49-.94-1.447-1.102-2.128-.486-2.046-.97-2.372-2.329-1.57-1.492.882-1.875.504-1.32-1.303.501-1.636-.05-2.392-2.097-2.88-.649-.154-1.728-.686-2.399-1.182-.982-.726-1.287-.793-1.566-.342-.19.308-.537.442-.77.297-.233-.144-.503-.028-.6.257-.219.653-1.549-.327-1.549-1.14 0-.29-.279-.633-.62-.763-.362-.14-.62-.759-.62-1.49 0-.943-.506-1.767-2.056-3.35-2.188-2.235-2.393-2.649-1.888-3.807.49-1.125-1.417 4.366-4.174 2.446-.794-.553-4.445 3.877-4.03 3.449.285-.293 1.457-6.318 1.3-7.021l-.147-.652.146.652c-1.367 1.29-1.62 4.786-1.035 5.432.47.52 4.183 1.268 3.873 1.82-.241.432-3.516-10.882-3.354-9.706.325 2.366-.197 2.685-1.31.8-.798-1.35-1.68-1.607-2.065-.6-.207.537-.339.504-.838-.208-.844-1.205-1.436-1.05-1.117.292.35 1.472 1.33 2.584 2.28 2.584 1.264 0 2.01 2.17 2.268 6.607.206 3.548.15 4.141-.393 4.141-.348 0-1.042-.575-1.543-1.278-.687-.965-1.149-1.232-1.888-1.09-.925.176-.98.071-.988-1.926-.006-1.459-.26-2.434-.818-3.147-.864-1.105-1.093-2.48-.413-2.48.635 0 .49-1.902-.187-2.465-.33-.274-.958-.384-1.395-.245-.583.185-.858.017-1.026-.628-.128-.488-.427-.758-.673-.606-.243.15-.337.694-.208 1.209.146.58-.008 1.137-.405 1.466-.53.44-.89.384-2.094-.327-.8-.472-1.734-.751-2.074-.62-.341.13-.62.043-.62-.193s.407-.559.905-.717c.793-.252.825-.345.254-.761-.357-.261-.717-.822-.8-1.246-.243-1.234-2.315-1.23-3.46.006-.551.593-1.018.828-1.109.557-.102-.307-.689-.156-1.694.437-1.105.652-1.537 1.19-1.537 1.914 0 .825-.13.94-.723.635-.398-.204-.91-.32-1.137-.257-.228.063-.925.227-1.55.365-.835.184-1.138.502-1.138 1.194 0 1.313-.757 1.935-2.356 1.935-1.617 0-1.87 1.068-.537 2.274.97.879 1.064 1.447.236 1.447-.325 0-.903.312-1.286.695-.65.65-.72.648-1.1-.03-.38-.678-.455-.68-1.167-.036-.42.379-.674.918-.566 1.199.108.28-.006 1.04-.252 1.688-.394 1.037-.326 1.282.567 2.035.559.471 1.135 1.266 1.28 1.767.219.755-.01 1.05-1.336 1.727-.88.449-1.842 1.109-2.14 1.467-.296.357-.842.635-1.212.617-.428-.02-.485-.108-.156-.24 1.18-.477.448-1.047-1.033-.806-1.812.293-1.993.303-4.444.235l-1.86-.052v-1.536c0-1.941-.47-2.405-2.23-2.2-1.155.136-1.526.439-2.105 1.723-.716 1.588-3.407 4.44-4.013 4.252-.452-.14-2.153 1.596-2.256 2.301-.108.735-.559 1.186-.559.559 0-.265-.168-.482-.373-.482-.93 0-2.323 6.82-1.717 8.413.203.534.1 1.966-.258 3.577-.327 1.477-.677 3.244-.777 3.926-.1.682-.273 1.482-.384 1.778-.111.296-.018.425.207.286.365-.226.675 2.598.408 3.724-.054.227-.194 1.208-.31 2.18-.222 1.846-.805 2.619-1.331 1.766-.183-.294-.423.213-.587 1.236-.208 1.303-.123 1.853.34 2.204.34.258.683 1.126.761 1.93.079.805.274 1.676.435 1.936.16.26.12.58-.093.71-.211.131-.48.005-.595-.28-.166-.41-.292-.404-.595.027-.487.693-1.191-2.827-1.582-7.908-.262-3.392.114-6.018 1.077-7.522.261-.409.97-2.779 1.67-5.581.198-.796.473-3.307.612-5.581.303-4.983.849-7.352 2.13-9.239.927-1.367 1.2-2.716 1.036-5.126-.044-.656.655-2.535 1.653-4.441 2.162-4.13 8.194-12.373 8.602-11.712.19.307-.26 1.491.976.116 5.368 3.649-.862.067-.976-.116-.114-.184 3.875-3.88 5.219-4.891 1.722-1.295 2.973-1.678 4.934-2.17 5.15-1.294 6.05-2.135 8.012-7.483 1.88-5.126 5.255-11.797 10.714-21.17 4.889-8.396 9.408-17.278 10.369-20.378.317-1.023.797-2.232 1.066-2.687.427-.722.945-2.27 1.26-3.773.27-1.28.69-2.221.993-2.221.435 0 .323 2.098-.151 2.85-.2.316 2.492 1.151 2.41 1.855-.082.704-.773 1.635-.911 2.07-.192.605-2.507.731-2.001.537.416-.16.822.047 1.095.558.342.638.303.811-.185.811-.341 0-.806.347-1.033.77-.352.659 3.107-1.77 4.467-1.235 1.39.546-1.724 3.392-1.905 4.34-.133.694 2.094-5.272 2.417-5.272.28 0-1.72 6.081-1.851 5.738-.15-.39.004-.62.417-.62.466 0-.284 1.315-.417.62-.103-.538.908-2.861 1.163-3.21.415-.568.641-.555 2.116.121 1.715.786 3.322 1.016 6.218.89 1.538-.068 1.682-.166 1.517-1.03-.108-.568.093-1.184.497-1.519.765-.635 5.786-1.074 5.415-.473-.13.209.042.487.382.617s.618.533.618.895c0 .361.186.542.413.402.536-.331.522-.07-.066 1.22-.264.58-.775 1.068-1.137 1.086-.394.02-.458.113-.162.234.373.152.383.45.037 1.208-.252.553-.6 1.006-.775 1.006-.174 0-.597.561-.939 1.247-.342.686-.449 1.14-.237 1.01.534-.33.482.072-.177 1.38-.487.97-.429 1.992.442 7.732 1.368 9.019 1.6 10.338 1.911 10.845.107.174.3.985.43 1.801.364 2.305 3.058 10.965 4.569 14.687 2.025 4.99 3.83 7.392 9.74 12.951 4.502 4.237 5.58 5.497 6.812 7.958 1.166 2.331 1.463 3.407 1.463 5.3 0 1.306.305 3.094.679 3.975 1.202 2.837.835 8.072-1.1 15.685a390.188 390.188 0 00-3.061 13.2c-1.664 7.93-2.567 10.42-4.889 13.475-2.62 3.447-5.266 6.428-5.269 5.935zM47.595 186.03c-.132-.33-.23-.232-.25.25-.017.435.08.68.218.542.137-.137.152-.494.032-.792zm4.138-18.415c-.104-.402-.197-.173-.205.509-.009.682.077 1.011.19.731.113-.28.12-.838.015-1.24zm17.904-1.86c0-.242-.263-.201-.62.095-.341.283-.62.58-.62.658 0 .079.279.036.62-.095.341-.13.62-.427.62-.658zm-17.524.169c-.116-.187.173-.668.642-1.07 1.098-.94.44-1.786-.85-1.095-.977.523-1.116 1.268-.375 2.008.57.57.891.657.583.157zm18.764-1.314a.415.415 0 00-.413-.413.415.415 0 00-.414.413.415.415 0 00.827 0zm50.099-4.224c-.297-.296-.49-.32-.49-.062 0 .235.125.551.276.703.152.152.372.18.49.062.117-.117-.007-.434-.276-.703zm-63.733-4.674c.799-.963.229-1.144-.626-.2-.413.457-.559.83-.324.83.235 0 .662-.284.95-.63zm1.645-1.9c0-.227-.186-.298-.413-.157-.227.14-.413.441-.413.668 0 .228.186.299.413.158.227-.14.413-.441.413-.669zm16.537-3.126c0-.832-.68-.322-.951.712-.184.704-.12.77.363.37.323-.269.588-.756.588-1.082zm5.318-2.557c.825-.825.498-1.71-.632-1.71-.288 0-.722-.371-.966-.826-.578-1.08.44 2.21-1.191 3.456-1.231.938-2.836-2.123-2.432-1.054.412 1.091.58 1.164 2.432 1.054 1.293-.078 2.269-.4 2.79-.92zm17.626-3.363c0-1.133-.92-1.602-1.284-.654-.342.891.134 2.002.768 1.791.284-.095.516-.606.516-1.137zm-11.657-2.114c.671-1.067.045-2.02-1.328-2.02-1.48 0-2.076.763-1.134 1.452.376.275.683.725.683 1.001 0 .691 1.265.383 1.779-.433zm2.528.195c.143-.374.175-.765.071-.869-.328-.328-1.07.332-1.07.952 0 .811.677.754.999-.083zm12.643.197c0-.19-.175-.345-.389-.345a.794.794 0 00-.602.345c-.117.19.058.344.39.344.33 0 .601-.155.601-.344zm9.095-2.574c0-.09-.289-.274-.641-.41-.368-.14-.534-.07-.39.163.243.393 1.031.581 1.031.247zm-13.229-1.698c0-.341-.073-.62-.162-.62-.09 0-.27.279-.4.62-.132.34-.059.62.162.62.22 0 .4-.28.4-.62zm9.4-3.204c-.352-.987-.52-1.145-.634-.596-.193.935.174 1.94.708 1.94.249 0 .22-.518-.075-1.344zM92.544 124.57c.296-.48-1.888 4.134-2.652 4.038-1.365-.17-.825-5.722-.825-5.12 0 .999 2.96 1.92 3.477 1.082zm6.333-15.607c-.137-.137-.494-.152-.792-.033-.33.132-.232.23.25.25.435.018.68-.08.542-.217zm7.554-3.836c0-.46 2.499.911 1.982 1.23-.212.132-4.3-1.429-3.99-1.233.735.466 2.008.468 2.008.003zm5.787-7.076c-.801-.518-1.24-.518-1.24 0 0 .227-2.358 1.36-1.847 1.357.752-.005 3.589-1.033 3.087-1.357z" fill="#fbf5da" stroke-width="1.563"/><path d="M103.474 63.182a8.885 8.885 0 01-.065-.922c-.028-1.022.097-1.74.468-2.667.46-1.152 1.109-2.125 2.7-4.052 1.048-1.268 1.382-1.706 2.128-2.782l.062-.09-.015.11c-.008.06-.024.213-.035.341-.016.192-.07.34-.317.859a60.027 60.027 0 00-2.059 4.938c-.635 1.72-1.058 2.574-1.646 3.327a7.957 7.957 0 01-.99 1.03l-.186.154z" fill="#f7f2de" stroke-width=".138"/><path d="M126.503 55.303a.625.625 0 01-.476-.473 1.141 1.141 0 010-.332c.037-.176.132-.369.278-.57.064-.088.29-.374.292-.37a.81.81 0 00.001.292c.03.143.062.212.13.28.073.073.149.101.256.095a.402.402 0 00.278-.137c.093-.092.15-.188.252-.426.073-.17.104-.228.182-.34.11-.158.142-.233.148-.345a.327.327 0 00-.086-.255.328.328 0 00-.356-.08.44.44 0 00-.17.104c-.06.057-.102.113-.19.257a1.37 1.37 0 01-.17.245.499.499 0 01-.11.09c.001-.003.021-.035.045-.07.09-.137.131-.22.213-.423.093-.233.13-.3.212-.381a.362.362 0 01.355-.097c.062.015.145.061.197.11.199.186.249.469.145.826-.036.127-.084.238-.243.566-.103.21-.141.298-.227.523a9.867 9.867 0 01-.098.245c-.156.366-.343.574-.587.653a.408.408 0 01-.142.02.608.608 0 01-.13-.007z" fill="#000034" stroke-width=".024"/><path d="M127.197 53.623a.195.195 0 00-.15-.073.201.201 0 00-.147.041c-.016.012-.029.02-.029.017 0-.008.037-.04.094-.083.101-.076.177-.17.293-.36a5.25 5.25 0 01.077-.123c.083-.126.177-.183.225-.136.015.016.016.02.014.06-.003.05-.02.089-.07.16a1.74 1.74 0 00-.234.42l-.047.11z" fill="#323232" stroke-width=".024"/><path d="M110.467 67.006c-.096-.02-.174-.053-.174-.074 0-.106.614-.928.882-1.181.296-.28.517-.396.754-.398.177-.001.208.01.302.116.14.157.169.33.091.566-.234.717-1.042 1.14-1.855.97z" fill="#520" stroke-width=".138"/><path d="M102.236 84.42c-.88-.119-1.901-.153-3.015-.102-2.312.107-2.973.046-3.879-.362l-.227-.103.254-.179c1.127-.798 2.05-1.841 2.426-2.743.442-1.062.294-1.874-.399-2.185-.254-.114-.748-.126-1.137-.028-.4.101-.905.35-1.272.626-.641.483-1.13 1.154-1.83 2.511-.127.246-.244.448-.26.448-.05 0-.474-.494-.714-.83a5.497 5.497 0 01-.62-1.164c-.273-.726-.263-1.534.026-2.108.258-.514.517-.8 1.548-1.708a33.078 33.078 0 002.633-2.65c1.97-2.246 5.07-6.244 7.373-9.506.309-.436.447-.598.656-.765a7.765 7.765 0 001.184-1.226c.631-.849.928-1.458 1.658-3.4a65.064 65.064 0 011.33-3.318c.405-.92.796-1.758.812-1.741.008.008.073.234.144.503.277 1.052.673 2.13 1.112 3.028.33.677.446.855.64.989.304.209.485.229 1.638.184 1.114-.043 1.44-.089 2.077-.294.955-.307 2.46-1.071 3.568-1.813.192-.128.352-.229.356-.225.016.017-.254 1.517-.483 2.676-.585 2.966-1.038 4.81-1.624 6.62-.338 1.041-.42 1.357-.473 1.833-.107.953.263 1.952.955 2.578.125.113.244.205.266.205.022 0-.06.06-.18.132-.524.316-.84.642-1.323 1.367-.564.845-1 1.316-2.294 2.476-1.735 1.555-2.183 2.07-3.95 4.545-1.284 1.797-1.801 2.443-2.59 3.229-.7.698-1.546 1.36-2.376 1.86-.609.367-1.313.716-1.432.71a13.43 13.43 0 01-.578-.07zm8.901-17.114c.26-.029.504-.124.776-.304.757-.501.976-1.39.448-1.817-.127-.102-.16-.111-.418-.111-.236 0-.312.016-.488.106-.274.138-.561.398-.848.765-.22.282-.698.994-.738 1.1-.04.103.725.323 1.009.29l.26-.029z" fill="#f60" stroke-width=".138"/><path d="M94.434 83.48a7.364 7.364 0 01-.963-.664 14.886 14.886 0 00-.3-.238c-.049-.035.138-.423.617-1.28.615-1.1 1.218-1.732 2.004-2.099.438-.205.716-.268 1.093-.25.39.017.602.125.75.38.284.483.021 1.5-.609 2.355-.283.385-.934 1.052-1.367 1.402-.327.264-.81.606-.854.605-.013-.001-.18-.096-.37-.211z" fill="#d45500" stroke-width=".138"/><path d="M105.891 265.078c-1.099-.512-1.745-.67-3.15-.77-1.699-.122-4.54-.594-6.548-1.089-5.33-1.313-10.33-3.476-14.828-6.415-.727-.475-1.367-.864-1.42-.864-.536 0 1.1 1.178 3.725 2.682 4.363 2.5 9.292 4.339 14.348 5.354l1.927.387-1.177.03c-.647.015-1.856-.044-2.685-.132a78.076 78.076 0 00-3.783-.264c-1.25-.056-3.53-.25-5.064-.43-2.469-.289-3.118-.327-5.633-.33-2.387-.004-3.107.032-4.496.224-2.744.38-3.38.285-3.735-.566-.233-.555-.107-1.11.527-2.329.907-1.74.917-1.793.943-4.988.021-2.46.052-2.925.263-3.928.349-1.663.33-3.386-.052-4.642-.766-2.522-3.897-9.787-6.416-14.891-1.52-3.08-1.71-3.553-1.71-4.267.001-.844.475-1.369 1.567-1.733.29-.096.758-.404 1.178-.775.616-.544.747-.615 1.132-.615.623 0 .98.288 1.666 1.344.57.878 1.028 1.306 2.26 2.113 1.243.814 1.826 1.385 2.14 2.096.147.332.377 1.754.812 5.026.773 5.805 1.12 7.506 2.144 10.505.992 2.908 1.985 4.662 3.399 6.005.767.728 1.35 1.117 4.011 2.68 3.528 2.07 6.11 3.345 7.907 3.903.369.115 1.067.381 1.55.591 2.653 1.155 3.39 1.295 7.245 1.378 2.37.05 3.203.101 3.325.203.22.183.384.682.278.852-.047.077-.066.172-.04.212.024.04-.097.193-.27.339-.359.3-1.199.58-1.746.58-.385 0-1.49-.47-1.943-.827-.225-.177-.42-.206-1.367-.206-1.797 0-3.753-.42-5.372-1.151-.41-.186-.701-.263-.76-.204-.172.171.015.3.987.675 1.754.679 3.861 1.093 5.557 1.093.509 0 .694.049.96.251.18.138.562.35.846.471.284.121.949.481 1.478.8 1.383.834 1.76 1.362 1.237 1.728-.317.222-.557.201-1.217-.106zm-27.687-4c.396-.777.888-2.255.978-2.942.058-.445.043-.543-.084-.543-.107 0-.193.192-.276.617-.182.92-.49 1.816-.955 2.764-.23.47-.381.903-.34.971.097.156.265-.059.677-.866zM131.056 265.019c-.113-.062-.453-.367-.755-.677l-.548-.564-.248-1.413c-.444-2.526-.738-3.775-1.413-6.012-.396-1.312-1.363-4-1.481-4.118-.03-.03-.105-.003-.167.059-.082.082.002.408.303 1.182.584 1.503 1.296 3.805 1.72 5.564.347 1.435.884 4.18.884 4.514 0 .302-3.365.005-6.201-.547-1.765-.343-2.66-.44-6.046-.658a56.201 56.201 0 01-3.308-.331c-1.214-.166-2.141-.224-3.488-.219-1.009.004-1.834-.034-1.834-.084s.153-.091.34-.091c.873 0 2.5-.64 3.696-1.451.984-.668 2.601-2.103 4.027-3.572 1.212-1.25 1.976-2.148 3.635-4.279.376-.483.897-1.085 1.158-1.338.26-.252.526-.618.59-.812.1-.303.088-.391-.086-.626-.297-.398-.63-.388-1.491.046-1.177.594-2.534.629-3.185.081-.652-.549-.277-1.491.928-2.326.312-.217 1.186-.657 1.94-.979 1.539-.655 2.052-.984 2.5-1.602 1.1-1.517 1.101-3.813.006-8.557-.71-3.077-1.5-6.95-2.011-9.868l-.36-2.055.607-.839c.652-.9 1.792-2.889 1.976-3.445.061-.187.155-.34.208-.34.085 0 4.841 2.346 4.938 2.436.021.02-.061.56-.182 1.203-.748 3.955-.805 7.81-.165 10.994.143.707.592 2.232 1.035 3.514 1.1 3.18 1.73 5.688 2.428 9.656.379 2.155.588 2.664 1.468 3.581 2.161 2.25 9.147 6.628 13.056 8.18 2.222.883 4.8 1.57 6.51 1.733.81.077 1.113.225 1.332.648.274.53.26 1.632-.026 1.938-.175.188-.352.206-2.328.229-1.686.019-2.536-.024-4.022-.204-1.696-.206-2.346-.228-6.535-.221-3.892.006-4.732.033-5.148.166-.367.118-.508.128-.539.039-.023-.067-.443-1.633-.933-3.48-.49-1.848-.922-3.392-.96-3.432-.038-.04-.119-.04-.18 0-.073.048.195 1.215.8 3.483.501 1.876.911 3.48.912 3.566 0 .15-.356.376-1.741 1.102-.683.358-1.234.435-1.616.226zm17.312-2.701c0-.078-.443-.277-1.06-.477-4.244-1.378-9.52-4.096-12.86-6.624-.488-.37-.712-.485-.768-.396-.111.18-.095.196 1.02.99a47.519 47.519 0 0012.014 6.184c1.384.48 1.654.532 1.654.323zm-31.21-3.027c1.13-.829 2.125-1.87 3.799-3.972.882-1.108 1.668-2.09 1.746-2.181.117-.137.118-.186.005-.28-.106-.088-.478.32-1.718 1.89-1.797 2.273-2.888 3.417-4.119 4.314-.833.608-.921.702-.787.836.086.086.271-.019 1.074-.607z" fill="#d45500" stroke-width=".391"/><path d="M131.839 173.2a3.363 3.363 0 012.028 1.314c.481.67.701 1.522.603 2.34-.09.754-.433 1.45-.656 2.176a3.94 3.94 0 00-.197 1.117c-.003.38.075.765.268 1.092.222.376.582.654.97.852.388.2.808.327 1.223.463.64.211 1.28.452 1.826.849.272.198.518.435.71.711.194.276.333.593.387.925.086.529-.044 1.071-.243 1.569-.198.497-.464.966-.666 1.462-.203.496-.343 1.034-.27 1.565.035.266.125.525.276.747.15.222.362.404.61.504.192.076.4.103.592.176a.87.87 0 01.267.153c.077.067.14.156.165.255a.472.472 0 01-.014.27.578.578 0 01-.15.227.884.884 0 01-.495.215c-.363.048-.736-.052-1.095.02-.25.048-.479.18-.661.356-.183.177-.32.397-.416.632-.192.47-.221.988-.239 1.496-.03.885-.035 1.784-.292 2.63-.346 1.14-1.118 2.091-1.765 3.09-.323.5-.62 1.022-.817 1.585-.196.562-.288 1.169-.195 1.757.029.183.076.366.17.526.094.16.238.296.415.351.144.045.3.035.448 0 .147-.035.287-.094.429-.146.313-.115.644-.198.978-.19.334.008.673.113.922.336.234.21.372.509.454.813.082.304.115.618.176.927.06.309.151.62.335.875.092.127.207.24.342.321.134.082.29.131.447.133.073.001.146-.008.22-.012a.704.704 0 01.218.012c.12.03.225.115.28.226.056.11.06.245.013.36" fill="none" stroke="#000" stroke-width=".265"/><path d="M82.785 239.372c-.284-.05-1.377-.239-2.429-.418-1.264-.215-1.912-.417-1.912-.595 0-1.287-1.095-7.953-1.406-8.56-.246-.479-.945-1.134-1.959-1.836-.867-.6-1.782-1.39-2.033-1.757-.959-1.398-1.464-1.802-2.253-1.802-.54 0-.892.15-1.253.533-.275.293-.954.728-1.508.967-.764.328-1.08.605-1.304 1.141-.379.906-.23 1.579.8 3.633.447.893.77 1.666.718 1.72-.112.11-6.186-4.196-10.37-7.353-3.654-2.758-7.478-6.536-9.089-8.98-3.324-5.041-4.69-11.03-4.699-20.6-.006-7.201.687-12.977 2.32-19.327.841-3.272 1.61-5.625 1.635-5.005.028.678 1.978-6.805 2.606-6.44.845.494 1.259 9.177 2.106 8.66 1.032-.629 1.878-1.982 2.452-3.92.764-2.576-4.955.37-4.178-.312.942-.827 7.8-4.062 8.54-3.267.292.313.434-5.134.79-4.51.503.889 1.251 7.461 2.034 7.85.968.48 1.072.488 3.076.27 1.938-.21 2.202-.192 4.013.279 1.067.277 2.211.504 2.543.504 1.428 0 2.492-.88 2.492-2.06 0-.996-.411-1.523-1.946-2.492-1.313-.829-1.775-1.455-1.775-2.403 0-.791.576-1.851 1.31-2.411.972-.74 3.054-1.745 4.196-2.024 1.238-.302 1.522-.514 1.522-1.134 0-.607-.553-.912-1.654-.912-1.052 0-1.653-.301-1.653-.827 0-.597.74-.894 1.839-.739 3.473.492 3.756.419 4.742-1.23.851-1.424 1.228-1.627 2.698-1.457 3.582.414 3.608.412 4.347-.21.657-.552.682-.627.587-1.726-.054-.632-.058-1.265-.008-1.408.182-.513.883-.25 1.395.522.284.43.82.953 1.191 1.164.371.212 2.231-1.096 2.972-.315 1.418 1.494 1.166-1.48 1.98-2.077.335-.247.264 4.805.228 3.667-.04-1.241-.693-3.363-.228-3.667.43-.283 1.3 1.68 1.832 1.9 0 0 1.499-.75 1.67-.42.324.627 3.243 4.207 3.254 6.571.012 2.28-.862 1.083.115 2.099 1.934 2.011.3 3.004 1.496.636.936-1.852.738.62-1.458-1.405-1.748-1.612.245-4.351.245-5.323 0-1.167.49-1.543 2.012-1.543 1.44 0 1.655-.15 2.164-1.507.45-1.201.74-1.312 2.376-.908 1.669.412 2.697 1.01 3.225 1.877.472.774.494 1.577.085 3.148-.24.922 3.255-1.524 3.43-.868.494 1.858.392 3.408 3.132 3.971 2.902.597 18.123 1.175 10.69 6.892.135 1.716-5.915-2.397-5.304-1.786.45.45 6.007 4.265 7.01 4.564 1.88.56 12.25 6.254 12.25 6.254-10.314 4.253-16.366.48-14.937.48.98 0 2.02-1.222 2.02-2.374 0-.767 6.26.21 5.396-.576-.74-.672-7.414 5.45-7.031 5.213.11-.067.181-8.26.695-7.488 1.087 1.635 1.518 3.253 1.187 4.453-.225.815-.193.867.856 1.394 1.446.725 4.593 1.789 3.899 3.927-.854 2.63-.675-.131 1.903.809 3.552-2.455 1.751 4.912 1.751 5.894 0 .325.574 1.996.233 2.797-.341.802.232 1.473.232 1.712 0 .742-.274 1.703.382 1.931.938.328-.652 2.902-1.662 2.902-.548 0-.373-.597-.736-.284-.482.414-.005-1.087-.26.986-.159 1.28-1.231 2.237-1.31 2.377-.08.14 1.95 2.679 1.32 3.685-.986 1.574.908 7.273.83 8.335-.056.794-5.788-4.569-5.63-4.413.143.141.872.243 1.732.243h1.484l.414 1.264c.492 1.505 1.513 1.392 2.15 1.392 1.014 0 .03 1.298-2.057 4.062-1.166 1.545-5.038 5.967-7.76 8.863l-1.434 1.525-2.502-1.254-2.502-1.255.49-1.689c.506-1.747.603-2.47.332-2.47-.086 0-.32.723-.518 1.606-.475 2.113-2.116 5.42-3.646 7.344-2.72 3.423-8.25 7.253-15.586 10.795-4.374 2.112-8.083 3.353-12.442 4.165-1.592.296-7.928.55-8.992.361z" fill="#f7f2de" stroke-width=".781"/><path d="M133.64 204.21c-.104-.227-.142-.475-.143-.931 0-1.114.253-1.74 1.45-3.571 1.389-2.122 1.471-2.37 1.616-4.833.074-1.255.185-1.729.511-2.179.322-.444.677-.599 1.377-.599.834 0 1.183-.159 1.183-.54 0-.186-.288-.394-.677-.487-.44-.106-.894-.485-1.087-.91-.154-.337-.181-1.15-.055-1.605.045-.16.273-.72.507-1.243.506-1.13.609-1.505.568-2.067-.341-1.621-1.595-2.143-2.918-2.614-1.67-.59-2.21-1.038-2.408-1.99-.118-.57-.037-1.059.388-2.32.284-.844.377-1.231.403-1.687.084-1.457-.725-2.68-2.12-3.207-.352-.133-.51-.387-.183-.294.826.235-18.18 13.183-17.817 13.9.54 1.063 20.48-10.335 19.922-8.68-.438 1.296-.515 1.84-.343 2.43.22.76.749 1.145 2.303 1.68 1.101.379 1.745.721 2.201 1.17.495.488.744.993.787 1.6.044.602-.082 1.052-.618 2.224-.718 1.566-.757 2.391-.142 3.005.217.215.423.335.73.424.756.219 1.004.722.56 1.137-.254.237-.497.294-1.224.286-.425-.004-.58.026-.79.156-.603.372-.79.98-.901 2.921-.04.704-.126 1.476-.19 1.718-.173.654-.61 1.52-1.26 2.492-1.136 1.7-1.47 2.404-1.587 3.336-.068.546.064 1.19.291 1.417l.172.172h-.183c-.144 0-.213-.065-.324-.31z" fill="#f7f2de" stroke-width=".276"/><path d="M104.644 95.558c-.875-.312-1.426-1.209-1.506-2.453-.023-.366.013-1.143.089-1.897.162-1.62.164-3.917.005-5.254-.065-.542-.135-1.041-.157-1.11-.03-.095.069-.179.42-.355 1.18-.596 2.164-1.3 3.195-2.291.84-.808 1.481-1.597 2.894-3.563 1.385-1.927 2.036-2.704 3.02-3.6 1.724-1.575 2.448-2.326 3.034-3.151.577-.815 1.058-1.282 1.508-1.468.303-.125.294-.318-.024-.513-.507-.313-.926-1.015-1.07-1.797-.102-.547-.013-1.039.45-2.495.649-2.046 1.372-5.148 1.973-8.472.215-1.19.214-1.315-.019-1.32-.028 0-.324.176-.658.392-1.425.924-2.833 1.613-3.84 1.878-.45.12-.818.152-1.784.162-1.449.014-1.383.047-1.862-.948a15.621 15.621 0 01-1.09-2.981c-.206-.801-.267-.952-.393-.972-.16-.024-.147-.047-.974 1.775-.414.912-1.026 2.42-1.623 3.994a35.86 35.86 0 01-.624 1.55 8.25 8.25 0 01-1.55 2.226l-.54.533-.05-.284c-.092-.519-.062-1.847.056-2.422.312-1.527 1.034-2.742 3.175-5.341 1.09-1.324 1.933-2.478 2.44-3.34l.353-.601h11.329l11.135-.246.27.446c.175.457.736 2.462.945 3.377.73 3.199 1.052 6.899.888 10.165-.275 5.447-1.252 9.681-3.716 16.102a274.643 274.643 0 01-2.932 7.151l-.427.985-6.136 12.448c-.931.207 1.937-7.285 1.137-6.893-1.07.524-.271-3.426-1.721-2.298-1.455 1.133-1.938 1.46-2.749 1.862-1.477.732-2.429.77-4.747.183-1.788-.453-2.433-.553-3.172-.492-.72.06-1.22.226-2.303.768-1.3.65-1.989.796-2.65.56zm22.382-40.067c.281-.146.444-.388.808-1.208.521-1.17.55-1.573.146-1.977-.16-.16-.278-.21-.495-.21-.33 0-.497.147-.75.657-.09.18-.293.5-.453.708-.391.512-.57.88-.57 1.172 0 .7.715 1.167 1.314.858z" fill="#f7f2de" stroke-width=".073"/><path d="M109.555 51.305c.154-.331.793-1.903 1.076-2.755.283-.852.63-1.8.771-2.105 1.166-2.523 3.598-4.147 7.132-4.762 1.328-.232 3.28-.265 4.386-.076 3.586.614 5.879 2.526 7.863 6.556.444.903 1.272 2.891 1.272 3.057 0 .065-1.032.692-9.57.45l-12.993-.23z" fill="#f7f2de" stroke-width=".276"/><ellipse ry="6.946" rx="4.858" cy="149.598" cx="91.57" fill="#fbf5da" stroke-width=".265"/><ellipse ry="6.946" rx="4.858" cy="150.859" cx="103.663" fill="#fbf5da" stroke-width=".265"/><ellipse ry="2.067" rx="1.964" cy="144.658" cx="98.392" fill="#fbf5da" stroke-width=".265"/><ellipse ry="4.651" rx="11.369" cy="140.11" cx="105.73" fill="#fbf5da" stroke-width=".265"/><ellipse ry="4.599" rx="5.891" cy="135.821" cx="108.727" fill="#fbf5da" stroke-width=".265"/><ellipse ry="3.772" rx="7.028" cy="143.056" cx="88.573" fill="#fbf5da" stroke-width=".265"/><ellipse ry="3.411" rx="9.147" cy="149.309" cx="81.494" fill="#fbf5da" stroke-width=".265"/><ellipse ry="2.356" rx="1.666" cy="145.774" cx="79.078" fill="#fbf5da" stroke-width=".265"/><ellipse ry="3.101" rx="4.341" cy="153.546" cx="76.481" fill="#fbf5da" stroke-width=".265"/><ellipse ry="3.535" rx="3.76" cy="151.665" cx="84.504" fill="#fbf5da" stroke-width=".265"/><ellipse ry="5.335" rx="3.033" cy="161.726" cx="68.806" fill="#fbf5da" stroke-width=".265"/><ellipse ry="2.448" rx=".512" cy="159.059" cx="73.447" fill="#fbf5da" stroke-width=".265"/><ellipse ry="3.325" rx="1.315" cy="157.67" cx="75.786" fill="#fbf5da" stroke-width=".265"/><ellipse ry="2.85" rx="1.133" cy="156.172" cx="79.111" fill="#fbf5da" stroke-width=".265"/><ellipse ry="2.485" rx="1.096" cy="153.833" cx="80.755" fill="#fbf5da" stroke-width=".265"/><ellipse ry="3.8" rx="2.302" cy="155.88" cx="76.041" fill="#fbf5da" stroke-width=".265"/><ellipse ry="2.521" rx="2.266" cy="158.62" cx="72.643" fill="#fbf5da" stroke-width=".265"/><ellipse ry="5.993" rx="8.222" cy="165.673" cx="68.368" fill="#fbf5da" stroke-width=".265"/><ellipse ry="1.754" rx="2.741" cy="163.334" cx="77.064" fill="#fbf5da" stroke-width=".265"/><path d="M60.146 166.33l-2.586 2.043 1.798-1.319-3.027 1.304 2.079-.809-3.262.476 2.217-.243-3.273-.385 2.204.34-3.062-1.22 2.042.899-2.643-1.97 1.74 1.396-2.043-2.587 1.319 1.799-1.304-3.027.809 2.078-.476-3.26.243 2.216.385-3.273-.34 2.204 1.22-3.062-.899 2.041 1.97-2.642-1.396 1.74 2.587-2.043-1.799 1.319 3.027-1.304-2.078.809 3.26-.476-2.216.243 3.273.384-2.204-.339 3.062 1.219-2.041-.898 2.642 1.97-1.74-1.396 2.043 2.586-1.319-1.798 1.304 3.027-.809-2.079.476 3.262-.243-2.217-.384 3.273.339-2.204-1.219 3.062.898-2.042-1.97 2.643z" fill="#fbf5da" stroke-width=".265"/><ellipse ry="3.217" rx="4.224" cy="171.59" cx="53.335" fill="#fbf5da" stroke-width=".265"/><ellipse ry="6.564" rx="1.858" cy="168.536" cx="55.145" fill="#fbf5da" stroke-width=".265"/><ellipse ry="2.667" rx="2.083" cy="166.513" cx="52.509" fill="#fbf5da" stroke-width=".265"/><ellipse ry="1.206" rx=".174" cy="163.05" cx="52.504" fill="#fbf5da" stroke-width=".265"/><ellipse ry=".355" rx=".775" cy="153.457" cx="59.664" fill="#fbf5da" stroke-width=".265"/><ellipse ry="1.973" rx="1.754" cy="155.587" cx="59.123" fill="#fbf5da" stroke-width=".265"/><ellipse ry=".792" rx="1.051" cy="163.784" cx="51.916" fill="#fbf5da" stroke-width=".265"/><ellipse ry="4.933" rx="1.462" cy="151.604" cx="65.773" fill="#fbf5da" stroke-width=".265"/><path fill="#fbf5da" stroke-width=".265" d="M60.95 149.595h2.85v1.9h-2.85z"/><ellipse ry="1.344" rx=".517" cy="97.219" cx="105.782" fill="#fbf5da" stroke-width=".265"/><ellipse ry="1.563" rx="4.625" cy="94.958" cx="112.887" fill="#fbf5da" stroke-width=".265"/><ellipse ry="1.382" rx="2.532" cy="98.653" cx="110.407" fill="#fbf5da" stroke-width=".265"/><path d="M119.97 224.17c.859-1.001 1.594-2.107 2.186-3.284.675-1.346 1.16-2.78 1.534-4.24.137-.532.259-1.068.366-1.607" fill="none" stroke="#000" stroke-width=".265"/></g><path d="M16.922 80.127a3 3 0 00-.181-.36.988.988 0 01-.063-.118c-.012-.04.034-.1.098-.127.06-.026.074-.043.038-.043a.93.93 0 01-.231-.116 2.273 2.273 0 00-.223-.112 2.507 2.507 0 01-.478-.268 2.055 2.055 0 00-.709-.326c-.045-.011-.055-.021-.14-.15a4.908 4.908 0 00-.666-.807c-.228-.227-.356-.34-.855-.755-.212-.176-.45-.376-.528-.444a5.604 5.604 0 01-.895-.975c-.067-.087-.284-.157-.643-.206-.46-.064-.552-.084-.773-.168a6.02 6.02 0 01-1.265-.663 3.779 3.779 0 01-.537-.455c-.44-.441-.686-.896-.78-1.45a2.913 2.913 0 010-.703 1.28 1.28 0 01.124-.379c.217-.429.625-.69 1.665-1.062a45.64 45.64 0 011.117-.384.531.531 0 01-.098.114.668.668 0 00-.12.147c-.016.068.033.105.173.132.046.01.124.032.174.052.15.06.233.05.384-.052a.903.903 0 01.26-.116c.171-.056.257-.103.284-.157.009-.018.036-.106.06-.196l.049-.185c.006-.02.072-.02 1.183-.02h1.177l.162.03c.528.096 1.006.215 1.587.394.753.232 1.166.484 1.316.805.031.066.056.093.056.06a.838.838 0 00-.099-.186.184.184 0 01-.027-.043c.001-.002.14-.035.307-.076l.305-.073.158.081c.693.357 1.062.578 1.228.736.155.147.213.245.356.6.102.256.231.527.362.762.197.352.23.45.23.7 0 .14-.005.187-.026.264a1.136 1.136 0 01-.411.606c-.162.129-.322.212-.746.385-.533.218-.788.37-1.022.604-.281.283-.57.744-.784 1.247a4.578 4.578 0 00-.253.793l-.015.08.24.243c.475.484.936 1.014 1.122 1.292.133.2.218.395.254.585.023.117.021.326-.002.446l-.02.096h-1.846z" fill="#a0a0a0" stroke-width=".018"/><path d="M17.07 81.156c-.389-.025-.687-.098-.859-.213a.624.624 0 01-.184-.202c-.105-.154-.19-.226-.458-.386-.194-.117-.238-.146-.3-.207-.078-.074-.098-.11-.098-.185 0-.087.006-.09.098-.042.106.054.157.1.267.24.126.158.261.304.282.305.013 0 .026-.016.054-.067a.64.64 0 01.108-.14c.07-.072.071-.073.12-.079.067-.008.29.002.386.019.1.016.313.07.409.102.078.026.1.026.092-.002a3.168 3.168 0 00-.253-.54.333.333 0 01-.055-.117c-.004-.032-.001-.039.028-.07a.264.264 0 01.074-.055c.05-.022.063-.037.035-.037a.621.621 0 01-.204-.097 1.782 1.782 0 00-.191-.102 2.917 2.917 0 01-.5-.272c-.298-.195-.447-.268-.682-.331l-.114-.03-.08-.121a4.882 4.882 0 00-.395-.524 8.577 8.577 0 00-.664-.658l-.025-.021h1.646l1.647-.001-.018.08-.023.11c-.006.028-.003.032.146.183.31.316.482.5.705.755.51.583.668.829.752 1.17.026.104.032.332.013.45-.042.25-.176.496-.382.7-.221.219-.472.329-.846.373a3.732 3.732 0 01-.53.012zm1.05-.635a.052.052 0 00.016-.033c0-.027-.093-.126-.13-.138-.041-.013-.122-.007-.143.013-.032.029-.023.05.04.092.032.021.06.044.062.05.013.036.12.046.154.016z" fill="#a0a0a0" stroke-width=".013"/><path d="M15.745 80.368a2.94 2.94 0 01-.144-.168c-.16-.202-.188-.228-.326-.295a2.664 2.664 0 01-.24-.143c-.462-.308-.822-.518-1.083-.63-.184-.08-.22-.107-.22-.167 0-.042.036-.088.1-.131.078-.052.083-.052.14-.001a.572.572 0 00.521.146c.056-.028.041-.09-.035-.147a1.08 1.08 0 00-.234-.116c-.02-.006-.035-.013-.035-.016 0-.02.12-.028.455-.03.194 0 .378-.003.409-.006a.338.338 0 01.15.019c.266.071.4.135.673.32.18.122.267.171.446.25a1.5 1.5 0 01.305.16.615.615 0 00.119.063l.049.015-.04.019c-.079.038-.123.102-.105.154a.986.986 0 00.062.11c.082.129.166.305.225.469.02.054.02.06.007.057l-.13-.039a3.733 3.733 0 00-.237-.06 1.272 1.272 0 00-.304-.03 2.074 2.074 0 00-.215.002c-.052.01-.161.125-.218.23l-.023.041zm.504-.59c.046-.022.032-.058-.035-.09a.285.285 0 00-.13-.024.56.56 0 00-.111.004l-.029.008.06.04c.092.063.188.087.245.062z" fill="#a0a0a0" stroke-width=".013"/><path d="M16.145 79.767a.423.423 0 01-.132-.07l-.02-.017.03-.006c.097-.018.254.044.213.084-.018.017-.05.02-.09.009zM14.322 78.98a.562.562 0 01-.214-.07.736.736 0 01-.16-.135c0-.004.043-.021.096-.039l.095-.03.048.014c.069.021.196.083.243.118.044.032.066.064.066.098 0 .039-.073.058-.174.045z" fill="#a0a0a0" stroke-width=".013"/><path d="M18.039 80.526c-.018-.002-.03-.008-.043-.025a.194.194 0 00-.022-.022c-.005-.005-.01-.008-.009-.009.002-.002.02.01.033.02.02.015.033.02.055.02.02 0 .032-.004.037-.013.004-.007.002-.012-.01-.021a.717.717 0 01-.028-.026c-.025-.025-.038-.031-.064-.031-.025 0-.037.005-.043.019-.002.006-.004.01-.003.014l.002.005-.008-.005c-.055-.033-.07-.052-.06-.072.01-.018.05-.03.085-.025.037.005.058.018.086.053a.579.579 0 00.034.037c.024.025.03.036.028.05-.004.02-.036.033-.07.03z" fill="#a0a0a0" stroke-width=".003"/><path d="M18.045 80.494a.16.16 0 01-.023-.014.257.257 0 00-.029-.018l-.013-.006h.01c.005.001.013 0 .019-.001l.01-.003.009.01a.099.099 0 00.02.017c.013.008.016.013.01.016-.005.002-.004.003-.013 0z" fill="#a0a0a0" stroke-width=".003"/><path d="M18.034 80.538c-.033-.004-.051-.011-.067-.031a.209.209 0 00-.058-.047c-.046-.03-.065-.05-.065-.067 0-.013.014-.031.03-.038a.206.206 0 01.074-.012c.046 0 .06.004.087.024a.663.663 0 01.083.084c.011.015.018.03.018.037 0 .014-.016.037-.03.042a.16.16 0 01-.072.008zm.05-.018c.013-.006.023-.015.025-.024.002-.013-.004-.024-.028-.05a.786.786 0 01-.035-.038c-.032-.039-.057-.052-.101-.052-.03 0-.051.007-.064.02-.02.019-.005.04.049.073.013.008.014.008.012.004-.002-.009.006-.023.016-.028.019-.01.051-.007.07.005a.187.187 0 01.025.021c.009.01.02.02.026.024.013.01.015.016.01.023-.006.011-.029.016-.05.012a.09.09 0 01-.045-.022.102.102 0 00-.029-.018l.009.008a.16.16 0 01.02.021c.02.022.03.027.06.026a.086.086 0 00.03-.005zm-.024-.029c0-.002-.005-.007-.012-.012a.217.217 0 01-.02-.018l-.01-.009-.007.003a.045.045 0 01-.016.003h-.009l.013.007.025.016c.017.013.02.014.028.014.007 0 .008 0 .008-.004zm-.06-.046l-.006-.002c-.003 0-.004.001-.004.002l.006.002c.002 0 .003 0 .003-.002z" fill="#a0a0a0" stroke-width=".003"/><path d="M17.113 81.159a3.65 3.65 0 01-.409-.044c-.243-.042-.429-.113-.54-.204a.594.594 0 01-.124-.15 2.418 2.418 0 00-.051-.072l-.019-.024v-.404l.031-.03c.051-.05.063-.054.175-.054.134 0 .245.008.339.025.094.018.258.059.36.09.08.026.102.03.11.023.005-.005.004-.008-.006-.04a3.523 3.523 0 00-.22-.476l1.041-.001h1.042l.001.009a1.231 1.231 0 01-.054.429 1.36 1.36 0 01-.555.708c-.2.124-.433.188-.763.212a6.015 6.015 0 01-.358.003z" fill="#a0a0a0" stroke-width=".003"/><path d="M9.73 74.7a4.371 4.371 0 01-.938-.744c-.513-.538-.772-1.216-.722-1.89.028-.375.135-.632.358-.865.226-.236.557-.423 1.154-.652.286-.11 1.403-.5 1.431-.5.003 0-.045.053-.107.117-.145.148-.16.195-.076.242a.473.473 0 00.121.039c.042.008.116.03.164.049a.585.585 0 00.108.034c.011 0 .002-.007-.02-.016a1.143 1.143 0 00-.235-.077c-.158-.034-.198-.08-.138-.16.015-.018.127-.134.25-.257.316-.315.653-.704.715-.827.03-.058.026-.132-.01-.233a.515.515 0 01-.032-.222c0-.168-.013-.202-.115-.302-.075-.072-.088-.106-.054-.14.023-.022.079-.038.084-.023a.204.204 0 00.106.113c.05.022.069.023.194.016l.14-.008.046.05a.5.5 0 01.072.106c.027.06.064.082.043.026a.347.347 0 00-.09-.135l-.05-.055.12-.016c.184-.025.693-.022.947.006.113.012.21.026.215.03.005.006-.016.013-.047.018-.14.021-.968.246-1 .272-.017.014.017.01.088-.008.045-.012.364-.074.709-.137l.627-.115.206.008a5.065 5.065 0 01.51.04l.082.009-.159.031c-.087.018-.24.047-.34.065-.374.066-1.177.29-1.342.373a1.126 1.126 0 00-.502.53c-.05.1-.072.171-.149.45a1.996 1.996 0 01-.076.244c-.032.049-.101.084-.274.14a.909.909 0 00-.242.105c-.095.066-.14.088-.172.088-.014 0-.023.003-.018.007.017.018.095-.012.187-.072.072-.047.141-.079.25-.115.278-.093.292-.107.35-.319l.066-.23.022-.077.12-.013a8.85 8.85 0 011.868.027c.606.078 1.137.19 1.817.387.627.18.962.315 1.222.489.154.103.3.255.363.378.044.084.064.108.064.075 0-.018-.087-.17-.114-.199-.02-.023-.047-.015.336-.108l.263-.064.153.077c.38.19.843.45 1.039.583.284.193.38.323.551.746.104.258.217.498.338.72.18.33.212.4.242.543.022.102.023.327.001.427-.084.397-.381.705-.89.923l-.092.04-4.833-.001H9.8zm1.563-4.165c-.004-.004-.014-.004-.022 0-.01.003-.007.006.007.006.012 0 .019-.002.015-.006z" fill="#a0a0a0" stroke-width=".018"/><path d="M17.444 70.763a1.251 1.251 0 00-.212-.173l-.063-.042.02-.057c.082-.234.197-.506.298-.71a.96.96 0 00.035-.077.89.89 0 00.032-.176c0-.07-.05-.145-.123-.182a.926.926 0 00-.264-.076 1.276 1.276 0 01-.322-.091c-.071-.035-.091-.067-.06-.094.031-.028.103-.04.22-.036a.808.808 0 01.217.032.259.259 0 00.095.015c.053-.003.078-.022.065-.047-.008-.016-.029-.03-.075-.052a1.537 1.537 0 01-.194-.112 4.268 4.268 0 00-.787-.395c-.19-.07-.386-.11-.56-.11-.032 0-.04-.002-.033-.005a.984.984 0 01.2-.008c.123.003.284-.002.487-.014.226-.014.317-.018.533-.023.206-.005.318-.01.417-.019l.066-.006.106.02c.258.05.364.064.6.075a.963.963 0 01.086.006c.005.005-.071.162-.113.232-.047.08-.127.193-.183.26l-.018.02.015.004c.008.002.015.002.016 0l.034-.042c.104-.13.194-.274.255-.41l.028-.063h.013c.023.003.05.013.066.024a.732.732 0 01.061.06c.052.054.072.068.119.078.059.012.125-.003.201-.046a.439.439 0 01.028-.015l-.041.078-.043.078.013.003c.016.004.013.009.07-.096a1.18 1.18 0 01.055-.095.545.545 0 01.125-.065c.12-.047.25-.059.456-.043.104.008.186.008.295 0 .047-.003.134-.006.192-.007l.105-.001.002.034v.033l-.031.007c-.275.06-.512.12-.74.189-.16.048-.411.133-.42.141-.002.002 0 .005.005.008.006.003.025-.002.094-.026a8.102 8.102 0 011.089-.3.23.23 0 01.003.06v.063l-.094.023c-.329.082-.707.197-1.002.305-.267.098-.344.144-.38.229a2.44 2.44 0 01-.163.392c-.04.08-.072.13-.15.237-.107.145-.142.216-.168.335a1.066 1.066 0 00-.008.245c.011.097.044.22.081.3.01.02.014.036.012.038a.27.27 0 01-.04.012l-.295.071-.264.064a.347.347 0 01-.064-.057zm.032-1.876c.004 0 .007-.004.007-.006a.323.323 0 00-.05-.033 8.818 8.818 0 01-.149-.091 2.194 2.194 0 00-.534-.262c-.05-.016-.055-.017-.061-.011-.006.006-.003.008.046.024.126.042.26.1.365.161.028.016.105.063.17.104.197.122.193.12.207.114z" fill="#a0a0a0" stroke-width=".006"/><path d="M17.478 70.796a1.753 1.753 0 00-.154-.14 2.185 2.185 0 00-.154-.108 6.904 6.904 0 01.306-.744c.025-.051.048-.104.051-.116.006-.023.02-.099.025-.14a.203.203 0 00-.063-.159c-.056-.055-.118-.077-.332-.12a1.22 1.22 0 01-.32-.094c-.043-.022-.068-.046-.068-.064 0-.016.01-.026.037-.04a.399.399 0 01.172-.023c.09 0 .138.007.233.03.06.016.072.017.105.016.046-.002.066-.011.068-.031.002-.02-.017-.034-.094-.074a2.248 2.248 0 01-.152-.088 4.193 4.193 0 00-.879-.434l-.065-.022v-.08l.05-.003.18-.01c.223-.014.29-.017.538-.023.227-.006.281-.008.418-.02l.06-.003.133.025c.22.043.346.058.541.067l.107.006.009.002-.008.022a2.242 2.242 0 01-.113.22 2.181 2.181 0 01-.153.22l-.04.05.013.003c.015.003.014.004.07-.068.103-.132.195-.287.25-.42l.012-.028.019.003c.038.005.067.024.111.071.048.053.077.074.112.085.057.017.12.008.196-.03a.381.381 0 01.049-.022c0 .001-.016.034-.038.074a.864.864 0 00-.04.077c0 .003.005.005.013.004.013 0 .015-.006.066-.096.058-.105.051-.098.122-.134a.767.767 0 01.26-.071c.063-.006.119-.006.223.002.103.008.255.009.321.002a3.64 3.64 0 01.367-.005c.098.006.188.013.185.016a9.36 9.36 0 00-1.136.281 6.652 6.652 0 00-.29.1c-.016.006-.016.006-.009.01.007.003.02 0 .059-.013a8.678 8.678 0 011.35-.356l.09-.017.063.008c.17.022.182.022.447.022.243 0 .249 0 .174.005-.286.02-.518.051-.775.102-.378.075-.939.236-1.35.388-.228.085-.304.13-.342.205a.77.77 0 00-.029.077 1.9 1.9 0 01-.085.213c-.073.159-.108.22-.197.341-.126.171-.167.26-.182.402-.007.055-.003.188.006.238.015.083.044.178.077.255a.107.107 0 01.01.033 28.9 28.9 0 01-.602.146c-.004 0-.017-.011-.028-.024zm.003-1.912a6.48 6.48 0 00-.357-.222 1.85 1.85 0 00-.37-.165c-.05-.016-.066-.019-.066-.009a.45.45 0 00.074.029c.185.063.26.103.6.311.089.055.113.066.12.056z" fill="#a0a0a0" stroke-width=".006"/><path d="M17.465 68.886a1.308 1.308 0 01-.193-.113 3.008 3.008 0 00-.264-.153 1.785 1.785 0 00-.25-.104.268.268 0 01-.07-.028c-.002-.01.018-.007.074.011.093.031.169.062.246.1.086.043.156.083.344.2a.696.696 0 01.13.086c-.003.003-.009.003-.017 0zM17.454 69.386a.31.31 0 00-.098-.054 1.22 1.22 0 00-.185-.045 2.92 2.92 0 01-.178-.038.838.838 0 01-.174-.061c-.055-.028-.081-.053-.081-.077 0-.014.006-.024.021-.036.04-.03.125-.046.234-.044a.935.935 0 01.226.032c.065.018.08.021.103.018.029-.004.039-.014.03-.03-.007-.012-.023-.022-.06-.04a1.428 1.428 0 01-.213-.122 4.197 4.197 0 00-.71-.363 1.758 1.758 0 00-.496-.126l-.026-.002h-.008v-.017h.006c.128.01.267.037.393.078a4.204 4.204 0 01.906.445c.07.044.092.057.139.08.086.044.104.057.101.08-.001.012-.013.021-.033.026a.357.357 0 01-.066.004.567.567 0 01-.08-.017.793.793 0 00-.34-.022c-.053.01-.09.028-.095.05-.008.029.042.065.135.1.055.02.113.034.242.06.09.02.116.025.157.036.091.023.14.046.178.081l.012.011h-.033l-.007-.007z" fill="#a0a0a0" stroke-width=".002"/><path d="M11.215 70.53a.952.952 0 01-.161-.058 6.495 6.495 0 00-.115-.027c-.085-.019-.138-.046-.156-.078-.003-.005-.004-.011-.004-.023 0-.019.006-.033.023-.058.024-.038.054-.071.15-.169.04-.04.072-.073.07-.073l-.12.041c-.28.094-.872.3-1.067.372l-.015.005v-.02l.07-.025a86.78 86.78 0 011.155-.4l.015-.006.07-.073a9.228 9.228 0 00.506-.566c.064-.077.099-.125.119-.16l.007-.013h.015a.06.06 0 01.015 0l-.008.016c-.073.119-.305.392-.553.652-.08.083-.27.275-.312.314-.097.091-.127.14-.109.18a.078.078 0 00.027.034c.022.016.048.025.12.04a.823.823 0 01.19.056.782.782 0 00.053.022c.023.008.028.01.028.015 0 .003-.004.004-.013.002z" fill="#a0a0a0" stroke-width=".003"/><path d="M11.313 70.53c-.007-.003-.003-.007.01-.008a.308.308 0 00.084-.029.847.847 0 00.067-.043c.078-.056.129-.078.304-.136.061-.02.117-.04.134-.048.065-.032.104-.067.121-.112l.052-.181c.09-.326.107-.38.157-.48.09-.18.2-.32.334-.426.028-.021.029-.022.045-.022h.016l-.029.022a1.027 1.027 0 00-.217.23 1.35 1.35 0 00-.185.358l-.015.042.045-.005c.177-.02.35-.034.558-.044.104-.005.492-.005.6 0 .155.007.386.022.412.026.008.001.01.003.01.01 0 .008.003.007-.064.002-.06-.005-.214-.015-.31-.02-.1-.004-.493-.006-.605-.002a7.402 7.402 0 00-.65.05l-.06.214c-.047.166-.058.2-.076.237-.039.076-.084.102-.313.178a.656.656 0 00-.196.084c-.11.076-.2.116-.23.103z" fill="#a0a0a0" stroke-width=".005"/><path d="M16.165 79.773a.387.387 0 01-.158-.077c-.026-.019-.022-.021.037-.024.097-.005.205.035.2.075-.003.023-.032.033-.079.026z" fill="#a0a0a0" stroke-width=".006"/><path d="M16.162 79.786a.42.42 0 01-.122-.046.402.402 0 01-.09-.067.624.624 0 01.222 0c.049.012.092.04.102.063.004.01.004.014-.002.023-.015.022-.064.034-.11.027zm.064-.018c.03-.013.02-.041-.022-.064a.299.299 0 00-.146-.03c-.073 0-.075.002-.04.029a.511.511 0 00.125.064.16.16 0 00.083.001z" fill="#a0a0a0" stroke-width=".006"/><path d="M12.679 68.515v-.163H12.9l.15.012c.012 0 .02.002.035.003l.089.007a.32.32 0 01.035.004v.3h-.53zM13.249 68.53v-.148h.002l.017.002.077.01c.025.004.038.005.087.01l.066.008c.094.01.176.017.248.022l.04.002c.002 0 .04 0 .158.006.012 0 .029 0 .038.002H14v.236h-.75z" fill="#a0a0a0" stroke-width=".001"/><path d="M12.992 68.52v-.161h.002l.018.001.034.003.034.003.133.012.02.002.116.015a.204.204 0 00.024.003c.01 0 .09.01.128.014l.016.002v.267h-.525zM12.147 68.635v-.229h.744v.457h-.744z" fill="#a0a0a0" stroke-width=".001"/><path d="M11.816 68.485V68.4a.699.699 0 00.124.003l.099-.006.067-.008.022-.003c0-.001.003-.002.04-.007l.06-.008.078-.009.034-.002h.001v.208h-.525z" fill="#a0a0a0" stroke-width=".001"/></svg>