<svg xmlns="http://www.w3.org/2000/svg" viewBox="0 0 215.9 279.4" height="1056" width="816"><defs><linearGradient id="a"><stop offset="0" stop-color="#ff9"/><stop offset="1" stop-color="#ff9" stop-opacity="0"/></linearGradient><linearGradient id="b"><stop offset="0" stop-color="#a8afff"/><stop offset="1" stop-color="#a8afff" stop-opacity="0"/></linearGradient><linearGradient id="c"><stop offset="0" stop-color="#c83737"/><stop offset="1" stop-color="#c83737" stop-opacity="0"/></linearGradient><linearGradient id="h"><stop offset="0" stop-color="#c83737" stop-opacity="0"/><stop offset="1" stop-color="#c83737"/></linearGradient><linearGradient id="g"><stop offset="0" stop-color="#f6f1da"/><stop offset="1" stop-color="#f6f1da" stop-opacity="0"/></linearGradient><linearGradient id="d"><stop offset="0" stop-color="#f6dfbc"/><stop offset="1" stop-color="#f6dfbc" stop-opacity="0"/></linearGradient><linearGradient id="e"><stop offset="0" stop-color="#f6dfbc" stop-opacity="0"/><stop offset="1" stop-color="#f6dfbc"/></linearGradient><linearGradient id="f"><stop offset="0" stop-color="#1a1a1a" stop-opacity="0"/><stop offset="1" stop-color="#1a1a1a"/></linearGradient><linearGradient id="i"><stop offset="0" stop-color="#252d61"/><stop offset="1" stop-color="#252d61" stop-opacity="0"/></linearGradient><linearGradient id="j"><stop offset="0" stop-color="#db0000"/><stop offset="1" stop-color="red"/><stop offset="1" stop-color="#cf0000"/></linearGradient><linearGradient id="k"><stop offset="0" stop-color="#db0000"/><stop offset=".9" stop-color="red"/><stop offset="1" stop-color="#cf0000"/></linearGradient><linearGradient id="l"><stop offset="0" stop-color="#ffe990"/><stop offset="1" stop-color="#ffdb43"/></linearGradient><linearGradient id="n"><stop offset="0" stop-color="#fff"/><stop offset="1" stop-color="#fff" stop-opacity="0"/></linearGradient><linearGradient id="m"><stop offset="0" stop-color="#403800"/><stop offset=".5" stop-color="#c8af00"/><stop offset="1" stop-color="#403900"/></linearGradient><linearGradient id="r"><stop offset="0" stop-color="#fdfdfd"/><stop offset=".5" stop-color="#f0f0f0"/><stop offset="1" stop-color="#b8b8b8"/></linearGradient><linearGradient id="u"><stop offset="0" stop-color="#fbc71f"/><stop offset=".741" stop-color="#efc129"/><stop offset="1" stop-color="#bf9303"/></linearGradient><linearGradient id="ab"><stop offset="0" stop-color="#fff"/><stop offset=".444" stop-color="#fff"/><stop offset="1" stop-color="#999"/></linearGradient><linearGradient id="aa"><stop offset="0" stop-color="#fdfdfd"/><stop offset=".63" stop-color="#ededed"/><stop offset="1" stop-color="#8b8b8b"/></linearGradient><linearGradient id="af"><stop offset="0" stop-color="#cfb90f"/><stop offset=".444" stop-color="#cfb90f" stop-opacity=".887"/><stop offset=".722" stop-color="#cfb90f" stop-opacity="0"/><stop offset="1" stop-color="#cfb90f" stop-opacity="0"/></linearGradient><linearGradient id="ag"><stop offset="0" stop-color="#b49700"/><stop offset="1" stop-color="#b49700" stop-opacity=".361"/></linearGradient><linearGradient id="J"><stop offset="0" stop-color="#a36f00"/><stop offset="1" stop-color="#f2cd00"/></linearGradient><linearGradient id="w"><stop offset="0" stop-color="#efcb03"/><stop offset="1" stop-color="#b09a02"/></linearGradient><linearGradient id="K"><stop offset="0" stop-color="#6c6c6c"/><stop offset="1"/></linearGradient><linearGradient id="L"><stop offset="0" stop-color="#343434"/><stop offset="1" stop-color="#4f4f4f" stop-opacity="0"/></linearGradient><linearGradient id="H"><stop offset="0" stop-color="#ffda07"/><stop offset=".631" stop-color="#ffda07"/><stop offset=".754" stop-color="#debd03"/><stop offset="1" stop-color="#bea100"/></linearGradient><linearGradient id="D"><stop offset="0" stop-color="#b6a300"/><stop offset="1" stop-color="#b6a300" stop-opacity="0"/></linearGradient><linearGradient id="o"><stop offset="0" stop-color="#807200"/><stop offset="1" stop-color="#807200" stop-opacity="0"/></linearGradient><linearGradient id="v"><stop offset="0" stop-color="#ac9a00"/><stop offset="1" stop-color="#ac9a00" stop-opacity="0"/></linearGradient><linearGradient id="x"><stop offset="0" stop-color="#807200" stop-opacity="0"/><stop offset=".259" stop-color="#807200"/><stop offset="1" stop-color="#807200" stop-opacity="0"/></linearGradient><linearGradient id="y"><stop offset="0" stop-color="#807200"/><stop offset="1" stop-color="#ffe502"/></linearGradient><linearGradient id="C"><stop offset="0" stop-color="#807200" stop-opacity=".651"/><stop offset="1" stop-color="#807200" stop-opacity="0"/></linearGradient><linearGradient id="B"><stop offset="0" stop-color="#ffe400"/><stop offset="1" stop-color="#ffe400" stop-opacity="0"/></linearGradient><linearGradient id="z"><stop offset="0" stop-color="#807500" stop-opacity=".463"/><stop offset="1" stop-color="#807500" stop-opacity="0"/></linearGradient><linearGradient id="W"><stop offset="0" stop-color="#fff" stop-opacity=".289"/><stop offset="1" stop-opacity=".186"/></linearGradient><linearGradient id="ak"><stop offset="0" stop-color="#d00"/><stop offset=".5" stop-color="#400"/><stop offset="1"/></linearGradient><linearGradient id="ai"><stop offset="0" stop-color="#ff4747"/><stop offset="1"/></linearGradient><linearGradient id="ah"><stop offset="0" stop-color="maroon"/><stop offset="1" stop-color="#ff0202"/></linearGradient><linearGradient id="am"><stop offset="0" stop-color="#b80000"/><stop offset="1" stop-color="#db0000" stop-opacity="0"/></linearGradient><linearGradient id="V"><stop offset="0" stop-color="red"/><stop offset="1" stop-color="red" stop-opacity="0"/></linearGradient><linearGradient id="al"><stop offset="0" stop-color="maroon"/><stop offset="1" stop-color="maroon"/></linearGradient><linearGradient id="Y"><stop offset="0" stop-color="#fff" stop-opacity="0"/><stop offset="1" stop-opacity=".646"/></linearGradient><linearGradient id="Z"><stop offset="0" stop-color="#fff" stop-opacity=".381"/><stop offset=".19" stop-color="#fff" stop-opacity=".251"/><stop offset=".6" stop-color="#6b6b6b" stop-opacity=".125"/><stop offset="1" stop-opacity=".124"/></linearGradient><linearGradient id="A"><stop offset="0" stop-opacity="0"/><stop offset="1" stop-opacity="0"/></linearGradient><linearGradient id="aj"><stop offset="0" stop-color="#ac0000"/><stop offset="1" stop-color="#ac0000" stop-opacity="0"/></linearGradient><linearGradient id="X"><stop offset="0" stop-color="#ccad03"/><stop offset="1" stop-color="#ccad03" stop-opacity="0"/></linearGradient><linearGradient id="I"><stop offset="0" stop-color="#d40000"/><stop offset="1" stop-color="#d40000" stop-opacity="0"/></linearGradient><linearGradient id="ae"><stop offset="0" stop-color="#bd9b0b"/><stop offset="1" stop-color="#bd9b0b" stop-opacity="0"/></linearGradient><linearGradient id="ad"><stop offset="0" stop-color="#ffe654"/><stop offset="1" stop-color="#ffe654" stop-opacity="0"/></linearGradient><linearGradient id="ac"><stop offset="0" stop-color="#b68a12"/><stop offset="1" stop-color="#b68a12" stop-opacity="0"/></linearGradient><linearGradient id="S"><stop offset="0" stop-color="#dfc181"/><stop offset="1" stop-color="#dfc181" stop-opacity="0"/></linearGradient><linearGradient id="R"><stop offset="0" stop-color="#ddbe7c"/><stop offset="1" stop-color="#ddbe7c" stop-opacity="0"/></linearGradient><linearGradient id="G"><stop offset="0" stop-color="#eee1c0"/><stop offset="1" stop-color="#eee1c0" stop-opacity="0"/></linearGradient><linearGradient id="Q"><stop offset="0" stop-color="#e4cb95"/><stop offset="1" stop-color="#e4cb95" stop-opacity="0"/></linearGradient><linearGradient id="T"><stop offset="0" stop-color="#ffda07"/><stop offset="1" stop-color="#c8aa00"/></linearGradient><linearGradient id="M"><stop offset="0" stop-color="#646b6f"/><stop offset="1" stop-color="#a3d4ed" stop-opacity="0"/></linearGradient><linearGradient id="U"><stop offset="0" stop-color="#a3d4ed"/><stop offset="1" stop-color="#a3d4ed" stop-opacity="0"/></linearGradient><linearGradient id="N"><stop offset="0" stop-color="#646b6f" stop-opacity=".412"/><stop offset=".5" stop-color="#edd1a3" stop-opacity="0"/><stop offset="1" stop-color="#6f6964" stop-opacity=".546"/></linearGradient><linearGradient id="P"><stop offset="0" stop-color="#ffda07"/><stop offset=".815" stop-color="#fddd25"/><stop offset="1" stop-color="#e2c100"/></linearGradient><linearGradient id="O"><stop offset="0" stop-color="#ffda07"/><stop offset=".483" stop-color="#e7c400"/><stop offset=".815" stop-color="#fddd25"/><stop offset="1" stop-color="#e2c100"/></linearGradient><linearGradient id="t"><stop offset="0" stop-color="#4c7f24"/><stop offset="1" stop-color="#223910"/></linearGradient><linearGradient id="s"><stop offset="0" stop-color="#111c08"/><stop offset="1" stop-color="#335518"/></linearGradient><linearGradient id="F"><stop offset="0" stop-color="#fdd173"/><stop offset="1" stop-color="#b27c0b"/></linearGradient><linearGradient id="E"><stop offset="0" stop-color="#fdd173"/><stop offset="1" stop-color="#9e6b00"/></linearGradient><linearGradient id="q"><stop offset="0" stop-color="#f7b321"/><stop offset="1" stop-color="#b77f06"/></linearGradient><linearGradient id="p"><stop offset="0" stop-color="#b77f06"/><stop offset="1" stop-color="#b77f06" stop-opacity="0"/></linearGradient><linearGradient id="ap"><stop offset="0" stop-color="#ff7f2a"/><stop offset=".248" stop-color="#ff7f2a" stop-opacity=".749"/><stop offset=".79" stop-color="#ff7f2a" stop-opacity=".498"/><stop offset="1" stop-color="#ff7f2a" stop-opacity="0"/></linearGradient><linearGradient id="ao"><stop offset="0" stop-color="#f7f7b7"/><stop offset="1" stop-color="#f7f7b7" stop-opacity="0"/></linearGradient><linearGradient id="an"><stop offset="0" stop-color="#ecec47"/><stop offset="1" stop-color="#ecec47" stop-opacity="0"/></linearGradient></defs><g transform="translate(0 -17.6)"><path d="M39.12 87.941l.756 51.405M60.136 86.84l43.565 55.325M84.412 70.432l88.264 50.863M96.217 21.69l82.319-33.14M93.544 46.215l131.497-.534" fill="none" stroke="#000" stroke-width=".265"/><circle r="49.85" cy="36.673" cx="40.011" fill="#fff" stroke="#000" stroke-width=".301" stroke-linecap="round"/><path d="M19.243 86.306l-39.823 62.006" fill="none" stroke="#000" stroke-width=".265"/><g transform="translate(175.535 145.147) scale(.09981)" stroke-width="2.004" fill="#fff" stroke="#000" stroke-linecap="round"><ellipse ry="200" rx="150" cy="200" cx="200"/><path d="M320.645 125c-27.036 25-53.644 50.426-80.407 75.693l-80.49-75.683-79.986 75.136-28.309-26.326A150 200 0 0050 200a150 200 0 005.086 51.234L79.96 275l79.816-76.313 80.55 75.684 80.355-75.674 27.99 26.373A150 200 0 00350 200a150 200 0 00-5.205-51.943z"/></g><path d="M43.302 70.762c1.388 6.004 3.3 12.901 4.713 23.709 1.414 10.808 3.263 29.147 4.334 40.81 1.003 10.907 1.914 21.603 2.332 27.816h-2.804c-.402-3.627-.729-8.423-1.082-14.221-.483-7.926-1.212-19.278-2.206-29.704-.994-10.425-2.8-23.715-4.464-32.622-1.664-8.906-3.298-16.281-4.181-21.175-.883-4.894 1.97-.616 3.358 5.387z" fill="#fff" stroke="#000" stroke-width=".228"/><ellipse ry=".384" rx=".484" cy="72.358" cx="94.582" fill="#fff" stroke-width=".1" stroke-linecap="round"/><path d="M69.159 64.396c1.388 6.003 3.3 12.901 4.713 23.709 1.413 10.807 3.262 29.147 4.334 40.809 1.002 10.908 1.914 21.604 2.331 27.816h-2.804c-.402-3.626-.728-8.422-1.082-14.22-.483-7.926-1.212-19.279-2.205-29.704-.994-10.426-2.8-23.715-4.464-32.622-1.664-8.907-3.299-16.282-4.182-21.176-.882-4.894 1.97-.615 3.359 5.388zM30.66 86.647c1.389 6.003 3.3 12.901 4.714 23.709 1.413 10.807 3.262 29.147 4.334 40.81 1.002 10.907 1.914 21.603 2.331 27.816h-2.804c-.402-3.627-.728-8.423-1.082-14.221-.482-7.926-1.211-19.278-2.205-29.704-.994-10.425-2.8-23.715-4.464-32.622-1.664-8.906-3.299-16.282-4.181-21.175-.883-4.894 1.97-.616 3.358 5.387z" fill="#fff" stroke="#000" stroke-width=".228"/><path d="M84.412 61.965c-4.844 3.807-13.283 15.332-14.697 26.14-1.413 10.807-3.262 29.147-4.334 40.809-1.002 10.908-1.914 21.604-2.331 27.816h2.804c.402-3.626.728-8.422 1.082-14.22.483-7.926 1.212-19.279 2.205-29.704.994-10.426 2.8-23.715 4.464-32.622 1.664-8.907 10.765-11.68 14.166-17.095 2.644-4.212 1.85-5.217-3.359-1.124z" fill="#fff" stroke="#000" stroke-width=".228"/><path d="M63.05 76.059c.049.01.076.048.547.059.944.02 3.391 1.037 4.073 1.523.682.486 1.005.575-.119.273-1.124-.303-4.475-1.15-6.187-.733-1.712.418-2.114.754-2.074 3.04.04 2.286.759 5.015 2.147 9.38 1.388 4.364 3.3 9.38 4.713 17.237 1.414 7.857 3.263 21.19 4.334 29.67 1.003 7.93 1.914 15.706 2.332 20.222h-2.804c-.402-2.636-.729-6.123-1.082-10.339-.483-5.762-1.212-14.015-2.206-21.595-.994-7.58-2.8-17.241-4.463-23.717-1.665-6.475-3.3-11.837-4.182-15.395-.883-3.558-.671-4.298.286-5.999.958-1.7 2.885-3.294 4.005-3.51.56-.106.631-.126.68-.116z" fill="#fff" stroke="#000" stroke-width=".228"/><g fill="#fff" stroke="#000" stroke-width=".756"><path d="M187.679 77.889c1.388 6.003 3.3 12.9 4.713 23.708 1.413 10.808 3.263 29.148 4.334 40.81 1.003 10.907 1.914 21.604 2.331 27.816h-2.804c-.401-3.627-.728-8.423-1.081-14.22-.483-7.927-1.212-19.28-2.206-29.704-.994-10.426-2.8-23.716-4.464-32.622-1.664-8.907-3.298-16.282-4.181-21.176-.883-4.894 1.97-.616 3.358 5.388z" stroke-width=".22825907999999998"/><path d="M206.896 91.74c-1.388 5.103-3.3 10.966-4.713 20.152-1.413 9.186-3.263 24.775-4.334 34.687-1.003 9.272-1.914 18.364-2.331 23.644h2.804c.402-3.083.728-7.16 1.081-12.087.483-6.737 1.212-16.387 2.206-25.248.994-8.862 2.8-20.158 4.464-27.728 1.664-7.57 3.298-13.84 4.181-18s-1.97-.523-3.358 4.58zM169.171 95.146c1.389 4.881 3.3 10.49 4.714 19.278 1.413 8.787 3.262 23.7 4.334 33.182 1.002 8.869 1.914 17.566 2.331 22.617h-2.804c-.402-2.949-.729-6.848-1.082-11.563-.483-6.444-1.212-15.675-2.205-24.152-.994-8.477-2.8-19.283-4.464-26.525-1.664-7.242-3.299-13.238-4.182-17.218-.883-3.979 1.97-.5 3.358 4.381zM156.29 77.889c1.388 6.003 3.3 12.9 4.713 23.708 1.413 10.808 3.262 29.148 4.334 40.81 1.002 10.907 1.914 21.604 2.331 27.816h-2.804c-.402-3.627-.729-8.423-1.082-14.22-.483-7.927-1.212-19.28-2.205-29.704-.994-10.426-2.8-23.716-4.464-32.622-1.664-8.907-3.299-16.282-4.182-21.176-.883-4.894 1.97-.616 3.358 5.388zM110.09 77.889c1.388 6.003 3.3 12.9 4.713 23.708 1.413 10.808 3.262 29.148 4.334 40.81 1.002 10.907 1.914 21.604 2.331 27.816h-2.804c-.402-3.627-.728-8.423-1.082-14.22-.483-7.927-1.212-19.28-2.205-29.704-.994-10.426-2.8-23.716-4.464-32.622-1.664-8.907-3.299-16.282-4.182-21.176-.882-4.894 1.97-.616 3.358 5.388zM146.037 75.458c-4.845 3.807-13.284 15.332-14.698 26.14-1.413 10.807-3.262 29.147-4.334 40.809-1.002 10.907-1.914 21.604-2.33 27.816h2.803c.402-3.627.729-8.423 1.082-14.22.483-7.927 1.212-19.28 2.206-29.704.993-10.426 2.8-23.716 4.463-32.622 1.664-8.907 10.765-11.68 14.166-17.096 2.645-4.211 1.85-5.216-3.358-1.123z" stroke-width=".22825907999999998"/><path d="M128.92 89.551c-.049.01-.075.05-.547.06-.944.02-3.391 1.036-4.073 1.523-.682.486-1.005.575.12.272 1.123-.302 4.474-1.15 6.186-.732 1.713.418 2.114.754 2.074 3.04-.04 2.286-.759 5.015-2.147 9.38-1.388 4.364-3.3 9.379-4.713 17.236-1.413 7.858-3.263 21.191-4.334 29.67-1.003 7.93-1.914 15.707-2.331 20.223h2.803c.402-2.637.73-6.123 1.082-10.339.483-5.762 1.212-14.016 2.206-21.595.994-7.58 2.8-17.242 4.464-23.717 1.664-6.475 3.298-11.837 4.181-15.395s.672-4.298-.286-5.999c-.958-1.7-2.884-3.295-4.005-3.51-.56-.107-.631-.126-.68-.117z" stroke-width=".22825907999999998"/><g stroke-width=".657"><path d="M177.48 98.78a4.597 4.597 0 00-.373.003c-1.998.094-5.67-.356-4.926 5.422.743 5.778 3.06 13.215 4.391 24.025 1.332 10.81 1.423 33.268 1.9 40.683.034.522.064.885.095 1.31h2.466c-.057-.898-.125-2.19-.181-4.17-.242-8.444-1.73-34.472-2.905-44.354-1.174-9.881-2.122-11.224-1.576-15.354.546-4.13 4.183-3.732 5.428-4.342 1.245-.61 1.489-.621.305-1.342-1.11-.676-2.775-1.818-4.625-1.88z" stroke-width=".22815639000000001"/><g stroke-width="2.758"><path d="M213.603 93.09c.588-.97.344-.87-1.294-1.43-1.64-.562-6.56-.134-8.458.153-1.898.287-.138-.453-.998-1.471-.859-1.018-2.827-1.152-5.078-.585-2.252.566-6.218 1.182-8.279 3.582-2.06 2.4-4.769 5.141-5.496 7.67-.728 2.53-1.073 4.443.635 6.335 1.708 1.893 5.939 2.247 8.476 2.983 2.538.735 4.03.414 6.088-1.835s5.195-6.95 6.95-9.197c1.756-2.247 2.14-3.635 3.743-4.216 1.603-.581 3.123-1.02 3.711-1.99z" stroke-width=".22819692"/><path d="M205.545 130.575c.806-1.295 2.304-4.207 1.5-7.95-.805-3.743-2.918-9.852-6.237-12.969-3.318-3.116-7.076-6.603-10.91-6.614-3.835-.01-7.05 1.69-8.705 5.446-1.654 3.755-.394 10.394-.221 14.45.173 4.058 1.914 5.45 5.062 7.843 3.149 2.392 10.342 2.94 13.599 2.46 3.257-.481 4.433-1.534 5.431-1.989.998-.455-.326.619.48-.677zM172.676 112.828c.383-2.01-.454-6.305-.47-7.857-.015-1.552 1.22.406-.696-.745-1.917-1.15-8.532-4.504-11.261-5.105-2.73-.601-2.584-.448-4.181.415a87.881 87.881 0 01-5.827 2.916c-2.646 1.211-6.079 5.275-7.346 7.686-1.266 2.412-1.667 4.197-1.54 5.408.129 1.21.437.839.615 1.27.178.433-.143.884-.26 1.378-.115.494-.46 1.14.18 1.652.642.512 1.192.776 2.668 1.232 1.477.457 4.125.506 6.261.669 2.136.162 4.845.846 6.438 1.124 1.593.279 2.01.118 3.164.206 1.153.087 1.848.177 3.586-.891 1.738-1.068 4.59-4.237 5.948-5.873 1.358-1.636 2.34-1.476 2.721-3.485z" stroke-width=".22819692"/><path d="M170.84 136.092c.593-1.024.129-1.018.86-4.2.73-3.181 3.665-11.335 4.741-14.504 1.077-3.169 2.456-2.586 1.564-4.577-.891-1.992-3.186-5.316-6.135-5.589-2.95-.273-6.617 3.072-8.563 4.103-1.945 1.03-1.69 1.182-2.348 2.706-.659 1.524-1.3 4.785-.845 6.214.455 1.43.906 1.36 1.624 1.674.719.314 1.043-.358 1.354 1.68.31 2.039.85 7.514 1.833 9.852.982 2.338 2.265 3.32 2.903 4.172.637.852.537.899 1.146.482a5.907 5.907 0 001.865-2.013zM174.345 96.253c-1.38-2.735-5.61-10.902-7.224-13.617-1.614-2.715-.937-2.436-1.505-3.214-.568-.777-1.456-.677-1.981-.456-.526.221-.605.51-.611.828-.006.317.124.9-.398.67-.522-.232-.712-.69-1.497-1.708-.786-1.018-3.054-2.87-4.163-3.419-1.11-.547-1.271-.81-2.01-.491-.74.319-.773.908-1.21 2.07-.439 1.164-.939 3.015-.847 4.977.093 1.961.123 4.686.471 6.687.349 2 .861 3.351 1.775 5.158.915 1.807 2.43 4.071 4.356 5.034 1.928.962 3.195 1.407 5.916 1.342 2.72-.066 10.332-1.105 10.359-1.116.016-.006-.05-.01-1.43-2.745zM192.993 97.698s2.48-5.97 2.82-8.332c.339-2.363.26-3.732.335-5.479.075-1.746.294-3.482-.245-5.006-.538-1.525-1.283-3.13-2.27-3.972-.987-.843-2.162-1.158-2.688-1.542-.526-.384-.085-.844-.747-.437-.663.407-1.077.252-3.278.376-2.2.124-6.973 1.596-9.251 3.198-2.278 1.603-3.852 3.172-4.882 4.686-1.03 1.515-1.514 2.59-1.705 3.835-.191 1.246.312 2.214.585 3.254.273 1.041-1.571.699.921 3.035 2.493 2.336 10.831 9.007 13.524 10.836 2.693 1.829.935-.146 2.149-.493s3.654-2.235 4.225-3.13c.571-.896.507-.83.507-.83s0 0 0 0z" stroke-width=".22819692"/><path d="M193.554 111.357c.347.204-.396-1.495-.362-2.005.033-.51.503-.426-.046-.965-.548-.539-2.35-1.264-2.834-1.773-.484-.51.333-.324.535-.199.202.126.318-.117.211-.304-.107-.187-.23-.316.132-.47.361-.156.861-.666.787-1.272-.075-.607.697-1.026.966-1.418.268-.392.153-.782.742-.878.588-.096 1.92-.007 2.523-.437.602-.43.66-1.47.08-1.683-.582-.214-1.022-.215-1.427-.562-.404-.347-1.105-.357-1.403-.573-.298-.216.208-.236.158-.662-.051-.427-.498-1.123-.369-1.744.13-.621-.974-.262-1.099-.666-.125-.405.674-1.125.268-1.466-.405-.341-.429-.237-.056-.705.372-.467-.231-1.4-.56-1.879-.33-.477-.03-1.096-.175-1.486-.145-.389-.016-.922-.36-.972-.345-.05-.571-.16-.512-.522.06-.363-.049-1.07-.47-1.088-.423-.018-.465-.025-.715-.285-.25-.26-.417.24-.802.395-.385.154-.935.76-1.376.617-.442-.144-.475-.941-1.048-.846-.573.096-1.44.18-1.791-.181-.351-.362-.39-.038-.752-.183-.363-.144-1.234.133-1.485-.161-.25-.294.211.265.306-.29.095-.557-.684-1.54-1.207-2.031-.523-.492-1.3-.749-1.854-.618-.555.131-.902.437-1.219.178-.317-.26.19-1.049-.376-1.159-.568-.11-1.33.046-1.748.258-.417.212-.038.902-.538.97-.5.067-1.295-.86-1.74-.743-.447.117-.06.522-.273.871-.213.349-.417.886-1.11.872-.694-.015-1.462-.605-2.03-.764-.568-.16-.413.599-.489.888-.076.289-.06.436-.573.467-.514.03-.723.603-1.16 1.518-.437.916-.903 3.187-1.053 4.077-.15.89-.356 1.08-.886.631-.53-.449-1.092-1.788-1.676-2.008-.584-.22-.457.084-.424.418.032.333.222 1.027-.373 1.176-.595.148-1.503-.259-1.997.13-.494.388.294.845-.065 1.492-.358.646-.673 1.766-.437 2.608.237.842.97 1.414 1.445 1.649.474.235.698.206.356.759-.342.553-1.383.749-2.073 1.232-.69.484-1.344 1.296-1.33 2.274.014.978.774 2.078 1.297 2.52.524.44.446.51.907.63.462.121 1.273.476 1.631.14.358-.335.731-.474.793.046.062.52-1.072.817-1.022 1.355.05.538.072.878-.117 1.11-.188.233-.06.403-.332.35-.273-.054-.015.189.072.617s.928 1.12 1.35 1.351c.422.231.327.712.593.664.265-.048.385-.703.611-.365.227.339-.122 1.247.082 1.5.203.252.41-.425.488-.2.077.225-.46.587-.094.7.366.112 1.153-.127 1.457-.234.304-.106.123-.837.345-.623.222.214.765.379.5.804-.264.426-.834 1.354-.769 1.863.065.509.06.883.484.802.424-.08.674-.72 1.045-.456.371.263-.224.768-.61.851-.388.083-.908.11-1.073.642-.166.533-.205 1.266.22 1.763.425.497.834 1.54 1.349 1.679s.778.387.954-.002c.176-.389.653-.388 1.102-.375.449.013.968-.616 1.444-.464.475.152.303.646.913.906.609.26 1.635.926 2.23 1.082.594.156 1.03-.448 1.297-.22.267.228.025.752.501.496.477-.256.267-1.149.278-1.673.012-.524-.193-1.356.194-1.564.386-.209.707.002 1.047-.186.339-.188.505.475.922.5.416.025.876.374 1.313.128.436-.247.929-.25 1.37-.027.441.223 1.08.149 1.37-.206.291-.355.494-.821.889-.995.395-.174.637-.064.968-.35.33-.286-.22-.987-.334-1.26-.113-.272-.465-.789-.02-.629.445.16 1.264 1.326 1.816 1.143.552-.183-.322-.977.016-1.224.337-.247.514.227 1.14.19.626-.039 1.969.107 2.562-.339.594-.446.86-.968 1.274-1.26.414-.293.124-.735.38-1.01.256-.276.74-.765.931-.652.192.112-.346-.204 0 0z" stroke-width=".22819692"/><path d="M180.095 100.972c.052.084.069.193-.004.339-.195.39-.947 1.065-1.184 1.503-.237.439-.34.606-.257 1.027.081.421.228.782.614 1.31.385.528 1.417 1.455 1.708 1.776.292.32.145.144.027.145-.117.002-.058.027-.414-.21-.355-.236-1.25-.913-1.657-1.292-.407-.38-.536-.497-.746-.979-.211-.482-.227-1.214-.048-1.85.18-.634.73-1.468 1.07-1.771.342-.304.375-.338.484-.403.109-.066.022-.009.089.113.042.075.23.15.318.292zm-.761-1.04c.011.011 0 .027-.033-.003.016-.005.027-.001.033.004zm-.033-.003c-.028.008-.07.038-.13.117-.189.257-.598.817-.888 1.49-.29.674-.623 1.646-.713 2.551-.09.906-.223 2.193-.332 2.774-.109.581-.156.545-.31.687-.154.142-.194.197-.456.155-.263-.042-.73-.271-.957-.464-.228-.193-.285-.295-.263-.632.021-.337.104-.702.284-1.274.18-.573.675-1.373 1.018-2.042.342-.67.553-1.366.841-2.066.288-.7.686-1.756.896-2.13.21-.376.08.016.252.138.17.122.612.499.726.659a.234.234 0 00.032.037zm-2.173-1.154c0 .002-.008.005-.02.007.008-.012.023-.011.02-.007zm-.02.007c-.007.007-.01.02-.005.04.02.08.044-.168-.034.43a163.16 163.16 0 01-.453 3.16c-.11.683-.082.577-.416.86-.334.283-1.01.408-1.499.308-.489-.1-1.077-.435-1.254-.665-.177-.23-.168-.188-.075-.276.093-.087.115-.063.42-.017.306.046 1.072.3 1.394.362.322.061.345.044.47-.182.123-.225.153-.308.18-.946.026-.637-.067-2.33-.013-2.87.054-.542.196-.051.4-.092a7.569 7.569 0 01.884-.112z" stroke-width=".22819692"/></g></g><g stroke-width="2.758"><path d="M98.967 63.374c-1.133-.016-.923.143-.577 1.84.345 1.698 3.208 5.724 4.416 7.215 1.21 1.491-.32.349-.763 1.606-.442 1.256.44 3.02 2.068 4.675 1.63 1.654 4.17 4.762 7.282 5.323 3.113.56 6.849 1.508 9.398.854 2.55-.654 4.374-1.325 5.14-3.757.768-2.431-1.07-6.259-1.722-8.82-.652-2.56-1.684-3.684-4.666-4.319-2.981-.635-8.623-.959-11.45-1.334-2.827-.375-4.218-.003-5.53-1.09-1.313-1.088-2.462-2.177-3.596-2.193z" stroke-width=".22819692"/><path d="M135.37 51.334c-1.526-.04-4.795.144-7.615 2.734-2.82 2.59-7.016 7.506-8.023 11.946-1.006 4.44-2.108 9.446-.175 12.758 1.932 3.311 5.027 5.223 9.104 4.747 4.076-.476 9.162-4.926 12.572-7.13 3.41-2.204 3.729-4.41 4.197-8.337.467-3.927-2.704-10.406-4.768-12.971-2.064-2.565-3.567-3.046-4.465-3.676-.898-.63.698-.032-.827-.071zM136.717 88.663c-1.926.689-5.206 3.586-6.536 4.385-1.33.8-.268-1.257-.29.978-.02 2.236.439 9.638 1.303 12.296.865 2.658.922 2.455 2.476 3.395a87.881 87.881 0 015.466 3.546c2.384 1.668 7.627 2.57 10.348 2.44 2.72-.129 4.463-.688 5.442-1.411.98-.724.502-.801.785-1.174.282-.373.834-.324 1.319-.474.484-.15 1.216-.18 1.333-.992.116-.813.066-1.42-.289-2.924s-1.653-3.813-2.595-5.737c-.942-1.924-1.725-4.606-2.292-6.12-.567-1.515-.917-1.794-1.425-2.833-.51-1.038-.784-1.682-2.585-2.64-1.8-.958-5.977-1.811-8.076-2.154-2.099-.342-2.458-1.27-4.384-.58z" stroke-width=".22819692"/><path d="M157.706 78.463c-1.183.007-.943.404-4.056 1.386-3.113.982-11.63 2.581-14.908 3.258-3.278.677-3.474-.807-4.739.97-1.265 1.778-2.97 5.44-1.71 8.121 1.258 2.681 6 4.15 7.874 5.305 1.874 1.155 1.876.858 3.523.654 1.647-.204 4.784-1.303 5.786-2.42 1.001-1.116.714-1.47.62-2.248-.093-.779-.837-.718.763-2.018 1.6-1.3 6.047-4.54 7.566-6.57 1.519-2.032 1.715-3.636 2.127-4.617.411-.981.503-.918-.165-1.233a5.907 5.907 0 00-2.68-.588zM121.58 95.62c-1.659 2.576-6.558 10.36-8.081 13.127-1.523 2.767-1.626 2.041-2.008 2.925-.383.884.154 1.599.61 1.94.457.34.746.263 1.023.107.277-.155.714-.563.779.004.065.567-.234.963-.714 2.156s-.928 4.087-.839 5.32c.09 1.234-.054 1.507.595 1.983.65.476 1.174.206 2.399-.005 1.225-.212 3.074-.719 4.718-1.792 1.645-1.073 3.979-2.48 5.527-3.793 1.549-1.314 2.454-2.44 3.549-4.143 1.095-1.704 2.28-4.157 2.133-6.306-.146-2.15-.404-3.467-1.84-5.78-1.434-2.313-6.186-8.35-6.208-8.367-.014-.01.017.05-1.642 2.625zM113.38 78.81s-6.403.885-8.612 1.79c-2.209.904-3.35 1.665-4.893 2.485-1.544.82-3.151 1.51-4.193 2.747-1.042 1.237-2.048 2.692-2.275 3.97-.227 1.278.097 2.451.033 3.1-.065.647-.685.5.001.865.686.364.763.8 1.984 2.635 1.222 1.834 4.91 5.204 7.445 6.356 2.535 1.153 4.685 1.715 6.513 1.836 1.828.121 2.999-.006 4.17-.472 1.171-.467 1.75-1.391 2.51-2.154.758-.762 1.398 1.002 2.149-2.331.751-3.333 2.28-13.901 2.492-17.15.213-3.248-.598-.731-1.513-1.602-.914-.871-3.778-2.018-4.84-2.057-1.06-.04-.97-.018-.97-.018s0 0 0 0z" stroke-width=".22819692"/><path d="M124.873 71.407c0-.402-1.088 1.1-1.544 1.328-.457.23-.623-.217-.81.528-.187.746.101 2.667-.093 3.342-.194.676-.448-.122-.442-.36.006-.238-.262-.216-.37-.028-.106.187-.155.358-.472.124-.317-.233-1.01-.405-1.495-.034-.485.372-1.238-.082-1.712-.114-.473-.033-.751.263-1.132-.195-.381-.46-.98-1.653-1.655-1.955-.676-.301-1.602.175-1.492.784.11.61.333.99.238 1.514-.095.525.252 1.134.217 1.5-.035.367-.309-.06-.651.2s-.716.999-1.317 1.201c-.601.203.268.973-.018 1.285-.286.313-1.31-.01-1.4.511-.088.523.013.49-.578.406-.591-.084-1.091.91-1.336 1.435-.246.526-.93.581-1.193.904-.263.322-.788.48-.656.803.13.322.151.573-.192.705-.342.132-.897.584-.699.957.199.373.214.413.116.76-.097.347.418.238.747.492.328.253 1.13.42 1.229.874.1.454-.57.886-.198 1.332.373.445.885 1.151.75 1.636-.133.486.165.355.224.74.06.386.74.997.613 1.363-.127.365.122-.317-.405-.117-.528.2-.982 1.37-1.14 2.07-.158.7.013 1.499.407 1.91.394.413.834.557.77.962-.062.404-1 .367-.808.911.193.545.714 1.124 1.108 1.376.394.253.797-.424 1.108-.027.312.398-.085 1.552.242 1.877.326.325.48-.213.889-.206.409.007.975-.089 1.314.516.339.605.219 1.566.369 2.137.15.57.726.053 1.014-.029.287-.081.406-.17.693.258.286.427.886.317 1.896.23 1.01-.086 3.205-.835 4.048-1.157.844-.321 1.112-.24.994.445-.118.685-.989 1.848-.883 2.462.107.615.304.351.575.154.271-.197.773-.711 1.203-.274.43.438.539 1.427 1.124 1.656.585.229.58-.682 1.319-.7.739-.018 1.864-.314 2.47-.944.606-.63.728-1.553.69-2.08-.037-.53-.175-.708.474-.693.65.015 1.346.814 2.113 1.164.767.35 1.797.502 2.634-.006.836-.508 1.4-1.72 1.515-2.394.115-.675.215-.643.085-1.102-.13-.46-.235-1.339-.706-1.477-.47-.138-.779-.39-.362-.707.417-.316 1.247.51 1.686.195.438-.316.72-.507 1.017-.462.296.044.377-.152.469.11.091.262.17-.083.496-.375.325-.292.495-1.368.48-1.848-.014-.481.449-.643.273-.848-.176-.204-.801.025-.624-.342.177-.367 1.136-.526 1.251-.83.115-.303-.574-.139-.42-.32.156-.18.74.1.651-.273-.088-.373-.693-.93-.939-1.138-.246-.209-.784.317-.712.018.073-.3-.06-.851.44-.838.501.012 1.59.033 1.996-.281.406-.314.73-.5.446-.824-.284-.324-.962-.216-.923-.67.04-.453.776-.196 1.044.096.268.292.554.727 1.097.6.543-.127 1.195-.466 1.408-1.084.213-.618.905-1.498.764-2.013-.14-.514-.06-.867-.484-.822-.425.046-.665-.366-.882-.76-.216-.393-1.022-.523-1.131-1.01-.11-.486.403-.589.318-1.245-.085-.657-.03-1.88-.196-2.472-.167-.591-.908-.66-.847-1.006.061-.347.636-.403.174-.684-.463-.281-1.126.352-1.584.608-.457.255-1.071.853-1.447.625-.375-.228-.356-.61-.69-.808-.334-.197.153-.677-.036-1.049-.19-.372-.121-.945-.555-1.196a1.421 1.421 0 01-.717-1.169c-.03-.493-.419-1.005-.872-1.076-.453-.072-.958-.01-1.308-.262-.35-.252-.378-.517-.792-.658-.414-.14-.74.69-.917.925-.177.236-.445.802-.532.337-.087-.465.503-1.76.065-2.145-.437-.383-.679.772-1.063.607-.384-.166-.065-.559-.415-1.08-.35-.52-.904-1.751-1.589-2.037-.685-.286-1.27-.25-1.732-.46-.462-.209-.696.265-1.064.184-.367-.081-1.033-.25-1.033-.473 0-.222 0 .402 0 0z" stroke-width=".22819692"/><path d="M124.976 88.166c-.1-.003-.201.038-.29.175-.238.365-.439 1.356-.697 1.782-.258.427-.35.6-.755.742-.405.143-.79.199-1.44.134-.65-.064-1.973-.485-2.397-.574-.424-.088-.198-.051-.14.05.059.103.008.065.391.252.384.186 1.421.615 1.954.774.534.158.7.21 1.222.147.523-.062 1.162-.42 1.619-.896.457-.476.897-1.372.986-1.82.088-.448.101-.494.102-.621.001-.127-.003-.023-.142-.02-.087.003-.247-.121-.413-.125zm1.281.13c-.015-.005-.022.013.02.026-.004-.017-.013-.024-.02-.027zm.02.026c.007.027.003.08-.036.17-.125.294-.4.93-.834 1.521-.434.591-1.103 1.37-1.839 1.907-.735.537-1.777 1.304-2.223 1.692-.445.388-.39.41-.435.615-.045.205-.072.267.097.472.17.205.604.492.886.59.281.099.398.096.678-.093.28-.19.552-.446.954-.891.402-.445.842-1.277 1.245-1.912.404-.634.897-1.169 1.355-1.772.458-.602 1.166-1.48 1.383-1.852.217-.37-.055-.06-.246-.146-.192-.086-.741-.276-.936-.292a.234.234 0 01-.049-.009zm2.096 1.288c-.001.002 0 .01.005.022.005-.013-.003-.026-.005-.022zm.005.022c-.004.009-.013.018-.032.024-.08.023.122-.123-.355.247-.476.37-1.96 1.55-2.494 1.991-.534.442-.457.363-.532.795-.074.432.16 1.077.494 1.448.334.371.921.709 1.21.745.287.036.246.05.275-.075.028-.125-.004-.132-.199-.372-.194-.24-.801-.772-1.017-1.018-.217-.246-.213-.275-.082-.496.132-.222.188-.29.725-.635.536-.346 2.042-1.123 2.481-1.443.44-.321-.056-.195-.123-.39a7.569 7.569 0 00-.351-.82z" stroke-width=".22819692"/></g></g><g transform="translate(54.823 149.13) scale(.09981)" stroke-width="2.004" fill="#fff" stroke="#000" stroke-linecap="round"><ellipse ry="200" rx="150" cy="200" cx="200"/><path d="M154.479 9.68a150 200 0 00-72.051 66.466A50 50 0 00125 100a50 50 0 0050-50 50 50 0 00-20.521-40.32zM245.666 9.584A50 50 0 00225 50a50 50 0 0050 50 50 50 0 0042.656-24.033 150 200 0 00-71.99-66.383zM125 300a50 50 0 00-42.656 24.033 150 200 0 0071.99 66.383A50 50 0 00175 350a50 50 0 00-50-50zM275 300a50 50 0 00-50 50 50 50 0 0020.521 40.32 150 200 0 0072.051-66.466A50 50 0 00275 300zM54.908 150.246A150 200 0 0050 200a150 200 0 004.83 49.719A50 50 0 00100 200a50 50 0 00-45.092-49.754z"/><circle r="50" cy="200" cx="200"/><path d="M345.17 150.281A50 50 0 00300 200a50 50 0 0045.092 49.754A150 200 0 00350 200a150 200 0 00-4.83-49.719z"/></g><g transform="rotate(29.6 -237.193 159.445) scale(.09981)" stroke-width="2.104" fill="#fff" stroke="#000" stroke-linecap="round"><ellipse ry="200" rx="150" cy="200" cx="200"/><path d="M320.645 125c-27.036 25-53.644 50.426-80.407 75.693l-80.49-75.683-79.986 75.136-28.309-26.326A150 200 0 0050 200a150 200 0 005.086 51.234L79.96 275l79.816-76.313 80.55 75.684 80.355-75.674 27.99 26.373A150 200 0 00350 200a150 200 0 00-5.205-51.943z"/></g><g fill="#fff" stroke="#000" stroke-width=".128"><path d="M48.94 191.949c.28-.16.258-4.437-.004-4.53-.694-.269-11.59-.154-12.985.029-.228-.005.156 4.079.598 4.419.282.142 11.94.22 12.39.082zM51.138 197.114c.28-.16.252-.57.321-.862.106-.992.068-1.998.006-2.992-.007-.266-.07-.583-.33-.676-.695-.269-1.448-.257-2.175-.307-2.202-.089-4.405.017-6.607.074-1.402.064-1.913 4.742-1.61 4.776 3.359.04 9.944.124 10.395-.013z" transform="matrix(-2.88167 0 0 3.41107 174.03 -471.574)"/><path d="M51.541 192.493c-.197-.422-1.219-.542-1.67-.68-.28-.16-.253-.57-.322-.86-.105-.993-.067-1.999-.005-2.993.007-.266.069-.584.33-.676.695-.27 1.448-.257 2.175-.307 2.202-.09 4.405.017 6.607.074 1.402.064 2.81.079 4.204.261.228-.005 1.562.072 1.46.309-.217.784-.313 4.16-.682 4.188-1.694.484-1.064 4.869-1.506 5.209-.282.142-1.516-.069-1.818-.035-3.36.04-8.545.88-8.519-.037zM-15.699 187.73c-.212.16-.196 4.438.003 4.53.527.27 8.789.154 9.846-.028.173.005-.118-4.08-.453-4.42-.214-.142-9.053-.219-9.395-.081zM8.717 192.303c.568-.025 1.157.043 1.71-.094.344-.16.311-.57.396-.861.13-.993.083-1.998.006-2.993-.01-.265-.085-.583-.406-.675-.852-.27-1.776-.258-2.668-.308-2.703-.089-5.407.018-8.109.075-1.72.063-3.448.078-5.159.26-.28-.004-.499.245-.374.48.267.785.395 1.597.486 2.41.087.528.08 1.19.622 1.53.346.142.754.061 1.125.095 4.123.04 8.247.065 12.37.08zM13.012 197.468c.528-.025 1.076.043 1.591-.094.32-.16.29-.57.368-.862.12-.992.077-1.998.006-2.992-.008-.266-.079-.583-.378-.676-.793-.269-1.652-.257-2.482-.307-2.515-.089-5.03.017-7.544.074-1.601.064-3.208.08-4.8.262-.261-.005-.465.243-.348.48.248.784.367 1.596.452 2.41.08.527.074 1.189.578 1.529.323.142.702.061 1.047.095 3.836.04 7.673.065 11.51.08zM-12.013 192.802c-.463.024-.943-.044-1.394.094-.28.16-.253.57-.322.86-.106.993-.068 1.999-.005 2.993.007.266.069.584.33.676.695.27 1.448.257 2.175.307 2.202.09 4.405-.017 6.607-.074 1.402-.064 2.81-.079 4.204-.261.228.005.406-.244.304-.48-.217-.785-.321-1.597-.396-2.41-.07-.528-.064-1.19-.506-1.53-.282-.142-.615-.06-.917-.095-3.36-.04-6.72-.064-10.08-.08zM12.847 187.52c-.463.024-.943-.044-1.394.093-.28.16-.253.57-.322.862-.105.992-.068 1.998-.005 2.992.007.266.07.583.33.676.695.269 1.448.257 2.175.307 2.202.089 4.406-.017 6.607-.074 1.402-.064 2.81-.079 4.204-.262.228.005.406-.243.304-.48-.217-.784-.321-1.596-.395-2.41-.07-.527-.065-1.189-.507-1.528-.282-.143-.615-.062-.917-.096-3.36-.04-6.72-.065-10.08-.08zM35.316 191.23c.083-.992.054-1.998.004-2.992-.005-.266-.054-.583-.259-.676-.544-.27-1.134-.257-1.705-.307-1.726-.089-3.454.017-5.18.074-1.099.064-2.202.079-3.296.261-.179-.005-.318.244-.238.48.17.785.252 1.597.31 2.41.055.528.05 1.19.397 1.53.221.142.482.06.719.095 2.634.04 8.957.018 9.248-.875zM38.378 197.35c.463-.024.943.044 1.394-.094.28-.16.253-.57.322-.861.105-.992.068-1.998.005-2.993-.007-.265-.07-.583-.33-.675-.695-.27-1.448-.258-2.175-.307-2.202-.09-4.406.017-6.607.074-1.402.064-2.81.079-4.204.261-.228-.005-.406.244-.304.48.217.784.321 1.597.395 2.41.07.528.065 1.19.507 1.53.282.142.615.06.917.095 3.36.04 6.72.064 10.08.08z" transform="matrix(-2.88167 0 0 3.41107 174.03 -471.574)"/><path d="M15.594 192.778c-.239.16-.22 4.437.004 4.53.594.269 11.202.328 11.351-.509-.185-.784-.393-3.599-.77-3.939-.241-.142-10.199-.22-10.584-.082z" transform="matrix(-2.88167 0 0 3.41107 174.03 -471.574)"/></g><g transform="translate(-9.68 185.222) scale(.09981)" stroke-width="2.004" fill="#fff" stroke="#000" stroke-linecap="round"><ellipse ry="200" rx="150" cy="200" cx="200"/><path d="M154.479 9.68a150 200 0 00-72.051 66.466A50 50 0 00125 100a50 50 0 0050-50 50 50 0 00-20.521-40.32zM245.666 9.584A50 50 0 00225 50a50 50 0 0050 50 50 50 0 0042.656-24.033 150 200 0 00-71.99-66.383zM125 300a50 50 0 00-42.656 24.033 150 200 0 0071.99 66.383A50 50 0 00175 350a50 50 0 00-50-50zM275 300a50 50 0 00-50 50 50 50 0 0020.521 40.32 150 200 0 0072.051-66.466A50 50 0 00275 300zM54.908 150.246A150 200 0 0050 200a150 200 0 004.83 49.719A50 50 0 00100 200a50 50 0 00-45.092-49.754z"/><circle r="50" cy="200" cx="200"/><path d="M345.17 150.281A50 50 0 00300 200a50 50 0 0045.092 49.754A150 200 0 00350 200a150 200 0 00-4.83-49.719z"/></g><ellipse ry=".384" rx=".484" cy="212.513" cx="103.997" fill="#fff" stroke-width=".1" stroke-linecap="round"/><g transform="rotate(-6.966 1610.21 -1056.191) scale(.09981)" stroke-width="2.004" fill="#fff" stroke="#000" stroke-linecap="round"><ellipse ry="200" rx="150" cy="200" cx="200"/><path d="M320.645 125c-27.036 25-53.644 50.426-80.407 75.693l-80.49-75.683-79.986 75.136-28.309-26.326A150 200 0 0050 200a150 200 0 005.086 51.234L79.96 275l79.816-76.313 80.55 75.684 80.355-75.674 27.99 26.373A150 200 0 00350 200a150 200 0 00-5.205-51.943z"/></g><ellipse transform="scale(-1 1)" ry=".384" rx=".484" cy="212.513" cx="-144.947" fill="#fff" stroke-width=".1" stroke-linecap="round"/><g fill="#fff" stroke="#000"><path d="M159.129 143.31a8.02 8.02 0 00-.492.015c-3.558.353-6.42 2.92-9.942 3.471-4.003.807-8.337 2.046-10.819 5.56-5.282 6.742-6.56 15.55-7.779 23.775-.785 5.12-.868 10.358-1.98 15.417-1.158 6.3-4.688-1.325-28.619-6.348-10.319-1.983-20.751-3.907-31.292-3.953-7.883.078-15.145 3.545-22.5 5.95-4.606 1.611-9.373 3.2-13.099 6.491-1.637 1.097-5.008 3.237-5.567 2.908-1.633-1.039-3.83-4.845.227-9.539-7.093 1.872-5.73 8.455-4.48 9.843.309.355.493 1.112.087 1.218-.138-.016-.374-.04-.401-.05-1.592-.268-3.136-1.331-4.757-1.19.09.858 3.092 3.009 2.228 2.664-2.263-1.192-4.222-2.999-6.546-4.024-.09 1.17 3.477 6.396 8.54 12.079l.004.002c1.164 1.869 3.733 4.943 7.322 8.973 4.297 4.945 9.531 8.921 14.935 12.572 6.502 4.425 12.57 9.555 19.522 13.28.778.286 2.02 1.023 2.735.398-.043-.849-7.267-3.501 8.755-3.045 8.257.483 16.38 2.226 24.534 3.544 5.653 1.14 11.361 2.02 17.14 2.133 8.386.445 16.835.754 25.204-.106 3.15-.268 10.47-7.107 10.904-8.238 3.515-6.735 10.095-14.356.919-40.204-1.123-3.326-.166-15.999 2.962-23.252 1.598-3.319 6.563-2.802 9.323-3.641-1.294-.928-3.561-2.237-3.986-4.25.05-1.882 2.035-2.81 2.631-4.5 1.176-2.168 2.18-2.694 2.549-5.106 1.05.77 1.68 1.27 4.053.953.433-.6-3.577-7.573-3.88-8.102-2.926-5.227-6.91-5.695-8.435-5.698z" stroke-width=".32537541"/><g transform="matrix(.44511 0 0 .44511 14.998 140.606)" stroke-width=".365"><path d="M317.008 20.822c-2.036.106-5.894 2.89-5.334 4.824.583 1.53 4.575 1.9 6.115 2.07 1.289.068 2.827-.15 3.547-1.375.54-.937.662-2.137.141-2.958-.816-1.268-2.694-2.408-4.26-2.559a2.563 2.563 0 00-.209-.002z"/><path d="M316.553 22.312c-2.646.461-2.064 4.448 1.876 3.806 3.423-.703.12-4.088-1.876-3.806z" fill="#000" stroke-width=".535"/><ellipse ry="1.07" rx="1.088" cy="24.204" cx="318.245" stroke="none" stroke-width=".449" stroke-linecap="round"/></g><path d="M70.84 239.721c-1.9.112-3.946-.135-5.722.662-.709.431.12 1.16.46 1.53 1.006 1.198 2.447 1.99 4.033 1.981 9.515.7 19.062.83 28.585 1.394 2.845.042 5.71.195 8.544-.033.038-.45-.792-.505-1.117-.692-3.626-.998-7.38-1.455-11.066-2.184-7.84-1.37-15.723-2.824-23.717-2.658zM162.944 163.54c-.254.141.404 2.3.49 2.45 2.31 2.491 5.052 4.641 7.64 6.836 1.047.83 2.488 1.579 3.744 2.07.262-.152-1.043-1.358-1.143-1.507-2.232-2.216-4.658-4.228-6.952-6.379-1.185-1.021-2.332-2.83-3.78-3.47z" stroke-width=".32537541"/><g stroke-width=".731"><path d="M163.466 165.4c-.914-.5-.476-3.62-1.747-.207-.591 1.342 1.473 2.563 2.37 3.447 3.974 3.048 10.212 6.392 10.551 6.115-.551.035-8.714-6.553-11.174-9.356z" stroke-width=".32537541"/><path d="M162.488 164.253c-.18 1.153 4.85 5.45 6.728 6.962 1.233 1.033 5.23 3.837 5.424 3.54-1.082-.838-4.226-3.25-5.277-4.129-2.063-1.526-6.693-5.603-6.328-6.349-.045-.24.081-.538-.091-.737-.4-.19-.48.444-.456.713z" stroke-width=".32537541"/></g><path d="M67.3 179.073c-3.402.07-6.762.734-10.174.603-1.172-.008-2.66-.034-3.277 1.186-1.879 3.083-5.59 4.205-8.917 4.898-3.328.68-6.742.401-10.106.27-.558.186.291.627.51.71 8.14 3.794 16.802 7.07 23.496 13.272 2.145 1.85 3.639 4.333 4.536 7.005.559 1.944 2.234 3.227 3.983 4.063 5.058 2.612 10.9 1.634 16.356 2.086 6.585.536 13.037 2.252 19.64 2.632 3.034.005 6.407-.462 8.557-2.833 3.215-3.596 4.524-8.504 4.902-13.216.286-3.327-1.012-6.755-3.603-8.902-3.879-3.26-8.798-4.933-13.593-6.332-8.445-2.239-17.095-3.589-25.719-4.93-2.184-.298-4.384-.536-6.592-.512z" stroke-width=".32537541"/><g stroke-width=".731"><path d="M167.45 154.327c-.561-.4-4.056 6.646-5.327 10.06 1.257 1.4 3.045 3.027 3.943 3.911 3.974 3.048 5.083 5.957 11.692 8.043 6.709 1.456 4.329 3.37 7.298 1.684.949.014.316-3.19-.495-3.719-3.37-3.955-4.195-4.393-7.646-8.286-1.827-2.635-4.013-7.993-5.962-10.554-.5 2.63-.455 1.35-3.504-1.14z" stroke-width=".32537541"/><path d="M170.61 161.993c-.228.368.215.892.428 1.13.298.317 1.13.85 1.357.749.265-.203.06-.857-.03-1.14-.074-.2-.249-.42-.407-.572-.21-.185-.498-.24-.767-.271-.062-.006-.482-.002-.581.104z" stroke-width=".32537541"/></g></g><g transform="translate(32.435 216.76) scale(.09981)" stroke-width="2.004" fill="#fff" stroke="#000" stroke-linecap="round"><ellipse ry="200" rx="150" cy="200" cx="200"/><path d="M154.479 9.68a150 200 0 00-72.051 66.466A50 50 0 00125 100a50 50 0 0050-50 50 50 0 00-20.521-40.32zM245.666 9.584A50 50 0 00225 50a50 50 0 0050 50 50 50 0 0042.656-24.033 150 200 0 00-71.99-66.383zM125 300a50 50 0 00-42.656 24.033 150 200 0 0071.99 66.383A50 50 0 00175 350a50 50 0 00-50-50zM275 300a50 50 0 00-50 50 50 50 0 0020.521 40.32 150 200 0 0072.051-66.466A50 50 0 00275 300zM54.908 150.246A150 200 0 0050 200a150 200 0 004.83 49.719A50 50 0 00100 200a50 50 0 00-45.092-49.754z"/><circle r="50" cy="200" cx="200"/><path d="M345.17 150.281A50 50 0 00300 200a50 50 0 0045.092 49.754A150 200 0 00350 200a150 200 0 00-4.83-49.719z"/></g><g transform="rotate(-5.156 2494.175 -1055.663) scale(.09981)" stroke-width="2.004" fill="#fff" stroke="#000" stroke-linecap="round"><ellipse ry="200" rx="150" cy="200" cx="200"/><path d="M320.645 125c-27.036 25-53.644 50.426-80.407 75.693l-80.49-75.683-79.986 75.136-28.309-26.326A150 200 0 0050 200a150 200 0 005.086 51.234L79.96 275l79.816-76.313 80.55 75.684 80.355-75.674 27.99 26.373A150 200 0 00350 200a150 200 0 00-5.205-51.943z"/></g><path d="M144.154 271.555c-.178-5.941-1.605-13.625-9.478-17.387-1.558-8.475-19.723-4.17-18.098-3.346 3.238 1.637 4.961 5.805 7.045 7.998 3.713 3.908 7.842 4.149 9.897 1.09 4.854 3.154 5.173 9.137 5.024 15.533-.016.707-.031 1.365-.031 1.963V297h5.598v-16.081z" fill="#fff" stroke="#000" stroke-width=".2"/><g transform="rotate(11.191 -1045.656 557.79) scale(.09981)" stroke-width="2.004" fill="#fff" stroke="#000" stroke-linecap="round"><ellipse ry="200" rx="150" cy="200" cx="200"/><path d="M154.479 9.68a150 200 0 00-72.051 66.466A50 50 0 00125 100a50 50 0 0050-50 50 50 0 00-20.521-40.32zM245.666 9.584A50 50 0 00225 50a50 50 0 0050 50 50 50 0 0042.656-24.033 150 200 0 00-71.99-66.383zM125 300a50 50 0 00-42.656 24.033 150 200 0 0071.99 66.383A50 50 0 00175 350a50 50 0 00-50-50zM275 300a50 50 0 00-50 50 50 50 0 0020.521 40.32 150 200 0 0072.051-66.466A50 50 0 00275 300zM54.908 150.246A150 200 0 0050 200a150 200 0 004.83 49.719A50 50 0 00100 200a50 50 0 00-45.092-49.754z"/><circle r="50" cy="200" cx="200"/><path d="M345.17 150.281A50 50 0 00300 200a50 50 0 0045.092 49.754A150 200 0 00350 200a150 200 0 00-4.83-49.719z"/></g><path d="M155.117 202.12c4.844 3.808 13.284 15.333 14.697 26.14 1.414 10.808 3.263 29.148 4.334 40.81 1.003 10.907 1.914 21.604 2.331 27.816h-2.803c-.402-3.627-.73-8.423-1.082-14.22-.483-7.927-1.212-19.28-2.206-29.705-.994-10.425-2.8-23.715-4.464-32.621-1.664-8.907-10.765-11.68-14.165-17.096-2.645-4.211-1.85-5.217 3.358-1.123z" fill="#fff" stroke="#000" stroke-width=".228"/><path d="M172.233 216.214c.049.01.076.049.548.06.943.02 3.39 1.036 4.073 1.523.682.486 1.004.575-.12.272-1.124-.302-4.475-1.15-6.187-.732-1.712.418-2.113.754-2.073 3.04.04 2.286.758 5.015 2.146 9.38 1.389 4.364 3.3 9.379 4.714 17.236 1.413 7.858 3.262 21.191 4.334 29.67 1.002 7.93 1.914 15.706 2.331 20.223h-2.804c-.402-2.637-.729-6.124-1.082-10.339-.483-5.762-1.212-14.016-2.206-21.595-.993-7.58-2.8-17.242-4.463-23.717-1.664-6.476-3.299-11.837-4.182-15.395-.883-3.559-.671-4.298.287-6 .957-1.7 2.884-3.294 4.005-3.508.56-.108.63-.127.68-.118z" fill="#fff" stroke="#000" stroke-width=".228"/><g transform="rotate(-8.036 2014.94 -1099.077) scale(.09981)" stroke-width="2.004" fill="#fff" stroke="#000" stroke-linecap="round"><ellipse ry="200" rx="150" cy="200" cx="200"/><path d="M154.479 9.68a150 200 0 00-72.051 66.466A50 50 0 00125 100a50 50 0 0050-50 50 50 0 00-20.521-40.32zM245.666 9.584A50 50 0 00225 50a50 50 0 0050 50 50 50 0 0042.656-24.033 150 200 0 00-71.99-66.383zM125 300a50 50 0 00-42.656 24.033 150 200 0 0071.99 66.383A50 50 0 00175 350a50 50 0 00-50-50zM275 300a50 50 0 00-50 50 50 50 0 0020.521 40.32 150 200 0 0072.051-66.466A50 50 0 00275 300zM54.908 150.246A150 200 0 0050 200a150 200 0 004.83 49.719A50 50 0 00100 200a50 50 0 00-45.092-49.754z"/><circle r="50" cy="200" cx="200"/><path d="M345.17 150.281A50 50 0 00300 200a50 50 0 0045.092 49.754A150 200 0 00350 200a150 200 0 00-4.83-49.719z"/></g><path d="M152.993 218.403c-1.388 5.103-3.3 10.966-4.713 20.152-1.414 9.186-3.263 24.775-4.334 34.687-1.003 9.272-1.914 18.364-2.332 23.644h2.804c.402-3.083.729-7.16 1.082-12.088.483-6.736 1.212-16.386 2.206-25.247.994-8.862 2.8-20.158 4.464-27.728 1.664-7.571 3.298-13.84 4.181-18s-1.97-.523-3.358 4.58z" fill="#fff" stroke="#000" stroke-width=".228"/><g transform="rotate(11.004 -1343.031 432.468) scale(.09981)" stroke-width="2.004" fill="#fff" stroke="#000" stroke-linecap="round"><ellipse ry="200" rx="150" cy="200" cx="200"/><path d="M320.645 125c-27.036 25-53.644 50.426-80.407 75.693l-80.49-75.683-79.986 75.136-28.309-26.326A150 200 0 0050 200a150 200 0 005.086 51.234L79.96 275l79.816-76.313 80.55 75.684 80.355-75.674 27.99 26.373A150 200 0 00350 200a150 200 0 00-5.205-51.943z"/></g><path d="M78.574 204.552c1.388 6.003 3.3 12.9 4.713 23.708 1.413 10.808 3.262 29.148 4.334 40.81 1.002 10.907 1.914 21.604 2.331 27.816h-2.804c-.402-3.627-.728-8.423-1.081-14.22-.483-7.927-1.212-19.28-2.206-29.705-.994-10.425-2.8-23.715-4.464-32.621-1.664-8.907-3.298-16.282-4.181-21.176-.883-4.894 1.97-.616 3.358 5.388zM57.88 204.552c1.389 6.003 3.3 12.9 4.714 23.708 1.413 10.808 3.262 29.148 4.334 40.81 1.002 10.907 1.914 21.604 2.331 27.816h-2.804c-.402-3.627-.728-8.423-1.082-14.22-.482-7.927-1.211-19.28-2.205-29.705-.994-10.425-2.8-23.715-4.464-32.621-1.664-8.907-3.299-16.282-4.181-21.176-.883-4.894 1.97-.616 3.358 5.388z" fill="#fff" stroke="#000" stroke-width=".228"/><path d="M93.828 202.12c-4.845 3.808-13.284 15.333-14.698 26.14-1.413 10.808-3.262 29.148-4.334 40.81-1.002 10.907-1.914 21.604-2.33 27.816h2.803c.402-3.627.729-8.423 1.082-14.22.483-7.927 1.212-19.28 2.206-29.705.994-10.425 2.8-23.715 4.463-32.621 1.664-8.907 10.765-11.68 14.166-17.096 2.645-4.211 1.85-5.217-3.358-1.123z" fill="#fff" stroke="#000" stroke-width=".228"/><path d="M76.711 216.214c-.048.01-.075.049-.547.06-.944.02-3.391 1.036-4.073 1.523-.682.486-1.005.575.12.272 1.123-.302 4.474-1.15 6.186-.732 1.713.418 2.114.754 2.074 3.04-.04 2.286-.758 5.015-2.147 9.38-1.388 4.364-3.3 9.379-4.713 17.236-1.413 7.858-3.262 21.191-4.334 29.67-1.003 7.93-1.914 15.706-2.331 20.223h2.804c.402-2.637.728-6.124 1.081-10.339.483-5.762 1.212-14.016 2.206-21.595.994-7.58 2.8-17.242 4.464-23.717 1.664-6.476 3.298-11.837 4.181-15.395.883-3.559.672-4.298-.286-6-.957-1.7-2.884-3.294-4.005-3.508-.56-.108-.631-.127-.68-.118z" fill="#fff" stroke="#000" stroke-width=".228"/><g transform="translate(-8.796 260.434) scale(.09981)" stroke-width="2.004" fill="#fff" stroke="#000" stroke-linecap="round"><ellipse ry="200" rx="150" cy="200" cx="200"/><path d="M320.645 125c-27.036 25-53.644 50.426-80.407 75.693l-80.49-75.683-79.986 75.136-28.309-26.326A150 200 0 0050 200a150 200 0 005.086 51.234L79.96 275l79.816-76.313 80.55 75.684 80.355-75.674 27.99 26.373A150 200 0 00350 200a150 200 0 00-5.205-51.943z"/></g><g fill="#fff" stroke="#000" stroke-width=".657"><path d="M25.148 225.443a4.597 4.597 0 00-.372.003c-1.998.094-5.67-.356-4.926 5.422.742 5.778 3.06 13.214 4.391 24.025 1.332 10.81 1.423 33.268 1.9 40.682.034.523.064.886.095 1.31h2.466c-.057-.897-.125-2.189-.182-4.17-.241-8.443-1.73-34.472-2.904-44.353s-2.122-11.224-1.576-15.354c.546-4.13 4.183-3.733 5.428-4.342 1.245-.61 1.489-.621.305-1.342-1.11-.677-2.775-1.818-4.625-1.88z" stroke-width=".22815639000000001"/><g stroke-width="2.758"><path d="M61.272 219.752c.588-.969.344-.868-1.295-1.43-1.638-.562-6.56-.133-8.457.154-1.898.287-.138-.453-.998-1.471s-2.827-1.152-5.079-.585c-2.251.566-6.218 1.182-8.278 3.582-2.06 2.4-4.769 5.141-5.497 7.67-.727 2.53-1.072 4.442.636 6.335 1.707 1.893 5.939 2.247 8.476 2.982 2.538.735 4.03.415 6.088-1.834s5.195-6.95 6.95-9.197c1.756-2.247 2.14-3.635 3.743-4.216 1.602-.581 3.123-1.02 3.71-1.99z" stroke-width=".22819692"/><path d="M53.214 257.238c.806-1.295 2.304-4.208 1.5-7.95-.805-3.744-2.918-9.852-6.237-12.969-3.319-3.117-7.077-6.603-10.91-6.614-3.835-.01-7.05 1.69-8.705 5.445-1.654 3.756-.394 10.395-.221 14.452.173 4.057 1.914 5.45 5.062 7.842 3.149 2.392 10.342 2.94 13.599 2.46 3.257-.481 4.433-1.534 5.431-1.989.998-.455-.326.619.48-.677zM20.345 239.49c.382-2.009-.454-6.304-.47-7.856-.015-1.552 1.22.406-.697-.745-1.917-1.15-8.531-4.504-11.26-5.105-2.73-.601-2.585-.449-4.181.415a87.881 87.881 0 01-5.827 2.916c-2.646 1.211-6.079 5.275-7.346 7.686-1.267 2.411-1.667 4.197-1.54 5.408.128 1.21.437.838.615 1.27.178.433-.143.884-.26 1.378-.116.494-.461 1.14.18 1.652.642.512 1.191.776 2.668 1.232 1.476.456 4.125.506 6.26.669 2.137.162 4.846.845 6.439 1.124 1.593.279 2.01.118 3.164.206 1.153.087 1.848.176 3.586-.891 1.738-1.068 4.59-4.237 5.948-5.873 1.358-1.636 2.34-1.476 2.721-3.485z" stroke-width=".22819692"/><path d="M18.508 262.755c.593-1.025.13-1.018.86-4.2.73-3.182 3.665-11.335 4.742-14.504 1.077-3.169 2.456-2.586 1.564-4.577-.892-1.992-3.186-5.316-6.135-5.589-2.95-.273-6.618 3.072-8.563 4.102-1.946 1.031-1.69 1.183-2.349 2.707-.658 1.523-1.3 4.785-.844 6.214.455 1.429.906 1.36 1.624 1.674.719.314 1.043-.358 1.354 1.68.31 2.038.85 7.513 1.833 9.852.981 2.338 2.265 3.32 2.902 4.172.638.852.537.898 1.147.482a5.907 5.907 0 001.865-2.013zM22.014 222.916c-1.38-2.735-5.61-10.902-7.224-13.617-1.614-2.716-.937-2.436-1.505-3.214-.568-.778-1.456-.677-1.982-.456-.525.221-.604.51-.61.828-.006.317.124.9-.398.669-.522-.231-.712-.69-1.497-1.708-.786-1.018-3.054-2.87-4.163-3.418-1.11-.547-1.272-.81-2.011-.491-.74.319-.772.907-1.21 2.07-.438 1.164-.938 3.015-.846 4.977.092 1.96.123 4.686.471 6.687.349 2 .861 3.35 1.775 5.158.914 1.807 2.43 4.071 4.356 5.034 1.927.962 3.195 1.407 5.916 1.341 2.72-.065 10.332-1.104 10.359-1.115.016-.006-.051-.01-1.431-2.745zM40.662 224.36s2.48-5.968 2.82-8.331c.339-2.363.26-3.733.335-5.479.074-1.746.294-3.482-.245-5.006-.538-1.525-1.284-3.13-2.27-3.973-.987-.843-2.163-1.158-2.689-1.541-.526-.384-.084-.844-.747-.437-.662.406-1.076.251-3.277.375-2.2.124-6.973 1.597-9.251 3.2-2.279 1.601-3.852 3.17-4.882 4.685-1.03 1.515-1.514 2.59-1.705 3.835-.192 1.246.312 2.214.585 3.254.273 1.04-1.572.699.921 3.035 2.493 2.335 10.831 9.007 13.524 10.836 2.693 1.829.935-.146 2.149-.493 1.213-.347 3.653-2.235 4.225-3.13.571-.896.507-.83.507-.83s0 0 0 0z" stroke-width=".22819692"/><path d="M41.223 238.02c.347.203-.396-1.495-.363-2.005.034-.51.503-.426-.045-.965-.548-.539-2.35-1.264-2.834-1.773-.484-.51.332-.324.535-.199.202.125.318-.117.21-.304-.106-.187-.229-.316.133-.47.361-.156.861-.666.787-1.273-.075-.606.697-1.025.966-1.417.268-.392.153-.782.741-.878.589-.096 1.921-.007 2.524-.437.602-.43.66-1.47.08-1.683-.582-.214-1.022-.215-1.427-.562-.404-.347-1.105-.357-1.403-.573-.299-.216.208-.236.157-.662-.05-.427-.498-1.123-.368-1.744s-.974-.262-1.099-.667c-.125-.404.673-1.124.268-1.465-.405-.341-.429-.238-.057-.705.373-.467-.23-1.401-.56-1.879-.329-.478-.03-1.096-.174-1.486-.145-.39-.016-.922-.36-.972-.345-.05-.572-.16-.512-.523.06-.362-.049-1.069-.47-1.087-.423-.018-.465-.025-.715-.285-.25-.26-.417.24-.802.394-.385.155-.935.761-1.376.617-.442-.143-.475-.94-1.048-.845-.573.096-1.441.18-1.792-.182-.35-.36-.39-.038-.752-.182s-1.233.133-1.484-.161c-.25-.295.21.265.306-.29.095-.557-.684-1.54-1.207-2.032-.523-.49-1.3-.748-1.854-.617-.555.13-.902.437-1.22.178-.316-.26.192-1.049-.376-1.159-.567-.11-1.33.046-1.747.258-.418.212-.038.902-.538.97-.5.067-1.295-.86-1.741-.743-.446.117-.06.522-.272.87-.213.35-.418.887-1.111.872-.693-.014-1.461-.604-2.029-.764-.568-.159-.414.6-.49.889-.075.289-.058.436-.572.467-.514.03-.723.603-1.16 1.518-.437.915-.903 3.186-1.053 4.077-.15.89-.356 1.08-.886.631-.531-.449-1.093-1.788-1.676-2.008-.584-.22-.457.084-.424.418.032.333.222 1.027-.373 1.175-.595.149-1.504-.258-1.997.13-.494.39.294.846-.065 1.492-.359.647-.673 1.766-.437 2.609.237.842.97 1.413 1.444 1.649.475.235.699.206.357.759-.342.552-1.383.748-2.073 1.232s-1.344 1.296-1.33 2.274c.014.978.774 2.078 1.297 2.519.524.441.445.51.907.631s1.273.476 1.63.14c.358-.335.732-.474.794.046.061.52-1.072.817-1.022 1.355.05.537.072.878-.117 1.11-.188.233-.06.403-.332.35-.273-.054-.015.189.072.617s.928 1.12 1.35 1.35c.422.232.327.713.592.665.266-.048.385-.703.612-.365.226.339-.122 1.246.081 1.5.204.252.411-.426.489-.2.077.225-.46.587-.094.7.366.112 1.153-.127 1.457-.234.304-.106.123-.837.345-.623.221.214.765.378.5.804-.265.426-.834 1.354-.77 1.863.066.509.061.883.485.802.424-.08.674-.72 1.045-.457.371.264-.224.77-.61.852-.388.083-.908.109-1.074.642-.165.533-.204 1.266.221 1.763.425.497.834 1.54 1.349 1.679s.778.387.954-.002c.175-.389.652-.388 1.101-.375.45.013.97-.616 1.444-.464.476.152.304.646.914.905.609.26 1.635.927 2.23 1.083.594.156 1.029-.449 1.297-.22.267.228.025.752.501.496s.267-1.149.278-1.673c.011-.524-.193-1.356.194-1.565.386-.208.707.003 1.046-.185.34-.188.506.475.923.5.416.025.876.374 1.312.127.437-.246.93-.249 1.37-.026.442.223 1.08.149 1.371-.206.291-.355.493-.821.888-.995.395-.175.638-.065.969-.35.33-.286-.22-.987-.334-1.26-.113-.272-.465-.789-.02-.629.444.16 1.263 1.325 1.816 1.143.552-.183-.322-.977.016-1.224.337-.247.514.227 1.14.189.626-.038 1.969.108 2.562-.338.594-.446.86-.968 1.274-1.26.414-.293.124-.735.38-1.01.256-.276.74-.765.931-.652.192.112-.347-.204 0 0z" stroke-width=".22819692"/><path d="M27.764 227.635c.052.084.069.192-.004.338-.195.39-.947 1.065-1.184 1.504-.237.439-.34.606-.258 1.027.082.421.23.782.614 1.31.385.528 1.417 1.455 1.709 1.775.292.321.145.145.027.146-.117.002-.059.027-.414-.21-.355-.236-1.25-.913-1.657-1.292-.407-.38-.536-.497-.747-.98-.21-.481-.226-1.213-.047-1.848.18-.636.73-1.47 1.07-1.773.342-.303.375-.337.484-.403.109-.065.022-.008.089.113.042.076.23.152.318.293zm-.761-1.04c.011.011-.001.027-.033-.003.016-.005.027-.001.033.004zm-.033-.003c-.028.008-.07.037-.13.117-.19.257-.599.817-.888 1.49-.29.674-.623 1.645-.713 2.551-.09.906-.224 2.193-.332 2.774-.11.58-.156.545-.31.687-.154.142-.194.197-.456.155-.263-.042-.73-.271-.958-.464-.227-.193-.284-.295-.262-.632.021-.338.104-.702.284-1.275.18-.572.675-1.372 1.018-2.041.342-.67.553-1.366.84-2.066.289-.7.687-1.756.897-2.13.21-.376.08.016.251.138.171.122.613.499.726.659a.234.234 0 00.033.037zm-2.173-1.154c0 .002-.008.005-.021.007.009-.012.023-.011.021-.007zm-.021.007c-.006.007-.01.02-.004.04.02.08.043-.168-.034.43a163.16 163.16 0 01-.453 3.16c-.11.683-.082.577-.416.86-.335.283-1.01.407-1.5.308-.488-.1-1.076-.435-1.254-.665-.177-.23-.167-.188-.074-.276.093-.087.115-.063.42-.017.306.046 1.072.3 1.394.362.322.061.345.044.469-.182.124-.226.154-.308.18-.946.027-.638-.066-2.33-.012-2.87.054-.542.196-.051.399-.092a7.569 7.569 0 01.885-.112z" stroke-width=".22819692"/></g></g><g fill="#fff" stroke="#000" stroke-width=".756"><path d="M213.965 204.552c-1.388 6.003-3.3 12.9-4.713 23.708-1.413 10.808-3.262 29.148-4.334 40.81-1.003 10.907-1.914 21.604-2.331 27.816h2.804c.402-3.627.728-8.423 1.081-14.22.483-7.927 1.212-19.28 2.206-29.705.994-10.425 2.8-23.715 4.464-32.621 1.664-8.907 3.298-16.282 4.181-21.176.883-4.894-1.97-.616-3.358 5.388zM178.018 202.12c4.845 3.808 13.284 15.333 14.697 26.14 1.414 10.808 3.263 29.148 4.334 40.81 1.003 10.907 1.914 21.604 2.332 27.816h-2.804c-.402-3.627-.729-8.423-1.082-14.22-.483-7.927-1.212-19.28-2.206-29.705-.994-10.425-2.8-23.715-4.464-32.621-1.664-8.907-10.764-11.68-14.165-17.096-2.645-4.211-1.85-5.217 3.358-1.123z" stroke-width=".22825907999999998"/><path d="M195.135 216.214c.048.01.075.049.547.06.944.02 3.39 1.036 4.073 1.523.682.486 1.004.575-.12.272-1.123-.302-4.474-1.15-6.187-.732-1.712.418-2.113.754-2.073 3.04.04 2.286.758 5.015 2.147 9.38 1.388 4.364 3.3 9.379 4.713 17.236 1.413 7.858 3.262 21.191 4.334 29.67 1.002 7.93 1.914 15.706 2.331 20.223h-2.804c-.402-2.637-.728-6.124-1.082-10.339-.482-5.762-1.211-14.016-2.205-21.595-.994-7.58-2.8-17.242-4.464-23.717-1.664-6.476-3.299-11.837-4.181-15.395-.883-3.559-.672-4.298.286-6 .957-1.7 2.884-3.294 4.005-3.508.56-.108.63-.127.68-.118z" stroke-width=".22825907999999998"/><g stroke-width="2.758"><path d="M225.088 190.037c1.133-.016.923.143.577 1.84-.346 1.698-3.208 5.724-4.417 7.215-1.209 1.491.321.349.763 1.605.443 1.257-.439 3.021-2.068 4.676-1.628 1.654-4.169 4.762-7.282 5.323-3.113.56-6.848 1.507-9.398.854-2.549-.654-4.373-1.325-5.14-3.757-.767-2.431 1.071-6.259 1.723-8.82.651-2.56 1.684-3.684 4.665-4.32 2.982-.634 8.623-.958 11.45-1.333s4.219-.003 5.531-1.09c1.313-1.088 2.462-2.177 3.596-2.193z" stroke-width=".22819692"/><path d="M188.685 177.997c1.525-.04 4.795.144 7.615 2.734 2.82 2.59 7.016 7.506 8.022 11.946 1.007 4.44 2.109 9.446.176 12.758-1.933 3.311-5.027 5.223-9.104 4.746-4.076-.476-9.162-4.925-12.572-7.13-3.41-2.203-3.73-4.41-4.197-8.336-.468-3.927 2.703-10.406 4.767-12.971 2.065-2.565 3.568-3.046 4.466-3.676.898-.63-.699-.032.827-.071zM187.338 215.326c1.926.688 5.206 3.586 6.536 4.385 1.33.8.268-1.257.29.978.02 2.236-.439 9.638-1.303 12.296-.865 2.658-.923 2.455-2.476 3.394a87.881 87.881 0 00-5.466 3.547c-2.384 1.668-7.627 2.569-10.348 2.44-2.72-.13-4.463-.688-5.442-1.411-.98-.724-.502-.801-.785-1.174-.282-.373-.834-.324-1.319-.474-.485-.15-1.216-.18-1.333-.992-.116-.813-.066-1.42.289-2.924.354-1.504 1.653-3.813 2.595-5.737.942-1.924 1.725-4.606 2.292-6.12.567-1.515.916-1.794 1.425-2.833.509-1.039.784-1.683 2.585-2.64 1.8-.958 5.977-1.811 8.076-2.154 2.099-.342 2.458-1.27 4.384-.58z" stroke-width=".22819692"/><path d="M166.348 205.126c1.184.007.944.404 4.057 1.386 3.113.982 11.63 2.581 14.908 3.258 3.277.677 3.473-.807 4.739.97 1.265 1.778 2.969 5.44 1.71 8.121-1.258 2.681-6 4.15-7.874 5.305-1.874 1.155-1.876.858-3.523.654-1.648-.204-4.785-1.303-5.786-2.42-1.002-1.116-.714-1.47-.62-2.248.092-.779.836-.718-.764-2.018-1.6-1.3-6.047-4.54-7.565-6.57-1.52-2.032-1.715-3.636-2.127-4.617-.412-.981-.503-.918.165-1.233a5.907 5.907 0 012.68-.588zM202.474 222.283c1.66 2.576 6.558 10.36 8.082 13.127 1.523 2.767 1.626 2.041 2.008 2.925.383.884-.154 1.599-.61 1.94-.457.34-.747.263-1.023.107-.277-.156-.714-.563-.779.004-.065.567.234.963.714 2.156s.928 4.087.838 5.32c-.09 1.234.055 1.507-.594 1.983-.65.476-1.174.206-2.399-.005-1.225-.212-3.074-.719-4.719-1.792-1.644-1.073-3.978-2.48-5.527-3.793-1.548-1.314-2.453-2.44-3.548-4.144-1.095-1.703-2.28-4.156-2.134-6.305.147-2.15.405-3.467 1.84-5.78s6.186-8.35 6.209-8.367c.014-.01-.017.05 1.642 2.624zM210.674 205.473s6.403.885 8.612 1.79c2.21.904 3.35 1.665 4.894 2.485 1.544.82 3.151 1.51 4.193 2.747 1.042 1.237 2.048 2.692 2.275 3.97.227 1.278-.097 2.451-.033 3.099.065.648.685.5-.001.865-.687.365-.763.801-1.984 2.636-1.222 1.834-4.91 5.204-7.445 6.356-2.535 1.153-4.685 1.714-6.513 1.836-1.828.121-3-.006-4.17-.473-1.171-.466-1.75-1.39-2.51-2.153-.758-.762-1.398 1.002-2.15-2.331-.75-3.333-2.279-13.901-2.492-17.15-.213-3.248.6-.731 1.513-1.602.915-.871 3.779-2.018 4.84-2.057 1.062-.04.972-.018.972-.018s0 0 0 0z" stroke-width=".22819692"/><path d="M199.182 198.07c0-.402 1.088 1.1 1.544 1.328.457.23.623-.217.81.528.186.746-.101 2.667.093 3.342.194.676.448-.122.442-.36-.006-.238.262-.216.369-.029.107.188.156.359.473.125.317-.233 1.01-.405 1.495-.034.485.372 1.238-.082 1.712-.115.473-.033.751.264 1.132-.195.381-.458.98-1.652 1.655-1.954.676-.301 1.602.175 1.492.784-.11.61-.333.99-.238 1.514.094.525-.252 1.134-.217 1.5.035.367.309-.06.65.2.343.26.717.998 1.318 1.201.6.203-.268.972.018 1.285.285.313 1.31-.01 1.4.511.088.522-.013.49.578.406.591-.084 1.091.91 1.336 1.435.246.526.93.581 1.193.903.262.323.788.481.656.803-.131.323-.151.574.191.706.343.132.897.584.7.957-.199.373-.214.413-.117.76.098.347-.418.238-.746.492-.328.253-1.13.42-1.23.874-.099.454.572.886.199 1.332-.373.445-.885 1.15-.75 1.636.133.486-.165.355-.225.74-.06.386-.739.997-.612 1.362.126.366-.122-.316.405-.116.528.2.981 1.37 1.14 2.07.158.7-.013 1.499-.407 1.91-.394.413-.834.557-.77.962.062.404 1 .366.807.911-.192.545-.713 1.124-1.107 1.376-.394.253-.797-.424-1.109-.027-.311.398.086 1.552-.24 1.877-.328.325-.481-.213-.89-.206-.409.007-.975-.089-1.314.516-.339.605-.219 1.566-.37 2.136-.15.57-.725.053-1.013-.028-.287-.081-.406-.17-.693.258-.287.427-.886.317-1.896.23-1.011-.086-3.205-.835-4.048-1.157-.844-.321-1.113-.24-.994.445.118.685.989 1.848.882 2.462-.106.614-.304.351-.574.154-.271-.197-.774-.711-1.203-.274-.43.438-.539 1.427-1.124 1.656-.585.229-.58-.682-1.319-.7-.739-.018-1.864-.314-2.47-.944-.607-.63-.728-1.553-.69-2.081.037-.528.175-.707-.474-.692-.65.015-1.347.814-2.113 1.164-.767.35-1.798.501-2.634-.006-.837-.508-1.4-1.72-1.515-2.394-.115-.675-.215-.643-.085-1.102.13-.46.235-1.339.705-1.477.471-.138.78-.39.362-.707-.417-.316-1.247.51-1.685.195-.438-.316-.721-.507-1.017-.462-.296.044-.377-.152-.469.11-.092.262-.17-.083-.496-.375-.325-.292-.495-1.368-.481-1.848.014-.481-.448-.643-.272-.848.176-.204.801.025.624-.342-.177-.367-1.137-.526-1.251-.83-.115-.303.574-.139.419-.32-.155-.18-.739.1-.65-.274.087-.372.692-.93.938-1.137.246-.209.785.317.712.018-.072-.3.062-.851-.44-.839-.5.013-1.59.034-1.995-.28-.406-.314-.731-.5-.447-.824.285-.324.962-.216.923-.67-.039-.453-.776-.196-1.043.096-.268.292-.554.727-1.097.6-.543-.128-1.195-.466-1.408-1.084-.214-.618-.906-1.498-.765-2.013.141-.515.06-.867.485-.822.424.046.665-.366.881-.76.217-.393 1.022-.523 1.132-1.01.11-.486-.403-.589-.318-1.246.085-.656.03-1.879.196-2.47.166-.592.908-.661.847-1.007-.061-.347-.636-.403-.174-.684s1.126.352 1.583.608c.458.255 1.072.853 1.447.625.376-.228.357-.611.69-.808.334-.198-.153-.677.037-1.049.189-.372.12-.945.555-1.196.433-.252.685-.675.716-1.169.032-.493.42-1.005.873-1.077.453-.07.957-.009 1.308-.261.35-.253.378-.517.792-.658.414-.14.739.69.916.925.178.236.446.801.533.337.087-.465-.503-1.761-.066-2.145.438-.383.68.772 1.063.606.384-.165.065-.558.415-1.078s.905-1.753 1.59-2.038c.685-.286 1.27-.25 1.732-.46.462-.209.696.265 1.063.184.368-.081 1.034-.25 1.034-.473 0-.222 0 .402 0 0z" stroke-width=".22819692"/><path d="M199.079 214.829c.1-.003.201.037.29.174.237.366.438 1.356.697 1.783.258.427.35.6.755.742.404.143.79.199 1.44.134.65-.064 1.972-.485 2.397-.574.424-.089.197-.051.14.05-.06.103-.008.065-.392.251-.383.187-1.42.616-1.954.775-.533.158-.7.21-1.222.147-.522-.062-1.162-.42-1.618-.896-.457-.476-.897-1.372-.986-1.82-.089-.448-.102-.494-.103-.621 0-.127.004-.023.143-.02.086.003.247-.121.413-.125zm-1.281.13c.014-.005.022.013-.02.026.004-.017.012-.025.02-.027zm-.02.026c-.007.027-.004.08.035.17.126.294.401.93.835 1.521.434.59 1.103 1.37 1.838 1.907.736.537 1.778 1.304 2.223 1.692.446.388.391.41.436.615.045.205.072.267-.098.472-.169.205-.603.492-.885.59-.282.099-.398.096-.678-.093-.28-.19-.552-.446-.954-.891-.403-.445-.842-1.277-1.245-1.912-.404-.634-.897-1.169-1.355-1.772-.458-.602-1.166-1.48-1.383-1.852-.218-.371.055-.06.246-.146.192-.086.74-.276.936-.292a.234.234 0 00.049-.01zm-2.096 1.288c.001.002 0 .01-.005.022-.005-.013.003-.026.005-.022zm-.005.022c.004.009.012.018.032.024.08.023-.122-.123.354.247.477.37 1.961 1.55 2.495 1.991.533.442.457.363.532.795.074.432-.16 1.077-.494 1.448-.334.371-.921.709-1.21.745-.287.036-.247.049-.275-.075-.028-.125.004-.132.199-.372.194-.24.8-.772 1.017-1.018.216-.246.213-.275.081-.496-.131-.222-.188-.29-.724-.635-.536-.346-2.042-1.123-2.482-1.444-.439-.32.056-.194.124-.39a7.569 7.569 0 01.351-.82z" stroke-width=".22819692"/></g></g><path d="M164.625 204.552c-1.388 6.003-3.3 12.9-4.713 23.708-1.414 10.808-3.263 29.148-4.334 40.81-1.003 10.907-1.914 21.604-2.332 27.816h2.804c.402-3.627.729-8.423 1.082-14.22.483-7.927 1.212-19.28 2.206-29.705.994-10.425 2.8-23.715 4.464-32.621 1.664-8.907 3.298-16.282 4.181-21.176.883-4.894-1.97-.616-3.358 5.388z" fill="#fff" stroke="#000" stroke-width=".228"/><g fill="#fff" stroke="#000"><path d="M97.72 296.972h-3.58s3.222-7.979 3.222-16.418c0-.41 1.636-.41 1.636 0 0 8.797-1.278 16.418-1.278 16.418" stroke-width=".1996665"/><path d="M107.284 292.113c5.421-.358 4.654-6.547 2.301-7.723l-11.405-3.12c.46.818 3.273 11.201 9.104 10.843" stroke-width=".1996665"/><g stroke-width=".391"><path d="M111.376 276.514c-4.962-3.325-12.378 3.733-13.196 4.756l11.405 3.12c2.865 0 6.24-4.91 1.79-7.876M90.099 269.455c-1.892 5.78 7.416 10.946 8.081 11.764v-12.07c-.716-2.762-6.342-4.86-8.081.306" stroke-width=".19998086"/></g><path d="M106.261 269.455c-1.79-5.268-7.57-2.915-8.081-.255v12.07c.665-.716 9.973-6.086 8.081-11.815M86.774 284.39c-2.352 1.176-3.12 7.416 2.302 7.723 5.83.358 8.644-10.025 9.104-10.843l-11.406 3.12" stroke-width=".1996665"/><path d="M84.984 276.514c-4.45 3.017-1.074 7.876 1.79 7.876l11.406-3.12c-.87-1.023-8.234-8.08-13.196-4.756" stroke-width=".1996665"/></g><g fill="#fff" stroke="#000"><path d="M32.857 296.9h3.58s-3.221-7.979-3.221-16.418c0-.409-1.637-.409-1.637 0 0 8.797 1.278 16.418 1.278 16.418" stroke-width=".1996665"/><path d="M23.293 292.041c-5.421-.358-4.654-6.546-2.301-7.723l11.405-3.12c-.46.819-3.273 11.201-9.104 10.843" stroke-width=".1996665"/><g stroke-width=".391"><path d="M19.202 276.442c4.96-3.325 12.377 3.733 13.195 4.756l-11.405 3.12c-2.864 0-6.24-4.91-1.79-7.876M40.478 269.384c1.893 5.78-7.416 10.945-8.08 11.763v-12.07c.715-2.762 6.341-4.859 8.08.307" stroke-width=".19998086"/></g><path d="M24.316 269.384c1.79-5.268 7.57-2.916 8.081-.256v12.07c-.665-.716-9.973-6.086-8.08-11.814M43.803 284.318c2.352 1.177 3.12 7.416-2.302 7.723-5.83.358-8.644-10.024-9.104-10.843l11.406 3.12M45.593 276.442c4.45 3.017 1.074 7.876-1.79 7.876l-11.406-3.12c.87-1.023 8.235-8.08 13.196-4.756" stroke-width=".1996665"/></g><g stroke-width=".1" fill="#fff" stroke="#000"><path d="M163.64 296.89h3.931s-3.537-8.76-3.537-18.025c0-.45-1.797-.45-1.797 0 0 9.658 1.404 18.025 1.404 18.025" stroke-width=".19929"/><path d="M153.14 291.556c-5.953-.394-5.11-7.188-2.527-8.48l12.522-3.425c-.505.898-3.594 12.298-9.995 11.905" stroke-width=".19929"/><g stroke-width=".356"><path d="M148.647 274.429c5.447-3.65 13.59 4.099 14.488 5.222l-12.522 3.425c-3.145 0-6.85-5.39-1.966-8.647M172.008 266.68c2.077 6.345-8.143 12.016-8.873 12.915v-13.253c.786-3.032 6.963-5.334 8.873.337" stroke-width=".19990824000000001"/></g><path d="M154.263 266.68c1.965-5.785 8.31-3.201 8.872-.281v13.252c-.73-.786-10.95-6.682-8.872-12.972M175.658 283.076c2.583 1.292 3.425 8.143-2.527 8.48-6.402.393-9.49-11.007-9.996-11.905l12.523 3.425" stroke-width=".19929"/><path d="M177.623 274.429c4.885 3.313 1.18 8.647-1.965 8.647l-12.523-3.425c.955-1.123 9.041-8.872 14.488-5.222" stroke-width=".19929"/></g><g stroke-width=".1" fill="#fff" stroke="#000"><path d="M5.26-18.51H4.002s1.06-4.396 1.06-9.046c0-.225.902-.225.902 0 0 4.847-.704 9.045-.704 9.045" transform="matrix(1.48181 0 .18079 1.48181 119.66 324.355)"/><path d="M10.529-21.188c2.987-.197 2.564-3.606 1.268-4.254l-6.284-1.72c.254.452 1.804 6.172 5.016 5.974" transform="matrix(1.48181 0 .18079 1.48181 119.66 324.355)"/><g stroke-width=".356"><path d="M57.8 22c-9.7-6.5-24.2 7.3-25.8 9.3l22.3 6.1c5.6 0 12.2-9.6 3.5-15.4M16.2 8.2c-3.7 11.3 14.5 21.4 15.8 23V7.6c-1.4-5.4-12.4-9.5-15.8.6" transform="matrix(.41753 0 .05094 .41753 107.964 271.039)"/></g><path d="M9.965-33.67c-.986-2.902-4.17-1.606-4.452-.141v6.65c.367-.395 5.495-3.353 4.452-6.51M-.77-25.442c-1.296.648-1.719 4.085 1.268 4.254 3.212.198 4.762-5.522 5.015-5.973L-.77-25.442" transform="matrix(1.48181 0 .18079 1.48181 119.66 324.355)"/><path d="M-1.756-29.782c-2.452 1.663-.592 4.34.986 4.34l6.283-1.72c-.479-.563-4.536-4.451-7.27-2.62" transform="matrix(1.48181 0 .18079 1.48181 119.66 324.355)"/></g></g></svg>