<svg xmlns="http://www.w3.org/2000/svg" width="1424" height="744" viewBox="0 0 376.767 196.85"><path d="M18.401 156.375h351.78v.008h0M18.401 131.233h351.78v.008h0M18.401 105.833h351.78v.008h0M18.401 80.963h351.78v.008h0M18.401 56.091h351.78v.008h0M18.401 30.692h351.78v.008h0" fill="none" stroke="#000" stroke-width=".413"/><path d="M136.849 181.102h14.493v14.493h-14.493z" fill="#00d455" fill-rule="evenodd" stroke-width="14.877" stroke-linecap="round" paint-order="fill markers stroke"/><path d="M48.141 30.867h26.092V156.12H48.141z" fill="#00d455" fill-rule="evenodd" stroke-width="58.683" stroke-linecap="round" paint-order="fill markers stroke"/><path d="M165.15 56.337h26.093v99.72h-26.092z" fill="#00d455" fill-rule="evenodd" stroke-width="52.361" stroke-linecap="round" paint-order="fill markers stroke"/><path d="M282.366 107.86h25.532v48.236h-25.532z" fill="#00d455" fill-rule="evenodd" stroke-width="36.024" stroke-linecap="round" paint-order="fill markers stroke"/><path d="M251.128 180.672h14.493v14.493h-14.493z" fill="red" fill-rule="evenodd" stroke-width="14.877" stroke-linecap="round" paint-order="fill markers stroke"/><path d="M198.434 131.462h26.135v24.547h-26.135z" fill="red" fill-rule="evenodd" stroke-width="26" stroke-linecap="round" paint-order="fill markers stroke"/><path d="M315.294 79.746h26.186v76.232h-26.186z" fill="red" fill-rule="evenodd" stroke-width="45.864" stroke-linecap="round" paint-order="fill markers stroke"/><g aria-label="100%" style="line-height:1.25" font-weight="400" font-size="10.583" font-family="Rosario" letter-spacing="0" word-spacing="0" stroke-width=".265"><path d="M8.3 29.94H4.988v-.719h1.238v-3.566l-1.27.391-.19-.497 1.809-.879h.53v4.551H8.3zM9.101 27.306q0-1.186.688-1.969.699-.794 1.863-.794 1.154 0 1.852.794.699.794.699 1.969 0 1.174-.699 1.968-.698.794-1.852.794-1.154 0-1.852-.794-.699-.794-.699-1.968zm2.551 2.095q1.588 0 1.588-2.095 0-2.096-1.588-2.096-1.598 0-1.598 2.096 0 2.095 1.598 2.095zM15.22 27.306q0-1.186.688-1.969.698-.794 1.863-.794 1.153 0 1.852.794.698.794.698 1.969 0 1.174-.698 1.968-.699.794-1.852.794-1.154 0-1.853-.794-.698-.794-.698-1.968zm2.55 2.095q1.588 0 1.588-2.095 0-2.096-1.587-2.096-1.599 0-1.599 2.096 0 2.095 1.599 2.095zM27.89 29.983q-.815 0-1.302-.624-.476-.625-.476-1.46 0-.869.444-1.45.445-.593 1.291-.593.794 0 1.26.613.465.614.465 1.43 0 .804-.455 1.45-.455.634-1.227.634zm-4.022.085h-.677l3.47-7.091h-2.37q.476.582.476 1.44 0 .793-.455 1.439-.455.645-1.217.645-.815 0-1.301-.624-.487-.625-.487-1.46 0-.858.444-1.45.455-.604 1.291-.604h4.583zm4.011-.71q.317 0 .519-.264.211-.264.285-.56.074-.308.074-.615 0-.296-.084-.603-.074-.317-.286-.582-.212-.275-.53-.275-.454 0-.708.497-.254.487-.254.985 0 .497.254.963.264.455.73.455zm-4.805-3.481q.318 0 .53-.265.211-.264.285-.571.074-.307.074-.604 0-.508-.233-.984-.222-.476-.677-.476-.307 0-.54.275-.222.265-.317.593-.096.317-.096.614 0 .497.254.963.254.455.72.455z" style="-inkscape-font-specification:Rosario"/></g><g aria-label="80%" style="line-height:1.25" font-weight="400" font-size="10.583" font-family="rosario" letter-spacing="0" word-spacing="0" stroke-width=".265"><path d="M7.58 51.039l-.096.095.307.296q.286.275.35.35.073.073.285.327.212.254.275.403.074.148.148.391.085.233.085.466 0 .9-.614 1.418-.614.519-1.545.519-.815 0-1.418-.487-.603-.498-.603-1.302 0-.392.084-.688.085-.307.297-.571.222-.276.391-.434.17-.159.519-.455l.17-.138q-.096-.106-.414-.413-.317-.317-.433-.465-.106-.149-.233-.445-.127-.307-.127-.645 0-.741.55-1.26.55-.529 1.302-.529.772 0 1.29.466.53.455.53 1.217 0 .402-.18.772t-.36.572q-.18.19-.56.54zm-.636-.424q.89-.783.89-1.46 0-.434-.265-.741-.254-.318-.688-.318-.434 0-.667.34-.222.327-.222.772 0 .137.053.285.053.138.106.244.063.106.18.254.127.148.2.222l.223.222q.148.138.19.18zm-.211 1.122l-.159.138q-.265.232-.381.349-.106.106-.275.317-.17.212-.233.434-.063.223-.063.508 0 .466.328.826.338.36.804.36.53 0 .857-.35.339-.36.339-.889 0-.2-.074-.391-.074-.19-.233-.381-.159-.201-.286-.328-.116-.127-.338-.328-.223-.201-.286-.265zM9.984 52.563q0-1.186.688-1.969.698-.794 1.862-.794 1.154 0 1.852.794.699.794.699 1.969 0 1.174-.699 1.968-.698.794-1.852.794-1.153 0-1.852-.794-.698-.794-.698-1.968zm2.55 2.095q1.588 0 1.588-2.095 0-2.096-1.588-2.096-1.598 0-1.598 2.096 0 2.095 1.598 2.095zM22.653 55.24q-.815 0-1.301-.624-.477-.625-.477-1.46 0-.869.445-1.45.444-.593 1.291-.593.794 0 1.26.613.465.614.465 1.43 0 .804-.455 1.45-.455.634-1.228.634zm-4.021.085h-.678l3.472-7.091h-2.37q.475.582.475 1.44 0 .793-.455 1.439-.455.645-1.217.645-.815 0-1.302-.624-.486-.625-.486-1.46 0-.858.444-1.45.455-.604 1.291-.604h4.583zm4.01-.71q.318 0 .52-.264.211-.264.285-.56.074-.308.074-.615 0-.296-.084-.603-.075-.317-.286-.582-.212-.275-.53-.275-.454 0-.708.497-.254.487-.254.985 0 .497.254.963.264.455.73.455zm-4.804-3.481q.317 0 .53-.265.21-.264.285-.571.074-.307.074-.603 0-.508-.233-.985-.222-.476-.677-.476-.307 0-.54.275-.222.265-.317.593-.096.317-.096.614 0 .497.254.963.254.455.72.455z" style="-inkscape-font-specification:rosario"/></g><g aria-label="60%" style="line-height:1.25" font-weight="400" font-size="10.583" font-family="rosario" letter-spacing="0" word-spacing="0" stroke-width=".265"><path d="M10.38 72.664l.222.54Q9.406 73.7 8.507 74.6q-.89.9-1.217 2.064.656-.54 1.502-.54.89 0 1.44.625.56.624.56 1.524 0 .995-.645 1.64-.645.635-1.64.635-1.059 0-1.715-.772-.645-.773-.645-1.852 0-1.43.783-2.604.783-1.175 2.085-2 .793-.498 1.365-.656zm-3.25 4.89q-.01.137-.01.401 0 .752.35 1.344.349.583 1.058.583.646 0 .974-.466.328-.476.328-1.143 0-.593-.35-1.006-.349-.423-.93-.423-.731 0-1.42.71zM11.81 77.786q0-1.185.688-1.968.699-.794 1.863-.794 1.154 0 1.852.794.699.793.699 1.968 0 1.175-.699 1.969-.698.793-1.852.793-1.154 0-1.852-.793-.699-.794-.699-1.969zm2.551 2.096q1.587 0 1.587-2.096 0-2.095-1.587-2.095-1.598 0-1.598 2.095 0 2.096 1.598 2.096zM24.48 80.464q-.815 0-1.302-.625-.476-.624-.476-1.46 0-.868.444-1.45.445-.593 1.292-.593.793 0 1.26.614.465.614.465 1.429 0 .804-.455 1.45-.455.635-1.228.635zm-4.022.084h-.677l3.471-7.09h-2.37q.476.582.476 1.439 0 .794-.455 1.44-.455.645-1.217.645-.815 0-1.302-.625-.487-.624-.487-1.46 0-.857.445-1.45.455-.603 1.29-.603h4.583zm4.011-.709q.318 0 .519-.264.212-.265.286-.561.074-.307.074-.614 0-.296-.085-.603-.074-.318-.286-.582-.211-.276-.529-.276-.455 0-.709.498-.254.487-.254.984 0 .498.254.963.265.455.73.455zm-4.804-3.482q.317 0 .529-.264.211-.265.285-.572.075-.307.075-.603 0-.508-.233-.984-.223-.476-.678-.476-.307 0-.54.275-.222.264-.317.592-.095.318-.095.614 0 .498.254.963.254.455.72.455z" style="-inkscape-font-specification:rosario"/></g><g aria-label="40%" style="line-height:1.25" font-weight="400" font-size="10.583" font-family="rosario" letter-spacing="0" word-spacing="0" stroke-width=".265"><path d="M10.12 107.14h-.878v-1.957h-3.09v-.423l2.932-4.848h1.037v4.54h1.069l-.19.73h-.88zm-.878-2.687v-3.493l-2.116 3.493zM11.794 102.558q0-1.185.688-1.968.698-.794 1.862-.794 1.154 0 1.853.794.698.794.698 1.968 0 1.175-.698 1.969-.699.794-1.853.794-1.153 0-1.852-.794-.698-.794-.698-1.969zm2.55 2.096q1.588 0 1.588-2.096 0-2.095-1.588-2.095-1.598 0-1.598 2.095 0 2.096 1.598 2.096zM24.463 105.236q-.814 0-1.301-.625-.477-.624-.477-1.46 0-.868.445-1.45.444-.593 1.291-.593.794 0 1.26.614.465.614.465 1.429 0 .804-.455 1.45-.455.635-1.228.635zm-4.021.085h-.678l3.472-7.091h-2.37q.475.582.475 1.439 0 .794-.455 1.44-.455.645-1.217.645-.815 0-1.302-.624-.486-.625-.486-1.461 0-.857.444-1.45.455-.603 1.291-.603H24.2zm4.01-.71q.318 0 .52-.264.211-.265.285-.561.074-.307.074-.614 0-.296-.084-.603-.074-.318-.286-.582-.212-.275-.53-.275-.454 0-.708.497-.254.487-.254.984 0 .498.254.963.264.455.73.455zm-4.804-3.481q.318 0 .53-.265.21-.265.285-.572.074-.306.074-.603 0-.508-.233-.984-.222-.476-.677-.476-.307 0-.54.275-.222.264-.317.593-.096.317-.096.613 0 .498.254.963.254.456.72.456z" style="-inkscape-font-specification:rosario"/></g><g aria-label="20%" style="line-height:1.25" font-weight="400" font-size="10.583" font-family="rosario" letter-spacing="0" word-spacing="0" stroke-width=".265"><path d="M9.861 130.594H5.723v-.561l2.456-2.456q.455-.455.455-.952 0-.318-.212-.54-.201-.222-.519-.222-.666 0-1.502.688l-.434-.487q.38-.381.942-.625.571-.243 1.11-.243.678 0 1.144.381.476.37.476 1.037 0 .857-1.132 1.831l-1.651 1.418h3.217zM10.843 127.958q0-1.185.688-1.968.698-.794 1.863-.794 1.153 0 1.852.794.698.794.698 1.968 0 1.175-.698 1.969-.699.794-1.852.794-1.154 0-1.852-.794-.699-.794-.699-1.969zm2.55 2.096q1.588 0 1.588-2.096 0-2.095-1.587-2.095-1.598 0-1.598 2.095 0 2.096 1.598 2.096zM23.513 130.636q-.815 0-1.302-.625-.476-.624-.476-1.46 0-.868.444-1.45.445-.593 1.291-.593.794 0 1.26.614.465.614.465 1.429 0 .804-.455 1.45-.455.635-1.227.635zm-4.022.085h-.677l3.47-7.091h-2.37q.477.582.477 1.44 0 .793-.456 1.438-.455.646-1.217.646-.815 0-1.301-.624-.487-.625-.487-1.46 0-.858.444-1.45.455-.604 1.291-.604h4.583zm4.011-.71q.318 0 .519-.264.211-.265.285-.561.074-.307.074-.614 0-.296-.084-.603-.074-.318-.286-.582-.212-.275-.53-.275-.454 0-.708.497-.254.487-.254.984 0 .498.254.963.264.455.73.455zm-4.805-3.481q.318 0 .53-.265.211-.265.285-.572.074-.306.074-.603 0-.508-.233-.984-.222-.476-.677-.476-.307 0-.54.275-.222.264-.317.593-.095.317-.095.613 0 .498.254.963.254.456.72.456z" style="-inkscape-font-specification:rosario"/></g><g aria-label="0%" style="line-height:1.25" font-weight="400" font-size="10.583" font-family="rosario" letter-spacing="0" word-spacing="0" stroke-width=".265"><path d="M8.396 152.83q0-1.186.688-1.97.698-.793 1.862-.793 1.154 0 1.852.794.699.793.699 1.968 0 1.175-.699 1.969-.698.793-1.852.793-1.153 0-1.852-.793-.698-.794-.698-1.969zm2.55 2.095q1.588 0 1.588-2.096 0-2.095-1.588-2.095-1.598 0-1.598 2.095 0 2.096 1.598 2.096zM21.065 155.507q-.815 0-1.302-.625-.476-.624-.476-1.46 0-.868.445-1.45.444-.593 1.29-.593.795 0 1.26.614.466.614.466 1.429 0 .804-.455 1.45-.455.635-1.228.635zm-4.021.084h-.678l3.472-7.09h-2.371q.476.582.476 1.439 0 .794-.455 1.44-.455.645-1.217.645-.815 0-1.302-.625-.487-.624-.487-1.46 0-.857.445-1.45.455-.603 1.291-.603h4.583zm4.01-.709q.318 0 .52-.264.21-.265.285-.561.074-.307.074-.614 0-.296-.085-.603-.074-.318-.285-.582-.212-.276-.53-.276-.455 0-.709.498-.254.487-.254.984 0 .498.254.963.265.455.73.455zM16.25 151.4q.317 0 .529-.264.212-.265.286-.572.074-.307.074-.603 0-.508-.233-.984-.222-.476-.677-.476-.307 0-.54.275-.222.264-.318.592-.095.318-.095.614 0 .498.254.963.254.455.72.455z" style="-inkscape-font-specification:rosario"/></g><g aria-label="Weather Predictor Accuracy" style="line-height:1.25" font-weight="400" font-size="22.578" font-family="Rosario" letter-spacing="0" word-spacing="0" stroke-width=".265"><path d="M69.68 22.183h-1.74L64.578 9.855l-3.342 12.328h-1.738l-4.56-16.55h2.212l3.409 12.599 3.387-12.599h1.67l3.387 12.599 3.41-12.599h1.76zM82.017 19.744l.835 1.355q-1.557 1.265-3.793 1.265-2.438 0-3.838-1.626-1.377-1.648-1.377-4.154 0-1.536.497-2.868.519-1.332 1.648-2.235 1.151-.903 2.732-.903 1.964 0 3.16 1.174 1.197 1.151 1.197 3.093 0 1.445-1.151 1.445H75.83v.226q0 1.625.858 2.958.88 1.31 2.416 1.31.745 0 1.557-.272.813-.293 1.355-.768zm-6.05-4.854h4.718q.248 0 .316-.09.068-.113.068-.384 0-1.016-.587-1.716t-1.58-.7q-1.084 0-1.92.88-.813.881-1.016 2.01zM94.867 20.422l.384 1.174-.52.226-.564.225q-.203.068-.52.136-.315.09-.564.09-.654 0-1.083-.429-.407-.429-.52-1.106-1.512 1.58-3.386 1.58-1.355 0-2.235-.79Q85 20.715 85 19.361q0-3.816 6.434-3.861v-1.197q0-2.258-1.874-2.258-.88 0-1.783.362-.903.361-1.445.97l-.926-1.332q1.829-1.467 4.312-1.467 1.761 0 2.664.97.926.949.926 2.733v5.599q0 .452.09.655.113.203.407.203.27 0 1.061-.316zm-3.432-2.732v-.723q-.835 0-1.445.068-.587.045-1.4.249-.79.203-1.241.722-.43.497-.43 1.287 0 .722.475 1.084.497.36 1.31.36 1.15 0 1.941-.925.79-.948.79-2.122zM101.779 20.648l.316 1.264q-1.332.406-2.235.406-1.377 0-1.987-.722-.587-.745-.587-2.19V12.27h-1.67v-1.129q1.964-.045 2.618-3.5h1.423q-.497 2.033-.497 3.207h2.935l-.406 1.422H99.16v7.18q0 .722.248 1.084.271.338.949.338.519 0 1.422-.225zM113.05 22.07h-1.852v-6.909q0-.655-.045-1.061-.045-.406-.226-.88-.158-.497-.565-.746-.406-.248-1.038-.248-1.31 0-3.093 1.49v8.354h-1.852V6.198q0-.023-.067-.316-.068-.316-.158-.632-.068-.34-.068-.384h2.145v7.315q1.716-1.626 3.409-1.626 3.41 0 3.41 3.997zM124.042 19.744l.835 1.355q-1.558 1.265-3.793 1.265-2.438 0-3.838-1.626-1.377-1.648-1.377-4.154 0-1.536.496-2.868.52-1.332 1.649-2.235 1.151-.903 2.731-.903 1.965 0 3.161 1.174 1.197 1.151 1.197 3.093 0 1.445-1.152 1.445h-6.096v.226q0 1.625.858 2.958.881 1.31 2.416 1.31.745 0 1.558-.272.813-.293 1.355-.768zm-6.051-4.854h4.719q.248 0 .316-.09.068-.113.068-.384 0-1.016-.588-1.716-.587-.7-1.58-.7-1.084 0-1.92.88-.812.881-1.015 2.01zM129.735 22.07h-1.874v-8.128q0-1.987-.723-3.048l2.032-.248q.407.993.52 2.1.609-.949 1.602-1.513.994-.587 2.078-.587l-.452 1.986q-1.829 0-3.183 1.987zM143.17 22.07h-2.1V7.124l-.338-1.49h4.922q2.574 0 4.041 1.219 1.49 1.196 1.49 3.747 0 2.371-1.558 3.68-1.558 1.288-3.95 1.288h-2.507zm0-8.038h2.461q1.558 0 2.461-.925.903-.949.903-2.507 0-1.603-.88-2.506-.858-.903-2.461-.903h-2.484zM155.796 22.07h-1.874v-8.128q0-1.987-.722-3.048l2.032-.248q.406.993.519 2.1.61-.949 1.603-1.513.993-.587 2.077-.587l-.452 1.986q-1.828 0-3.183 1.987zM169.153 19.744l.836 1.355q-1.558 1.265-3.793 1.265-2.439 0-3.839-1.626-1.377-1.648-1.377-4.154 0-1.536.497-2.868.52-1.332 1.648-2.235 1.151-.903 2.732-.903 1.964 0 3.16 1.174 1.197 1.151 1.197 3.093 0 1.445-1.151 1.445h-6.096v.226q0 1.625.858 2.958.88 1.31 2.416 1.31.745 0 1.558-.272.812-.293 1.354-.768zm-6.05-4.854h4.718q.248 0 .316-.09.068-.113.068-.384 0-1.016-.587-1.716t-1.58-.7q-1.084 0-1.92.88-.812.881-1.016 2.01zM182.545 22.025l-1.987.248q-.316-.7-.429-1.535-1.264 1.626-3.319 1.626-2.212 0-3.432-1.739-1.219-1.738-1.219-4.064 0-2.484 1.287-4.222 1.31-1.739 3.726-1.739 1.738 0 2.822.994V6.198l-.316-1.332h2.167V18.84q0 2.01.7 3.184zm-2.551-2.8v-3.793q0-1.445-.7-2.37-.678-.926-2.077-.926-.858 0-1.49.384-.61.383-.949 1.038-.316.632-.474 1.355-.158.7-.158 1.513 0 1.76.79 3.025.79 1.264 2.439 1.264 1.31 0 2.619-1.49zM187.932 7.078q0 .587-.406.994-.384.384-.971.384-.565 0-.971-.407-.384-.406-.384-.97 0-.565.384-.971.406-.407.97-.407.565 0 .972.407.406.406.406.97zm-.406 14.992h-1.874v-9.89q0-.022-.068-.315l-.136-.632q-.067-.339-.067-.384h2.145zM198.362 19.812l.858 1.423q-1.061.632-1.829.88-.745.249-1.874.249-2.258 0-3.68-1.784-1.4-1.806-1.4-4.11 0-2.55 1.422-4.221 1.445-1.671 3.952-1.671 1.738 0 3.25 1.151l-1.015 1.31q-.655-.565-1.197-.768-.52-.226-1.332-.226-1.468 0-2.28 1.333-.79 1.332-.79 2.89 0 1.038.293 2.032.316.97 1.061 1.738.768.768 1.829.768.813 0 1.377-.226.565-.226 1.355-.768zM206.642 20.648l.316 1.264q-1.332.406-2.235.406-1.377 0-1.987-.722-.587-.745-.587-2.19V12.27h-1.67v-1.129q1.964-.045 2.619-3.5h1.422q-.497 2.033-.497 3.207h2.935l-.406 1.422h-2.529v7.18q0 .722.249 1.084.27.338.948.338.52 0 1.422-.225zM213.09 22.364q-2.371 0-3.726-1.716-1.332-1.739-1.332-4.177 0-2.416 1.354-4.155 1.355-1.738 3.703-1.738 2.393 0 3.726 1.716 1.354 1.716 1.354 4.177 0 2.46-1.354 4.177-1.333 1.716-3.726 1.716zm0-1.423q1.106 0 1.828-.745.745-.745.993-1.693.271-.971.271-2.032t-.27-2.01q-.271-.97-1.017-1.716-.722-.745-1.806-.745t-1.829.745q-.722.745-.993 1.716-.248.949-.248 2.01 0 .993.293 1.964.294.97 1.016 1.738.745.768 1.761.768zM222.647 22.07h-1.874v-8.128q0-1.987-.722-3.048l2.032-.248q.406.993.52 2.1.609-.949 1.602-1.513.994-.587 2.077-.587l-.451 1.986q-1.829 0-3.184 1.987zM245.904 22.07h-2.325l-1.897-5.644h-5.418l-1.92 5.644h-1.896l5.712-16.437h2.055zm-4.741-7.18l-2.168-6.502-2.212 6.502zM255.203 19.812l.858 1.423q-1.061.632-1.829.88-.745.249-1.874.249-2.257 0-3.68-1.784-1.4-1.806-1.4-4.11 0-2.55 1.423-4.221 1.445-1.671 3.95-1.671 1.74 0 3.252 1.151l-1.016 1.31q-.655-.565-1.197-.768-.519-.226-1.332-.226-1.467 0-2.28 1.333-.79 1.332-.79 2.89 0 1.038.293 2.032.316.97 1.061 1.738.768.768 1.83.768.812 0 1.376-.226.565-.226 1.355-.768zM265.345 19.812l.858 1.423q-1.06.632-1.828.88-.745.249-1.874.249-2.258 0-3.68-1.784-1.4-1.806-1.4-4.11 0-2.55 1.422-4.221 1.445-1.671 3.951-1.671 1.739 0 3.251 1.151l-1.016 1.31q-.654-.565-1.196-.768-.52-.226-1.332-.226-1.468 0-2.28 1.333-.79 1.332-.79 2.89 0 1.038.293 2.032.316.97 1.06 1.738.768.768 1.83.768.812 0 1.377-.226.564-.226 1.354-.768zM278.626 20.422l.384 1.174-.52.226-.564.225q-.203.068-.519.136-.316.09-.564.09-.655 0-1.062-.429-.406-.429-.519-1.106-1.58 1.626-3.454 1.626-1.784 0-2.62-1.062-.812-1.083-.812-2.935v-6.186q0-.023-.068-.316-.068-.316-.158-.632-.068-.339-.068-.384h2.168v6.909q0 .61.045 1.038.068.43.226.903.18.474.587.745.406.249 1.016.249 1.264 0 2.167-.79.903-.813.903-2.078v-5.644q0-.023-.067-.316-.068-.316-.158-.632-.068-.339-.068-.384h2.167v9.031q0 .452.09.655.114.203.407.203.271 0 1.061-.316zM282.752 22.07h-1.874v-8.128q0-1.987-.723-3.048l2.032-.248q.407.993.52 2.1.61-.949 1.603-1.513.993-.587 2.077-.587l-.452 1.986q-1.828 0-3.183 1.987zM297.45 20.422l.384 1.174q-.159.068-.52.226l-.564.225q-.203.068-.52.136-.316.09-.564.09-.655 0-1.084-.429-.406-.429-.519-1.106-1.513 1.58-3.387 1.58-1.354 0-2.235-.79-.858-.813-.858-2.167 0-3.816 6.435-3.861v-1.197q0-2.258-1.874-2.258-.88 0-1.784.362-.903.361-1.445.97l-.925-1.332q1.828-1.467 4.312-1.467 1.761 0 2.664.97.926.949.926 2.733v5.599q0 .452.09.655.113.203.407.203.27 0 1.06-.316zm-3.432-2.732v-.723q-.836 0-1.445.068-.587.045-1.4.249-.79.203-1.242.722-.429.497-.429 1.287 0 .722.474 1.084.497.36 1.31.36 1.151 0 1.942-.925.79-.948.79-2.122zM306.665 19.812l.858 1.423q-1.062.632-1.83.88-.744.249-1.873.249-2.258 0-3.68-1.784-1.4-1.806-1.4-4.11 0-2.55 1.422-4.221 1.445-1.671 3.951-1.671 1.739 0 3.252 1.151l-1.016 1.31q-.655-.565-1.197-.768-.52-.226-1.332-.226-1.468 0-2.28 1.333-.79 1.332-.79 2.89 0 1.038.293 2.032.316.97 1.06 1.738.769.768 1.83.768.812 0 1.377-.226.564-.226 1.355-.768zM309.605 26.97h-.858v-1.513h.248q.677 0 1.22-.316.541-.294.925-.881.406-.587.632-1.084.248-.496.497-1.196l-4.11-11.131h2.033l2.98 8.534 2.98-8.534h1.761l-3.973 11.266q-1.739 4.854-4.335 4.854z" style="line-height:1.25;-inkscape-font-specification:Rosario"/></g><g aria-label="Percent Correct" style="line-height:1.25" font-weight="400" font-size="10.583" font-family="Rosario" letter-spacing="0" word-spacing="0" stroke-width=".265"><path d="M67.708 192.911h-.984v-7.006l-.159-.698h2.307q1.207 0 1.895.571.698.561.698 1.757 0 1.111-.73 1.725-.73.603-1.852.603h-1.175zm0-3.767h1.154q.73 0 1.153-.434.424-.445.424-1.175 0-.751-.413-1.175-.402-.423-1.154-.423h-1.164zM75.816 191.821l.391.635q-.73.593-1.778.593-1.143 0-1.799-.762-.645-.773-.645-1.947 0-.72.232-1.345.244-.624.773-1.047.54-.424 1.28-.424.921 0 1.482.55.561.54.561 1.45 0 .678-.54.678h-2.857v.106q0 .762.402 1.386.413.614 1.132.614.35 0 .73-.127.382-.138.636-.36zm-2.837-2.275h2.212q.117 0 .148-.043.032-.052.032-.18 0-.476-.275-.804-.275-.328-.74-.328-.509 0-.9.413-.381.413-.477.942zM78.484 192.911h-.878v-3.81q0-.931-.339-1.428l.953-.117q.19.466.243.984.286-.444.751-.709.466-.275.974-.275l-.212.931q-.857 0-1.492.932zM84.629 191.853l.402.667q-.497.296-.857.412-.35.117-.878.117-1.059 0-1.726-.836-.656-.847-.656-1.926 0-1.196.667-1.98.677-.783 1.852-.783.815 0 1.524.54l-.476.614q-.307-.265-.561-.36-.243-.106-.624-.106-.688 0-1.07.625-.37.624-.37 1.354 0 .487.138.953.148.455.497.815.36.36.857.36.381 0 .646-.106t.635-.36zM89.5 191.821l.391.635q-.73.593-1.778.593-1.143 0-1.799-.762-.646-.773-.646-1.947 0-.72.233-1.345.244-.624.773-1.047.54-.424 1.28-.424.921 0 1.482.55.561.54.561 1.45 0 .678-.54.678H86.6v.106q0 .762.402 1.386.413.614 1.132.614.35 0 .73-.127.382-.138.636-.36zm-2.837-2.275h2.212q.117 0 .148-.043.032-.052.032-.18 0-.476-.275-.804-.275-.328-.74-.328-.509 0-.9.413-.381.413-.477.942zM95.343 192.911h-.868v-3.228q0-.243-.01-.402-.01-.159-.064-.36-.042-.2-.137-.317-.085-.127-.265-.212-.17-.085-.413-.085-.698 0-1.439.699v3.905h-.868v-3.725q0-1.016-.35-1.492l.964-.127q.159.402.201.751.794-.794 1.64-.794.837 0 1.218.508.391.498.391 1.366zM99.321 192.245l.148.592q-.624.19-1.047.19-.646 0-.932-.338-.275-.35-.275-1.027v-3.344h-.783v-.53q.92-.02 1.228-1.64h.666q-.233.953-.233 1.503h1.376l-.19.667h-1.186v3.366q0 .338.117.508.127.158.444.158.244 0 .667-.105zM108.08 191.588l.455.71q-.423.349-1.09.55-.656.19-1.26.19-1.671 0-2.634-1.153-.953-1.154-.953-2.847 0-1.715.963-2.826t2.646-1.111q.625 0 1.28.222.667.212 1.027.614l-.55.614q-.296-.328-.804-.519-.508-.19-.974-.19-.656 0-1.154.285-.497.276-.783.762-.286.477-.434 1.038-.137.55-.137 1.174 0 .635.137 1.186.148.55.434.994.297.445.794.71.508.254 1.164.254.476 0 .995-.18.53-.18.878-.477zM111.252 193.049q-1.111 0-1.746-.804-.624-.815-.624-1.958 0-1.133.635-1.948t1.735-.815q1.122 0 1.746.805.635.804.635 1.958 0 1.153-.635 1.958-.624.804-1.746.804zm0-.667q.519 0 .857-.35.35-.348.466-.793.127-.455.127-.952 0-.498-.127-.942-.127-.455-.476-.805-.339-.349-.847-.349t-.857.35q-.339.349-.466.804-.116.444-.116.942 0 .465.137.92.138.455.477.815.349.36.825.36zM115.733 192.911h-.879v-3.81q0-.931-.338-1.428l.952-.117q.19.466.243.984.286-.444.752-.709.466-.275.974-.275l-.212.931q-.857 0-1.492.932zM119.433 192.911h-.879v-3.81q0-.931-.338-1.428l.952-.117q.19.466.243.984.286-.444.752-.709.466-.275.974-.275l-.212.931q-.857 0-1.492.932zM125.694 191.821l.391.635q-.73.593-1.778.593-1.143 0-1.799-.762-.645-.773-.645-1.947 0-.72.232-1.345.244-.624.773-1.047.54-.424 1.28-.424.921 0 1.482.55.561.54.561 1.45 0 .678-.54.678h-2.857v.106q0 .762.402 1.386.413.614 1.133.614.349 0 .73-.127.38-.138.635-.36zm-2.837-2.275h2.212q.117 0 .149-.043.031-.052.031-.18 0-.476-.275-.804-.275-.328-.74-.328-.509 0-.9.413-.381.413-.477.942zM130.807 191.853l.402.667q-.497.296-.857.412-.35.117-.878.117-1.059 0-1.726-.836-.656-.847-.656-1.926 0-1.196.667-1.98.677-.783 1.852-.783.815 0 1.524.54l-.476.614q-.307-.265-.561-.36-.243-.106-.624-.106-.688 0-1.07.625-.37.624-.37 1.354 0 .487.138.953.148.455.497.815.36.36.857.36.381 0 .646-.106t.635-.36zM134.688 192.245l.149.592q-.625.19-1.048.19-.646 0-.931-.338-.276-.35-.276-1.027v-3.344h-.783v-.53q.921-.02 1.228-1.64h.667q-.233.953-.233 1.503h1.376l-.19.667h-1.186v3.366q0 .338.116.508.127.158.445.158.243 0 .666-.105z" style="-inkscape-font-specification:Rosario"/></g><g aria-label="Percent Incorrect" style="line-height:1.25" font-weight="400" font-size="10.583" font-family="Rosario" letter-spacing="0" word-spacing="0" stroke-width=".265"><path d="M173.875 191.936h-.984v-7.006l-.16-.699h2.308q1.207 0 1.895.572.698.56.698 1.757 0 1.11-.73 1.725-.73.603-1.852.603h-1.175zm0-3.768h1.154q.73 0 1.153-.434.423-.444.423-1.174 0-.752-.412-1.175-.402-.423-1.154-.423h-1.164zM181.982 190.846l.392.635q-.73.593-1.778.593-1.143 0-1.8-.762-.645-.773-.645-1.948 0-.72.233-1.344.243-.624.773-1.048.54-.423 1.28-.423.921 0 1.482.55.56.54.56 1.45 0 .678-.539.678h-2.857v.105q0 .762.402 1.387.412.614 1.132.614.35 0 .73-.127.381-.138.635-.36zm-2.836-2.276h2.212q.116 0 .148-.042.032-.053.032-.18 0-.476-.275-.804-.275-.328-.741-.328-.508 0-.9.413-.38.412-.476.941zM184.65 191.936h-.878v-3.81q0-.931-.338-1.429l.952-.116q.19.465.244.984.285-.444.751-.71.466-.274.974-.274l-.212.931q-.857 0-1.492.931zM190.796 190.878l.402.666q-.498.297-.857.413-.35.117-.879.117-1.058 0-1.725-.837-.656-.846-.656-1.926 0-1.196.667-1.979.677-.783 1.852-.783.815 0 1.524.54l-.476.614q-.307-.265-.561-.36-.244-.106-.625-.106-.688 0-1.069.624-.37.625-.37 1.355 0 .487.137.953.149.455.498.814.36.36.857.36.381 0 .646-.106.264-.105.635-.36zM195.666 190.846l.392.635q-.73.593-1.778.593-1.143 0-1.8-.762-.645-.773-.645-1.948 0-.72.233-1.344.243-.624.773-1.048.54-.423 1.28-.423.92 0 1.482.55.56.54.56 1.45 0 .678-.539.678h-2.858v.105q0 .762.403 1.387.412.614 1.132.614.35 0 .73-.127.381-.138.635-.36zm-2.836-2.276h2.212q.116 0 .148-.042.032-.053.032-.18 0-.476-.275-.804-.276-.328-.741-.328-.508 0-.9.413-.38.412-.476.941zM201.51 191.936h-.868v-3.228q0-.243-.01-.402-.011-.159-.064-.36-.042-.201-.138-.317-.084-.127-.264-.212-.17-.085-.413-.085-.699 0-1.44.699v3.905h-.867v-3.725q0-1.016-.35-1.493l.964-.127q.158.402.2.752.794-.794 1.641-.794.836 0 1.217.508.392.497.392 1.365zM205.488 191.27l.148.592q-.624.19-1.048.19-.645 0-.931-.338-.275-.35-.275-1.027v-3.344h-.783v-.53q.92-.02 1.227-1.64h.667q-.233.953-.233 1.503h1.376l-.19.667h-1.186v3.365q0 .339.117.508.127.159.444.159.243 0 .667-.106zM210.183 191.936h-.984v-7.006q0-.01-.043-.17-.031-.158-.074-.328-.031-.18-.031-.2h1.132zM216.02 191.936h-.867v-3.228q0-.243-.01-.402-.011-.159-.064-.36-.043-.201-.138-.317-.085-.127-.265-.212-.169-.085-.412-.085-.699 0-1.44.699v3.905h-.867v-3.725q0-1.016-.35-1.493l.963-.127q.16.402.201.752.794-.794 1.64-.794.837 0 1.218.508.392.497.392 1.365zM221.078 190.878l.402.666q-.497.297-.857.413-.35.117-.878.117-1.059 0-1.726-.837-.656-.846-.656-1.926 0-1.196.667-1.979.677-.783 1.852-.783.815 0 1.524.54l-.476.614q-.307-.265-.561-.36-.243-.106-.624-.106-.688 0-1.07.624-.37.625-.37 1.355 0 .487.138.953.148.455.497.814.36.36.857.36.381 0 .646-.106.265-.105.635-.36zM224.488 192.074q-1.111 0-1.746-.805-.624-.815-.624-1.958 0-1.132.635-1.947.635-.815 1.735-.815 1.122 0 1.746.804.635.805.635 1.958 0 1.154-.635 1.958-.624.805-1.746.805zm0-.667q.519 0 .857-.35.35-.349.466-.793.127-.455.127-.953 0-.497-.127-.942-.127-.455-.476-.804-.339-.35-.847-.35t-.857.35q-.339.35-.466.804-.116.445-.116.942 0 .466.137.921.138.455.477.815.349.36.825.36zM228.969 191.936h-.879v-3.81q0-.931-.338-1.429l.952-.116q.19.465.243.984.286-.444.752-.71.466-.274.974-.274l-.212.931q-.857 0-1.492.931zM232.669 191.936h-.879v-3.81q0-.931-.338-1.429l.952-.116q.19.465.243.984.286-.444.752-.71.466-.274.974-.274l-.212.931q-.857 0-1.492.931zM238.93 190.846l.391.635q-.73.593-1.778.593-1.143 0-1.799-.762-.645-.773-.645-1.948 0-.72.233-1.344.243-.624.772-1.048.54-.423 1.28-.423.921 0 1.482.55.561.54.561 1.45 0 .678-.54.678h-2.857v.105q0 .762.402 1.387.413.614 1.133.614.349 0 .73-.127.38-.138.635-.36zm-2.836-2.276h2.211q.117 0 .149-.042.031-.053.031-.18 0-.476-.275-.804-.275-.328-.74-.328-.509 0-.9.413-.381.412-.476.941zM244.043 190.878l.402.666q-.497.297-.857.413-.35.117-.878.117-1.059 0-1.726-.837-.656-.846-.656-1.926 0-1.196.667-1.979.677-.783 1.852-.783.815 0 1.524.54l-.476.614q-.307-.265-.561-.36-.243-.106-.624-.106-.688 0-1.07.624-.37.625-.37 1.355 0 .487.138.953.148.455.497.814.36.36.857.36.381 0 .646-.106.265-.105.635-.36zM247.925 191.27l.148.592q-.625.19-1.048.19-.646 0-.931-.338-.276-.35-.276-1.027v-3.344h-.783v-.53q.921-.02 1.228-1.64h.667q-.233.953-.233 1.503h1.376l-.19.667h-1.186v3.365q0 .339.116.508.127.159.445.159.243 0 .667-.106z" style="-inkscape-font-specification:Rosario"/></g><g aria-label="Scramble the Duck" style="line-height:1.25" font-weight="400" font-size="10.583" font-family="rosario" letter-spacing="0" word-spacing="0" stroke-width=".265"><path d="M28.264 166.864l.381-.868q.35.307.847.498.498.18.953.18.603 0 1.08-.339.475-.339.475-.984 0-.55-.37-.932-.36-.38-.878-.603-.519-.233-1.038-.476-.508-.254-.878-.71-.36-.454-.36-1.12 0-.943.72-1.472.72-.54 1.693-.54 1.027 0 1.99.572l-.487.709q-.74-.53-1.513-.53-.604 0-.974.297-.37.296-.37.878 0 .328.19.593.201.254.508.434t.677.35q.381.169.762.38.381.201.688.455.307.254.498.656.2.403.2.921 0 1.08-.761 1.651-.762.572-1.884.572-1.037 0-2.149-.572zM37.563 166.25l.402.667q-.497.296-.857.413-.35.116-.878.116-1.059 0-1.725-.836-.656-.846-.656-1.926 0-1.196.666-1.979.678-.783 1.852-.783.815 0 1.524.54l-.476.613q-.307-.264-.56-.36-.244-.105-.625-.105-.688 0-1.07.624-.37.625-.37 1.355 0 .487.138.952.148.455.497.815.36.36.858.36.38 0 .645-.106t.635-.36zM39.873 167.309h-.879v-3.81q0-.932-.338-1.429l.952-.116q.19.465.244.984.285-.445.751-.71.466-.274.974-.274l-.212.93q-.857 0-1.492.932zM46.762 166.536l.18.55-.243.106-.265.106q-.095.032-.243.064-.148.042-.265.042-.307 0-.508-.201-.19-.201-.243-.519-.71.741-1.588.741-.635 0-1.047-.37-.403-.381-.403-1.016 0-1.789 3.017-1.81v-.561q0-1.058-.879-1.058-.413 0-.836.169-.423.17-.677.455l-.434-.624q.857-.688 2.021-.688.826 0 1.25.455.433.444.433 1.28v2.625q0 .212.042.307.053.095.19.095.128 0 .498-.148zm-1.608-1.28v-.34q-.392 0-.678.033-.275.02-.656.116-.37.095-.582.339-.201.233-.201.603 0 .339.222.508.233.17.614.17.54 0 .91-.435.37-.444.37-.994zM54.807 167.309h-.878v-3.228q0-.286-.032-.487-.021-.201-.106-.423-.074-.233-.264-.35-.19-.116-.477-.116-.592 0-1.354.72.02.211.02.37v3.514h-.878v-3.228q0-.297-.02-.498-.022-.2-.107-.423-.084-.222-.275-.339-.18-.116-.476-.116-.56 0-1.334.698v3.906h-.878v-3.82q0-.858-.339-1.408l.963-.106q.149.36.202.73.804-.783 1.534-.783 1.027 0 1.45.878.878-.878 1.64-.878.837 0 1.218.508.391.497.391 1.365zM57.031 167.32h-.53l.033-.73v-6.732q0-.01-.043-.148-.032-.148-.074-.296-.032-.149-.032-.17h1.027v3.281q.646-.582 1.482-.582 1.037 0 1.608.815.582.815.582 1.894 0 .741-.243 1.366-.243.613-.783 1.026-.54.402-1.291.402-.974 0-1.546-.677zm.381-4.044v1.927q0 .72.317 1.153.318.434 1.006.434.497 0 .825-.36.339-.37.455-.815.127-.455.127-.93 0-.795-.37-1.387-.36-.604-1.1-.604-.71 0-1.26.582zM63.345 167.309h-.879v-7.45q0-.012-.031-.15-.032-.137-.074-.285-.032-.159-.032-.18h1.016zM68.54 166.219l.392.635q-.73.592-1.778.592-1.143 0-1.799-.762-.645-.772-.645-1.947 0-.72.232-1.344.244-.625.773-1.048.54-.423 1.28-.423.921 0 1.482.55.561.54.561 1.45 0 .677-.54.677h-2.857v.106q0 .762.402 1.387.413.613 1.133.613.349 0 .73-.127.38-.137.635-.36zm-2.836-2.276h2.212q.117 0 .149-.042.031-.053.031-.18 0-.476-.275-.804-.275-.328-.74-.328-.509 0-.9.412-.381.413-.477.942zM75.014 166.642l.148.593q-.625.19-1.048.19-.645 0-.931-.339-.275-.349-.275-1.026v-3.344h-.784v-.53q.921-.02 1.228-1.64h.667q-.233.952-.233 1.503h1.376l-.19.667h-1.186v3.365q0 .339.116.508.127.159.445.159.243 0 .667-.106zM80.297 167.309h-.868v-3.239q0-.307-.021-.497-.022-.19-.106-.413-.074-.233-.265-.35-.19-.116-.487-.116-.613 0-1.45.699v3.916h-.867v-7.44q0-.01-.032-.149-.032-.148-.074-.296-.032-.159-.032-.18H77.1v3.43q.805-.763 1.599-.763 1.598 0 1.598 1.873zM85.45 166.219l.39.635q-.73.592-1.777.592-1.143 0-1.8-.762-.645-.772-.645-1.947 0-.72.233-1.344.243-.625.773-1.048.54-.423 1.28-.423.92 0 1.482.55.56.54.56 1.45 0 .677-.539.677H82.55v.106q0 .762.402 1.387.412.613 1.132.613.35 0 .73-.127.381-.137.635-.36zm-2.837-2.276h2.212q.116 0 .148-.042.032-.053.032-.18 0-.476-.275-.804-.275-.328-.741-.328-.508 0-.9.412-.38.413-.476.942zM92.24 167.309H89.73v-7.006q0-.011-.042-.17-.032-.159-.074-.328-.032-.18-.032-.2h1.98q4.17 0 4.17 3.873 0 1.735-.89 2.783-.878 1.048-2.603 1.048zm-1.524-.73h1.397q1.354 0 1.968-.858.625-.857.625-2.265 0-1.64-.805-2.38-.793-.742-2.413-.742h-.772zM101.873 166.536l.18.55-.244.106-.264.106q-.095.032-.244.064-.148.042-.264.042-.307 0-.498-.201-.19-.201-.243-.519-.74.762-1.62.762-.835 0-1.227-.497-.381-.508-.381-1.376v-2.9q0-.01-.032-.148-.031-.148-.074-.296-.032-.159-.032-.18h1.016v3.238q0 .286.022.487.031.201.105.423.085.223.276.35.19.116.476.116.593 0 1.016-.37.423-.381.423-.974v-2.646q0-.01-.032-.148-.031-.148-.074-.296-.031-.159-.031-.18h1.016v4.233q0 .212.042.307.053.095.19.095.127 0 .498-.148zM106.252 166.25l.402.667q-.498.296-.858.413-.349.116-.878.116-1.058 0-1.725-.836-.656-.846-.656-1.926 0-1.196.667-1.979.677-.783 1.852-.783.815 0 1.524.54l-.477.613q-.307-.264-.56-.36-.244-.105-.625-.105-.688 0-1.069.624-.37.625-.37 1.355 0 .487.137.952.148.455.498.815.36.36.857.36.381 0 .646-.106.264-.106.635-.36zM111.757 167.309h-1.048l-2.148-2.858v2.858h-.878v-7.44q0-.01-.032-.149-.032-.148-.074-.296-.032-.159-.032-.18h1.016v4.974l1.969-2.17h.941l-2.021 2.213z" style="-inkscape-font-specification:rosario"/></g><g aria-label="Staten Island Chuck" style="line-height:1.25" font-weight="400" font-size="10.583" font-family="rosario" letter-spacing="0" word-spacing="0" stroke-width=".265"><path d="M149.744 167.238l.381-.867q.35.306.847.497.498.18.953.18.603 0 1.08-.339.475-.338.475-.984 0-.55-.37-.931-.36-.381-.878-.604-.519-.232-1.038-.476-.508-.254-.878-.709-.36-.455-.36-1.122 0-.942.72-1.47.72-.54 1.693-.54 1.027 0 1.99.57l-.487.71q-.74-.53-1.513-.53-.604 0-.974.297-.37.296-.37.879 0 .328.19.592.201.254.508.434t.677.35q.381.169.762.38.381.201.688.455.307.254.498.657.2.402.2.92 0 1.08-.761 1.651-.762.572-1.884.572-1.037 0-2.149-.572zM157.964 167.016l.148.593q-.625.19-1.048.19-.645 0-.931-.338-.275-.35-.275-1.027v-3.344h-.784v-.53q.921-.02 1.228-1.64h.667q-.233.953-.233 1.503h1.376l-.19.667h-1.186v3.365q0 .339.116.508.127.159.445.159.243 0 .667-.106zM163.405 166.91l.18.55-.243.106-.265.106q-.095.032-.243.064-.148.042-.265.042-.307 0-.508-.201-.19-.201-.243-.519-.71.741-1.588.741-.635 0-1.047-.37-.403-.381-.403-1.016 0-1.789 3.017-1.81v-.56q0-1.06-.879-1.06-.412 0-.836.17-.423.17-.677.455l-.434-.624q.857-.688 2.021-.688.826 0 1.25.455.433.445.433 1.28v2.625q0 .212.042.307.053.095.191.095.127 0 .497-.148zm-1.608-1.28v-.339q-.392 0-.678.032-.275.021-.656.116-.37.095-.582.339-.2.233-.2.603 0 .339.221.508.233.17.614.17.54 0 .91-.434.37-.445.37-.995zM166.645 167.016l.149.593q-.625.19-1.048.19-.646 0-.932-.338-.275-.35-.275-1.027v-3.344h-.783v-.53q.92-.02 1.228-1.64h.667q-.233.953-.233 1.503h1.376l-.191.667h-1.185v3.365q0 .339.116.508.127.159.445.159.243 0 .666-.106zM171.128 166.593l.392.635q-.73.592-1.778.592-1.143 0-1.8-.762-.645-.772-.645-1.947 0-.72.233-1.344.243-.624.772-1.048.54-.423 1.28-.423.922 0 1.482.55.561.54.561 1.45 0 .678-.54.678h-2.857v.105q0 .762.402 1.387.413.614 1.133.614.349 0 .73-.127.38-.138.635-.36zm-2.836-2.276h2.212q.116 0 .148-.042.031-.053.031-.18 0-.476-.275-.804-.275-.328-.74-.328-.509 0-.9.413-.381.412-.476.941zM176.971 167.683h-.867v-3.228q0-.243-.011-.402-.01-.159-.064-.36-.042-.201-.137-.318-.085-.127-.265-.211-.169-.085-.412-.085-.699 0-1.44.699v3.905h-.868v-3.725q0-1.016-.349-1.493l.963-.127q.159.402.201.752.794-.794 1.64-.794.837 0 1.218.508.391.497.391 1.365zM182.193 167.683h-.985v-7.006q0-.01-.042-.17-.032-.158-.074-.328-.032-.18-.032-.2h1.133zM183.66 167.376l.37-.646q.613.424 1.121.424.434 0 .752-.17.317-.169.317-.571 0-.318-.254-.55-.254-.244-.624-.413-.36-.17-.72-.35-.36-.19-.614-.507-.254-.318-.254-.762 0-.741.54-1.133.54-.402 1.313-.402.804 0 1.407.37l-.307.678q-.497-.381-1.005-.381-.413 0-.73.17-.318.168-.318.55 0 .317.254.56.254.233.614.402.37.16.73.35.37.18.625.508.254.328.254.783 0 .783-.54 1.164-.53.37-1.355.37-.709 0-1.577-.444zM189.434 167.683h-.878v-7.45q0-.011-.032-.149-.032-.138-.074-.286-.032-.158-.032-.18h1.016zM195.424 166.91l.18.55-.243.106-.265.106q-.095.032-.243.064-.149.042-.265.042-.307 0-.508-.201-.19-.201-.243-.519-.71.741-1.588.741-.635 0-1.048-.37-.402-.381-.402-1.016 0-1.789 3.016-1.81v-.56q0-1.06-.878-1.06-.413 0-.836.17t-.677.455l-.434-.624q.857-.688 2.021-.688.826 0 1.249.455.434.445.434 1.28v2.625q0 .212.042.307.053.095.19.095.128 0 .498-.148zm-1.609-1.28v-.339q-.391 0-.677.032-.275.021-.656.116-.37.095-.582.339-.201.233-.201.603 0 .339.222.508.233.17.614.17.54 0 .91-.434.37-.445.37-.995zM200.474 167.683h-.868v-3.228q0-.243-.01-.402-.011-.159-.064-.36-.042-.201-.138-.318-.084-.127-.264-.211-.17-.085-.413-.085-.699 0-1.44.699v3.905h-.867v-3.725q0-1.016-.35-1.493l.964-.127q.158.402.2.752.794-.794 1.641-.794.836 0 1.217.508.392.497.392 1.365zM206.696 167.662l-.932.116q-.148-.328-.2-.72-.594.762-1.557.762-1.037 0-1.608-.814-.572-.815-.572-1.905 0-1.165.603-1.98.614-.814 1.747-.814.815 0 1.323.465v-2.53l-.149-.624h1.016v6.551q0 .942.329 1.493zm-1.196-1.313v-1.778q0-.677-.328-1.11-.318-.435-.974-.435-.402 0-.699.18-.285.18-.444.487-.148.296-.222.635-.074.328-.074.71 0 .825.37 1.417.37.593 1.143.593.614 0 1.228-.699zM215.67 166.36l.456.71q-.423.348-1.09.55-.656.19-1.26.19-1.672 0-2.635-1.154-.952-1.153-.952-2.847 0-1.714.963-2.825.963-1.112 2.646-1.112.624 0 1.28.223.667.211 1.027.613l-.55.614q-.297-.328-.805-.518t-.974-.19q-.656 0-1.153.285-.498.275-.783.762-.286.476-.434 1.037-.138.55-.138 1.175 0 .635.138 1.185.148.55.434.995.296.445.793.71.508.253 1.165.253.476 0 .994-.18.53-.18.879-.476zM221.228 167.683h-.868v-3.239q0-.307-.021-.497-.022-.19-.106-.413-.074-.233-.265-.349-.19-.116-.487-.116-.614 0-1.45.698v3.916h-.867v-7.44q0-.01-.032-.148-.032-.149-.074-.297-.032-.158-.032-.18h1.005v3.43q.805-.763 1.599-.763 1.598 0 1.598 1.874zM227.735 166.91l.18.55-.243.106-.265.106q-.095.032-.243.064-.149.042-.265.042-.307 0-.497-.201-.191-.201-.244-.519-.74.762-1.62.762-.835 0-1.227-.497-.38-.508-.38-1.376v-2.9q0-.01-.033-.148-.031-.148-.074-.296-.032-.159-.032-.18h1.016v3.238q0 .286.022.487.031.201.106.424.084.222.275.349.19.116.476.116.593 0 1.016-.37.423-.381.423-.974v-2.646q0-.01-.032-.148-.031-.148-.074-.296-.031-.159-.031-.18h1.016v4.233q0 .212.042.307.053.095.19.095.127 0 .498-.148zM232.114 166.625l.402.666q-.498.297-.857.413-.35.116-.879.116-1.058 0-1.725-.836-.656-.846-.656-1.926 0-1.196.667-1.979.677-.783 1.852-.783.815 0 1.524.54l-.476.614q-.307-.265-.561-.36-.244-.106-.625-.106-.688 0-1.069.624-.37.625-.37 1.355 0 .487.137.952.149.456.498.815.36.36.857.36.381 0 .646-.106.264-.105.635-.36zM237.62 167.683h-1.048l-2.149-2.858v2.858h-.878v-7.44q0-.01-.032-.148-.032-.149-.074-.297-.032-.158-.032-.18h1.016v4.975l1.969-2.17h.942l-2.022 2.212z" style="-inkscape-font-specification:rosario"/></g><g aria-label="Punxsutawney Phil" style="line-height:1.25" font-weight="400" font-size="10.583" font-family="rosario" letter-spacing="0" word-spacing="0" stroke-width=".265"><path d="M269.882 167.585h-.985v-7.007l-.158-.698h2.307q1.206 0 1.894.571.699.561.699 1.757 0 1.112-.73 1.725-.73.604-1.853.604h-1.174zm0-3.768h1.153q.73 0 1.154-.434.423-.444.423-1.175 0-.751-.413-1.174-.402-.424-1.153-.424h-1.164zM279.716 166.812l.18.55-.244.106-.264.106q-.095.032-.244.064-.148.042-.264.042-.307 0-.498-.201-.19-.201-.243-.519-.741.762-1.62.762-.835 0-1.227-.497-.381-.508-.381-1.376v-2.9q0-.01-.032-.148-.031-.148-.074-.296-.032-.16-.032-.18h1.016v3.238q0 .286.022.487.031.201.106.423.084.223.275.35.19.116.476.116.593 0 1.016-.37.423-.381.423-.974v-2.646q0-.01-.032-.148-.031-.148-.074-.296-.031-.16-.031-.18h1.016v4.233q0 .212.042.307.053.095.19.095.127 0 .498-.148zM284.825 167.585h-.868v-3.228q0-.244-.01-.402-.011-.16-.064-.36-.042-.201-.138-.318-.084-.127-.264-.211-.17-.085-.413-.085-.699 0-1.44.698v3.906h-.867v-3.726q0-1.016-.35-1.492l.964-.127q.158.402.2.751.794-.793 1.641-.793.836 0 1.217.508.392.497.392 1.365zM290.316 167.595h-1.005l-1.302-2.042-1.334 2.042h-.867l1.756-2.699-1.64-2.571h1.005l1.154 1.82 1.217-1.82h.857l-1.63 2.476zM290.954 167.278l.37-.646q.615.423 1.123.423.434 0 .751-.169.318-.17.318-.571 0-.318-.254-.55-.254-.244-.625-.413-.36-.17-.72-.35-.36-.19-.613-.508-.254-.317-.254-.762 0-.74.54-1.132.54-.402 1.312-.402.804 0 1.407.37l-.307.677q-.497-.38-1.005-.38-.413 0-.73.169-.318.17-.318.55 0 .318.254.561.254.233.614.402.37.159.73.35.37.18.625.507.254.329.254.784 0 .783-.54 1.164-.53.37-1.355.37-.709 0-1.577-.444zM300.614 166.812l.18.55-.244.106-.264.106q-.096.032-.244.064-.148.042-.264.042-.307 0-.498-.201-.19-.201-.243-.519-.741.762-1.62.762-.836 0-1.227-.497-.381-.508-.381-1.376v-2.9q0-.01-.032-.148-.032-.148-.074-.296-.032-.16-.032-.18h1.016v3.238q0 .286.022.487.031.201.105.423.085.223.276.35.19.116.476.116.593 0 1.016-.37.423-.381.423-.974v-2.646q0-.01-.032-.148-.031-.148-.074-.296-.031-.16-.031-.18h1.016v4.233q0 .212.042.307.053.095.19.095.127 0 .498-.148zM303.913 166.918l.148.593q-.624.19-1.048.19-.645 0-.931-.339-.275-.349-.275-1.026v-3.345h-.783v-.529q.92-.02 1.227-1.64h.667q-.233.952-.233 1.503h1.376l-.19.666h-1.186v3.366q0 .339.117.508.127.159.444.159.244 0 .667-.106zM309.355 166.812l.18.55-.244.106-.264.106q-.096.032-.244.064-.148.042-.264.042-.307 0-.508-.201-.191-.201-.244-.519-.709.741-1.587.741-.635 0-1.048-.37-.402-.381-.402-1.016 0-1.789 3.016-1.81v-.561q0-1.058-.878-1.058-.413 0-.837.169-.423.17-.677.455l-.434-.624q.857-.688 2.022-.688.825 0 1.248.455.434.444.434 1.28v2.625q0 .212.043.307.053.095.19.095.127 0 .498-.148zm-1.61-1.28v-.34q-.39 0-.676.033-.276.02-.657.116-.37.095-.582.339-.2.232-.2.603 0 .339.222.508.232.17.613.17.54 0 .91-.435.37-.444.37-.995zM314.462 167.648h-.635l-1.069-3.64-1.132 3.64h-.646l-1.555-5.323h.91l1.069 3.598 1.121-3.598h.625l1.08 3.598 1.11-3.598h.784zM321.164 167.585h-.868v-3.228q0-.244-.01-.402-.011-.16-.064-.36-.043-.201-.138-.318-.085-.127-.265-.211-.169-.085-.412-.085-.699 0-1.44.698v3.906h-.867v-3.726q0-1.016-.35-1.492l.963-.127q.16.402.201.751.794-.793 1.64-.793.837 0 1.218.508.392.497.392 1.365zM326.338 166.495l.391.635q-.73.592-1.778.592-1.143 0-1.8-.762-.645-.772-.645-1.947 0-.72.233-1.344.244-.625.773-1.048.54-.423 1.28-.423.921 0 1.482.55.56.54.56 1.45 0 .677-.539.677h-2.857v.106q0 .762.402 1.387.413.613 1.132.613.35 0 .73-.127.382-.137.636-.36zm-2.837-2.276h2.212q.117 0 .148-.042.032-.053.032-.18 0-.476-.275-.804-.275-.329-.74-.329-.509 0-.9.413-.382.413-.477.942zM328.075 169.881h-.402v-.709h.116q.317 0 .571-.148.254-.138.434-.413.19-.275.297-.508.116-.233.233-.56l-1.927-5.218h.953l1.397 4 1.397-4h.825l-1.862 5.28q-.815 2.276-2.032 2.276zM336.007 167.585h-.985v-7.007l-.158-.698h2.307q1.206 0 1.894.571.699.561.699 1.757 0 1.112-.73 1.725-.73.604-1.853.604h-1.174zm0-3.768h1.153q.73 0 1.154-.434.423-.444.423-1.175 0-.751-.413-1.174-.402-.424-1.153-.424h-1.164zM345.121 167.585h-.868v-3.239q0-.307-.02-.497-.022-.19-.107-.413-.074-.233-.264-.35-.19-.116-.487-.116-.614 0-1.45.699v3.916h-.868v-7.44q0-.011-.031-.149-.032-.148-.075-.296-.031-.159-.031-.18h1.005v3.43q.805-.763 1.598-.763 1.598 0 1.598 1.873zM347.935 160.557q0 .275-.19.466-.18.18-.455.18-.265 0-.456-.19-.18-.191-.18-.456 0-.264.18-.455.191-.19.456-.19.264 0 .455.19.19.19.19.455zm-.19 7.028h-.879v-4.636q0-.01-.031-.148l-.064-.296q-.032-.16-.032-.18h1.006zM350.411 167.585h-.878v-7.451q0-.01-.032-.148-.032-.138-.074-.286-.032-.159-.032-.18h1.016z" style="-inkscape-font-specification:rosario"/></g></svg>