<svg xmlns="http://www.w3.org/2000/svg" xmlns:xlink="http://www.w3.org/1999/xlink" viewBox="0 0 400 59"><defs/><defs><linearGradient id="b"><stop offset="0" stop-color="#fff"/><stop offset="1" stop-color="#fff" stop-opacity="0"/></linearGradient><linearGradient id="a"><stop offset="0" stop-color="#fff"/><stop offset="1" stop-color="#fff" stop-opacity="0"/></linearGradient><linearGradient id="e" x1="212.7" x2="214.6" y1="282.3" y2="332" gradientUnits="userSpaceOnUse" xlink:href="#a"/><linearGradient id="c" x1="251.4" x2="251.1" y1="260.2" y2="292.4" gradientUnits="userSpaceOnUse" xlink:href="#b"/><filter id="f" color-interpolation-filters="sRGB"><feTurbulence baseFrequency="2.00628 2.00628" result="turbulence" seed="177" type="fractalNoise"/><feComposite in="SourceGraphic" in2="turbulence" operator="out" result="composite1"/><feColorMatrix result="color" values="1 0 0 0 0 0 1 0 0 0 0 0 1 0 0 0 0 0 3.78743 -1.1976"/><feFlood flood-color="#FFF" flood-opacity="0" result="flood"/><feMerge result="merge"><feMergeNode in="flood"/><feMergeNode in="color"/></feMerge><feComposite in2="SourceGraphic" operator="in" result="composite2"/></filter><filter id="d" color-interpolation-filters="sRGB"><feTurbulence baseFrequency="2.00628 2.00628" result="turbulence" seed="177" type="fractalNoise"/><feComposite in="SourceGraphic" in2="turbulence" operator="out" result="composite1"/><feColorMatrix result="color" values="1 0 0 0 0 0 1 0 0 0 0 0 1 0 0 0 0 0 4.81437 -1.1976"/><feFlood flood-color="#FFF" flood-opacity="0" result="flood"/><feMerge result="merge"><feMergeNode in="flood"/><feMergeNode in="color"/></feMerge><feComposite in2="SourceGraphic" operator="in" result="composite2"/></filter></defs><path fill="#e5e7ff" d="M155 33l167 3c-28-6-43-34-87-36-53-2-59 26-80 33z"/><path fill="url(#c)" d="M167 283l167 3c-28-6-43-31-87-33-53-2-59 24-80 30z" filter="url(#d)" transform="matrix(1 0 0 1.11542 -12 -283)"/><g><path fill="#e5e7ff" d="M0 59h400V25c-21 0-25-12-53-13-44-1-69 19-107 21-35 2-42-5-76-9-22-2-60-13-89-14-24 0-57 15-75 15z"/><path fill="url(#e)" d="M12 307h400v-31c-21 0-25-11-53-12-43-1-69 17-106 19-36 1-43-5-77-8-22-2-60-12-89-13-24 0-57 14-75 14z" filter="url(#f)" transform="matrix(1 0 0 1.11542 -12 -283)"/></g></svg>
