<svg xmlns="http://www.w3.org/2000/svg" viewBox="0 0 400 240"><path fill="#280b0b" d="M344 51l1 5c5 6 11 10 17 15l8 5-2-3-16-15c-2-2-5-6-8-7z"/><path fill="#f6f1da" d="M334 5c-8 1-14 7-22 8-9 2-19 5-25 13-11 15-14 35-17 53-2 12-2 23-5 35-2 14-10-3-64-14-23-5-46-9-70-9-18 0-34 8-51 13-10 4-21 7-29 15-4 2-11 7-13 6-3-2-8-11 1-21-16 4-13 19-10 22 1 1 1 3-1 2 0 8-2 12-3 18 0 3 7 11 18 24 10 11 22 20 34 28 15 10 28 22 44 30 2 1 4 2 6 1 0-2-16-8 20-7 18 1 36 5 55 8a365 365 0 0095 5c7-1 23-16 24-19 8-15 23-32 2-90-2-8 0-36 7-52 4-8 14-7 20-8-3-3-9-6-8-10 0-4 5-6 6-10 3-5 5-10 6-16 2 2 3 7 9 6 1-1-8-17-9-18-7-13-18-13-20-13z"/><path fill="#252d3f" d="M328 20c-2 0-6 3-5 5s5 2 6 2l4-1v-3a6 6 0 00-5-3z"/><path fill="#030d13" d="M329 22c-2 1-2 3 1 3 2-1 0-3-1-3z"/><path fill="#e6e6e6" d="M330 23v0z"/><path fill="#d1571a" d="M137 222c-4 0-9 0-13 2-2 0 0 2 1 3 2 3 5 4 9 4l64 4 19-1c1-1-1-1-2-1l-25-5c-18-3-35-6-53-6z"/><path fill="#f6dfbc" d="M131 88c-7 0-15 2-23 1-2 0-5 0-7 3-4 7-12 9-20 11-7 2-15 1-23 1l2 1c18 9 37 16 52 30 5 4 8 10 11 16 1 4 5 7 8 9 12 6 25 4 37 5 15 1 29 5 44 6 7 0 15-2 20-7 7-8 10-19 11-30 0-7-3-15-9-20-8-7-19-11-30-14a561 561 0 00-73-12zM272 233c-55 2-97-13-125-11 18 1 36 5 55 8a365 365 0 0095 5c7-1 23-16 24-19-24 19-33 15-49 17z"/><path fill="#f6f1da" d="M28 128c-3 0-7-3-11-2l5 6c-5-3-9-7-14-9 0 2 8 14 19 27 3-5 3-21 1-22z"/><path fill="#ff984f" d="M345 56c-1-1-1-8-4 0-1 3 3 5 5 7 9 7 24 14 24 14l-8-6c-5-3-10-9-17-15z"/><path fill="#ff984f" d="M354 30c-1-1-8 15-11 22l8 10c9 6 11 13 26 18 15 3 10 7 16 3 3 0 1-7-1-8l-17-19c-4-5-9-18-13-23-1 6-1 3-8-3z"/><path fill="#623d28" d="M344 52l-1 1 3 5 12 11 9 7c4 3 9 5 14 6h4l-7-2c-4-2-9-3-12-6l-7-6-13-12-2-3v-1z"/><path fill="#60200f" d="M361 47c-1 1 0 2 1 3l3 2v-3l-1-1-2-1h-1z"/><path fill="#f6f1da" d="M129 86l-23 1c-3 0-6 0-7 3-5 7-13 9-20 11H56c-1 1 1 2 1 2 18 9 38 16 53 30 5 4 8 10 10 16 1 4 5 7 9 9 11 6 24 3 37 4 15 2 29 5 44 6 7 0 14-1 19-6 7-8 10-19 11-30 1-7-2-15-8-20-9-7-20-11-31-14a561 561 0 00-72-12z"/><path fill="#f6dfbc" d="M326 78c-1 4-6 31-3 48-2-8 0-36 7-52 4-8 14-7 20-8-3-3-19-3-24 12z"/></svg>