<svg xmlns="http://www.w3.org/2000/svg" xmlns:xlink="http://www.w3.org/1999/xlink" viewBox="0 0 400 238.4"><defs/><defs><linearGradient id="m"><stop offset="0" stop-color="#999"/><stop offset="1" stop-color="#999" stop-opacity="0"/></linearGradient><linearGradient id="l"><stop offset="0" stop-color="#6dc5c4"/><stop offset="1" stop-color="#6dc5c4" stop-opacity="0"/></linearGradient><linearGradient id="k"><stop offset="0" stop-color="#2c89a0"/><stop offset="1" stop-color="#2c89a0" stop-opacity="0"/></linearGradient><linearGradient id="j"><stop offset="0" stop-color="#6f917c"/><stop offset="1" stop-color="#6f917c" stop-opacity="0"/></linearGradient><linearGradient id="a"><stop offset="0" stop-color="#c83737"/><stop offset="1" stop-color="#c83737" stop-opacity="0"/></linearGradient><linearGradient id="g"><stop offset="0" stop-color="#c83737" stop-opacity="0"/><stop offset="1" stop-color="#c83737"/></linearGradient><linearGradient id="f"><stop offset="0" stop-color="#f6f1da"/><stop offset="1" stop-color="#f6f1da" stop-opacity="0"/></linearGradient><linearGradient id="c"><stop offset="0" stop-color="#f6dfbc"/><stop offset="1" stop-color="#f6dfbc" stop-opacity="0"/></linearGradient><linearGradient id="b"><stop offset="0" stop-color="#f6dfbc" stop-opacity="0"/><stop offset="1" stop-color="#f6dfbc"/></linearGradient><linearGradient id="e"><stop offset="0" stop-color="#1a1a1a" stop-opacity="0"/><stop offset="1" stop-color="#1a1a1a"/></linearGradient><linearGradient id="h"><stop offset="0" stop-color="#252d61"/><stop offset="1" stop-color="#252d61" stop-opacity="0"/></linearGradient><linearGradient id="i"><stop offset="0" stop-color="#d1571a"/><stop offset="1" stop-color="#d1571a" stop-opacity="0"/></linearGradient><linearGradient id="d"><stop offset="0" stop-color="#ff984f" stop-opacity="0"/><stop offset="1" stop-color="#ff984f"/></linearGradient><linearGradient id="o" x1="221.8" x2="352.6" y1="118.3" y2="239.6" gradientUnits="userSpaceOnUse" xlink:href="#b"/><linearGradient id="p" x1="2.3" x2="113.7" y1="248" y2="281.6" gradientTransform="translate(5.5 -127.3)" gradientUnits="userSpaceOnUse" xlink:href="#c"/><linearGradient id="v" x1="141.1" x2="240.2" y1="106" y2="127" gradientUnits="userSpaceOnUse" xlink:href="#b"/><linearGradient id="s" x1="144.2" x2="238.4" y1="257.3" y2="257.3" gradientTransform="translate(-21 -29)" gradientUnits="userSpaceOnUse" xlink:href="#d"/><linearGradient id="n" x1="233.1" x2="283.2" y1="168.3" y2="232" gradientTransform="translate(5.5 -127.3)" gradientUnits="userSpaceOnUse" xlink:href="#c"/><linearGradient id="q" x1="311.6" x2="321.8" y1="24.3" y2="24.3" gradientUnits="userSpaceOnUse" xlink:href="#h"/><linearGradient id="t" x1="477.1" x2="496.8" y1="98.5" y2="87.2" gradientUnits="userSpaceOnUse" xlink:href="#i"/><linearGradient id="u" x1="542.4" x2="513.7" y1="44" y2="67.4" gradientUnits="userSpaceOnUse" xlink:href="#i"/><linearGradient id="B" x1="672.4" x2="668.6" y1="161.1" y2="171.7" gradientUnits="userSpaceOnUse" xlink:href="#k"/><linearGradient id="A" x1="662" x2="659.4" y1="168.1" y2="178.7" gradientUnits="userSpaceOnUse" xlink:href="#k"/><linearGradient id="z" x1="655.5" x2="653.1" y1="179.5" y2="189.4" gradientUnits="userSpaceOnUse" xlink:href="#k"/><linearGradient id="x" x1="671" x2="637" y1="313.9" y2="347.3" gradientUnits="userSpaceOnUse" xlink:href="#l"/><linearGradient id="w" x1="609.1" x2="643.3" y1="371.2" y2="338.7" gradientUnits="userSpaceOnUse" xlink:href="#m"/><linearGradient id="y" x1="638.9" x2="636" y1="187.8" y2="194.7" gradientUnits="userSpaceOnUse" xlink:href="#k"/><radialGradient id="r" cx="317.9" cy="24.3" r="1.7" fx="317.9" fy="24.3" gradientTransform="matrix(1 0 0 .78202 0 5.3)" gradientUnits="userSpaceOnUse" xlink:href="#e"/></defs><path fill="#f6f1da" d="M338.7 0h-1.1c-8.3.9-15 6.8-23.1 8.1-9.3 1.9-19.4 4.8-25.2 13-12.3 15.6-15.2 36-18 55.2-1.9 11.9-2 24-4.7 35.8-2.7 14.7-10.9-3-66.5-14.7a396 396 0 00-72.7-9.2C109 88.4 92.2 96.4 75 102c-10.7 3.7-21.8 7.4-30.4 15-3.9 2.6-11.7 7.6-13 6.8-3.8-2.4-8.9-11.2.5-22.1a15 15 0 00-10.4 22.9c.7.8 1.2 2.5.2 2.8l-.9-.1c-3.7-.7-7.3-3.1-11-2.8.1 2 7.1 7 5.1 6.2-5.2-2.8-9.8-7-15.2-9.4-.2 2.8 8 15 19.9 28.1a194 194 0 0051.7 50c15.1 10.4 29.2 22.3 45.4 31 1.8.6 4.7 2.3 6.3.9 0-2-16.9-8.2 20.4-7 19.2 1 38 5 57 8.1 13.1 2.7 26.4 4.7 39.8 5 19.5 1 39.2 1.8 58.6-.2 7.3-.7 24.3-16.6 25.4-19.2 8.1-15.6 23.4-33.4 2-93.4-2.5-7.8-.3-37.2 7-54 3.7-7.8 15.2-6.6 21.6-8.5-3-2.2-8.2-5.2-9.2-10 0-4.3 4.7-6.4 6-10.4 2.8-5 5.2-6.2 6-11.8 2.5 1.7 4 3 9.4 2.2 1-1.4-8.3-17.6-9-18.9C351.5 1.1 342.3 0 338.7 0z"/><path fill="url(#n)" d="M335.2 5.4H334c-8 .9-14.5 6.6-22.4 7.9-9 1.8-18.7 4.6-24.3 12.5-11.9 15.1-14.7 34.9-17.5 53.4-1.7 11.5-2 23.2-4.4 34.6-2.6 14.2 36.1 101.5 58 12-2.6-7.4-.4-35.9 6.6-52.2 3.6-7.5 14.7-6.3 21-8.2-3-2-8-5-9-9.5 0-4.3 4.6-6.3 5.9-10.1 2.6-4.9 4.9-6 5.7-11.5 2.4 1.7 3.8 2.9 9.1 2.1 1-1.3-8-17-8.7-18.2-6.6-11.7-15.5-12.8-19-12.8z" transform="translate(-8 -5.6) scale(1.03453)"/><path fill="url(#o)" d="M335.2 5.4H334c-8 .9-14.5 6.6-22.4 7.9-9 1.8-18.7 4.6-24.3 12.5-11.9 15.1-14.7 34.9-17.5 53.4-1.7 11.5-2 23.2-4.4 34.6-2.6 14.2-10.5-3-64.3-14.3a382.8 382.8 0 00-70.3-8.8c-17.7.1-34 8-50.6 13.3-10.3 3.7-21 7.2-29.4 14.6-3.7 2.5-11.2 7.3-12.5 6.5-3.7-2.3-8.6-10.8.5-21.4-16 4.2-12.9 19-10 22.1.6.8 1 2.5.1 2.8l-.9-.1c-3.5-.6-7-3-10.6-2.7.2 2 6.9 6.7 5 6-5.1-2.7-9.5-6.8-14.7-9-.2 2.6 7.8 14.3 19.1 27a187.5 187.5 0 0050 48.5c14.7 10 28.3 21.4 44 29.8 1.7.6 4.4 2.3 6 .9 0-2-16.3-7.9 19.7-6.8 18.6 1 36.8 5 55.1 8 12.7 2.5 25.6 4.5 38.5 4.7a365 365 0 0056.7-.2c7-.6 23.5-16 24.5-18.5 7.9-15.2 22.7-32.3 2-90.4-2.5-7.4-.3-35.9 6.7-52.2 3.6-7.5 14.7-6.3 21-8.2-3-2-8-5-9-9.5 0-4.3 4.6-6.3 5.9-10.1 2.6-4.9 4.9-6 5.7-11.5 2.4 1.7 3.8 2.9 9.1 2.1 1-1.3-8-17-8.7-18.2-6.6-11.7-15.5-12.8-19-12.8z" transform="translate(-8 -5.6) scale(1.03453)"/><path fill="url(#p)" d="M335.2 5.4H334c-8 .9-14.5 6.6-22.4 7.9-9 1.8-18.7 4.6-24.3 12.5-11.9 15.1-14.7 34.9-17.5 53.4-1.7 11.5-2 23.2-4.4 34.6-2.6 14.2-10.5-3-64.3-14.3a382.8 382.8 0 00-70.3-8.8c-17.7.1-34 8-50.6 13.3-10.3 3.7-21 7.2-29.4 14.6-3.7 2.5-11.2 7.3-12.5 6.5-3.7-2.3-8.6-10.8.5-21.4-16 4.2-12.9 19-10 22.1.6.8 1 2.5.1 2.8l-.9-.1c-3.5-.6-7-3-10.6-2.7.2 2 6.9 6.7 5 6-5.1-2.7-9.5-6.8-14.7-9-.2 2.6 7.8 14.3 19.1 27a187.5 187.5 0 0050 48.5c14.7 10 28.3 21.4 44 29.8 1.7.6 4.4 2.3 6 .9 0-2-16.3-7.9 19.7-6.8 18.6 1 36.8 5 55.1 8 12.7 2.5 25.6 4.5 38.5 4.7a365 365 0 0056.7-.2c7-.6 23.5-16 24.5-18.5 7.9-15.2 22.7-32.3 2-90.4-2.5-7.4-.3-35.9 6.7-52.2 3.6-7.5 14.7-6.3 21-8.2-3-2-8-5-9-9.5 0-4.3 4.6-6.3 5.9-10.1 2.6-4.9 4.9-6 5.7-11.5 2.4 1.7 3.8 2.9 9.1 2.1 1-1.3-8-17-8.7-18.2-6.6-11.7-15.5-12.8-19-12.8z" transform="translate(-8 -5.6) scale(1.03453)"/><path fill="#252d3f" d="M331.7 15.3c-2.1 0-6.1 3-5.5 5 .6 1.5 4.7 2 6.3 2 1.3.2 3 0 3.7-1.3.5-1 .6-2.2.1-3a6.6 6.6 0 00-4.6-2.7z"/><path fill="url(#q)" d="M317 20.8c-2 .1-5.9 3-5.3 4.8.6 1.6 4.5 2 6 2.1 1.4 0 3-.1 3.6-1.4.6-.9.7-2.1.2-3a6.4 6.4 0 00-4.5-2.5z" transform="translate(3.7 -6.3) scale(1.03453)"/><path fill="#030d13" d="M332 17.5c-1.9.3-1.5 3.2 1.3 2.7 2.4-.5 0-2.9-1.3-2.7z"/><path fill="url(#r)" d="M317.3 23c-1.8.3-1.4 3 1.3 2.6 2.3-.5 0-2.8-1.3-2.6z" transform="translate(3.7 -6.3) scale(1.03453)"/><path fill="#e6e6e6" d="M333.6 18c-.3 0-.3 1.3.2 1.1.4-.2 0-1.2-.2-1.1z"/><path fill="#d1571a" d="M133.5 224c-4.4.3-9.2-.2-13.3 1.6-1.6 1 .3 2.7 1 3.6 2.4 2.8 5.8 4.6 9.5 4.6 22 1.6 44.3 1.9 66.4 3.2 6.6.1 13.3.5 19.8 0 .1-1.1-1.8-1.2-2.5-1.7-8.5-2.3-17.2-3.3-25.8-5-18.2-3.2-36.5-6.6-55-6.2z"/><path fill="url(#s)" d="M136.8 222c-4.3.3-8.9-.3-12.9 1.5-1.5 1 .3 2.6 1 3.5 2.3 2.6 5.6 4.4 9.1 4.4 21.4 1.6 42.9 1.9 64.3 3.1 6.4.1 12.8.5 19.2 0 0-1-1.8-1.2-2.6-1.6-8.1-2.2-16.5-3.3-24.8-4.9-17.6-3-35.3-6.3-53.3-6z" transform="translate(-8 -5.6) scale(1.03453)"/><path fill="#f6dfbc" d="M52.4 101.6c-1.3.4.7 1.4 1.2 1.6 18.9 8.9 39 16.5 54.6 30.9 5 4.3 8.4 10 10.5 16.3 1.3 4.5 5.2 7.5 9.3 9.4 11.7 6 25.3 3.8 38 4.9 15.3 1.2 30.3 5.2 45.6 6 7 0 15-1 20-6.5a51.8 51.8 0 0011.3-30.7c.7-7.8-2.3-15.7-8.4-20.7-9-7.6-174.3-11-182.1-11.2z"/><path fill="#280b0b" d="M347.6 47c-.6.3 1 5.4 1.1 5.7 5.4 5.8 11.8 10.8 17.8 15.9 2.4 2 5.8 3.7 8.7 4.8.6-.3-2.4-3.1-2.7-3.5-5.2-5.1-10.8-9.8-16.1-14.8-2.8-2.4-5.5-6.6-8.8-8z"/><g><path fill="#ff984f" d="M348.8 51.3c-2.1-1.1-1.1-8.4-4-.4-1.4 3 3.4 6 5.4 8 9.3 7 23.8 14.8 24.6 14.2-1.3 0-20.3-15.2-26-21.8z"/><path fill="#623d28" d="M346.5 48.7c-.4 2.7 11.3 12.6 15.7 16.2 2.8 2.4 12.1 8.9 12.6 8.2l-12.3-9.6c-4.8-3.6-15.6-13-14.7-14.8-.1-.5.2-1.2-.2-1.7-1-.4-1.1 1-1 1.7z"/><path fill="url(#t)" d="M479.5 83.7c-2-1.1-1-8.1-4-.5-1.2 3 3.4 5.8 5.4 7.8 9 6.8 23 14.3 23.7 13.7a163 163 0 01-25-21z" transform="translate(-147.3 -35.3) scale(1.03453)"/></g><path fill="#f6f1da" d="M125.3 83.1c-8 .2-15.7 1.7-23.7 1.4-2.7 0-6.1 0-7.6 2.8-4.3 7.1-13 9.8-20.7 11.4-7.7 1.5-15.7.9-23.5.6-1.3.4.7 1.4 1.2 1.6 19 8.9 39 16.5 54.6 30.9 5 4.3 8.5 10 10.5 16.3 1.3 4.5 5.2 7.5 9.3 9.4 11.8 6 25.3 3.8 38 4.9 15.3 1.2 30.3 5.2 45.7 6 7 0 14.9-1 19.9-6.5a51.8 51.8 0 0011.3-30.7c.7-7.8-2.3-15.7-8.3-20.7a85 85 0 00-31.6-14.7 580.5 580.5 0 00-59.8-11.5c-5-.7-10.2-1.2-15.3-1.2z"/><g><path fill="#ff984f" d="M358 25.6c-1.3-1-8.5 15.1-11.5 23 3 3.3 6.2 7.4 8.3 9.5 9.3 7 11.8 13.8 27.2 18.7 15.6 3.4 15.7-5.5 13.8-6.8-7.8-9.2-7.7-8.2-15.7-17.2-4.3-6.1-9.4-18.6-14-24.5-1 6-1 3-8-2.7z"/><path fill="url(#u)" d="M501 35.8c-1.3-.9-8.4 14.7-11.2 22.3 2.8 3.2 6 7.1 8 9.1 9 6.9 11.4 13.4 26.3 18.1 15 3.3 15.2-5.3 13.3-6.5-7.5-8.9-7.5-8-15.2-16.7-4.1-6-9-18-13.4-23.7-1.1 6-1 3-7.9-2.6z" transform="translate(-160.2 -11.5) scale(1.03453)"/><path fill="#60200f" d="M365.4 43.4c-.5.9.5 2.1 1 2.6.7.8 2.6 2 3.1 1.8.7-.5.2-2 0-2.7a4 4 0 00-1-1.3c-.5-.4-1.1-.5-1.8-.6-.1 0-1 0-1.3.2z"/><path fill="#623d28" d="M346.5 48.7c-.4 2.7 11.3 12.6 15.7 16.2 2.8 2.4 5.3 5.3 8.5 7.3 4.6 2.9 13.4 5.2 11.3 4.6a41 41 0 01-12.4-7c-2.5-1.9-4.7-4.3-7.1-6.3-4.8-3.6-15.6-13-14.7-14.8-.1-.5.2-1.2-.2-1.7-1-.4-1.1 1-1 1.7z"/></g><path fill="url(#v)" d="M128.9 85.8c-7.7.1-15.2 1.6-23 1.3-2.5 0-5.9 0-7.3 2.7-4.2 7-12.5 9.4-20 11-7.5 1.5-15.1.9-22.7.6-1.3.4.6 1.4 1.1 1.6 18.3 8.5 37.8 15.9 52.8 29.8 4.8 4.2 8.2 9.8 10.2 15.8 1.3 4.3 5 7.2 9 9 11.3 6 24.5 3.8 36.7 4.8 14.8 1.2 29.3 5 44.1 5.9 6.9 0 14.4-1 19.3-6.4 7.2-8 10.1-19 11-29.7.6-7.4-2.3-15.1-8.1-20A82 82 0 00201.4 98c-19-5-38.4-8-57.7-11-5-.7-9.9-1.3-14.8-1.2z" transform="translate(-8 -5.6) scale(1.03453)"/><path fill="#f2f2f2" d="M285.1 27.2l-.7 1.2c2.6.8 6.3 1.8 13 3.5 7 1.7 20.5 4 28.7 4 8.2-.2 16.3-1.2 19.8-1.6 3.5-.4 3.9-2-.2-1.5-4 .5-14.2 1.7-23 1.4-8.8-.2-22.8-3.2-29.1-4.8l-8.5-2.2zM281.2 34.8l-.6 1.3a91 91 0 007.9 5.8 73.1 73.1 0 0016.9 7.3c6.5 2.1 16 5.4 21.3 7.5 5.2 2.1 8.4 3.7 10.4 4.3 2 .6 1.8-.4.4-1.2-1.4-.8-2.3-1.1-7-3.1s-14.8-5.7-21.7-7.9a94.6 94.6 0 01-18.4-7.4c-3.8-2.3-7-4.9-9.2-6.6z"/><g><path fill="#98d6d5" d="M344.5 31c-.4-.1-.5 0-.7 1.7-.2 1.8-.8 13.7-2.1 17.9-1.3 4.1-3 5.2-4.6 6.6-1.6 1.4-2.4 3-2.3 5 0 2 .4 2 2.9 4.6A75.4 75.4 0 00369 87c4.9 1.5 6.5 1.2 9.2 1 2.7-.4 4.4-1.9 6.3-3.4 1.9-1.5 3.4-2.1 6-3.4 2.6-1.3 5.5-6.3 6.7-8.3 1.1-2 .9-.9.6-2.9-.3-2 1.5-5 2-7s-.1-3.5-.3-5.4a76 76 0 01-.4-6c0-2-.4-4.2-2.1-5.7-1.7-1.6-1-1.3-6.2-3.3-5.2-2-17-5.2-24.8-7L344.5 31z"/><path fill="url(#w)" d="M630.3 314.2c-.6-.1-.6 0-1.2 1.7s-3.4 13.2-5.6 17.3c-2.2 4-4.4 5.2-6.6 6.6-2.1 1.4-3.4 3-3.6 4.9-.2 2 .1 2 2.6 4.4a77.8 77.8 0 0033.2 19c5.4 1.3 7.3.9 10.6.6 3.2-.4 5.5-1.9 8-3.4 2.4-1.4 4.3-2 7.6-3.4 3.3-1.3 7.6-6.3 9.3-8.2 1.7-2 1.2-.9 1.2-2.8 0-2 2.7-5 3.7-7 .9-1.9.4-3.3.6-5.1 0-1.8.2-3.9.5-5.8s.3-4-1.4-5.5-1-1.2-6.7-3a294 294 0 00-27.9-6.3l-24.3-4z" transform="matrix(.8555 .01864 .15533 1.03428 -243.5 -305.7)"/><path fill="url(#x)" d="M630.3 314.2c-.6-.1-.6 0-1.2 1.7s-3.4 13.2-5.6 17.3c-2.2 4-4.4 5.2-6.6 6.6-2.1 1.4-3.4 3-3.6 4.9-.2 2 .1 2 2.6 4.4a77.8 77.8 0 0033.2 19c5.4 1.3 7.3.9 10.6.6 3.2-.4 5.5-1.9 8-3.4 2.4-1.4 4.3-2 7.6-3.4 3.3-1.3 7.6-6.3 9.3-8.2 1.7-2 1.2-.9 1.2-2.8 0-2 2.7-5 3.7-7 .9-1.9.4-3.3.6-5.1 0-1.8.2-3.9.5-5.8s.3-4-1.4-5.5-1-1.2-6.7-3a294 294 0 00-27.9-6.3l-24.3-4z" transform="matrix(.8555 .01864 .15533 1.03428 -243.5 -305.7)"/><path fill="url(#y)" d="M625 184.8c-.5.2-.5.8-.5 1.3.1 1.3 1.3 2.4 2.2 3.3 3.3 3.3 7.7 5 12.2 6.2 5.4 1.3 11 2.3 16.5 3.1 1.7.3 3.5.8 5.2.6.5 0-.2-.4-.4-.5-6.5-1.5-13.1-2.4-19.4-4.7-4.7-1.7-9-4.3-13-7.4-1-.6-1.7-1.8-2.8-1.9 0 0 .3-.2 0 0z" transform="matrix(.8555 .01864 .15533 1.03428 -218.3 -138.5)"/><path fill="url(#z)" d="M630 179.5c-.4 0-.2.4 0 .6 2.5 1.8 5.2 3 8 4.3a78.5 78.5 0 0040.7 7.3c.3 0 0-.4-.2-.4-7.8-.8-15.6-1.6-23.2-3.6-7.8-2-15.2-5-22.8-7.5-.8-.3-1.6-.6-2.5-.7z" transform="matrix(.8555 .01864 .15533 1.03428 -218.3 -138.5)"/><path fill="url(#A)" d="M635.5 168.4c-.3 0-.3.3 0 .5 2.3 1 4.8 1.8 7.2 2.6 10 3.2 20.1 5.6 30 8.9 4.2 1.4 8.4 2.9 12.7 4 .8.2 1.7.4 2.6.4l.8-1.2c-2-1.8-4.3-2.7-6.6-3.5a334.2 334.2 0 00-43.7-11.3c-1-.2-2-.4-3-.4z" transform="matrix(.8555 .01864 .15533 1.03428 -218.3 -138.5)"/><path fill="url(#B)" d="M642.4 161h-.1c0 .4 0 .5.2.6l16.5 4c7.8 1.9 15.8 3.6 23.6 5.7 2.6.7 5 1.9 7.7 2.6v-.7-.1c-1.6-2-4-2.8-6.4-3.6-6-2-12.4-3.2-18.7-4.4-7.5-1.5-15-2.8-22.4-4l-.4-.1z" transform="matrix(.8555 .01864 .15533 1.03428 -218.3 -138.5)"/></g></svg>