<svg width="24" height="24" fill="#f00" version="1.1" viewBox="0 0 24 24" xmlns="http://www.w3.org/2000/svg">
 <path d="M20 0a4 4 0 0 1 4 4v16a4 4 0 0 1-4 4H4a4 4 0 0 1-4-4V4a4 4 0 0 1 4-4h16zm-7.7 7h-.6l-1.1.01c-1.48.03-3.7.1-4.46.29-.65.16-1.15.65-1.33 1.26-.18.64-.25 1.7-.29 2.46l-.02.82v.75c.03.76.1 2.09.31 2.85.18.61.68 1.1 1.33 1.26.74.19 2.87.26 4.34.29l1.41.01h1.16c1.45-.03 4-.09 4.81-.3a1.84 1.84 0 0 0 1.33-1.26c.2-.75.28-2.05.3-2.82v-.93c0-.67-.06-2.26-.3-3.13a1.84 1.84 0 0 0-1.33-1.26 25.9 25.9 0 0 0-3.88-.28L12.3 7zM10.46 9.9L14.39 12l-3.92 2.11V9.89z"/>
 <path d="m9.1952 16.942c-1.3744-0.048043-2.4085-0.12972-2.9035-0.22934-0.69694-0.14025-1.2568-0.6195-1.4498-1.2412-0.22044-0.70992-0.33228-2.0913-0.30777-3.8014 0.026197-1.8284 0.16376-2.9292 0.42946-3.4367 0.057826-0.11045 0.18586-0.27295 0.32958-0.4183 0.40272-0.40728 0.76457-0.53718 1.7478-0.62741 1.2744-0.11695 2.7272-0.16108 5.2916-0.16072 2.6948 3.796e-4 3.591 0.039277 4.9923 0.21668 0.7932 0.10042 1.0512 0.21135 1.4319 0.61572 0.33166 0.35222 0.46339 0.70874 0.57255 1.5496 0.11155 0.85926 0.13068 1.2425 0.13001 2.6053-6.79e-4 1.3998-0.03141 1.9349-0.15943 2.7759-0.11723 0.77011-0.22873 1.0288-0.60451 1.4024-0.37742 0.37526-0.67434 0.49735-1.4352 0.59012-0.48834 0.05955-1.5255 0.12455-2.5711 0.16114-0.9473 0.03315-4.5276 0.03197-5.494-0.0018zm3.2772-3.8868c1.0667-0.57253 1.9396-1.0475 1.9398-1.0554 2.02e-4 -8e-3 -0.48391-0.27143-1.0758-0.5855-0.59187-0.31408-1.477-0.78576-1.9669-1.0482s-0.89655-0.47715-0.90362-0.47715c-0.0071 0-0.01284 0.95083-0.01284 2.113 0 1.7823 0.0062 2.1115 0.03993 2.1036 0.02196-0.0051 0.91269-0.47778 1.9794-1.0503z" fill="#fff"/>
</svg>
